<?xml version="1.0" encoding="utf-8" standalone="no"?>
<!DOCTYPE svg PUBLIC "-//W3C//DTD SVG 1.1//EN"
  "http://www.w3.org/Graphics/SVG/1.1/DTD/svg11.dtd">
<svg xmlns:xlink="http://www.w3.org/1999/xlink" width="648pt" height="576pt" viewBox="0 0 648 576" xmlns="http://www.w3.org/2000/svg" version="1.1">
 <metadata>
  <rdf:RDF xmlns:dc="http://purl.org/dc/elements/1.1/" xmlns:cc="http://creativecommons.org/ns#" xmlns:rdf="http://www.w3.org/1999/02/22-rdf-syntax-ns#">
   <cc:Work>
    <dc:type rdf:resource="http://purl.org/dc/dcmitype/StillImage"/>
    <dc:date>2022-02-09T15:31:17.835564</dc:date>
    <dc:format>image/svg+xml</dc:format>
    <dc:creator>
     <cc:Agent>
      <dc:title>Matplotlib v3.5.1, https://matplotlib.org/</dc:title>
     </cc:Agent>
    </dc:creator>
   </cc:Work>
  </rdf:RDF>
 </metadata>
 <defs>
  <style type="text/css">*{stroke-linejoin: round; stroke-linecap: butt}</style>
 </defs>
 <g id="figure_1">
  <g id="patch_1">
   <path d="M 0 576 
L 648 576 
L 648 0 
L 0 0 
z
" style="fill: #ffffff"/>
  </g>
  <g id="axes_1">
   <g id="patch_2">
    <path d="M 97.986 414.330527 
L 588.484594 414.330527 
L 588.484594 41.736 
L 97.986 41.736 
z
" style="fill: #ffffff"/>
   </g>
   <g id="matplotlib.axis_1">
    <g id="xtick_1">
     <g id="text_1">
      <!-- basenji -->
      <g style="fill: #262626" transform="translate(90.998773 510.789193)rotate(-45)scale(0.2 -0.2)">
       <defs>
        <path id="DejaVuSans-62" d="M 3116 1747 
Q 3116 2381 2855 2742 
Q 2594 3103 2138 3103 
Q 1681 3103 1420 2742 
Q 1159 2381 1159 1747 
Q 1159 1113 1420 752 
Q 1681 391 2138 391 
Q 2594 391 2855 752 
Q 3116 1113 3116 1747 
z
M 1159 2969 
Q 1341 3281 1617 3432 
Q 1894 3584 2278 3584 
Q 2916 3584 3314 3078 
Q 3713 2572 3713 1747 
Q 3713 922 3314 415 
Q 2916 -91 2278 -91 
Q 1894 -91 1617 61 
Q 1341 213 1159 525 
L 1159 0 
L 581 0 
L 581 4863 
L 1159 4863 
L 1159 2969 
z
" transform="scale(0.015625)"/>
        <path id="DejaVuSans-61" d="M 2194 1759 
Q 1497 1759 1228 1600 
Q 959 1441 959 1056 
Q 959 750 1161 570 
Q 1363 391 1709 391 
Q 2188 391 2477 730 
Q 2766 1069 2766 1631 
L 2766 1759 
L 2194 1759 
z
M 3341 1997 
L 3341 0 
L 2766 0 
L 2766 531 
Q 2569 213 2275 61 
Q 1981 -91 1556 -91 
Q 1019 -91 701 211 
Q 384 513 384 1019 
Q 384 1609 779 1909 
Q 1175 2209 1959 2209 
L 2766 2209 
L 2766 2266 
Q 2766 2663 2505 2880 
Q 2244 3097 1772 3097 
Q 1472 3097 1187 3025 
Q 903 2953 641 2809 
L 641 3341 
Q 956 3463 1253 3523 
Q 1550 3584 1831 3584 
Q 2591 3584 2966 3190 
Q 3341 2797 3341 1997 
z
" transform="scale(0.015625)"/>
        <path id="DejaVuSans-73" d="M 2834 3397 
L 2834 2853 
Q 2591 2978 2328 3040 
Q 2066 3103 1784 3103 
Q 1356 3103 1142 2972 
Q 928 2841 928 2578 
Q 928 2378 1081 2264 
Q 1234 2150 1697 2047 
L 1894 2003 
Q 2506 1872 2764 1633 
Q 3022 1394 3022 966 
Q 3022 478 2636 193 
Q 2250 -91 1575 -91 
Q 1294 -91 989 -36 
Q 684 19 347 128 
L 347 722 
Q 666 556 975 473 
Q 1284 391 1588 391 
Q 1994 391 2212 530 
Q 2431 669 2431 922 
Q 2431 1156 2273 1281 
Q 2116 1406 1581 1522 
L 1381 1569 
Q 847 1681 609 1914 
Q 372 2147 372 2553 
Q 372 3047 722 3315 
Q 1072 3584 1716 3584 
Q 2034 3584 2315 3537 
Q 2597 3491 2834 3397 
z
" transform="scale(0.015625)"/>
        <path id="DejaVuSans-65" d="M 3597 1894 
L 3597 1613 
L 953 1613 
Q 991 1019 1311 708 
Q 1631 397 2203 397 
Q 2534 397 2845 478 
Q 3156 559 3463 722 
L 3463 178 
Q 3153 47 2828 -22 
Q 2503 -91 2169 -91 
Q 1331 -91 842 396 
Q 353 884 353 1716 
Q 353 2575 817 3079 
Q 1281 3584 2069 3584 
Q 2775 3584 3186 3129 
Q 3597 2675 3597 1894 
z
M 3022 2063 
Q 3016 2534 2758 2815 
Q 2500 3097 2075 3097 
Q 1594 3097 1305 2825 
Q 1016 2553 972 2059 
L 3022 2063 
z
" transform="scale(0.015625)"/>
        <path id="DejaVuSans-6e" d="M 3513 2113 
L 3513 0 
L 2938 0 
L 2938 2094 
Q 2938 2591 2744 2837 
Q 2550 3084 2163 3084 
Q 1697 3084 1428 2787 
Q 1159 2491 1159 1978 
L 1159 0 
L 581 0 
L 581 3500 
L 1159 3500 
L 1159 2956 
Q 1366 3272 1645 3428 
Q 1925 3584 2291 3584 
Q 2894 3584 3203 3211 
Q 3513 2838 3513 2113 
z
" transform="scale(0.015625)"/>
        <path id="DejaVuSans-6a" d="M 603 3500 
L 1178 3500 
L 1178 -63 
Q 1178 -731 923 -1031 
Q 669 -1331 103 -1331 
L -116 -1331 
L -116 -844 
L 38 -844 
Q 366 -844 484 -692 
Q 603 -541 603 -63 
L 603 3500 
z
M 603 4863 
L 1178 4863 
L 1178 4134 
L 603 4134 
L 603 4863 
z
" transform="scale(0.015625)"/>
        <path id="DejaVuSans-69" d="M 603 3500 
L 1178 3500 
L 1178 0 
L 603 0 
L 603 3500 
z
M 603 4863 
L 1178 4863 
L 1178 4134 
L 603 4134 
L 603 4863 
z
" transform="scale(0.015625)"/>
       </defs>
       <use xlink:href="#DejaVuSans-62"/>
       <use xlink:href="#DejaVuSans-61" x="63.476562"/>
       <use xlink:href="#DejaVuSans-73" x="124.755859"/>
       <use xlink:href="#DejaVuSans-65" x="176.855469"/>
       <use xlink:href="#DejaVuSans-6e" x="238.378906"/>
       <use xlink:href="#DejaVuSans-6a" x="301.757812"/>
       <use xlink:href="#DejaVuSans-69" x="329.541016"/>
      </g>
      <!-- peak centered -->
      <g style="fill: #262626" transform="translate(81.155847 552.304316)rotate(-45)scale(0.2 -0.2)">
       <defs>
        <path id="DejaVuSans-70" d="M 1159 525 
L 1159 -1331 
L 581 -1331 
L 581 3500 
L 1159 3500 
L 1159 2969 
Q 1341 3281 1617 3432 
Q 1894 3584 2278 3584 
Q 2916 3584 3314 3078 
Q 3713 2572 3713 1747 
Q 3713 922 3314 415 
Q 2916 -91 2278 -91 
Q 1894 -91 1617 61 
Q 1341 213 1159 525 
z
M 3116 1747 
Q 3116 2381 2855 2742 
Q 2594 3103 2138 3103 
Q 1681 3103 1420 2742 
Q 1159 2381 1159 1747 
Q 1159 1113 1420 752 
Q 1681 391 2138 391 
Q 2594 391 2855 752 
Q 3116 1113 3116 1747 
z
" transform="scale(0.015625)"/>
        <path id="DejaVuSans-6b" d="M 581 4863 
L 1159 4863 
L 1159 1991 
L 2875 3500 
L 3609 3500 
L 1753 1863 
L 3688 0 
L 2938 0 
L 1159 1709 
L 1159 0 
L 581 0 
L 581 4863 
z
" transform="scale(0.015625)"/>
        <path id="DejaVuSans-20" transform="scale(0.015625)"/>
        <path id="DejaVuSans-63" d="M 3122 3366 
L 3122 2828 
Q 2878 2963 2633 3030 
Q 2388 3097 2138 3097 
Q 1578 3097 1268 2742 
Q 959 2388 959 1747 
Q 959 1106 1268 751 
Q 1578 397 2138 397 
Q 2388 397 2633 464 
Q 2878 531 3122 666 
L 3122 134 
Q 2881 22 2623 -34 
Q 2366 -91 2075 -91 
Q 1284 -91 818 406 
Q 353 903 353 1747 
Q 353 2603 823 3093 
Q 1294 3584 2113 3584 
Q 2378 3584 2631 3529 
Q 2884 3475 3122 3366 
z
" transform="scale(0.015625)"/>
        <path id="DejaVuSans-74" d="M 1172 4494 
L 1172 3500 
L 2356 3500 
L 2356 3053 
L 1172 3053 
L 1172 1153 
Q 1172 725 1289 603 
Q 1406 481 1766 481 
L 2356 481 
L 2356 0 
L 1766 0 
Q 1100 0 847 248 
Q 594 497 594 1153 
L 594 3053 
L 172 3053 
L 172 3500 
L 594 3500 
L 594 4494 
L 1172 4494 
z
" transform="scale(0.015625)"/>
        <path id="DejaVuSans-72" d="M 2631 2963 
Q 2534 3019 2420 3045 
Q 2306 3072 2169 3072 
Q 1681 3072 1420 2755 
Q 1159 2438 1159 1844 
L 1159 0 
L 581 0 
L 581 3500 
L 1159 3500 
L 1159 2956 
Q 1341 3275 1631 3429 
Q 1922 3584 2338 3584 
Q 2397 3584 2469 3576 
Q 2541 3569 2628 3553 
L 2631 2963 
z
" transform="scale(0.015625)"/>
        <path id="DejaVuSans-64" d="M 2906 2969 
L 2906 4863 
L 3481 4863 
L 3481 0 
L 2906 0 
L 2906 525 
Q 2725 213 2448 61 
Q 2172 -91 1784 -91 
Q 1150 -91 751 415 
Q 353 922 353 1747 
Q 353 2572 751 3078 
Q 1150 3584 1784 3584 
Q 2172 3584 2448 3432 
Q 2725 3281 2906 2969 
z
M 947 1747 
Q 947 1113 1208 752 
Q 1469 391 1925 391 
Q 2381 391 2643 752 
Q 2906 1113 2906 1747 
Q 2906 2381 2643 2742 
Q 2381 3103 1925 3103 
Q 1469 3103 1208 2742 
Q 947 2381 947 1747 
z
" transform="scale(0.015625)"/>
       </defs>
       <use xlink:href="#DejaVuSans-70"/>
       <use xlink:href="#DejaVuSans-65" x="63.476562"/>
       <use xlink:href="#DejaVuSans-61" x="125"/>
       <use xlink:href="#DejaVuSans-6b" x="186.279297"/>
       <use xlink:href="#DejaVuSans-20" x="244.189453"/>
       <use xlink:href="#DejaVuSans-63" x="275.976562"/>
       <use xlink:href="#DejaVuSans-65" x="330.957031"/>
       <use xlink:href="#DejaVuSans-6e" x="392.480469"/>
       <use xlink:href="#DejaVuSans-74" x="455.859375"/>
       <use xlink:href="#DejaVuSans-65" x="495.068359"/>
       <use xlink:href="#DejaVuSans-72" x="556.591797"/>
       <use xlink:href="#DejaVuSans-65" x="595.455078"/>
       <use xlink:href="#DejaVuSans-64" x="656.978516"/>
      </g>
     </g>
    </g>
    <g id="xtick_2">
     <g id="text_2">
      <!-- basenji -->
      <g style="fill: #262626" transform="translate(239.634711 506.700127)rotate(-45)scale(0.2 -0.2)">
       <use xlink:href="#DejaVuSans-62"/>
       <use xlink:href="#DejaVuSans-61" x="63.476562"/>
       <use xlink:href="#DejaVuSans-73" x="124.755859"/>
       <use xlink:href="#DejaVuSans-65" x="176.855469"/>
       <use xlink:href="#DejaVuSans-6e" x="238.378906"/>
       <use xlink:href="#DejaVuSans-6a" x="301.757812"/>
       <use xlink:href="#DejaVuSans-69" x="329.541016"/>
      </g>
      <!-- random chop -->
      <g style="fill: #262626" transform="translate(233.88085 544.126184)rotate(-45)scale(0.2 -0.2)">
       <defs>
        <path id="DejaVuSans-6f" d="M 1959 3097 
Q 1497 3097 1228 2736 
Q 959 2375 959 1747 
Q 959 1119 1226 758 
Q 1494 397 1959 397 
Q 2419 397 2687 759 
Q 2956 1122 2956 1747 
Q 2956 2369 2687 2733 
Q 2419 3097 1959 3097 
z
M 1959 3584 
Q 2709 3584 3137 3096 
Q 3566 2609 3566 1747 
Q 3566 888 3137 398 
Q 2709 -91 1959 -91 
Q 1206 -91 779 398 
Q 353 888 353 1747 
Q 353 2609 779 3096 
Q 1206 3584 1959 3584 
z
" transform="scale(0.015625)"/>
        <path id="DejaVuSans-6d" d="M 3328 2828 
Q 3544 3216 3844 3400 
Q 4144 3584 4550 3584 
Q 5097 3584 5394 3201 
Q 5691 2819 5691 2113 
L 5691 0 
L 5113 0 
L 5113 2094 
Q 5113 2597 4934 2840 
Q 4756 3084 4391 3084 
Q 3944 3084 3684 2787 
Q 3425 2491 3425 1978 
L 3425 0 
L 2847 0 
L 2847 2094 
Q 2847 2600 2669 2842 
Q 2491 3084 2119 3084 
Q 1678 3084 1418 2786 
Q 1159 2488 1159 1978 
L 1159 0 
L 581 0 
L 581 3500 
L 1159 3500 
L 1159 2956 
Q 1356 3278 1631 3431 
Q 1906 3584 2284 3584 
Q 2666 3584 2933 3390 
Q 3200 3197 3328 2828 
z
" transform="scale(0.015625)"/>
        <path id="DejaVuSans-68" d="M 3513 2113 
L 3513 0 
L 2938 0 
L 2938 2094 
Q 2938 2591 2744 2837 
Q 2550 3084 2163 3084 
Q 1697 3084 1428 2787 
Q 1159 2491 1159 1978 
L 1159 0 
L 581 0 
L 581 4863 
L 1159 4863 
L 1159 2956 
Q 1366 3272 1645 3428 
Q 1925 3584 2291 3584 
Q 2894 3584 3203 3211 
Q 3513 2838 3513 2113 
z
" transform="scale(0.015625)"/>
       </defs>
       <use xlink:href="#DejaVuSans-72"/>
       <use xlink:href="#DejaVuSans-61" x="41.113281"/>
       <use xlink:href="#DejaVuSans-6e" x="102.392578"/>
       <use xlink:href="#DejaVuSans-64" x="165.771484"/>
       <use xlink:href="#DejaVuSans-6f" x="229.248047"/>
       <use xlink:href="#DejaVuSans-6d" x="290.429688"/>
       <use xlink:href="#DejaVuSans-20" x="387.841797"/>
       <use xlink:href="#DejaVuSans-63" x="419.628906"/>
       <use xlink:href="#DejaVuSans-68" x="474.609375"/>
       <use xlink:href="#DejaVuSans-6f" x="537.988281"/>
       <use xlink:href="#DejaVuSans-70" x="599.169922"/>
      </g>
     </g>
    </g>
    <g id="xtick_3">
     <g id="text_3">
      <!-- bpnet -->
      <g style="fill: #262626" transform="translate(392.955231 506.104611)rotate(-45)scale(0.2 -0.2)">
       <use xlink:href="#DejaVuSans-62"/>
       <use xlink:href="#DejaVuSans-70" x="63.476562"/>
       <use xlink:href="#DejaVuSans-6e" x="126.953125"/>
       <use xlink:href="#DejaVuSans-65" x="190.332031"/>
       <use xlink:href="#DejaVuSans-74" x="251.855469"/>
      </g>
      <!-- peak centered -->
      <g style="fill: #262626" transform="translate(378.427722 552.304316)rotate(-45)scale(0.2 -0.2)">
       <use xlink:href="#DejaVuSans-70"/>
       <use xlink:href="#DejaVuSans-65" x="63.476562"/>
       <use xlink:href="#DejaVuSans-61" x="125"/>
       <use xlink:href="#DejaVuSans-6b" x="186.279297"/>
       <use xlink:href="#DejaVuSans-20" x="244.189453"/>
       <use xlink:href="#DejaVuSans-63" x="275.976562"/>
       <use xlink:href="#DejaVuSans-65" x="330.957031"/>
       <use xlink:href="#DejaVuSans-6e" x="392.480469"/>
       <use xlink:href="#DejaVuSans-74" x="455.859375"/>
       <use xlink:href="#DejaVuSans-65" x="495.068359"/>
       <use xlink:href="#DejaVuSans-72" x="556.591797"/>
       <use xlink:href="#DejaVuSans-65" x="595.455078"/>
       <use xlink:href="#DejaVuSans-64" x="656.978516"/>
      </g>
     </g>
    </g>
    <g id="xtick_4">
     <g id="text_4">
      <!-- bpnet -->
      <g style="fill: #262626" transform="translate(541.591169 502.015545)rotate(-45)scale(0.2 -0.2)">
       <use xlink:href="#DejaVuSans-62"/>
       <use xlink:href="#DejaVuSans-70" x="63.476562"/>
       <use xlink:href="#DejaVuSans-6e" x="126.953125"/>
       <use xlink:href="#DejaVuSans-65" x="190.332031"/>
       <use xlink:href="#DejaVuSans-74" x="251.855469"/>
      </g>
      <!-- random chop -->
      <g style="fill: #262626" transform="translate(531.152726 544.126184)rotate(-45)scale(0.2 -0.2)">
       <use xlink:href="#DejaVuSans-72"/>
       <use xlink:href="#DejaVuSans-61" x="41.113281"/>
       <use xlink:href="#DejaVuSans-6e" x="102.392578"/>
       <use xlink:href="#DejaVuSans-64" x="165.771484"/>
       <use xlink:href="#DejaVuSans-6f" x="229.248047"/>
       <use xlink:href="#DejaVuSans-6d" x="290.429688"/>
       <use xlink:href="#DejaVuSans-20" x="387.841797"/>
       <use xlink:href="#DejaVuSans-63" x="419.628906"/>
       <use xlink:href="#DejaVuSans-68" x="474.609375"/>
       <use xlink:href="#DejaVuSans-6f" x="537.988281"/>
       <use xlink:href="#DejaVuSans-70" x="599.169922"/>
      </g>
     </g>
    </g>
   </g>
   <g id="matplotlib.axis_2">
    <g id="ytick_1">
     <g id="text_5">
      <!-- 0.45 -->
      <g style="fill: #262626" transform="translate(43.95475 350.0695)scale(0.2 -0.2)">
       <defs>
        <path id="DejaVuSans-30" d="M 2034 4250 
Q 1547 4250 1301 3770 
Q 1056 3291 1056 2328 
Q 1056 1369 1301 889 
Q 1547 409 2034 409 
Q 2525 409 2770 889 
Q 3016 1369 3016 2328 
Q 3016 3291 2770 3770 
Q 2525 4250 2034 4250 
z
M 2034 4750 
Q 2819 4750 3233 4129 
Q 3647 3509 3647 2328 
Q 3647 1150 3233 529 
Q 2819 -91 2034 -91 
Q 1250 -91 836 529 
Q 422 1150 422 2328 
Q 422 3509 836 4129 
Q 1250 4750 2034 4750 
z
" transform="scale(0.015625)"/>
        <path id="DejaVuSans-2e" d="M 684 794 
L 1344 794 
L 1344 0 
L 684 0 
L 684 794 
z
" transform="scale(0.015625)"/>
        <path id="DejaVuSans-34" d="M 2419 4116 
L 825 1625 
L 2419 1625 
L 2419 4116 
z
M 2253 4666 
L 3047 4666 
L 3047 1625 
L 3713 1625 
L 3713 1100 
L 3047 1100 
L 3047 0 
L 2419 0 
L 2419 1100 
L 313 1100 
L 313 1709 
L 2253 4666 
z
" transform="scale(0.015625)"/>
        <path id="DejaVuSans-35" d="M 691 4666 
L 3169 4666 
L 3169 4134 
L 1269 4134 
L 1269 2991 
Q 1406 3038 1543 3061 
Q 1681 3084 1819 3084 
Q 2600 3084 3056 2656 
Q 3513 2228 3513 1497 
Q 3513 744 3044 326 
Q 2575 -91 1722 -91 
Q 1428 -91 1123 -41 
Q 819 9 494 109 
L 494 744 
Q 775 591 1075 516 
Q 1375 441 1709 441 
Q 2250 441 2565 725 
Q 2881 1009 2881 1497 
Q 2881 1984 2565 2268 
Q 2250 2553 1709 2553 
Q 1456 2553 1204 2497 
Q 953 2441 691 2322 
L 691 4666 
z
" transform="scale(0.015625)"/>
       </defs>
       <use xlink:href="#DejaVuSans-30"/>
       <use xlink:href="#DejaVuSans-2e" x="63.623047"/>
       <use xlink:href="#DejaVuSans-34" x="95.410156"/>
       <use xlink:href="#DejaVuSans-35" x="159.033203"/>
      </g>
     </g>
    </g>
    <g id="ytick_2">
     <g id="text_6">
      <!-- 0.50 -->
      <g style="fill: #262626" transform="translate(43.95475 273.186222)scale(0.2 -0.2)">
       <use xlink:href="#DejaVuSans-30"/>
       <use xlink:href="#DejaVuSans-2e" x="63.623047"/>
       <use xlink:href="#DejaVuSans-35" x="95.410156"/>
       <use xlink:href="#DejaVuSans-30" x="159.033203"/>
      </g>
     </g>
    </g>
    <g id="ytick_3">
     <g id="text_7">
      <!-- 0.55 -->
      <g style="fill: #262626" transform="translate(43.95475 196.302944)scale(0.2 -0.2)">
       <use xlink:href="#DejaVuSans-30"/>
       <use xlink:href="#DejaVuSans-2e" x="63.623047"/>
       <use xlink:href="#DejaVuSans-35" x="95.410156"/>
       <use xlink:href="#DejaVuSans-35" x="159.033203"/>
      </g>
     </g>
    </g>
    <g id="ytick_4">
     <g id="text_8">
      <!-- 0.60 -->
      <g style="fill: #262626" transform="translate(43.95475 119.419666)scale(0.2 -0.2)">
       <defs>
        <path id="DejaVuSans-36" d="M 2113 2584 
Q 1688 2584 1439 2293 
Q 1191 2003 1191 1497 
Q 1191 994 1439 701 
Q 1688 409 2113 409 
Q 2538 409 2786 701 
Q 3034 994 3034 1497 
Q 3034 2003 2786 2293 
Q 2538 2584 2113 2584 
z
M 3366 4563 
L 3366 3988 
Q 3128 4100 2886 4159 
Q 2644 4219 2406 4219 
Q 1781 4219 1451 3797 
Q 1122 3375 1075 2522 
Q 1259 2794 1537 2939 
Q 1816 3084 2150 3084 
Q 2853 3084 3261 2657 
Q 3669 2231 3669 1497 
Q 3669 778 3244 343 
Q 2819 -91 2113 -91 
Q 1303 -91 875 529 
Q 447 1150 447 2328 
Q 447 3434 972 4092 
Q 1497 4750 2381 4750 
Q 2619 4750 2861 4703 
Q 3103 4656 3366 4563 
z
" transform="scale(0.015625)"/>
       </defs>
       <use xlink:href="#DejaVuSans-30"/>
       <use xlink:href="#DejaVuSans-2e" x="63.623047"/>
       <use xlink:href="#DejaVuSans-36" x="95.410156"/>
       <use xlink:href="#DejaVuSans-30" x="159.033203"/>
      </g>
     </g>
    </g>
    <g id="text_9">
     <!-- Pearson's R (whole) -->
     <g style="fill: #262626" transform="translate(35.96175 322.455264)rotate(-90)scale(0.192 -0.192)">
      <defs>
       <path id="DejaVuSans-50" d="M 1259 4147 
L 1259 2394 
L 2053 2394 
Q 2494 2394 2734 2622 
Q 2975 2850 2975 3272 
Q 2975 3691 2734 3919 
Q 2494 4147 2053 4147 
L 1259 4147 
z
M 628 4666 
L 2053 4666 
Q 2838 4666 3239 4311 
Q 3641 3956 3641 3272 
Q 3641 2581 3239 2228 
Q 2838 1875 2053 1875 
L 1259 1875 
L 1259 0 
L 628 0 
L 628 4666 
z
" transform="scale(0.015625)"/>
       <path id="DejaVuSans-27" d="M 1147 4666 
L 1147 2931 
L 616 2931 
L 616 4666 
L 1147 4666 
z
" transform="scale(0.015625)"/>
       <path id="DejaVuSans-52" d="M 2841 2188 
Q 3044 2119 3236 1894 
Q 3428 1669 3622 1275 
L 4263 0 
L 3584 0 
L 2988 1197 
Q 2756 1666 2539 1819 
Q 2322 1972 1947 1972 
L 1259 1972 
L 1259 0 
L 628 0 
L 628 4666 
L 2053 4666 
Q 2853 4666 3247 4331 
Q 3641 3997 3641 3322 
Q 3641 2881 3436 2590 
Q 3231 2300 2841 2188 
z
M 1259 4147 
L 1259 2491 
L 2053 2491 
Q 2509 2491 2742 2702 
Q 2975 2913 2975 3322 
Q 2975 3731 2742 3939 
Q 2509 4147 2053 4147 
L 1259 4147 
z
" transform="scale(0.015625)"/>
       <path id="DejaVuSans-28" d="M 1984 4856 
Q 1566 4138 1362 3434 
Q 1159 2731 1159 2009 
Q 1159 1288 1364 580 
Q 1569 -128 1984 -844 
L 1484 -844 
Q 1016 -109 783 600 
Q 550 1309 550 2009 
Q 550 2706 781 3412 
Q 1013 4119 1484 4856 
L 1984 4856 
z
" transform="scale(0.015625)"/>
       <path id="DejaVuSans-77" d="M 269 3500 
L 844 3500 
L 1563 769 
L 2278 3500 
L 2956 3500 
L 3675 769 
L 4391 3500 
L 4966 3500 
L 4050 0 
L 3372 0 
L 2619 2869 
L 1863 0 
L 1184 0 
L 269 3500 
z
" transform="scale(0.015625)"/>
       <path id="DejaVuSans-6c" d="M 603 4863 
L 1178 4863 
L 1178 0 
L 603 0 
L 603 4863 
z
" transform="scale(0.015625)"/>
       <path id="DejaVuSans-29" d="M 513 4856 
L 1013 4856 
Q 1481 4119 1714 3412 
Q 1947 2706 1947 2009 
Q 1947 1309 1714 600 
Q 1481 -109 1013 -844 
L 513 -844 
Q 928 -128 1133 580 
Q 1338 1288 1338 2009 
Q 1338 2731 1133 3434 
Q 928 4138 513 4856 
z
" transform="scale(0.015625)"/>
      </defs>
      <use xlink:href="#DejaVuSans-50"/>
      <use xlink:href="#DejaVuSans-65" x="56.677734"/>
      <use xlink:href="#DejaVuSans-61" x="118.201172"/>
      <use xlink:href="#DejaVuSans-72" x="179.480469"/>
      <use xlink:href="#DejaVuSans-73" x="220.59375"/>
      <use xlink:href="#DejaVuSans-6f" x="272.693359"/>
      <use xlink:href="#DejaVuSans-6e" x="333.875"/>
      <use xlink:href="#DejaVuSans-27" x="397.253906"/>
      <use xlink:href="#DejaVuSans-73" x="424.744141"/>
      <use xlink:href="#DejaVuSans-20" x="476.84375"/>
      <use xlink:href="#DejaVuSans-52" x="508.630859"/>
      <use xlink:href="#DejaVuSans-20" x="578.113281"/>
      <use xlink:href="#DejaVuSans-28" x="609.900391"/>
      <use xlink:href="#DejaVuSans-77" x="648.914062"/>
      <use xlink:href="#DejaVuSans-68" x="730.701172"/>
      <use xlink:href="#DejaVuSans-6f" x="794.080078"/>
      <use xlink:href="#DejaVuSans-6c" x="855.261719"/>
      <use xlink:href="#DejaVuSans-65" x="883.044922"/>
      <use xlink:href="#DejaVuSans-29" x="944.568359"/>
     </g>
    </g>
   </g>
   <g id="PathCollection_1">
    <path d="M 111.19844 136.285763 
L 129.364342 118.119861 
M 111.19844 118.119861 
L 129.364342 136.285763 
" clip-path="url(#pdd6df86e9c)" style="fill: #4c72b0; fill-opacity: 0.8; stroke: #4c72b0; stroke-opacity: 0.8; stroke-width: 1.453272"/>
    <path d="M 111.19844 291.153818 
L 129.364342 272.987915 
M 111.19844 272.987915 
L 129.364342 291.153818 
" clip-path="url(#pdd6df86e9c)" style="fill: #dd8452; fill-opacity: 0.8; stroke: #dd8452; stroke-opacity: 0.8; stroke-width: 1.453272"/>
    <path d="M 111.19844 140.83887 
L 129.364342 122.672968 
M 111.19844 122.672968 
L 129.364342 140.83887 
" clip-path="url(#pdd6df86e9c)" style="fill: #4c72b0; fill-opacity: 0.8; stroke: #4c72b0; stroke-opacity: 0.8; stroke-width: 1.453272"/>
    <path d="M 111.19844 171.622653 
L 129.364342 153.456751 
M 111.19844 153.456751 
L 129.364342 171.622653 
" clip-path="url(#pdd6df86e9c)" style="fill: #55a868; fill-opacity: 0.8; stroke: #55a868; stroke-opacity: 0.8; stroke-width: 1.453272"/>
    <path d="M 111.19844 292.294373 
L 129.364342 274.128471 
M 111.19844 274.128471 
L 129.364342 292.294373 
" clip-path="url(#pdd6df86e9c)" style="fill: #dd8452; fill-opacity: 0.8; stroke: #dd8452; stroke-opacity: 0.8; stroke-width: 1.453272"/>
    <path d="M 111.19844 179.850219 
L 129.364342 161.684317 
M 111.19844 161.684317 
L 129.364342 179.850219 
" clip-path="url(#pdd6df86e9c)" style="fill: #55a868; fill-opacity: 0.8; stroke: #55a868; stroke-opacity: 0.8; stroke-width: 1.453272"/>
    <path d="M 111.19844 177.892469 
L 129.364342 159.726567 
M 111.19844 159.726567 
L 129.364342 177.892469 
" clip-path="url(#pdd6df86e9c)" style="fill: #55a868; fill-opacity: 0.8; stroke: #55a868; stroke-opacity: 0.8; stroke-width: 1.453272"/>
    <path d="M 111.19844 405.589426 
L 129.364342 387.423523 
M 111.19844 387.423523 
L 129.364342 405.589426 
" clip-path="url(#pdd6df86e9c)" style="fill: #c44e52; fill-opacity: 0.8; stroke: #c44e52; stroke-opacity: 0.8; stroke-width: 1.453272"/>
    <path d="M 111.19844 398.765322 
L 129.364342 380.59942 
M 111.19844 380.59942 
L 129.364342 398.765322 
" clip-path="url(#pdd6df86e9c)" style="fill: #c44e52; fill-opacity: 0.8; stroke: #c44e52; stroke-opacity: 0.8; stroke-width: 1.453272"/>
    <path d="M 111.19844 138.05549 
L 129.364342 119.889588 
M 111.19844 119.889588 
L 129.364342 138.05549 
" clip-path="url(#pdd6df86e9c)" style="fill: #4c72b0; fill-opacity: 0.8; stroke: #4c72b0; stroke-opacity: 0.8; stroke-width: 1.453272"/>
    <path d="M 111.19844 406.477363 
L 129.364342 388.311461 
M 111.19844 388.311461 
L 129.364342 406.477363 
" clip-path="url(#pdd6df86e9c)" style="fill: #c44e52; fill-opacity: 0.8; stroke: #c44e52; stroke-opacity: 0.8; stroke-width: 1.453272"/>
    <path d="M 111.19844 299.83559 
L 129.364342 281.669688 
M 111.19844 281.669688 
L 129.364342 299.83559 
" clip-path="url(#pdd6df86e9c)" style="fill: #dd8452; fill-opacity: 0.8; stroke: #dd8452; stroke-opacity: 0.8; stroke-width: 1.453272"/>
    <path d="M 259.834377 68.746915 
L 278.000279 50.581013 
M 259.834377 50.581013 
L 278.000279 68.746915 
" clip-path="url(#pdd6df86e9c)" style="fill: #4c72b0; fill-opacity: 0.8; stroke: #4c72b0; stroke-opacity: 0.8; stroke-width: 1.453272"/>
    <path d="M 259.834377 68.199187 
L 278.000279 50.033285 
M 259.834377 50.033285 
L 278.000279 68.199187 
" clip-path="url(#pdd6df86e9c)" style="fill: #4c72b0; fill-opacity: 0.8; stroke: #4c72b0; stroke-opacity: 0.8; stroke-width: 1.453272"/>
    <path d="M 259.834377 102.334855 
L 278.000279 84.168953 
M 259.834377 84.168953 
L 278.000279 102.334855 
" clip-path="url(#pdd6df86e9c)" style="fill: #55a868; fill-opacity: 0.8; stroke: #55a868; stroke-opacity: 0.8; stroke-width: 1.453272"/>
    <path d="M 259.834377 104.725098 
L 278.000279 86.559195 
M 259.834377 86.559195 
L 278.000279 104.725098 
" clip-path="url(#pdd6df86e9c)" style="fill: #55a868; fill-opacity: 0.8; stroke: #55a868; stroke-opacity: 0.8; stroke-width: 1.453272"/>
    <path d="M 259.834377 105.444929 
L 278.000279 87.279027 
M 259.834377 87.279027 
L 278.000279 105.444929 
" clip-path="url(#pdd6df86e9c)" style="fill: #55a868; fill-opacity: 0.8; stroke: #55a868; stroke-opacity: 0.8; stroke-width: 1.453272"/>
    <path d="M 259.834377 67.755066 
L 278.000279 49.589164 
M 259.834377 49.589164 
L 278.000279 67.755066 
" clip-path="url(#pdd6df86e9c)" style="fill: #4c72b0; fill-opacity: 0.8; stroke: #4c72b0; stroke-opacity: 0.8; stroke-width: 1.453272"/>
    <path d="M 259.834377 141.03294 
L 278.000279 122.867037 
M 259.834377 122.867037 
L 278.000279 141.03294 
" clip-path="url(#pdd6df86e9c)" style="fill: #dd8452; fill-opacity: 0.8; stroke: #dd8452; stroke-opacity: 0.8; stroke-width: 1.453272"/>
    <path d="M 259.834377 144.657268 
L 278.000279 126.491366 
M 259.834377 126.491366 
L 278.000279 144.657268 
" clip-path="url(#pdd6df86e9c)" style="fill: #dd8452; fill-opacity: 0.8; stroke: #dd8452; stroke-opacity: 0.8; stroke-width: 1.453272"/>
    <path d="M 259.834377 229.370597 
L 278.000279 211.204695 
M 259.834377 211.204695 
L 278.000279 229.370597 
" clip-path="url(#pdd6df86e9c)" style="fill: #c44e52; fill-opacity: 0.8; stroke: #c44e52; stroke-opacity: 0.8; stroke-width: 1.453272"/>
    <path d="M 259.834377 221.498274 
L 278.000279 203.332372 
M 259.834377 203.332372 
L 278.000279 221.498274 
" clip-path="url(#pdd6df86e9c)" style="fill: #c44e52; fill-opacity: 0.8; stroke: #c44e52; stroke-opacity: 0.8; stroke-width: 1.453272"/>
    <path d="M 259.834377 228.997683 
L 278.000279 210.831781 
M 259.834377 210.831781 
L 278.000279 228.997683 
" clip-path="url(#pdd6df86e9c)" style="fill: #c44e52; fill-opacity: 0.8; stroke: #c44e52; stroke-opacity: 0.8; stroke-width: 1.453272"/>
    <path d="M 259.834377 138.055811 
L 278.000279 119.889909 
M 259.834377 119.889909 
L 278.000279 138.055811 
" clip-path="url(#pdd6df86e9c)" style="fill: #dd8452; fill-opacity: 0.8; stroke: #dd8452; stroke-opacity: 0.8; stroke-width: 1.453272"/>
    <path d="M 408.470315 189.194586 
L 426.636217 171.028684 
M 408.470315 171.028684 
L 426.636217 189.194586 
" clip-path="url(#pdd6df86e9c)" style="fill: #dd8452; fill-opacity: 0.8; stroke: #dd8452; stroke-opacity: 0.8; stroke-width: 1.453272"/>
    <path d="M 408.470315 140.343736 
L 426.636217 122.177833 
M 408.470315 122.177833 
L 426.636217 140.343736 
" clip-path="url(#pdd6df86e9c)" style="fill: #4c72b0; fill-opacity: 0.8; stroke: #4c72b0; stroke-opacity: 0.8; stroke-width: 1.453272"/>
    <path d="M 408.470315 129.697366 
L 426.636217 111.531464 
M 408.470315 111.531464 
L 426.636217 129.697366 
" clip-path="url(#pdd6df86e9c)" style="fill: #4c72b0; fill-opacity: 0.8; stroke: #4c72b0; stroke-opacity: 0.8; stroke-width: 1.453272"/>
    <path d="M 408.470315 274.494589 
L 426.636217 256.328687 
M 408.470315 256.328687 
L 426.636217 274.494589 
" clip-path="url(#pdd6df86e9c)" style="fill: #c44e52; fill-opacity: 0.8; stroke: #c44e52; stroke-opacity: 0.8; stroke-width: 1.453272"/>
    <path d="M 408.470315 137.891674 
L 426.636217 119.725771 
M 408.470315 119.725771 
L 426.636217 137.891674 
" clip-path="url(#pdd6df86e9c)" style="fill: #4c72b0; fill-opacity: 0.8; stroke: #4c72b0; stroke-opacity: 0.8; stroke-width: 1.453272"/>
    <path d="M 408.470315 217.680557 
L 426.636217 199.514655 
M 408.470315 199.514655 
L 426.636217 217.680557 
" clip-path="url(#pdd6df86e9c)" style="fill: #55a868; fill-opacity: 0.8; stroke: #55a868; stroke-opacity: 0.8; stroke-width: 1.453272"/>
    <path d="M 408.470315 273.614007 
L 426.636217 255.448105 
M 408.470315 255.448105 
L 426.636217 273.614007 
" clip-path="url(#pdd6df86e9c)" style="fill: #c44e52; fill-opacity: 0.8; stroke: #c44e52; stroke-opacity: 0.8; stroke-width: 1.453272"/>
    <path d="M 408.470315 209.423929 
L 426.636217 191.258027 
M 408.470315 191.258027 
L 426.636217 209.423929 
" clip-path="url(#pdd6df86e9c)" style="fill: #55a868; fill-opacity: 0.8; stroke: #55a868; stroke-opacity: 0.8; stroke-width: 1.453272"/>
    <path d="M 408.470315 207.239287 
L 426.636217 189.073385 
M 408.470315 189.073385 
L 426.636217 207.239287 
" clip-path="url(#pdd6df86e9c)" style="fill: #55a868; fill-opacity: 0.8; stroke: #55a868; stroke-opacity: 0.8; stroke-width: 1.453272"/>
    <path d="M 408.470315 189.399108 
L 426.636217 171.233206 
M 408.470315 171.233206 
L 426.636217 189.399108 
" clip-path="url(#pdd6df86e9c)" style="fill: #dd8452; fill-opacity: 0.8; stroke: #dd8452; stroke-opacity: 0.8; stroke-width: 1.453272"/>
    <path d="M 408.470315 183.426532 
L 426.636217 165.260629 
M 408.470315 165.260629 
L 426.636217 183.426532 
" clip-path="url(#pdd6df86e9c)" style="fill: #dd8452; fill-opacity: 0.8; stroke: #dd8452; stroke-opacity: 0.8; stroke-width: 1.453272"/>
    <path d="M 408.470315 265.540334 
L 426.636217 247.374431 
M 408.470315 247.374431 
L 426.636217 265.540334 
" clip-path="url(#pdd6df86e9c)" style="fill: #c44e52; fill-opacity: 0.8; stroke: #c44e52; stroke-opacity: 0.8; stroke-width: 1.453272"/>
    <path d="M 557.106253 73.345057 
L 575.272155 55.179155 
M 557.106253 55.179155 
L 575.272155 73.345057 
" clip-path="url(#pdd6df86e9c)" style="fill: #dd8452; fill-opacity: 0.8; stroke: #dd8452; stroke-opacity: 0.8; stroke-width: 1.453272"/>
    <path d="M 557.106253 98.370101 
L 575.272155 80.204199 
M 557.106253 80.204199 
L 575.272155 98.370101 
" clip-path="url(#pdd6df86e9c)" style="fill: #4c72b0; fill-opacity: 0.8; stroke: #4c72b0; stroke-opacity: 0.8; stroke-width: 1.453272"/>
    <path d="M 557.106253 70.749214 
L 575.272155 52.583312 
M 557.106253 52.583312 
L 575.272155 70.749214 
" clip-path="url(#pdd6df86e9c)" style="fill: #dd8452; fill-opacity: 0.8; stroke: #dd8452; stroke-opacity: 0.8; stroke-width: 1.453272"/>
    <path d="M 557.106253 76.566306 
L 575.272155 58.400404 
M 557.106253 58.400404 
L 575.272155 76.566306 
" clip-path="url(#pdd6df86e9c)" style="fill: #dd8452; fill-opacity: 0.8; stroke: #dd8452; stroke-opacity: 0.8; stroke-width: 1.453272"/>
    <path d="M 557.106253 168.740648 
L 575.272155 150.574746 
M 557.106253 150.574746 
L 575.272155 168.740648 
" clip-path="url(#pdd6df86e9c)" style="fill: #55a868; fill-opacity: 0.8; stroke: #55a868; stroke-opacity: 0.8; stroke-width: 1.453272"/>
    <path d="M 557.106253 174.039038 
L 575.272155 155.873136 
M 557.106253 155.873136 
L 575.272155 174.039038 
" clip-path="url(#pdd6df86e9c)" style="fill: #c44e52; fill-opacity: 0.8; stroke: #c44e52; stroke-opacity: 0.8; stroke-width: 1.453272"/>
    <path d="M 557.106253 86.101186 
L 575.272155 67.935284 
M 557.106253 67.935284 
L 575.272155 86.101186 
" clip-path="url(#pdd6df86e9c)" style="fill: #4c72b0; fill-opacity: 0.8; stroke: #4c72b0; stroke-opacity: 0.8; stroke-width: 1.453272"/>
    <path d="M 557.106253 178.038244 
L 575.272155 159.872342 
M 557.106253 159.872342 
L 575.272155 178.038244 
" clip-path="url(#pdd6df86e9c)" style="fill: #55a868; fill-opacity: 0.8; stroke: #55a868; stroke-opacity: 0.8; stroke-width: 1.453272"/>
    <path d="M 557.106253 172.802903 
L 575.272155 154.637001 
M 557.106253 154.637001 
L 575.272155 172.802903 
" clip-path="url(#pdd6df86e9c)" style="fill: #55a868; fill-opacity: 0.8; stroke: #55a868; stroke-opacity: 0.8; stroke-width: 1.453272"/>
    <path d="M 557.106253 174.688203 
L 575.272155 156.522301 
M 557.106253 156.522301 
L 575.272155 174.688203 
" clip-path="url(#pdd6df86e9c)" style="fill: #c44e52; fill-opacity: 0.8; stroke: #c44e52; stroke-opacity: 0.8; stroke-width: 1.453272"/>
    <path d="M 557.106253 76.555101 
L 575.272155 58.389199 
M 557.106253 58.389199 
L 575.272155 76.555101 
" clip-path="url(#pdd6df86e9c)" style="fill: #4c72b0; fill-opacity: 0.8; stroke: #4c72b0; stroke-opacity: 0.8; stroke-width: 1.453272"/>
    <path d="M 557.106253 168.014869 
L 575.272155 149.848967 
M 557.106253 149.848967 
L 575.272155 168.014869 
" clip-path="url(#pdd6df86e9c)" style="fill: #c44e52; fill-opacity: 0.8; stroke: #c44e52; stroke-opacity: 0.8; stroke-width: 1.453272"/>
   </g>
   <g id="PathCollection_2"/>
   <g id="PathCollection_3"/>
   <g id="PathCollection_4"/>
   <g id="PathCollection_5"/>
   <g id="patch_3">
    <path d="M 97.986 414.330527 
L 97.986 41.736 
" style="fill: none; stroke: #262626; stroke-width: 1.25; stroke-linejoin: miter; stroke-linecap: square"/>
   </g>
   <g id="patch_4">
    <path d="M 97.986 414.330527 
L 588.484594 414.330527 
" style="fill: none; stroke: #262626; stroke-width: 1.25; stroke-linejoin: miter; stroke-linecap: square"/>
   </g>
   <g id="text_10">
    <!-- Bin size = 128 -->
    <g style="fill: #262626" transform="translate(273.762797 35.736)scale(0.192 -0.192)">
     <defs>
      <path id="DejaVuSans-42" d="M 1259 2228 
L 1259 519 
L 2272 519 
Q 2781 519 3026 730 
Q 3272 941 3272 1375 
Q 3272 1813 3026 2020 
Q 2781 2228 2272 2228 
L 1259 2228 
z
M 1259 4147 
L 1259 2741 
L 2194 2741 
Q 2656 2741 2882 2914 
Q 3109 3088 3109 3444 
Q 3109 3797 2882 3972 
Q 2656 4147 2194 4147 
L 1259 4147 
z
M 628 4666 
L 2241 4666 
Q 2963 4666 3353 4366 
Q 3744 4066 3744 3513 
Q 3744 3084 3544 2831 
Q 3344 2578 2956 2516 
Q 3422 2416 3680 2098 
Q 3938 1781 3938 1306 
Q 3938 681 3513 340 
Q 3088 0 2303 0 
L 628 0 
L 628 4666 
z
" transform="scale(0.015625)"/>
      <path id="DejaVuSans-7a" d="M 353 3500 
L 3084 3500 
L 3084 2975 
L 922 459 
L 3084 459 
L 3084 0 
L 275 0 
L 275 525 
L 2438 3041 
L 353 3041 
L 353 3500 
z
" transform="scale(0.015625)"/>
      <path id="DejaVuSans-3d" d="M 678 2906 
L 4684 2906 
L 4684 2381 
L 678 2381 
L 678 2906 
z
M 678 1631 
L 4684 1631 
L 4684 1100 
L 678 1100 
L 678 1631 
z
" transform="scale(0.015625)"/>
      <path id="DejaVuSans-31" d="M 794 531 
L 1825 531 
L 1825 4091 
L 703 3866 
L 703 4441 
L 1819 4666 
L 2450 4666 
L 2450 531 
L 3481 531 
L 3481 0 
L 794 0 
L 794 531 
z
" transform="scale(0.015625)"/>
      <path id="DejaVuSans-32" d="M 1228 531 
L 3431 531 
L 3431 0 
L 469 0 
L 469 531 
Q 828 903 1448 1529 
Q 2069 2156 2228 2338 
Q 2531 2678 2651 2914 
Q 2772 3150 2772 3378 
Q 2772 3750 2511 3984 
Q 2250 4219 1831 4219 
Q 1534 4219 1204 4116 
Q 875 4013 500 3803 
L 500 4441 
Q 881 4594 1212 4672 
Q 1544 4750 1819 4750 
Q 2544 4750 2975 4387 
Q 3406 4025 3406 3419 
Q 3406 3131 3298 2873 
Q 3191 2616 2906 2266 
Q 2828 2175 2409 1742 
Q 1991 1309 1228 531 
z
" transform="scale(0.015625)"/>
      <path id="DejaVuSans-38" d="M 2034 2216 
Q 1584 2216 1326 1975 
Q 1069 1734 1069 1313 
Q 1069 891 1326 650 
Q 1584 409 2034 409 
Q 2484 409 2743 651 
Q 3003 894 3003 1313 
Q 3003 1734 2745 1975 
Q 2488 2216 2034 2216 
z
M 1403 2484 
Q 997 2584 770 2862 
Q 544 3141 544 3541 
Q 544 4100 942 4425 
Q 1341 4750 2034 4750 
Q 2731 4750 3128 4425 
Q 3525 4100 3525 3541 
Q 3525 3141 3298 2862 
Q 3072 2584 2669 2484 
Q 3125 2378 3379 2068 
Q 3634 1759 3634 1313 
Q 3634 634 3220 271 
Q 2806 -91 2034 -91 
Q 1263 -91 848 271 
Q 434 634 434 1313 
Q 434 1759 690 2068 
Q 947 2378 1403 2484 
z
M 1172 3481 
Q 1172 3119 1398 2916 
Q 1625 2713 2034 2713 
Q 2441 2713 2670 2916 
Q 2900 3119 2900 3481 
Q 2900 3844 2670 4047 
Q 2441 4250 2034 4250 
Q 1625 4250 1398 4047 
Q 1172 3844 1172 3481 
z
" transform="scale(0.015625)"/>
     </defs>
     <use xlink:href="#DejaVuSans-42"/>
     <use xlink:href="#DejaVuSans-69" x="68.603516"/>
     <use xlink:href="#DejaVuSans-6e" x="96.386719"/>
     <use xlink:href="#DejaVuSans-20" x="159.765625"/>
     <use xlink:href="#DejaVuSans-73" x="191.552734"/>
     <use xlink:href="#DejaVuSans-69" x="243.652344"/>
     <use xlink:href="#DejaVuSans-7a" x="271.435547"/>
     <use xlink:href="#DejaVuSans-65" x="323.925781"/>
     <use xlink:href="#DejaVuSans-20" x="385.449219"/>
     <use xlink:href="#DejaVuSans-3d" x="417.236328"/>
     <use xlink:href="#DejaVuSans-20" x="501.025391"/>
     <use xlink:href="#DejaVuSans-31" x="532.8125"/>
     <use xlink:href="#DejaVuSans-32" x="596.435547"/>
     <use xlink:href="#DejaVuSans-38" x="660.058594"/>
    </g>
   </g>
   <g id="legend_1">
    <g id="patch_5">
     <path d="M 430.266094 405.530527 
L 576.164594 405.530527 
Q 579.684594 405.530527 579.684594 402.010527 
L 579.684594 300.436527 
Q 579.684594 296.916527 576.164594 296.916527 
L 430.266094 296.916527 
Q 426.746094 296.916527 426.746094 300.436527 
L 426.746094 402.010527 
Q 426.746094 405.530527 430.266094 405.530527 
z
" style="fill: #ffffff; opacity: 0.8; stroke: #cccccc; stroke-linejoin: miter"/>
    </g>
    <g id="PathCollection_6">
     <defs>
      <path id="m4e648bdc5e" d="M 0 7.5 
C 1.989023 7.5 3.896849 6.709753 5.303301 5.303301 
C 6.709753 3.896849 7.5 1.989023 7.5 0 
C 7.5 -1.989023 6.709753 -3.896849 5.303301 -5.303301 
C 3.896849 -6.709753 1.989023 -7.5 0 -7.5 
C -1.989023 -7.5 -3.896849 -6.709753 -5.303301 -5.303301 
C -6.709753 -3.896849 -7.5 -1.989023 -7.5 0 
C -7.5 1.989023 -6.709753 3.896849 -5.303301 5.303301 
C -3.896849 6.709753 -1.989023 7.5 0 7.5 
z
" style="stroke: #4c72b0"/>
     </defs>
     <g>
      <use xlink:href="#m4e648bdc5e" x="451.386094" y="312.709777" style="fill: #4c72b0; stroke: #4c72b0"/>
     </g>
    </g>
    <g id="text_11">
     <!-- Shift + RC -->
     <g style="fill: #262626" transform="translate(483.066094 317.329777)scale(0.176 -0.176)">
      <defs>
       <path id="DejaVuSans-53" d="M 3425 4513 
L 3425 3897 
Q 3066 4069 2747 4153 
Q 2428 4238 2131 4238 
Q 1616 4238 1336 4038 
Q 1056 3838 1056 3469 
Q 1056 3159 1242 3001 
Q 1428 2844 1947 2747 
L 2328 2669 
Q 3034 2534 3370 2195 
Q 3706 1856 3706 1288 
Q 3706 609 3251 259 
Q 2797 -91 1919 -91 
Q 1588 -91 1214 -16 
Q 841 59 441 206 
L 441 856 
Q 825 641 1194 531 
Q 1563 422 1919 422 
Q 2459 422 2753 634 
Q 3047 847 3047 1241 
Q 3047 1584 2836 1778 
Q 2625 1972 2144 2069 
L 1759 2144 
Q 1053 2284 737 2584 
Q 422 2884 422 3419 
Q 422 4038 858 4394 
Q 1294 4750 2059 4750 
Q 2388 4750 2728 4690 
Q 3069 4631 3425 4513 
z
" transform="scale(0.015625)"/>
       <path id="DejaVuSans-66" d="M 2375 4863 
L 2375 4384 
L 1825 4384 
Q 1516 4384 1395 4259 
Q 1275 4134 1275 3809 
L 1275 3500 
L 2222 3500 
L 2222 3053 
L 1275 3053 
L 1275 0 
L 697 0 
L 697 3053 
L 147 3053 
L 147 3500 
L 697 3500 
L 697 3744 
Q 697 4328 969 4595 
Q 1241 4863 1831 4863 
L 2375 4863 
z
" transform="scale(0.015625)"/>
       <path id="DejaVuSans-2b" d="M 2944 4013 
L 2944 2272 
L 4684 2272 
L 4684 1741 
L 2944 1741 
L 2944 0 
L 2419 0 
L 2419 1741 
L 678 1741 
L 678 2272 
L 2419 2272 
L 2419 4013 
L 2944 4013 
z
" transform="scale(0.015625)"/>
       <path id="DejaVuSans-43" d="M 4122 4306 
L 4122 3641 
Q 3803 3938 3442 4084 
Q 3081 4231 2675 4231 
Q 1875 4231 1450 3742 
Q 1025 3253 1025 2328 
Q 1025 1406 1450 917 
Q 1875 428 2675 428 
Q 3081 428 3442 575 
Q 3803 722 4122 1019 
L 4122 359 
Q 3791 134 3420 21 
Q 3050 -91 2638 -91 
Q 1578 -91 968 557 
Q 359 1206 359 2328 
Q 359 3453 968 4101 
Q 1578 4750 2638 4750 
Q 3056 4750 3426 4639 
Q 3797 4528 4122 4306 
z
" transform="scale(0.015625)"/>
      </defs>
      <use xlink:href="#DejaVuSans-53"/>
      <use xlink:href="#DejaVuSans-68" x="63.476562"/>
      <use xlink:href="#DejaVuSans-69" x="126.855469"/>
      <use xlink:href="#DejaVuSans-66" x="154.638672"/>
      <use xlink:href="#DejaVuSans-74" x="188.09375"/>
      <use xlink:href="#DejaVuSans-20" x="227.302734"/>
      <use xlink:href="#DejaVuSans-2b" x="259.089844"/>
      <use xlink:href="#DejaVuSans-20" x="342.878906"/>
      <use xlink:href="#DejaVuSans-52" x="374.666016"/>
      <use xlink:href="#DejaVuSans-43" x="439.148438"/>
     </g>
    </g>
    <g id="PathCollection_7">
     <defs>
      <path id="ma526bb0be0" d="M 0 7.5 
C 1.989023 7.5 3.896849 6.709753 5.303301 5.303301 
C 6.709753 3.896849 7.5 1.989023 7.5 0 
C 7.5 -1.989023 6.709753 -3.896849 5.303301 -5.303301 
C 3.896849 -6.709753 1.989023 -7.5 0 -7.5 
C -1.989023 -7.5 -3.896849 -6.709753 -5.303301 -5.303301 
C -6.709753 -3.896849 -7.5 -1.989023 -7.5 0 
C -7.5 1.989023 -6.709753 3.896849 -5.303301 5.303301 
C -3.896849 6.709753 -1.989023 7.5 0 7.5 
z
" style="stroke: #dd8452"/>
     </defs>
     <g>
      <use xlink:href="#ma526bb0be0" x="451.386094" y="338.543277" style="fill: #dd8452; stroke: #dd8452"/>
     </g>
    </g>
    <g id="text_12">
     <!-- RC -->
     <g style="fill: #262626" transform="translate(483.066094 343.163277)scale(0.176 -0.176)">
      <use xlink:href="#DejaVuSans-52"/>
      <use xlink:href="#DejaVuSans-43" x="64.482422"/>
     </g>
    </g>
    <g id="PathCollection_8">
     <defs>
      <path id="m478a9ede29" d="M 0 7.5 
C 1.989023 7.5 3.896849 6.709753 5.303301 5.303301 
C 6.709753 3.896849 7.5 1.989023 7.5 0 
C 7.5 -1.989023 6.709753 -3.896849 5.303301 -5.303301 
C 3.896849 -6.709753 1.989023 -7.5 0 -7.5 
C -1.989023 -7.5 -3.896849 -6.709753 -5.303301 -5.303301 
C -6.709753 -3.896849 -7.5 -1.989023 -7.5 0 
C -7.5 1.989023 -6.709753 3.896849 -5.303301 5.303301 
C -3.896849 6.709753 -1.989023 7.5 0 7.5 
z
" style="stroke: #55a868"/>
     </defs>
     <g>
      <use xlink:href="#m478a9ede29" x="451.386094" y="364.376777" style="fill: #55a868; stroke: #55a868"/>
     </g>
    </g>
    <g id="text_13">
     <!-- Shift -->
     <g style="fill: #262626" transform="translate(483.066094 368.996777)scale(0.176 -0.176)">
      <use xlink:href="#DejaVuSans-53"/>
      <use xlink:href="#DejaVuSans-68" x="63.476562"/>
      <use xlink:href="#DejaVuSans-69" x="126.855469"/>
      <use xlink:href="#DejaVuSans-66" x="154.638672"/>
      <use xlink:href="#DejaVuSans-74" x="188.09375"/>
     </g>
    </g>
    <g id="PathCollection_9">
     <defs>
      <path id="mf092c189b3" d="M 0 7.5 
C 1.989023 7.5 3.896849 6.709753 5.303301 5.303301 
C 6.709753 3.896849 7.5 1.989023 7.5 0 
C 7.5 -1.989023 6.709753 -3.896849 5.303301 -5.303301 
C 3.896849 -6.709753 1.989023 -7.5 0 -7.5 
C -1.989023 -7.5 -3.896849 -6.709753 -5.303301 -5.303301 
C -6.709753 -3.896849 -7.5 -1.989023 -7.5 0 
C -7.5 1.989023 -6.709753 3.896849 -5.303301 5.303301 
C -3.896849 6.709753 -1.989023 7.5 0 7.5 
z
" style="stroke: #c44e52"/>
     </defs>
     <g>
      <use xlink:href="#mf092c189b3" x="451.386094" y="390.210277" style="fill: #c44e52; stroke: #c44e52"/>
     </g>
    </g>
    <g id="text_14">
     <!-- None -->
     <g style="fill: #262626" transform="translate(483.066094 394.830277)scale(0.176 -0.176)">
      <defs>
       <path id="DejaVuSans-4e" d="M 628 4666 
L 1478 4666 
L 3547 763 
L 3547 4666 
L 4159 4666 
L 4159 0 
L 3309 0 
L 1241 3903 
L 1241 0 
L 628 0 
L 628 4666 
z
" transform="scale(0.015625)"/>
      </defs>
      <use xlink:href="#DejaVuSans-4e"/>
      <use xlink:href="#DejaVuSans-6f" x="74.804688"/>
      <use xlink:href="#DejaVuSans-6e" x="135.986328"/>
      <use xlink:href="#DejaVuSans-65" x="199.365234"/>
     </g>
    </g>
   </g>
  </g>
 </g>
 <defs>
  <clipPath id="pdd6df86e9c">
   <rect x="97.986" y="41.736" width="490.498594" height="372.594527"/>
  </clipPath>
 </defs>
</svg>
