<?xml version="1.0" encoding="utf-8" standalone="no"?>
<!DOCTYPE svg PUBLIC "-//W3C//DTD SVG 1.1//EN"
  "http://www.w3.org/Graphics/SVG/1.1/DTD/svg11.dtd">
<!-- Created with matplotlib (https://matplotlib.org/) -->
<svg height="432pt" version="1.1" viewBox="0 0 1166.4 432" width="1166.4pt" xmlns="http://www.w3.org/2000/svg" xmlns:xlink="http://www.w3.org/1999/xlink">
 <metadata>
  <rdf:RDF xmlns:cc="http://creativecommons.org/ns#" xmlns:dc="http://purl.org/dc/elements/1.1/" xmlns:rdf="http://www.w3.org/1999/02/22-rdf-syntax-ns#">
   <cc:Work>
    <dc:type rdf:resource="http://purl.org/dc/dcmitype/StillImage"/>
    <dc:date>2022-01-17T14:40:54.596701</dc:date>
    <dc:format>image/svg+xml</dc:format>
    <dc:creator>
     <cc:Agent>
      <dc:title>Matplotlib v3.3.0, https://matplotlib.org/</dc:title>
     </cc:Agent>
    </dc:creator>
   </cc:Work>
  </rdf:RDF>
 </metadata>
 <defs>
  <style type="text/css">*{stroke-linecap:butt;stroke-linejoin:round;}</style>
 </defs>
 <g id="figure_1">
  <g id="patch_1">
   <path d="M 0 432 
L 1166.4 432 
L 1166.4 0 
L 0 0 
z
" style="fill:none;"/>
  </g>
  <g id="axes_1">
   <g id="patch_2">
    <path d="M 42.05 392.6 
L 403.7 392.6 
L 403.7 24.8 
L 42.05 24.8 
z
" style="fill:#ffffff;"/>
   </g>
   <g id="patch_3">
    <path clip-path="url(#pa38c1f91be)" d="M 51.09125 330.18349 
L 123.42125 330.18349 
L 123.42125 299.255346 
L 51.09125 299.255346 
L 51.09125 330.18349 
z
" style="fill:#3274a1;stroke:#3d3d3d;stroke-linejoin:miter;stroke-width:1.5;"/>
   </g>
   <g id="patch_4">
    <path clip-path="url(#pa38c1f91be)" d="M 141.50375 336.188904 
L 213.83375 336.188904 
L 213.83375 335.649339 
L 141.50375 335.649339 
L 141.50375 336.188904 
z
" style="fill:#e1812c;stroke:#3d3d3d;stroke-linejoin:miter;stroke-width:1.5;"/>
   </g>
   <g id="patch_5">
    <path clip-path="url(#pa38c1f91be)" d="M 231.91625 316.062507 
L 304.24625 316.062507 
L 304.24625 242.350194 
L 231.91625 242.350194 
L 231.91625 316.062507 
z
" style="fill:#3a923a;stroke:#3d3d3d;stroke-linejoin:miter;stroke-width:1.5;"/>
   </g>
   <g id="patch_6">
    <path clip-path="url(#pa38c1f91be)" d="M 322.32875 330.170155 
L 394.65875 330.170155 
L 394.65875 299.012574 
L 322.32875 299.012574 
L 322.32875 330.170155 
z
" style="fill:#c03d3e;stroke:#3d3d3d;stroke-linejoin:miter;stroke-width:1.5;"/>
   </g>
   <g id="matplotlib.axis_1">
    <g id="xtick_1">
     <g id="line2d_1">
      <defs>
       <path d="M 0 0 
L 0 3.5 
" id="mcf23585287" style="stroke:#000000;stroke-width:0.8;"/>
      </defs>
      <g>
       <use style="stroke:#000000;stroke-width:0.8;" x="87.25625" xlink:href="#mcf23585287" y="392.6"/>
      </g>
     </g>
     <g id="text_1">
      <!-- AP-1 1024 -->
      <g transform="translate(61.634375 407.198438)scale(0.1 -0.1)">
       <defs>
        <path d="M 34.1875 63.1875 
L 20.796875 26.90625 
L 47.609375 26.90625 
z
M 28.609375 72.90625 
L 39.796875 72.90625 
L 67.578125 0 
L 57.328125 0 
L 50.6875 18.703125 
L 17.828125 18.703125 
L 11.1875 0 
L 0.78125 0 
z
" id="DejaVuSans-65"/>
        <path d="M 19.671875 64.796875 
L 19.671875 37.40625 
L 32.078125 37.40625 
Q 38.96875 37.40625 42.71875 40.96875 
Q 46.484375 44.53125 46.484375 51.125 
Q 46.484375 57.671875 42.71875 61.234375 
Q 38.96875 64.796875 32.078125 64.796875 
z
M 9.8125 72.90625 
L 32.078125 72.90625 
Q 44.34375 72.90625 50.609375 67.359375 
Q 56.890625 61.8125 56.890625 51.125 
Q 56.890625 40.328125 50.609375 34.8125 
Q 44.34375 29.296875 32.078125 29.296875 
L 19.671875 29.296875 
L 19.671875 0 
L 9.8125 0 
z
" id="DejaVuSans-80"/>
        <path d="M 4.890625 31.390625 
L 31.203125 31.390625 
L 31.203125 23.390625 
L 4.890625 23.390625 
z
" id="DejaVuSans-45"/>
        <path d="M 12.40625 8.296875 
L 28.515625 8.296875 
L 28.515625 63.921875 
L 10.984375 60.40625 
L 10.984375 69.390625 
L 28.421875 72.90625 
L 38.28125 72.90625 
L 38.28125 8.296875 
L 54.390625 8.296875 
L 54.390625 0 
L 12.40625 0 
z
" id="DejaVuSans-49"/>
        <path id="DejaVuSans-32"/>
        <path d="M 31.78125 66.40625 
Q 24.171875 66.40625 20.328125 58.90625 
Q 16.5 51.421875 16.5 36.375 
Q 16.5 21.390625 20.328125 13.890625 
Q 24.171875 6.390625 31.78125 6.390625 
Q 39.453125 6.390625 43.28125 13.890625 
Q 47.125 21.390625 47.125 36.375 
Q 47.125 51.421875 43.28125 58.90625 
Q 39.453125 66.40625 31.78125 66.40625 
z
M 31.78125 74.21875 
Q 44.046875 74.21875 50.515625 64.515625 
Q 56.984375 54.828125 56.984375 36.375 
Q 56.984375 17.96875 50.515625 8.265625 
Q 44.046875 -1.421875 31.78125 -1.421875 
Q 19.53125 -1.421875 13.0625 8.265625 
Q 6.59375 17.96875 6.59375 36.375 
Q 6.59375 54.828125 13.0625 64.515625 
Q 19.53125 74.21875 31.78125 74.21875 
z
" id="DejaVuSans-48"/>
        <path d="M 19.1875 8.296875 
L 53.609375 8.296875 
L 53.609375 0 
L 7.328125 0 
L 7.328125 8.296875 
Q 12.9375 14.109375 22.625 23.890625 
Q 32.328125 33.6875 34.8125 36.53125 
Q 39.546875 41.84375 41.421875 45.53125 
Q 43.3125 49.21875 43.3125 52.78125 
Q 43.3125 58.59375 39.234375 62.25 
Q 35.15625 65.921875 28.609375 65.921875 
Q 23.96875 65.921875 18.8125 64.3125 
Q 13.671875 62.703125 7.8125 59.421875 
L 7.8125 69.390625 
Q 13.765625 71.78125 18.9375 73 
Q 24.125 74.21875 28.421875 74.21875 
Q 39.75 74.21875 46.484375 68.546875 
Q 53.21875 62.890625 53.21875 53.421875 
Q 53.21875 48.921875 51.53125 44.890625 
Q 49.859375 40.875 45.40625 35.40625 
Q 44.1875 33.984375 37.640625 27.21875 
Q 31.109375 20.453125 19.1875 8.296875 
z
" id="DejaVuSans-50"/>
        <path d="M 37.796875 64.3125 
L 12.890625 25.390625 
L 37.796875 25.390625 
z
M 35.203125 72.90625 
L 47.609375 72.90625 
L 47.609375 25.390625 
L 58.015625 25.390625 
L 58.015625 17.1875 
L 47.609375 17.1875 
L 47.609375 0 
L 37.796875 0 
L 37.796875 17.1875 
L 4.890625 17.1875 
L 4.890625 26.703125 
z
" id="DejaVuSans-52"/>
       </defs>
       <use xlink:href="#DejaVuSans-65"/>
       <use x="68.408203" xlink:href="#DejaVuSans-80"/>
       <use x="126.460938" xlink:href="#DejaVuSans-45"/>
       <use x="162.544922" xlink:href="#DejaVuSans-49"/>
       <use x="226.167969" xlink:href="#DejaVuSans-32"/>
       <use x="257.955078" xlink:href="#DejaVuSans-49"/>
       <use x="321.578125" xlink:href="#DejaVuSans-48"/>
       <use x="385.201172" xlink:href="#DejaVuSans-50"/>
       <use x="448.824219" xlink:href="#DejaVuSans-52"/>
      </g>
     </g>
    </g>
    <g id="xtick_2">
     <g id="line2d_2">
      <g>
       <use style="stroke:#000000;stroke-width:0.8;" x="177.66875" xlink:href="#mcf23585287" y="392.6"/>
      </g>
     </g>
     <g id="text_2">
      <!-- GATA 1034 -->
      <g transform="translate(150.360937 407.198438)scale(0.1 -0.1)">
       <defs>
        <path d="M 59.515625 10.40625 
L 59.515625 29.984375 
L 43.40625 29.984375 
L 43.40625 38.09375 
L 69.28125 38.09375 
L 69.28125 6.78125 
Q 63.578125 2.734375 56.6875 0.65625 
Q 49.8125 -1.421875 42 -1.421875 
Q 24.90625 -1.421875 15.25 8.5625 
Q 5.609375 18.5625 5.609375 36.375 
Q 5.609375 54.25 15.25 64.234375 
Q 24.90625 74.21875 42 74.21875 
Q 49.125 74.21875 55.546875 72.453125 
Q 61.96875 70.703125 67.390625 67.28125 
L 67.390625 56.78125 
Q 61.921875 61.421875 55.765625 63.765625 
Q 49.609375 66.109375 42.828125 66.109375 
Q 29.4375 66.109375 22.71875 58.640625 
Q 16.015625 51.171875 16.015625 36.375 
Q 16.015625 21.625 22.71875 14.15625 
Q 29.4375 6.6875 42.828125 6.6875 
Q 48.046875 6.6875 52.140625 7.59375 
Q 56.25 8.5 59.515625 10.40625 
z
" id="DejaVuSans-71"/>
        <path d="M -0.296875 72.90625 
L 61.375 72.90625 
L 61.375 64.59375 
L 35.5 64.59375 
L 35.5 0 
L 25.59375 0 
L 25.59375 64.59375 
L -0.296875 64.59375 
z
" id="DejaVuSans-84"/>
        <path d="M 40.578125 39.3125 
Q 47.65625 37.796875 51.625 33 
Q 55.609375 28.21875 55.609375 21.1875 
Q 55.609375 10.40625 48.1875 4.484375 
Q 40.765625 -1.421875 27.09375 -1.421875 
Q 22.515625 -1.421875 17.65625 -0.515625 
Q 12.796875 0.390625 7.625 2.203125 
L 7.625 11.71875 
Q 11.71875 9.328125 16.59375 8.109375 
Q 21.484375 6.890625 26.8125 6.890625 
Q 36.078125 6.890625 40.9375 10.546875 
Q 45.796875 14.203125 45.796875 21.1875 
Q 45.796875 27.640625 41.28125 31.265625 
Q 36.765625 34.90625 28.71875 34.90625 
L 20.21875 34.90625 
L 20.21875 43.015625 
L 29.109375 43.015625 
Q 36.375 43.015625 40.234375 45.921875 
Q 44.09375 48.828125 44.09375 54.296875 
Q 44.09375 59.90625 40.109375 62.90625 
Q 36.140625 65.921875 28.71875 65.921875 
Q 24.65625 65.921875 20.015625 65.03125 
Q 15.375 64.15625 9.8125 62.3125 
L 9.8125 71.09375 
Q 15.4375 72.65625 20.34375 73.4375 
Q 25.25 74.21875 29.59375 74.21875 
Q 40.828125 74.21875 47.359375 69.109375 
Q 53.90625 64.015625 53.90625 55.328125 
Q 53.90625 49.265625 50.4375 45.09375 
Q 46.96875 40.921875 40.578125 39.3125 
z
" id="DejaVuSans-51"/>
       </defs>
       <use xlink:href="#DejaVuSans-71"/>
       <use x="77.490234" xlink:href="#DejaVuSans-65"/>
       <use x="138.148438" xlink:href="#DejaVuSans-84"/>
       <use x="191.482422" xlink:href="#DejaVuSans-65"/>
       <use x="259.890625" xlink:href="#DejaVuSans-32"/>
       <use x="291.677734" xlink:href="#DejaVuSans-49"/>
       <use x="355.300781" xlink:href="#DejaVuSans-48"/>
       <use x="418.923828" xlink:href="#DejaVuSans-51"/>
       <use x="482.546875" xlink:href="#DejaVuSans-52"/>
      </g>
     </g>
    </g>
    <g id="xtick_3">
     <g id="line2d_3">
      <g>
       <use style="stroke:#000000;stroke-width:0.8;" x="268.08125" xlink:href="#mcf23585287" y="392.6"/>
      </g>
     </g>
     <g id="text_3">
      <!-- AP-1 1024 &amp; -->
      <g transform="translate(236.971094 407.198438)scale(0.1 -0.1)">
       <defs>
        <path d="M 24.3125 39.203125 
Q 19.875 35.25 17.796875 31.3125 
Q 15.71875 27.390625 15.71875 23.09375 
Q 15.71875 15.96875 20.890625 11.234375 
Q 26.078125 6.5 33.890625 6.5 
Q 38.53125 6.5 42.578125 8.03125 
Q 46.625 9.578125 50.203125 12.703125 
z
M 31.203125 44.671875 
L 56 19.28125 
Q 58.890625 23.640625 60.5 28.59375 
Q 62.109375 33.546875 62.40625 39.109375 
L 71.484375 39.109375 
Q 70.90625 32.671875 68.359375 26.359375 
Q 65.828125 20.0625 61.28125 13.921875 
L 74.90625 0 
L 62.59375 0 
L 55.609375 7.171875 
Q 50.53125 2.828125 44.96875 0.703125 
Q 39.40625 -1.421875 33.015625 -1.421875 
Q 21.234375 -1.421875 13.765625 5.296875 
Q 6.296875 12.015625 6.296875 22.515625 
Q 6.296875 28.765625 9.5625 34.25 
Q 12.84375 39.75 19.390625 44.578125 
Q 17.046875 47.65625 15.8125 50.703125 
Q 14.59375 53.765625 14.59375 56.6875 
Q 14.59375 64.59375 20.015625 69.40625 
Q 25.4375 74.21875 34.421875 74.21875 
Q 38.484375 74.21875 42.5 73.34375 
Q 46.53125 72.46875 50.6875 70.703125 
L 50.6875 61.8125 
Q 46.4375 64.109375 42.578125 65.296875 
Q 38.71875 66.5 35.40625 66.5 
Q 30.28125 66.5 27.078125 63.78125 
Q 23.875 61.078125 23.875 56.78125 
Q 23.875 54.296875 25.3125 51.78125 
Q 26.765625 49.265625 31.203125 44.671875 
z
" id="DejaVuSans-38"/>
       </defs>
       <use xlink:href="#DejaVuSans-65"/>
       <use x="68.408203" xlink:href="#DejaVuSans-80"/>
       <use x="126.460938" xlink:href="#DejaVuSans-45"/>
       <use x="162.544922" xlink:href="#DejaVuSans-49"/>
       <use x="226.167969" xlink:href="#DejaVuSans-32"/>
       <use x="257.955078" xlink:href="#DejaVuSans-49"/>
       <use x="321.578125" xlink:href="#DejaVuSans-48"/>
       <use x="385.201172" xlink:href="#DejaVuSans-50"/>
       <use x="448.824219" xlink:href="#DejaVuSans-52"/>
       <use x="512.447266" xlink:href="#DejaVuSans-32"/>
       <use x="544.234375" xlink:href="#DejaVuSans-38"/>
      </g>
      <!-- GATA 1034 -->
      <g transform="translate(240.773437 418.39625)scale(0.1 -0.1)">
       <use xlink:href="#DejaVuSans-71"/>
       <use x="77.490234" xlink:href="#DejaVuSans-65"/>
       <use x="138.148438" xlink:href="#DejaVuSans-84"/>
       <use x="191.482422" xlink:href="#DejaVuSans-65"/>
       <use x="259.890625" xlink:href="#DejaVuSans-32"/>
       <use x="291.677734" xlink:href="#DejaVuSans-49"/>
       <use x="355.300781" xlink:href="#DejaVuSans-48"/>
       <use x="418.923828" xlink:href="#DejaVuSans-51"/>
       <use x="482.546875" xlink:href="#DejaVuSans-52"/>
      </g>
     </g>
    </g>
    <g id="xtick_4">
     <g id="line2d_4">
      <g>
       <use style="stroke:#000000;stroke-width:0.8;" x="358.49375" xlink:href="#mcf23585287" y="392.6"/>
      </g>
     </g>
     <g id="text_4">
      <!-- sum -->
      <g transform="translate(347.85 407.198438)scale(0.1 -0.1)">
       <defs>
        <path d="M 44.28125 53.078125 
L 44.28125 44.578125 
Q 40.484375 46.53125 36.375 47.5 
Q 32.28125 48.484375 27.875 48.484375 
Q 21.1875 48.484375 17.84375 46.4375 
Q 14.5 44.390625 14.5 40.28125 
Q 14.5 37.15625 16.890625 35.375 
Q 19.28125 33.59375 26.515625 31.984375 
L 29.59375 31.296875 
Q 39.15625 29.25 43.1875 25.515625 
Q 47.21875 21.78125 47.21875 15.09375 
Q 47.21875 7.46875 41.1875 3.015625 
Q 35.15625 -1.421875 24.609375 -1.421875 
Q 20.21875 -1.421875 15.453125 -0.5625 
Q 10.6875 0.296875 5.421875 2 
L 5.421875 11.28125 
Q 10.40625 8.6875 15.234375 7.390625 
Q 20.0625 6.109375 24.8125 6.109375 
Q 31.15625 6.109375 34.5625 8.28125 
Q 37.984375 10.453125 37.984375 14.40625 
Q 37.984375 18.0625 35.515625 20.015625 
Q 33.0625 21.96875 24.703125 23.78125 
L 21.578125 24.515625 
Q 13.234375 26.265625 9.515625 29.90625 
Q 5.8125 33.546875 5.8125 39.890625 
Q 5.8125 47.609375 11.28125 51.796875 
Q 16.75 56 26.8125 56 
Q 31.78125 56 36.171875 55.265625 
Q 40.578125 54.546875 44.28125 53.078125 
z
" id="DejaVuSans-115"/>
        <path d="M 8.5 21.578125 
L 8.5 54.6875 
L 17.484375 54.6875 
L 17.484375 21.921875 
Q 17.484375 14.15625 20.5 10.265625 
Q 23.53125 6.390625 29.59375 6.390625 
Q 36.859375 6.390625 41.078125 11.03125 
Q 45.3125 15.671875 45.3125 23.6875 
L 45.3125 54.6875 
L 54.296875 54.6875 
L 54.296875 0 
L 45.3125 0 
L 45.3125 8.40625 
Q 42.046875 3.421875 37.71875 1 
Q 33.40625 -1.421875 27.6875 -1.421875 
Q 18.265625 -1.421875 13.375 4.4375 
Q 8.5 10.296875 8.5 21.578125 
z
M 31.109375 56 
z
" id="DejaVuSans-117"/>
        <path d="M 52 44.1875 
Q 55.375 50.25 60.0625 53.125 
Q 64.75 56 71.09375 56 
Q 79.640625 56 84.28125 50.015625 
Q 88.921875 44.046875 88.921875 33.015625 
L 88.921875 0 
L 79.890625 0 
L 79.890625 32.71875 
Q 79.890625 40.578125 77.09375 44.375 
Q 74.3125 48.1875 68.609375 48.1875 
Q 61.625 48.1875 57.5625 43.546875 
Q 53.515625 38.921875 53.515625 30.90625 
L 53.515625 0 
L 44.484375 0 
L 44.484375 32.71875 
Q 44.484375 40.625 41.703125 44.40625 
Q 38.921875 48.1875 33.109375 48.1875 
Q 26.21875 48.1875 22.15625 43.53125 
Q 18.109375 38.875 18.109375 30.90625 
L 18.109375 0 
L 9.078125 0 
L 9.078125 54.6875 
L 18.109375 54.6875 
L 18.109375 46.1875 
Q 21.1875 51.21875 25.484375 53.609375 
Q 29.78125 56 35.6875 56 
Q 41.65625 56 45.828125 52.96875 
Q 50 49.953125 52 44.1875 
z
" id="DejaVuSans-109"/>
       </defs>
       <use xlink:href="#DejaVuSans-115"/>
       <use x="52.099609" xlink:href="#DejaVuSans-117"/>
       <use x="115.478516" xlink:href="#DejaVuSans-109"/>
      </g>
     </g>
    </g>
    <g id="text_5">
     <!-- added motif -->
     <g transform="translate(192.583594 432.074375)scale(0.1 -0.1)">
      <defs>
       <path d="M 34.28125 27.484375 
Q 23.390625 27.484375 19.1875 25 
Q 14.984375 22.515625 14.984375 16.5 
Q 14.984375 11.71875 18.140625 8.90625 
Q 21.296875 6.109375 26.703125 6.109375 
Q 34.1875 6.109375 38.703125 11.40625 
Q 43.21875 16.703125 43.21875 25.484375 
L 43.21875 27.484375 
z
M 52.203125 31.203125 
L 52.203125 0 
L 43.21875 0 
L 43.21875 8.296875 
Q 40.140625 3.328125 35.546875 0.953125 
Q 30.953125 -1.421875 24.3125 -1.421875 
Q 15.921875 -1.421875 10.953125 3.296875 
Q 6 8.015625 6 15.921875 
Q 6 25.140625 12.171875 29.828125 
Q 18.359375 34.515625 30.609375 34.515625 
L 43.21875 34.515625 
L 43.21875 35.40625 
Q 43.21875 41.609375 39.140625 45 
Q 35.0625 48.390625 27.6875 48.390625 
Q 23 48.390625 18.546875 47.265625 
Q 14.109375 46.140625 10.015625 43.890625 
L 10.015625 52.203125 
Q 14.9375 54.109375 19.578125 55.046875 
Q 24.21875 56 28.609375 56 
Q 40.484375 56 46.34375 49.84375 
Q 52.203125 43.703125 52.203125 31.203125 
z
" id="DejaVuSans-97"/>
       <path d="M 45.40625 46.390625 
L 45.40625 75.984375 
L 54.390625 75.984375 
L 54.390625 0 
L 45.40625 0 
L 45.40625 8.203125 
Q 42.578125 3.328125 38.25 0.953125 
Q 33.9375 -1.421875 27.875 -1.421875 
Q 17.96875 -1.421875 11.734375 6.484375 
Q 5.515625 14.40625 5.515625 27.296875 
Q 5.515625 40.1875 11.734375 48.09375 
Q 17.96875 56 27.875 56 
Q 33.9375 56 38.25 53.625 
Q 42.578125 51.265625 45.40625 46.390625 
z
M 14.796875 27.296875 
Q 14.796875 17.390625 18.875 11.75 
Q 22.953125 6.109375 30.078125 6.109375 
Q 37.203125 6.109375 41.296875 11.75 
Q 45.40625 17.390625 45.40625 27.296875 
Q 45.40625 37.203125 41.296875 42.84375 
Q 37.203125 48.484375 30.078125 48.484375 
Q 22.953125 48.484375 18.875 42.84375 
Q 14.796875 37.203125 14.796875 27.296875 
z
" id="DejaVuSans-100"/>
       <path d="M 56.203125 29.59375 
L 56.203125 25.203125 
L 14.890625 25.203125 
Q 15.484375 15.921875 20.484375 11.0625 
Q 25.484375 6.203125 34.421875 6.203125 
Q 39.59375 6.203125 44.453125 7.46875 
Q 49.3125 8.734375 54.109375 11.28125 
L 54.109375 2.78125 
Q 49.265625 0.734375 44.1875 -0.34375 
Q 39.109375 -1.421875 33.890625 -1.421875 
Q 20.796875 -1.421875 13.15625 6.1875 
Q 5.515625 13.8125 5.515625 26.8125 
Q 5.515625 40.234375 12.765625 48.109375 
Q 20.015625 56 32.328125 56 
Q 43.359375 56 49.78125 48.890625 
Q 56.203125 41.796875 56.203125 29.59375 
z
M 47.21875 32.234375 
Q 47.125 39.59375 43.09375 43.984375 
Q 39.0625 48.390625 32.421875 48.390625 
Q 24.90625 48.390625 20.390625 44.140625 
Q 15.875 39.890625 15.1875 32.171875 
z
" id="DejaVuSans-101"/>
       <path d="M 30.609375 48.390625 
Q 23.390625 48.390625 19.1875 42.75 
Q 14.984375 37.109375 14.984375 27.296875 
Q 14.984375 17.484375 19.15625 11.84375 
Q 23.34375 6.203125 30.609375 6.203125 
Q 37.796875 6.203125 41.984375 11.859375 
Q 46.1875 17.53125 46.1875 27.296875 
Q 46.1875 37.015625 41.984375 42.703125 
Q 37.796875 48.390625 30.609375 48.390625 
z
M 30.609375 56 
Q 42.328125 56 49.015625 48.375 
Q 55.71875 40.765625 55.71875 27.296875 
Q 55.71875 13.875 49.015625 6.21875 
Q 42.328125 -1.421875 30.609375 -1.421875 
Q 18.84375 -1.421875 12.171875 6.21875 
Q 5.515625 13.875 5.515625 27.296875 
Q 5.515625 40.765625 12.171875 48.375 
Q 18.84375 56 30.609375 56 
z
" id="DejaVuSans-111"/>
       <path d="M 18.3125 70.21875 
L 18.3125 54.6875 
L 36.8125 54.6875 
L 36.8125 47.703125 
L 18.3125 47.703125 
L 18.3125 18.015625 
Q 18.3125 11.328125 20.140625 9.421875 
Q 21.96875 7.515625 27.59375 7.515625 
L 36.8125 7.515625 
L 36.8125 0 
L 27.59375 0 
Q 17.1875 0 13.234375 3.875 
Q 9.28125 7.765625 9.28125 18.015625 
L 9.28125 47.703125 
L 2.6875 47.703125 
L 2.6875 54.6875 
L 9.28125 54.6875 
L 9.28125 70.21875 
z
" id="DejaVuSans-116"/>
       <path d="M 9.421875 54.6875 
L 18.40625 54.6875 
L 18.40625 0 
L 9.421875 0 
z
M 9.421875 75.984375 
L 18.40625 75.984375 
L 18.40625 64.59375 
L 9.421875 64.59375 
z
" id="DejaVuSans-105"/>
       <path d="M 37.109375 75.984375 
L 37.109375 68.5 
L 28.515625 68.5 
Q 23.6875 68.5 21.796875 66.546875 
Q 19.921875 64.59375 19.921875 59.515625 
L 19.921875 54.6875 
L 34.71875 54.6875 
L 34.71875 47.703125 
L 19.921875 47.703125 
L 19.921875 0 
L 10.890625 0 
L 10.890625 47.703125 
L 2.296875 47.703125 
L 2.296875 54.6875 
L 10.890625 54.6875 
L 10.890625 58.5 
Q 10.890625 67.625 15.140625 71.796875 
Q 19.390625 75.984375 28.609375 75.984375 
z
" id="DejaVuSans-102"/>
      </defs>
      <use xlink:href="#DejaVuSans-97"/>
      <use x="61.279297" xlink:href="#DejaVuSans-100"/>
      <use x="124.755859" xlink:href="#DejaVuSans-100"/>
      <use x="188.232422" xlink:href="#DejaVuSans-101"/>
      <use x="249.755859" xlink:href="#DejaVuSans-100"/>
      <use x="313.232422" xlink:href="#DejaVuSans-32"/>
      <use x="345.019531" xlink:href="#DejaVuSans-109"/>
      <use x="442.431641" xlink:href="#DejaVuSans-111"/>
      <use x="503.613281" xlink:href="#DejaVuSans-116"/>
      <use x="542.822266" xlink:href="#DejaVuSans-105"/>
      <use x="570.605469" xlink:href="#DejaVuSans-102"/>
     </g>
    </g>
   </g>
   <g id="matplotlib.axis_2">
    <g id="ytick_1">
     <g id="line2d_5">
      <defs>
       <path d="M 0 0 
L -3.5 0 
" id="m94086c5bba" style="stroke:#000000;stroke-width:0.8;"/>
      </defs>
      <g>
       <use style="stroke:#000000;stroke-width:0.8;" x="42.05" xlink:href="#m94086c5bba" y="384.374682"/>
      </g>
     </g>
     <g id="text_6">
      <!-- −0.5 -->
      <g transform="translate(10.767187 388.1739)scale(0.1 -0.1)">
       <defs>
        <path d="M 10.59375 35.5 
L 73.1875 35.5 
L 73.1875 27.203125 
L 10.59375 27.203125 
z
" id="DejaVuSans-8722"/>
        <path d="M 10.6875 12.40625 
L 21 12.40625 
L 21 0 
L 10.6875 0 
z
" id="DejaVuSans-46"/>
        <path d="M 10.796875 72.90625 
L 49.515625 72.90625 
L 49.515625 64.59375 
L 19.828125 64.59375 
L 19.828125 46.734375 
Q 21.96875 47.46875 24.109375 47.828125 
Q 26.265625 48.1875 28.421875 48.1875 
Q 40.625 48.1875 47.75 41.5 
Q 54.890625 34.8125 54.890625 23.390625 
Q 54.890625 11.625 47.5625 5.09375 
Q 40.234375 -1.421875 26.90625 -1.421875 
Q 22.3125 -1.421875 17.546875 -0.640625 
Q 12.796875 0.140625 7.71875 1.703125 
L 7.71875 11.625 
Q 12.109375 9.234375 16.796875 8.0625 
Q 21.484375 6.890625 26.703125 6.890625 
Q 35.15625 6.890625 40.078125 11.328125 
Q 45.015625 15.765625 45.015625 23.390625 
Q 45.015625 31 40.078125 35.4375 
Q 35.15625 39.890625 26.703125 39.890625 
Q 22.75 39.890625 18.8125 39.015625 
Q 14.890625 38.140625 10.796875 36.28125 
z
" id="DejaVuSans-53"/>
       </defs>
       <use xlink:href="#DejaVuSans-8722"/>
       <use x="83.789062" xlink:href="#DejaVuSans-48"/>
       <use x="147.412109" xlink:href="#DejaVuSans-46"/>
       <use x="179.199219" xlink:href="#DejaVuSans-53"/>
      </g>
     </g>
    </g>
    <g id="ytick_2">
     <g id="line2d_6">
      <g>
       <use style="stroke:#000000;stroke-width:0.8;" x="42.05" xlink:href="#m94086c5bba" y="336.073676"/>
      </g>
     </g>
     <g id="text_7">
      <!-- 0.0 -->
      <g transform="translate(19.146875 339.872894)scale(0.1 -0.1)">
       <use xlink:href="#DejaVuSans-48"/>
       <use x="63.623047" xlink:href="#DejaVuSans-46"/>
       <use x="95.410156" xlink:href="#DejaVuSans-48"/>
      </g>
     </g>
    </g>
    <g id="ytick_3">
     <g id="line2d_7">
      <g>
       <use style="stroke:#000000;stroke-width:0.8;" x="42.05" xlink:href="#m94086c5bba" y="287.772669"/>
      </g>
     </g>
     <g id="text_8">
      <!-- 0.5 -->
      <g transform="translate(19.146875 291.571888)scale(0.1 -0.1)">
       <use xlink:href="#DejaVuSans-48"/>
       <use x="63.623047" xlink:href="#DejaVuSans-46"/>
       <use x="95.410156" xlink:href="#DejaVuSans-53"/>
      </g>
     </g>
    </g>
    <g id="ytick_4">
     <g id="line2d_8">
      <g>
       <use style="stroke:#000000;stroke-width:0.8;" x="42.05" xlink:href="#m94086c5bba" y="239.471663"/>
      </g>
     </g>
     <g id="text_9">
      <!-- 1.0 -->
      <g transform="translate(19.146875 243.270882)scale(0.1 -0.1)">
       <use xlink:href="#DejaVuSans-49"/>
       <use x="63.623047" xlink:href="#DejaVuSans-46"/>
       <use x="95.410156" xlink:href="#DejaVuSans-48"/>
      </g>
     </g>
    </g>
    <g id="ytick_5">
     <g id="line2d_9">
      <g>
       <use style="stroke:#000000;stroke-width:0.8;" x="42.05" xlink:href="#m94086c5bba" y="191.170657"/>
      </g>
     </g>
     <g id="text_10">
      <!-- 1.5 -->
      <g transform="translate(19.146875 194.969876)scale(0.1 -0.1)">
       <use xlink:href="#DejaVuSans-49"/>
       <use x="63.623047" xlink:href="#DejaVuSans-46"/>
       <use x="95.410156" xlink:href="#DejaVuSans-53"/>
      </g>
     </g>
    </g>
    <g id="ytick_6">
     <g id="line2d_10">
      <g>
       <use style="stroke:#000000;stroke-width:0.8;" x="42.05" xlink:href="#m94086c5bba" y="142.869651"/>
      </g>
     </g>
     <g id="text_11">
      <!-- 2.0 -->
      <g transform="translate(19.146875 146.66887)scale(0.1 -0.1)">
       <use xlink:href="#DejaVuSans-50"/>
       <use x="63.623047" xlink:href="#DejaVuSans-46"/>
       <use x="95.410156" xlink:href="#DejaVuSans-48"/>
      </g>
     </g>
    </g>
    <g id="ytick_7">
     <g id="line2d_11">
      <g>
       <use style="stroke:#000000;stroke-width:0.8;" x="42.05" xlink:href="#m94086c5bba" y="94.568645"/>
      </g>
     </g>
     <g id="text_12">
      <!-- 2.5 -->
      <g transform="translate(19.146875 98.367864)scale(0.1 -0.1)">
       <use xlink:href="#DejaVuSans-50"/>
       <use x="63.623047" xlink:href="#DejaVuSans-46"/>
       <use x="95.410156" xlink:href="#DejaVuSans-53"/>
      </g>
     </g>
    </g>
    <g id="ytick_8">
     <g id="line2d_12">
      <g>
       <use style="stroke:#000000;stroke-width:0.8;" x="42.05" xlink:href="#m94086c5bba" y="46.267639"/>
      </g>
     </g>
     <g id="text_13">
      <!-- 3.0 -->
      <g transform="translate(19.146875 50.066858)scale(0.1 -0.1)">
       <use xlink:href="#DejaVuSans-51"/>
       <use x="63.623047" xlink:href="#DejaVuSans-46"/>
       <use x="95.410156" xlink:href="#DejaVuSans-48"/>
      </g>
     </g>
    </g>
    <g id="text_14">
     <!-- mean difference -->
     <g transform="translate(4.6875 249.642969)rotate(-90)scale(0.1 -0.1)">
      <defs>
       <path d="M 54.890625 33.015625 
L 54.890625 0 
L 45.90625 0 
L 45.90625 32.71875 
Q 45.90625 40.484375 42.875 44.328125 
Q 39.84375 48.1875 33.796875 48.1875 
Q 26.515625 48.1875 22.3125 43.546875 
Q 18.109375 38.921875 18.109375 30.90625 
L 18.109375 0 
L 9.078125 0 
L 9.078125 54.6875 
L 18.109375 54.6875 
L 18.109375 46.1875 
Q 21.34375 51.125 25.703125 53.5625 
Q 30.078125 56 35.796875 56 
Q 45.21875 56 50.046875 50.171875 
Q 54.890625 44.34375 54.890625 33.015625 
z
" id="DejaVuSans-110"/>
       <path d="M 41.109375 46.296875 
Q 39.59375 47.171875 37.8125 47.578125 
Q 36.03125 48 33.890625 48 
Q 26.265625 48 22.1875 43.046875 
Q 18.109375 38.09375 18.109375 28.8125 
L 18.109375 0 
L 9.078125 0 
L 9.078125 54.6875 
L 18.109375 54.6875 
L 18.109375 46.1875 
Q 20.953125 51.171875 25.484375 53.578125 
Q 30.03125 56 36.53125 56 
Q 37.453125 56 38.578125 55.875 
Q 39.703125 55.765625 41.0625 55.515625 
z
" id="DejaVuSans-114"/>
       <path d="M 48.78125 52.59375 
L 48.78125 44.1875 
Q 44.96875 46.296875 41.140625 47.34375 
Q 37.3125 48.390625 33.40625 48.390625 
Q 24.65625 48.390625 19.8125 42.84375 
Q 14.984375 37.3125 14.984375 27.296875 
Q 14.984375 17.28125 19.8125 11.734375 
Q 24.65625 6.203125 33.40625 6.203125 
Q 37.3125 6.203125 41.140625 7.25 
Q 44.96875 8.296875 48.78125 10.40625 
L 48.78125 2.09375 
Q 45.015625 0.34375 40.984375 -0.53125 
Q 36.96875 -1.421875 32.421875 -1.421875 
Q 20.0625 -1.421875 12.78125 6.34375 
Q 5.515625 14.109375 5.515625 27.296875 
Q 5.515625 40.671875 12.859375 48.328125 
Q 20.21875 56 33.015625 56 
Q 37.15625 56 41.109375 55.140625 
Q 45.0625 54.296875 48.78125 52.59375 
z
" id="DejaVuSans-99"/>
      </defs>
      <use xlink:href="#DejaVuSans-109"/>
      <use x="97.412109" xlink:href="#DejaVuSans-101"/>
      <use x="158.935547" xlink:href="#DejaVuSans-97"/>
      <use x="220.214844" xlink:href="#DejaVuSans-110"/>
      <use x="283.59375" xlink:href="#DejaVuSans-32"/>
      <use x="315.380859" xlink:href="#DejaVuSans-100"/>
      <use x="378.857422" xlink:href="#DejaVuSans-105"/>
      <use x="406.640625" xlink:href="#DejaVuSans-102"/>
      <use x="441.845703" xlink:href="#DejaVuSans-102"/>
      <use x="477.050781" xlink:href="#DejaVuSans-101"/>
      <use x="538.574219" xlink:href="#DejaVuSans-114"/>
      <use x="577.4375" xlink:href="#DejaVuSans-101"/>
      <use x="638.960938" xlink:href="#DejaVuSans-110"/>
      <use x="702.339844" xlink:href="#DejaVuSans-99"/>
      <use x="757.320312" xlink:href="#DejaVuSans-101"/>
     </g>
    </g>
   </g>
   <g id="line2d_13">
    <path clip-path="url(#pa38c1f91be)" d="M 87.25625 330.18349 
L 87.25625 352.345653 
" style="fill:none;stroke:#3d3d3d;stroke-linecap:square;stroke-width:1.5;"/>
   </g>
   <g id="line2d_14">
    <path clip-path="url(#pa38c1f91be)" d="M 87.25625 299.255346 
L 87.25625 253.559087 
" style="fill:none;stroke:#3d3d3d;stroke-linecap:square;stroke-width:1.5;"/>
   </g>
   <g id="line2d_15">
    <path clip-path="url(#pa38c1f91be)" d="M 69.17375 352.345653 
L 105.33875 352.345653 
" style="fill:none;stroke:#3d3d3d;stroke-linecap:square;stroke-width:1.5;"/>
   </g>
   <g id="line2d_16">
    <path clip-path="url(#pa38c1f91be)" d="M 69.17375 253.559087 
L 105.33875 253.559087 
" style="fill:none;stroke:#3d3d3d;stroke-linecap:square;stroke-width:1.5;"/>
   </g>
   <g id="line2d_17">
    <path clip-path="url(#pa38c1f91be)" d="M 177.66875 336.188904 
L 177.66875 336.912315 
" style="fill:none;stroke:#3d3d3d;stroke-linecap:square;stroke-width:1.5;"/>
   </g>
   <g id="line2d_18">
    <path clip-path="url(#pa38c1f91be)" d="M 177.66875 335.649339 
L 177.66875 334.852758 
" style="fill:none;stroke:#3d3d3d;stroke-linecap:square;stroke-width:1.5;"/>
   </g>
   <g id="line2d_19">
    <path clip-path="url(#pa38c1f91be)" d="M 159.58625 336.912315 
L 195.75125 336.912315 
" style="fill:none;stroke:#3d3d3d;stroke-linecap:square;stroke-width:1.5;"/>
   </g>
   <g id="line2d_20">
    <path clip-path="url(#pa38c1f91be)" d="M 159.58625 334.852758 
L 195.75125 334.852758 
" style="fill:none;stroke:#3d3d3d;stroke-linecap:square;stroke-width:1.5;"/>
   </g>
   <g id="line2d_21">
    <path clip-path="url(#pa38c1f91be)" d="M 268.08125 316.062507 
L 268.08125 347.32213 
" style="fill:none;stroke:#3d3d3d;stroke-linecap:square;stroke-width:1.5;"/>
   </g>
   <g id="line2d_22">
    <path clip-path="url(#pa38c1f91be)" d="M 268.08125 242.350194 
L 268.08125 134.402176 
" style="fill:none;stroke:#3d3d3d;stroke-linecap:square;stroke-width:1.5;"/>
   </g>
   <g id="line2d_23">
    <path clip-path="url(#pa38c1f91be)" d="M 249.99875 347.32213 
L 286.16375 347.32213 
" style="fill:none;stroke:#3d3d3d;stroke-linecap:square;stroke-width:1.5;"/>
   </g>
   <g id="line2d_24">
    <path clip-path="url(#pa38c1f91be)" d="M 249.99875 134.402176 
L 286.16375 134.402176 
" style="fill:none;stroke:#3d3d3d;stroke-linecap:square;stroke-width:1.5;"/>
   </g>
   <g id="line2d_25">
    <path clip-path="url(#pa38c1f91be)" d="M 358.49375 330.170155 
L 358.49375 375.881818 
" style="fill:none;stroke:#3d3d3d;stroke-linecap:square;stroke-width:1.5;"/>
   </g>
   <g id="line2d_26">
    <path clip-path="url(#pa38c1f91be)" d="M 358.49375 299.012574 
L 358.49375 253.368872 
" style="fill:none;stroke:#3d3d3d;stroke-linecap:square;stroke-width:1.5;"/>
   </g>
   <g id="line2d_27">
    <path clip-path="url(#pa38c1f91be)" d="M 340.41125 375.881818 
L 376.57625 375.881818 
" style="fill:none;stroke:#3d3d3d;stroke-linecap:square;stroke-width:1.5;"/>
   </g>
   <g id="line2d_28">
    <path clip-path="url(#pa38c1f91be)" d="M 340.41125 253.368872 
L 376.57625 253.368872 
" style="fill:none;stroke:#3d3d3d;stroke-linecap:square;stroke-width:1.5;"/>
   </g>
   <g id="line2d_29">
    <path clip-path="url(#pa38c1f91be)" d="M 51.09125 321.999082 
L 123.42125 321.999082 
" style="fill:none;stroke:#3d3d3d;stroke-linecap:square;stroke-width:1.5;"/>
   </g>
   <g id="line2d_30">
    <path clip-path="url(#pa38c1f91be)" d="M 141.50375 335.968048 
L 213.83375 335.968048 
" style="fill:none;stroke:#3d3d3d;stroke-linecap:square;stroke-width:1.5;"/>
   </g>
   <g id="line2d_31">
    <path clip-path="url(#pa38c1f91be)" d="M 231.91625 288.389208 
L 304.24625 288.389208 
" style="fill:none;stroke:#3d3d3d;stroke-linecap:square;stroke-width:1.5;"/>
   </g>
   <g id="line2d_32">
    <path clip-path="url(#pa38c1f91be)" d="M 322.32875 321.616835 
L 394.65875 321.616835 
" style="fill:none;stroke:#3d3d3d;stroke-linecap:square;stroke-width:1.5;"/>
   </g>
   <g id="patch_7">
    <path d="M 42.05 392.6 
L 42.05 24.8 
" style="fill:none;stroke:#000000;stroke-linecap:square;stroke-linejoin:miter;stroke-width:0.8;"/>
   </g>
   <g id="patch_8">
    <path d="M 42.05 392.6 
L 403.7 392.6 
" style="fill:none;stroke:#000000;stroke-linecap:square;stroke-linejoin:miter;stroke-width:0.8;"/>
   </g>
   <g id="text_15">
    <!-- group = ..TGA.TCA..and..GATAA.. -->
    <g transform="translate(140.969531 18.8)scale(0.1 -0.1)">
     <defs>
      <path d="M 45.40625 27.984375 
Q 45.40625 37.75 41.375 43.109375 
Q 37.359375 48.484375 30.078125 48.484375 
Q 22.859375 48.484375 18.828125 43.109375 
Q 14.796875 37.75 14.796875 27.984375 
Q 14.796875 18.265625 18.828125 12.890625 
Q 22.859375 7.515625 30.078125 7.515625 
Q 37.359375 7.515625 41.375 12.890625 
Q 45.40625 18.265625 45.40625 27.984375 
z
M 54.390625 6.78125 
Q 54.390625 -7.171875 48.1875 -13.984375 
Q 42 -20.796875 29.203125 -20.796875 
Q 24.46875 -20.796875 20.265625 -20.09375 
Q 16.0625 -19.390625 12.109375 -17.921875 
L 12.109375 -9.1875 
Q 16.0625 -11.328125 19.921875 -12.34375 
Q 23.78125 -13.375 27.78125 -13.375 
Q 36.625 -13.375 41.015625 -8.765625 
Q 45.40625 -4.15625 45.40625 5.171875 
L 45.40625 9.625 
Q 42.625 4.78125 38.28125 2.390625 
Q 33.9375 0 27.875 0 
Q 17.828125 0 11.671875 7.65625 
Q 5.515625 15.328125 5.515625 27.984375 
Q 5.515625 40.671875 11.671875 48.328125 
Q 17.828125 56 27.875 56 
Q 33.9375 56 38.28125 53.609375 
Q 42.625 51.21875 45.40625 46.390625 
L 45.40625 54.6875 
L 54.390625 54.6875 
z
" id="DejaVuSans-103"/>
      <path d="M 18.109375 8.203125 
L 18.109375 -20.796875 
L 9.078125 -20.796875 
L 9.078125 54.6875 
L 18.109375 54.6875 
L 18.109375 46.390625 
Q 20.953125 51.265625 25.265625 53.625 
Q 29.59375 56 35.59375 56 
Q 45.5625 56 51.78125 48.09375 
Q 58.015625 40.1875 58.015625 27.296875 
Q 58.015625 14.40625 51.78125 6.484375 
Q 45.5625 -1.421875 35.59375 -1.421875 
Q 29.59375 -1.421875 25.265625 0.953125 
Q 20.953125 3.328125 18.109375 8.203125 
z
M 48.6875 27.296875 
Q 48.6875 37.203125 44.609375 42.84375 
Q 40.53125 48.484375 33.40625 48.484375 
Q 26.265625 48.484375 22.1875 42.84375 
Q 18.109375 37.203125 18.109375 27.296875 
Q 18.109375 17.390625 22.1875 11.75 
Q 26.265625 6.109375 33.40625 6.109375 
Q 40.53125 6.109375 44.609375 11.75 
Q 48.6875 17.390625 48.6875 27.296875 
z
" id="DejaVuSans-112"/>
      <path d="M 10.59375 45.40625 
L 73.1875 45.40625 
L 73.1875 37.203125 
L 10.59375 37.203125 
z
M 10.59375 25.484375 
L 73.1875 25.484375 
L 73.1875 17.1875 
L 10.59375 17.1875 
z
" id="DejaVuSans-61"/>
      <path d="M 64.40625 67.28125 
L 64.40625 56.890625 
Q 59.421875 61.53125 53.78125 63.8125 
Q 48.140625 66.109375 41.796875 66.109375 
Q 29.296875 66.109375 22.65625 58.46875 
Q 16.015625 50.828125 16.015625 36.375 
Q 16.015625 21.96875 22.65625 14.328125 
Q 29.296875 6.6875 41.796875 6.6875 
Q 48.140625 6.6875 53.78125 8.984375 
Q 59.421875 11.28125 64.40625 15.921875 
L 64.40625 5.609375 
Q 59.234375 2.09375 53.4375 0.328125 
Q 47.65625 -1.421875 41.21875 -1.421875 
Q 24.65625 -1.421875 15.125 8.703125 
Q 5.609375 18.84375 5.609375 36.375 
Q 5.609375 53.953125 15.125 64.078125 
Q 24.65625 74.21875 41.21875 74.21875 
Q 47.75 74.21875 53.53125 72.484375 
Q 59.328125 70.75 64.40625 67.28125 
z
" id="DejaVuSans-67"/>
     </defs>
     <use xlink:href="#DejaVuSans-103"/>
     <use x="63.476562" xlink:href="#DejaVuSans-114"/>
     <use x="102.339844" xlink:href="#DejaVuSans-111"/>
     <use x="163.521484" xlink:href="#DejaVuSans-117"/>
     <use x="226.900391" xlink:href="#DejaVuSans-112"/>
     <use x="290.376953" xlink:href="#DejaVuSans-32"/>
     <use x="322.164062" xlink:href="#DejaVuSans-61"/>
     <use x="405.953125" xlink:href="#DejaVuSans-32"/>
     <use x="437.740234" xlink:href="#DejaVuSans-46"/>
     <use x="469.527344" xlink:href="#DejaVuSans-46"/>
     <use x="501.314453" xlink:href="#DejaVuSans-84"/>
     <use x="562.398438" xlink:href="#DejaVuSans-71"/>
     <use x="639.888672" xlink:href="#DejaVuSans-65"/>
     <use x="706.546875" xlink:href="#DejaVuSans-46"/>
     <use x="738.333984" xlink:href="#DejaVuSans-84"/>
     <use x="793.542969" xlink:href="#DejaVuSans-67"/>
     <use x="863.367188" xlink:href="#DejaVuSans-65"/>
     <use x="930.025391" xlink:href="#DejaVuSans-46"/>
     <use x="961.8125" xlink:href="#DejaVuSans-46"/>
     <use x="993.599609" xlink:href="#DejaVuSans-97"/>
     <use x="1054.878906" xlink:href="#DejaVuSans-110"/>
     <use x="1118.257812" xlink:href="#DejaVuSans-100"/>
     <use x="1181.734375" xlink:href="#DejaVuSans-46"/>
     <use x="1213.521484" xlink:href="#DejaVuSans-46"/>
     <use x="1245.308594" xlink:href="#DejaVuSans-71"/>
     <use x="1322.798828" xlink:href="#DejaVuSans-65"/>
     <use x="1383.457031" xlink:href="#DejaVuSans-84"/>
     <use x="1436.791016" xlink:href="#DejaVuSans-65"/>
     <use x="1507.949219" xlink:href="#DejaVuSans-65"/>
     <use x="1574.607422" xlink:href="#DejaVuSans-46"/>
     <use x="1606.394531" xlink:href="#DejaVuSans-46"/>
    </g>
   </g>
  </g>
  <g id="axes_2">
   <g id="patch_9">
    <path d="M 418 392.6 
L 779.65 392.6 
L 779.65 24.8 
L 418 24.8 
z
" style="fill:#ffffff;"/>
   </g>
   <g id="patch_10">
    <path clip-path="url(#p6dedb74294)" d="M 427.04125 331.099565 
L 499.37125 331.099565 
L 499.37125 302.544853 
L 427.04125 302.544853 
L 427.04125 331.099565 
z
" style="fill:#3274a1;stroke:#3d3d3d;stroke-linejoin:miter;stroke-width:1.5;"/>
   </g>
   <g id="patch_11">
    <path clip-path="url(#p6dedb74294)" d="M 517.45375 336.170607 
L 589.78375 336.170607 
L 589.78375 335.205553 
L 517.45375 335.205553 
L 517.45375 336.170607 
z
" style="fill:#e1812c;stroke:#3d3d3d;stroke-linejoin:miter;stroke-width:1.5;"/>
   </g>
   <g id="patch_12">
    <path clip-path="url(#p6dedb74294)" d="M 607.86625 301.00486 
L 680.19625 301.00486 
L 680.19625 210.033289 
L 607.86625 210.033289 
L 607.86625 301.00486 
z
" style="fill:#3a923a;stroke:#3d3d3d;stroke-linejoin:miter;stroke-width:1.5;"/>
   </g>
   <g id="patch_13">
    <path clip-path="url(#p6dedb74294)" d="M 698.27875 330.87202 
L 770.60875 330.87202 
L 770.60875 301.11621 
L 698.27875 301.11621 
L 698.27875 330.87202 
z
" style="fill:#c03d3e;stroke:#3d3d3d;stroke-linejoin:miter;stroke-width:1.5;"/>
   </g>
   <g id="matplotlib.axis_3">
    <g id="xtick_5">
     <g id="line2d_33">
      <g>
       <use style="stroke:#000000;stroke-width:0.8;" x="463.20625" xlink:href="#mcf23585287" y="392.6"/>
      </g>
     </g>
     <g id="text_16">
      <!-- AP-1 1024 -->
      <g transform="translate(437.584375 407.198438)scale(0.1 -0.1)">
       <use xlink:href="#DejaVuSans-65"/>
       <use x="68.408203" xlink:href="#DejaVuSans-80"/>
       <use x="126.460938" xlink:href="#DejaVuSans-45"/>
       <use x="162.544922" xlink:href="#DejaVuSans-49"/>
       <use x="226.167969" xlink:href="#DejaVuSans-32"/>
       <use x="257.955078" xlink:href="#DejaVuSans-49"/>
       <use x="321.578125" xlink:href="#DejaVuSans-48"/>
       <use x="385.201172" xlink:href="#DejaVuSans-50"/>
       <use x="448.824219" xlink:href="#DejaVuSans-52"/>
      </g>
     </g>
    </g>
    <g id="xtick_6">
     <g id="line2d_34">
      <g>
       <use style="stroke:#000000;stroke-width:0.8;" x="553.61875" xlink:href="#mcf23585287" y="392.6"/>
      </g>
     </g>
     <g id="text_17">
      <!-- ATAAA 1038 -->
      <g transform="translate(523.069531 407.198438)scale(0.1 -0.1)">
       <defs>
        <path d="M 31.78125 34.625 
Q 24.75 34.625 20.71875 30.859375 
Q 16.703125 27.09375 16.703125 20.515625 
Q 16.703125 13.921875 20.71875 10.15625 
Q 24.75 6.390625 31.78125 6.390625 
Q 38.8125 6.390625 42.859375 10.171875 
Q 46.921875 13.96875 46.921875 20.515625 
Q 46.921875 27.09375 42.890625 30.859375 
Q 38.875 34.625 31.78125 34.625 
z
M 21.921875 38.8125 
Q 15.578125 40.375 12.03125 44.71875 
Q 8.5 49.078125 8.5 55.328125 
Q 8.5 64.0625 14.71875 69.140625 
Q 20.953125 74.21875 31.78125 74.21875 
Q 42.671875 74.21875 48.875 69.140625 
Q 55.078125 64.0625 55.078125 55.328125 
Q 55.078125 49.078125 51.53125 44.71875 
Q 48 40.375 41.703125 38.8125 
Q 48.828125 37.15625 52.796875 32.3125 
Q 56.78125 27.484375 56.78125 20.515625 
Q 56.78125 9.90625 50.3125 4.234375 
Q 43.84375 -1.421875 31.78125 -1.421875 
Q 19.734375 -1.421875 13.25 4.234375 
Q 6.78125 9.90625 6.78125 20.515625 
Q 6.78125 27.484375 10.78125 32.3125 
Q 14.796875 37.15625 21.921875 38.8125 
z
M 18.3125 54.390625 
Q 18.3125 48.734375 21.84375 45.5625 
Q 25.390625 42.390625 31.78125 42.390625 
Q 38.140625 42.390625 41.71875 45.5625 
Q 45.3125 48.734375 45.3125 54.390625 
Q 45.3125 60.0625 41.71875 63.234375 
Q 38.140625 66.40625 31.78125 66.40625 
Q 25.390625 66.40625 21.84375 63.234375 
Q 18.3125 60.0625 18.3125 54.390625 
z
" id="DejaVuSans-56"/>
       </defs>
       <use xlink:href="#DejaVuSans-65"/>
       <use x="60.658203" xlink:href="#DejaVuSans-84"/>
       <use x="113.992188" xlink:href="#DejaVuSans-65"/>
       <use x="185.150391" xlink:href="#DejaVuSans-65"/>
       <use x="256.308594" xlink:href="#DejaVuSans-65"/>
       <use x="324.716797" xlink:href="#DejaVuSans-32"/>
       <use x="356.503906" xlink:href="#DejaVuSans-49"/>
       <use x="420.126953" xlink:href="#DejaVuSans-48"/>
       <use x="483.75" xlink:href="#DejaVuSans-51"/>
       <use x="547.373047" xlink:href="#DejaVuSans-56"/>
      </g>
     </g>
    </g>
    <g id="xtick_7">
     <g id="line2d_35">
      <g>
       <use style="stroke:#000000;stroke-width:0.8;" x="644.03125" xlink:href="#mcf23585287" y="392.6"/>
      </g>
     </g>
     <g id="text_18">
      <!-- AP-1 1024 &amp; -->
      <g transform="translate(612.921094 407.198438)scale(0.1 -0.1)">
       <use xlink:href="#DejaVuSans-65"/>
       <use x="68.408203" xlink:href="#DejaVuSans-80"/>
       <use x="126.460938" xlink:href="#DejaVuSans-45"/>
       <use x="162.544922" xlink:href="#DejaVuSans-49"/>
       <use x="226.167969" xlink:href="#DejaVuSans-32"/>
       <use x="257.955078" xlink:href="#DejaVuSans-49"/>
       <use x="321.578125" xlink:href="#DejaVuSans-48"/>
       <use x="385.201172" xlink:href="#DejaVuSans-50"/>
       <use x="448.824219" xlink:href="#DejaVuSans-52"/>
       <use x="512.447266" xlink:href="#DejaVuSans-32"/>
       <use x="544.234375" xlink:href="#DejaVuSans-38"/>
      </g>
      <!-- ATAAA 1038 -->
      <g transform="translate(613.482031 418.39625)scale(0.1 -0.1)">
       <use xlink:href="#DejaVuSans-65"/>
       <use x="60.658203" xlink:href="#DejaVuSans-84"/>
       <use x="113.992188" xlink:href="#DejaVuSans-65"/>
       <use x="185.150391" xlink:href="#DejaVuSans-65"/>
       <use x="256.308594" xlink:href="#DejaVuSans-65"/>
       <use x="324.716797" xlink:href="#DejaVuSans-32"/>
       <use x="356.503906" xlink:href="#DejaVuSans-49"/>
       <use x="420.126953" xlink:href="#DejaVuSans-48"/>
       <use x="483.75" xlink:href="#DejaVuSans-51"/>
       <use x="547.373047" xlink:href="#DejaVuSans-56"/>
      </g>
     </g>
    </g>
    <g id="xtick_8">
     <g id="line2d_36">
      <g>
       <use style="stroke:#000000;stroke-width:0.8;" x="734.44375" xlink:href="#mcf23585287" y="392.6"/>
      </g>
     </g>
     <g id="text_19">
      <!-- sum -->
      <g transform="translate(723.8 407.198438)scale(0.1 -0.1)">
       <use xlink:href="#DejaVuSans-115"/>
       <use x="52.099609" xlink:href="#DejaVuSans-117"/>
       <use x="115.478516" xlink:href="#DejaVuSans-109"/>
      </g>
     </g>
    </g>
    <g id="text_20">
     <!-- added motif -->
     <g transform="translate(568.533594 432.074375)scale(0.1 -0.1)">
      <use xlink:href="#DejaVuSans-97"/>
      <use x="61.279297" xlink:href="#DejaVuSans-100"/>
      <use x="124.755859" xlink:href="#DejaVuSans-100"/>
      <use x="188.232422" xlink:href="#DejaVuSans-101"/>
      <use x="249.755859" xlink:href="#DejaVuSans-100"/>
      <use x="313.232422" xlink:href="#DejaVuSans-32"/>
      <use x="345.019531" xlink:href="#DejaVuSans-109"/>
      <use x="442.431641" xlink:href="#DejaVuSans-111"/>
      <use x="503.613281" xlink:href="#DejaVuSans-116"/>
      <use x="542.822266" xlink:href="#DejaVuSans-105"/>
      <use x="570.605469" xlink:href="#DejaVuSans-102"/>
     </g>
    </g>
   </g>
   <g id="matplotlib.axis_4">
    <g id="ytick_9">
     <g id="line2d_37">
      <g>
       <use style="stroke:#000000;stroke-width:0.8;" x="418" xlink:href="#m94086c5bba" y="384.374682"/>
      </g>
     </g>
    </g>
    <g id="ytick_10">
     <g id="line2d_38">
      <g>
       <use style="stroke:#000000;stroke-width:0.8;" x="418" xlink:href="#m94086c5bba" y="336.073676"/>
      </g>
     </g>
    </g>
    <g id="ytick_11">
     <g id="line2d_39">
      <g>
       <use style="stroke:#000000;stroke-width:0.8;" x="418" xlink:href="#m94086c5bba" y="287.772669"/>
      </g>
     </g>
    </g>
    <g id="ytick_12">
     <g id="line2d_40">
      <g>
       <use style="stroke:#000000;stroke-width:0.8;" x="418" xlink:href="#m94086c5bba" y="239.471663"/>
      </g>
     </g>
    </g>
    <g id="ytick_13">
     <g id="line2d_41">
      <g>
       <use style="stroke:#000000;stroke-width:0.8;" x="418" xlink:href="#m94086c5bba" y="191.170657"/>
      </g>
     </g>
    </g>
    <g id="ytick_14">
     <g id="line2d_42">
      <g>
       <use style="stroke:#000000;stroke-width:0.8;" x="418" xlink:href="#m94086c5bba" y="142.869651"/>
      </g>
     </g>
    </g>
    <g id="ytick_15">
     <g id="line2d_43">
      <g>
       <use style="stroke:#000000;stroke-width:0.8;" x="418" xlink:href="#m94086c5bba" y="94.568645"/>
      </g>
     </g>
    </g>
    <g id="ytick_16">
     <g id="line2d_44">
      <g>
       <use style="stroke:#000000;stroke-width:0.8;" x="418" xlink:href="#m94086c5bba" y="46.267639"/>
      </g>
     </g>
    </g>
   </g>
   <g id="line2d_45">
    <path clip-path="url(#p6dedb74294)" d="M 463.20625 331.099565 
L 463.20625 338.401409 
" style="fill:none;stroke:#3d3d3d;stroke-linecap:square;stroke-width:1.5;"/>
   </g>
   <g id="line2d_46">
    <path clip-path="url(#p6dedb74294)" d="M 463.20625 302.544853 
L 463.20625 259.805817 
" style="fill:none;stroke:#3d3d3d;stroke-linecap:square;stroke-width:1.5;"/>
   </g>
   <g id="line2d_47">
    <path clip-path="url(#p6dedb74294)" d="M 445.12375 338.401409 
L 481.28875 338.401409 
" style="fill:none;stroke:#3d3d3d;stroke-linecap:square;stroke-width:1.5;"/>
   </g>
   <g id="line2d_48">
    <path clip-path="url(#p6dedb74294)" d="M 445.12375 259.805817 
L 481.28875 259.805817 
" style="fill:none;stroke:#3d3d3d;stroke-linecap:square;stroke-width:1.5;"/>
   </g>
   <g id="line2d_49">
    <path clip-path="url(#p6dedb74294)" d="M 553.61875 336.170607 
L 553.61875 337.506902 
" style="fill:none;stroke:#3d3d3d;stroke-linecap:square;stroke-width:1.5;"/>
   </g>
   <g id="line2d_50">
    <path clip-path="url(#p6dedb74294)" d="M 553.61875 335.205553 
L 553.61875 333.77356 
" style="fill:none;stroke:#3d3d3d;stroke-linecap:square;stroke-width:1.5;"/>
   </g>
   <g id="line2d_51">
    <path clip-path="url(#p6dedb74294)" d="M 535.53625 337.506902 
L 571.70125 337.506902 
" style="fill:none;stroke:#3d3d3d;stroke-linecap:square;stroke-width:1.5;"/>
   </g>
   <g id="line2d_52">
    <path clip-path="url(#p6dedb74294)" d="M 535.53625 333.77356 
L 571.70125 333.77356 
" style="fill:none;stroke:#3d3d3d;stroke-linecap:square;stroke-width:1.5;"/>
   </g>
   <g id="line2d_53">
    <path clip-path="url(#p6dedb74294)" d="M 644.03125 301.00486 
L 644.03125 335.704456 
" style="fill:none;stroke:#3d3d3d;stroke-linecap:square;stroke-width:1.5;"/>
   </g>
   <g id="line2d_54">
    <path clip-path="url(#p6dedb74294)" d="M 644.03125 210.033289 
L 644.03125 74.716758 
" style="fill:none;stroke:#3d3d3d;stroke-linecap:square;stroke-width:1.5;"/>
   </g>
   <g id="line2d_55">
    <path clip-path="url(#p6dedb74294)" d="M 625.94875 335.704456 
L 662.11375 335.704456 
" style="fill:none;stroke:#3d3d3d;stroke-linecap:square;stroke-width:1.5;"/>
   </g>
   <g id="line2d_56">
    <path clip-path="url(#p6dedb74294)" d="M 625.94875 74.716758 
L 662.11375 74.716758 
" style="fill:none;stroke:#3d3d3d;stroke-linecap:square;stroke-width:1.5;"/>
   </g>
   <g id="line2d_57">
    <path clip-path="url(#p6dedb74294)" d="M 734.44375 330.87202 
L 734.44375 345.026694 
" style="fill:none;stroke:#3d3d3d;stroke-linecap:square;stroke-width:1.5;"/>
   </g>
   <g id="line2d_58">
    <path clip-path="url(#p6dedb74294)" d="M 734.44375 301.11621 
L 734.44375 257.467365 
" style="fill:none;stroke:#3d3d3d;stroke-linecap:square;stroke-width:1.5;"/>
   </g>
   <g id="line2d_59">
    <path clip-path="url(#p6dedb74294)" d="M 716.36125 345.026694 
L 752.52625 345.026694 
" style="fill:none;stroke:#3d3d3d;stroke-linecap:square;stroke-width:1.5;"/>
   </g>
   <g id="line2d_60">
    <path clip-path="url(#p6dedb74294)" d="M 716.36125 257.467365 
L 752.52625 257.467365 
" style="fill:none;stroke:#3d3d3d;stroke-linecap:square;stroke-width:1.5;"/>
   </g>
   <g id="line2d_61">
    <path clip-path="url(#p6dedb74294)" d="M 427.04125 323.399915 
L 499.37125 323.399915 
" style="fill:none;stroke:#3d3d3d;stroke-linecap:square;stroke-width:1.5;"/>
   </g>
   <g id="line2d_62">
    <path clip-path="url(#p6dedb74294)" d="M 517.45375 335.881022 
L 589.78375 335.881022 
" style="fill:none;stroke:#3d3d3d;stroke-linecap:square;stroke-width:1.5;"/>
   </g>
   <g id="line2d_63">
    <path clip-path="url(#p6dedb74294)" d="M 607.86625 261.907904 
L 680.19625 261.907904 
" style="fill:none;stroke:#3d3d3d;stroke-linecap:square;stroke-width:1.5;"/>
   </g>
   <g id="line2d_64">
    <path clip-path="url(#p6dedb74294)" d="M 698.27875 323.002739 
L 770.60875 323.002739 
" style="fill:none;stroke:#3d3d3d;stroke-linecap:square;stroke-width:1.5;"/>
   </g>
   <g id="patch_14">
    <path d="M 418 392.6 
L 418 24.8 
" style="fill:none;stroke:#000000;stroke-linecap:square;stroke-linejoin:miter;stroke-width:0.8;"/>
   </g>
   <g id="patch_15">
    <path d="M 418 392.6 
L 779.65 392.6 
" style="fill:none;stroke:#000000;stroke-linecap:square;stroke-linejoin:miter;stroke-width:0.8;"/>
   </g>
   <g id="text_21">
    <!-- group = ..TGA.TCA..and..ATAAA.. -->
    <g transform="translate(517.235937 18.8)scale(0.1 -0.1)">
     <use xlink:href="#DejaVuSans-103"/>
     <use x="63.476562" xlink:href="#DejaVuSans-114"/>
     <use x="102.339844" xlink:href="#DejaVuSans-111"/>
     <use x="163.521484" xlink:href="#DejaVuSans-117"/>
     <use x="226.900391" xlink:href="#DejaVuSans-112"/>
     <use x="290.376953" xlink:href="#DejaVuSans-32"/>
     <use x="322.164062" xlink:href="#DejaVuSans-61"/>
     <use x="405.953125" xlink:href="#DejaVuSans-32"/>
     <use x="437.740234" xlink:href="#DejaVuSans-46"/>
     <use x="469.527344" xlink:href="#DejaVuSans-46"/>
     <use x="501.314453" xlink:href="#DejaVuSans-84"/>
     <use x="562.398438" xlink:href="#DejaVuSans-71"/>
     <use x="639.888672" xlink:href="#DejaVuSans-65"/>
     <use x="706.546875" xlink:href="#DejaVuSans-46"/>
     <use x="738.333984" xlink:href="#DejaVuSans-84"/>
     <use x="793.542969" xlink:href="#DejaVuSans-67"/>
     <use x="863.367188" xlink:href="#DejaVuSans-65"/>
     <use x="930.025391" xlink:href="#DejaVuSans-46"/>
     <use x="961.8125" xlink:href="#DejaVuSans-46"/>
     <use x="993.599609" xlink:href="#DejaVuSans-97"/>
     <use x="1054.878906" xlink:href="#DejaVuSans-110"/>
     <use x="1118.257812" xlink:href="#DejaVuSans-100"/>
     <use x="1181.734375" xlink:href="#DejaVuSans-46"/>
     <use x="1213.521484" xlink:href="#DejaVuSans-46"/>
     <use x="1245.308594" xlink:href="#DejaVuSans-65"/>
     <use x="1305.966797" xlink:href="#DejaVuSans-84"/>
     <use x="1359.300781" xlink:href="#DejaVuSans-65"/>
     <use x="1430.458984" xlink:href="#DejaVuSans-65"/>
     <use x="1501.617188" xlink:href="#DejaVuSans-65"/>
     <use x="1568.275391" xlink:href="#DejaVuSans-46"/>
     <use x="1600.0625" xlink:href="#DejaVuSans-46"/>
    </g>
   </g>
  </g>
  <g id="axes_3">
   <g id="patch_16">
    <path d="M 793.95 392.6 
L 1155.6 392.6 
L 1155.6 24.8 
L 793.95 24.8 
z
" style="fill:#ffffff;"/>
   </g>
   <g id="patch_17">
    <path clip-path="url(#pa5c884db0c)" d="M 802.99125 331.082429 
L 875.32125 331.082429 
L 875.32125 298.712982 
L 802.99125 298.712982 
L 802.99125 331.082429 
z
" style="fill:#3274a1;stroke:#3d3d3d;stroke-linejoin:miter;stroke-width:1.5;"/>
   </g>
   <g id="patch_18">
    <path clip-path="url(#pa5c884db0c)" d="M 893.40375 331.066754 
L 965.73375 331.066754 
L 965.73375 297.650003 
L 893.40375 297.650003 
L 893.40375 331.066754 
z
" style="fill:#e1812c;stroke:#3d3d3d;stroke-linejoin:miter;stroke-width:1.5;"/>
   </g>
   <g id="patch_19">
    <path clip-path="url(#pa5c884db0c)" d="M 983.81625 245.336256 
L 1056.14625 245.336256 
L 1056.14625 160.095601 
L 983.81625 160.095601 
L 983.81625 245.336256 
z
" style="fill:#3a923a;stroke:#3d3d3d;stroke-linejoin:miter;stroke-width:1.5;"/>
   </g>
   <g id="patch_20">
    <path clip-path="url(#pa5c884db0c)" d="M 1074.22875 323.959039 
L 1146.55875 323.959039 
L 1146.55875 261.215014 
L 1074.22875 261.215014 
L 1074.22875 323.959039 
z
" style="fill:#c03d3e;stroke:#3d3d3d;stroke-linejoin:miter;stroke-width:1.5;"/>
   </g>
   <g id="matplotlib.axis_5">
    <g id="xtick_9">
     <g id="line2d_65">
      <g>
       <use style="stroke:#000000;stroke-width:0.8;" x="839.15625" xlink:href="#mcf23585287" y="392.6"/>
      </g>
     </g>
     <g id="text_22">
      <!-- AP-1 1024 -->
      <g transform="translate(813.534375 407.198438)scale(0.1 -0.1)">
       <use xlink:href="#DejaVuSans-65"/>
       <use x="68.408203" xlink:href="#DejaVuSans-80"/>
       <use x="126.460938" xlink:href="#DejaVuSans-45"/>
       <use x="162.544922" xlink:href="#DejaVuSans-49"/>
       <use x="226.167969" xlink:href="#DejaVuSans-32"/>
       <use x="257.955078" xlink:href="#DejaVuSans-49"/>
       <use x="321.578125" xlink:href="#DejaVuSans-48"/>
       <use x="385.201172" xlink:href="#DejaVuSans-50"/>
       <use x="448.824219" xlink:href="#DejaVuSans-52"/>
      </g>
     </g>
    </g>
    <g id="xtick_10">
     <g id="line2d_66">
      <g>
       <use style="stroke:#000000;stroke-width:0.8;" x="929.56875" xlink:href="#mcf23585287" y="392.6"/>
      </g>
     </g>
     <g id="text_23">
      <!-- AP-1 1048 -->
      <g transform="translate(903.946875 407.198438)scale(0.1 -0.1)">
       <use xlink:href="#DejaVuSans-65"/>
       <use x="68.408203" xlink:href="#DejaVuSans-80"/>
       <use x="126.460938" xlink:href="#DejaVuSans-45"/>
       <use x="162.544922" xlink:href="#DejaVuSans-49"/>
       <use x="226.167969" xlink:href="#DejaVuSans-32"/>
       <use x="257.955078" xlink:href="#DejaVuSans-49"/>
       <use x="321.578125" xlink:href="#DejaVuSans-48"/>
       <use x="385.201172" xlink:href="#DejaVuSans-52"/>
       <use x="448.824219" xlink:href="#DejaVuSans-56"/>
      </g>
     </g>
    </g>
    <g id="xtick_11">
     <g id="line2d_67">
      <g>
       <use style="stroke:#000000;stroke-width:0.8;" x="1019.98125" xlink:href="#mcf23585287" y="392.6"/>
      </g>
     </g>
     <g id="text_24">
      <!-- AP-1 1024 &amp; -->
      <g transform="translate(988.871094 407.198438)scale(0.1 -0.1)">
       <use xlink:href="#DejaVuSans-65"/>
       <use x="68.408203" xlink:href="#DejaVuSans-80"/>
       <use x="126.460938" xlink:href="#DejaVuSans-45"/>
       <use x="162.544922" xlink:href="#DejaVuSans-49"/>
       <use x="226.167969" xlink:href="#DejaVuSans-32"/>
       <use x="257.955078" xlink:href="#DejaVuSans-49"/>
       <use x="321.578125" xlink:href="#DejaVuSans-48"/>
       <use x="385.201172" xlink:href="#DejaVuSans-50"/>
       <use x="448.824219" xlink:href="#DejaVuSans-52"/>
       <use x="512.447266" xlink:href="#DejaVuSans-32"/>
       <use x="544.234375" xlink:href="#DejaVuSans-38"/>
      </g>
      <!-- AP-1 1048 -->
      <g transform="translate(994.359375 418.39625)scale(0.1 -0.1)">
       <use xlink:href="#DejaVuSans-65"/>
       <use x="68.408203" xlink:href="#DejaVuSans-80"/>
       <use x="126.460938" xlink:href="#DejaVuSans-45"/>
       <use x="162.544922" xlink:href="#DejaVuSans-49"/>
       <use x="226.167969" xlink:href="#DejaVuSans-32"/>
       <use x="257.955078" xlink:href="#DejaVuSans-49"/>
       <use x="321.578125" xlink:href="#DejaVuSans-48"/>
       <use x="385.201172" xlink:href="#DejaVuSans-52"/>
       <use x="448.824219" xlink:href="#DejaVuSans-56"/>
      </g>
     </g>
    </g>
    <g id="xtick_12">
     <g id="line2d_68">
      <g>
       <use style="stroke:#000000;stroke-width:0.8;" x="1110.39375" xlink:href="#mcf23585287" y="392.6"/>
      </g>
     </g>
     <g id="text_25">
      <!-- sum -->
      <g transform="translate(1099.75 407.198438)scale(0.1 -0.1)">
       <use xlink:href="#DejaVuSans-115"/>
       <use x="52.099609" xlink:href="#DejaVuSans-117"/>
       <use x="115.478516" xlink:href="#DejaVuSans-109"/>
      </g>
     </g>
    </g>
    <g id="text_26">
     <!-- added motif -->
     <g transform="translate(944.483594 432.074375)scale(0.1 -0.1)">
      <use xlink:href="#DejaVuSans-97"/>
      <use x="61.279297" xlink:href="#DejaVuSans-100"/>
      <use x="124.755859" xlink:href="#DejaVuSans-100"/>
      <use x="188.232422" xlink:href="#DejaVuSans-101"/>
      <use x="249.755859" xlink:href="#DejaVuSans-100"/>
      <use x="313.232422" xlink:href="#DejaVuSans-32"/>
      <use x="345.019531" xlink:href="#DejaVuSans-109"/>
      <use x="442.431641" xlink:href="#DejaVuSans-111"/>
      <use x="503.613281" xlink:href="#DejaVuSans-116"/>
      <use x="542.822266" xlink:href="#DejaVuSans-105"/>
      <use x="570.605469" xlink:href="#DejaVuSans-102"/>
     </g>
    </g>
   </g>
   <g id="matplotlib.axis_6">
    <g id="ytick_17">
     <g id="line2d_69">
      <g>
       <use style="stroke:#000000;stroke-width:0.8;" x="793.95" xlink:href="#m94086c5bba" y="384.374682"/>
      </g>
     </g>
    </g>
    <g id="ytick_18">
     <g id="line2d_70">
      <g>
       <use style="stroke:#000000;stroke-width:0.8;" x="793.95" xlink:href="#m94086c5bba" y="336.073676"/>
      </g>
     </g>
    </g>
    <g id="ytick_19">
     <g id="line2d_71">
      <g>
       <use style="stroke:#000000;stroke-width:0.8;" x="793.95" xlink:href="#m94086c5bba" y="287.772669"/>
      </g>
     </g>
    </g>
    <g id="ytick_20">
     <g id="line2d_72">
      <g>
       <use style="stroke:#000000;stroke-width:0.8;" x="793.95" xlink:href="#m94086c5bba" y="239.471663"/>
      </g>
     </g>
    </g>
    <g id="ytick_21">
     <g id="line2d_73">
      <g>
       <use style="stroke:#000000;stroke-width:0.8;" x="793.95" xlink:href="#m94086c5bba" y="191.170657"/>
      </g>
     </g>
    </g>
    <g id="ytick_22">
     <g id="line2d_74">
      <g>
       <use style="stroke:#000000;stroke-width:0.8;" x="793.95" xlink:href="#m94086c5bba" y="142.869651"/>
      </g>
     </g>
    </g>
    <g id="ytick_23">
     <g id="line2d_75">
      <g>
       <use style="stroke:#000000;stroke-width:0.8;" x="793.95" xlink:href="#m94086c5bba" y="94.568645"/>
      </g>
     </g>
    </g>
    <g id="ytick_24">
     <g id="line2d_76">
      <g>
       <use style="stroke:#000000;stroke-width:0.8;" x="793.95" xlink:href="#m94086c5bba" y="46.267639"/>
      </g>
     </g>
    </g>
   </g>
   <g id="line2d_77">
    <path clip-path="url(#pa5c884db0c)" d="M 839.15625 331.082429 
L 839.15625 342.650794 
" style="fill:none;stroke:#3d3d3d;stroke-linecap:square;stroke-width:1.5;"/>
   </g>
   <g id="line2d_78">
    <path clip-path="url(#pa5c884db0c)" d="M 839.15625 298.712982 
L 839.15625 250.174007 
" style="fill:none;stroke:#3d3d3d;stroke-linecap:square;stroke-width:1.5;"/>
   </g>
   <g id="line2d_79">
    <path clip-path="url(#pa5c884db0c)" d="M 821.07375 342.650794 
L 857.23875 342.650794 
" style="fill:none;stroke:#3d3d3d;stroke-linecap:square;stroke-width:1.5;"/>
   </g>
   <g id="line2d_80">
    <path clip-path="url(#pa5c884db0c)" d="M 821.07375 250.174007 
L 857.23875 250.174007 
" style="fill:none;stroke:#3d3d3d;stroke-linecap:square;stroke-width:1.5;"/>
   </g>
   <g id="line2d_81">
    <path clip-path="url(#pa5c884db0c)" d="M 929.56875 331.066754 
L 929.56875 340.041313 
" style="fill:none;stroke:#3d3d3d;stroke-linecap:square;stroke-width:1.5;"/>
   </g>
   <g id="line2d_82">
    <path clip-path="url(#pa5c884db0c)" d="M 929.56875 297.650003 
L 929.56875 247.662084 
" style="fill:none;stroke:#3d3d3d;stroke-linecap:square;stroke-width:1.5;"/>
   </g>
   <g id="line2d_83">
    <path clip-path="url(#pa5c884db0c)" d="M 911.48625 340.041313 
L 947.65125 340.041313 
" style="fill:none;stroke:#3d3d3d;stroke-linecap:square;stroke-width:1.5;"/>
   </g>
   <g id="line2d_84">
    <path clip-path="url(#pa5c884db0c)" d="M 911.48625 247.662084 
L 947.65125 247.662084 
" style="fill:none;stroke:#3d3d3d;stroke-linecap:square;stroke-width:1.5;"/>
   </g>
   <g id="line2d_85">
    <path clip-path="url(#pa5c884db0c)" d="M 1019.98125 245.336256 
L 1019.98125 330.132462 
" style="fill:none;stroke:#3d3d3d;stroke-linecap:square;stroke-width:1.5;"/>
   </g>
   <g id="line2d_86">
    <path clip-path="url(#pa5c884db0c)" d="M 1019.98125 160.095601 
L 1019.98125 41.518182 
" style="fill:none;stroke:#3d3d3d;stroke-linecap:square;stroke-width:1.5;"/>
   </g>
   <g id="line2d_87">
    <path clip-path="url(#pa5c884db0c)" d="M 1001.89875 330.132462 
L 1038.06375 330.132462 
" style="fill:none;stroke:#3d3d3d;stroke-linecap:square;stroke-width:1.5;"/>
   </g>
   <g id="line2d_88">
    <path clip-path="url(#pa5c884db0c)" d="M 1001.89875 41.518182 
L 1038.06375 41.518182 
" style="fill:none;stroke:#3d3d3d;stroke-linecap:square;stroke-width:1.5;"/>
   </g>
   <g id="line2d_89">
    <path clip-path="url(#pa5c884db0c)" d="M 1110.39375 323.959039 
L 1110.39375 346.618431 
" style="fill:none;stroke:#3d3d3d;stroke-linecap:square;stroke-width:1.5;"/>
   </g>
   <g id="line2d_90">
    <path clip-path="url(#pa5c884db0c)" d="M 1110.39375 261.215014 
L 1110.39375 167.25435 
" style="fill:none;stroke:#3d3d3d;stroke-linecap:square;stroke-width:1.5;"/>
   </g>
   <g id="line2d_91">
    <path clip-path="url(#pa5c884db0c)" d="M 1092.31125 346.618431 
L 1128.47625 346.618431 
" style="fill:none;stroke:#3d3d3d;stroke-linecap:square;stroke-width:1.5;"/>
   </g>
   <g id="line2d_92">
    <path clip-path="url(#pa5c884db0c)" d="M 1092.31125 167.25435 
L 1128.47625 167.25435 
" style="fill:none;stroke:#3d3d3d;stroke-linecap:square;stroke-width:1.5;"/>
   </g>
   <g id="line2d_93">
    <path clip-path="url(#pa5c884db0c)" d="M 802.99125 323.888895 
L 875.32125 323.888895 
" style="fill:none;stroke:#3d3d3d;stroke-linecap:square;stroke-width:1.5;"/>
   </g>
   <g id="line2d_94">
    <path clip-path="url(#pa5c884db0c)" d="M 893.40375 323.157492 
L 965.73375 323.157492 
" style="fill:none;stroke:#3d3d3d;stroke-linecap:square;stroke-width:1.5;"/>
   </g>
   <g id="line2d_95">
    <path clip-path="url(#pa5c884db0c)" d="M 983.81625 202.20395 
L 1056.14625 202.20395 
" style="fill:none;stroke:#3d3d3d;stroke-linecap:square;stroke-width:1.5;"/>
   </g>
   <g id="line2d_96">
    <path clip-path="url(#pa5c884db0c)" d="M 1074.22875 306.124914 
L 1146.55875 306.124914 
" style="fill:none;stroke:#3d3d3d;stroke-linecap:square;stroke-width:1.5;"/>
   </g>
   <g id="patch_21">
    <path d="M 793.95 392.6 
L 793.95 24.8 
" style="fill:none;stroke:#000000;stroke-linecap:square;stroke-linejoin:miter;stroke-width:0.8;"/>
   </g>
   <g id="patch_22">
    <path d="M 793.95 392.6 
L 1155.6 392.6 
" style="fill:none;stroke:#000000;stroke-linecap:square;stroke-linejoin:miter;stroke-width:0.8;"/>
   </g>
   <g id="text_27">
    <!-- group = ..TGA.TCA..and..TGA.TCA.. -->
    <g transform="translate(887.899219 18.8)scale(0.1 -0.1)">
     <use xlink:href="#DejaVuSans-103"/>
     <use x="63.476562" xlink:href="#DejaVuSans-114"/>
     <use x="102.339844" xlink:href="#DejaVuSans-111"/>
     <use x="163.521484" xlink:href="#DejaVuSans-117"/>
     <use x="226.900391" xlink:href="#DejaVuSans-112"/>
     <use x="290.376953" xlink:href="#DejaVuSans-32"/>
     <use x="322.164062" xlink:href="#DejaVuSans-61"/>
     <use x="405.953125" xlink:href="#DejaVuSans-32"/>
     <use x="437.740234" xlink:href="#DejaVuSans-46"/>
     <use x="469.527344" xlink:href="#DejaVuSans-46"/>
     <use x="501.314453" xlink:href="#DejaVuSans-84"/>
     <use x="562.398438" xlink:href="#DejaVuSans-71"/>
     <use x="639.888672" xlink:href="#DejaVuSans-65"/>
     <use x="706.546875" xlink:href="#DejaVuSans-46"/>
     <use x="738.333984" xlink:href="#DejaVuSans-84"/>
     <use x="793.542969" xlink:href="#DejaVuSans-67"/>
     <use x="863.367188" xlink:href="#DejaVuSans-65"/>
     <use x="930.025391" xlink:href="#DejaVuSans-46"/>
     <use x="961.8125" xlink:href="#DejaVuSans-46"/>
     <use x="993.599609" xlink:href="#DejaVuSans-97"/>
     <use x="1054.878906" xlink:href="#DejaVuSans-110"/>
     <use x="1118.257812" xlink:href="#DejaVuSans-100"/>
     <use x="1181.734375" xlink:href="#DejaVuSans-46"/>
     <use x="1213.521484" xlink:href="#DejaVuSans-46"/>
     <use x="1245.308594" xlink:href="#DejaVuSans-84"/>
     <use x="1306.392578" xlink:href="#DejaVuSans-71"/>
     <use x="1383.882812" xlink:href="#DejaVuSans-65"/>
     <use x="1450.541016" xlink:href="#DejaVuSans-46"/>
     <use x="1482.328125" xlink:href="#DejaVuSans-84"/>
     <use x="1537.537109" xlink:href="#DejaVuSans-67"/>
     <use x="1607.361328" xlink:href="#DejaVuSans-65"/>
     <use x="1674.019531" xlink:href="#DejaVuSans-46"/>
     <use x="1705.806641" xlink:href="#DejaVuSans-46"/>
    </g>
   </g>
  </g>
 </g>
 <defs>
  <clipPath id="pa38c1f91be">
   <rect height="367.8" width="361.65" x="42.05" y="24.8"/>
  </clipPath>
  <clipPath id="p6dedb74294">
   <rect height="367.8" width="361.65" x="418" y="24.8"/>
  </clipPath>
  <clipPath id="pa5c884db0c">
   <rect height="367.8" width="361.65" x="793.95" y="24.8"/>
  </clipPath>
 </defs>
</svg>
