<?xml version="1.0" encoding="utf-8" standalone="no"?>
<!DOCTYPE svg PUBLIC "-//W3C//DTD SVG 1.1//EN"
  "http://www.w3.org/Graphics/SVG/1.1/DTD/svg11.dtd">
<!-- Created with matplotlib (https://matplotlib.org/) -->
<svg height="144pt" version="1.1" viewBox="0 0 576 144" width="576pt" xmlns="http://www.w3.org/2000/svg" xmlns:xlink="http://www.w3.org/1999/xlink">
 <metadata>
  <rdf:RDF xmlns:cc="http://creativecommons.org/ns#" xmlns:dc="http://purl.org/dc/elements/1.1/" xmlns:rdf="http://www.w3.org/1999/02/22-rdf-syntax-ns#">
   <cc:Work>
    <dc:type rdf:resource="http://purl.org/dc/dcmitype/StillImage"/>
    <dc:date>2022-01-17T13:45:17.147557</dc:date>
    <dc:format>image/svg+xml</dc:format>
    <dc:creator>
     <cc:Agent>
      <dc:title>Matplotlib v3.3.0, https://matplotlib.org/</dc:title>
     </cc:Agent>
    </dc:creator>
   </cc:Work>
  </rdf:RDF>
 </metadata>
 <defs>
  <style type="text/css">*{stroke-linecap:butt;stroke-linejoin:round;}</style>
 </defs>
 <g id="figure_1">
  <g id="patch_1">
   <path d="M 0 144 
L 576 144 
L 576 0 
L 0 0 
z
" style="fill:none;"/>
  </g>
  <g id="axes_1">
   <g id="patch_2">
    <path d="M 72 126 
L 518.4 126 
L 518.4 17.28 
L 72 17.28 
z
" style="fill:#ffffff;"/>
   </g>
   <g id="PathCollection_1">
    <defs>
     <path d="M 0 3 
C 0.795609 3 1.55874 2.683901 2.12132 2.12132 
C 2.683901 1.55874 3 0.795609 3 0 
C 3 -0.795609 2.683901 -1.55874 2.12132 -2.12132 
C 1.55874 -2.683901 0.795609 -3 0 -3 
C -0.795609 -3 -1.55874 -2.683901 -2.12132 -2.12132 
C -2.683901 -1.55874 -3 -0.795609 -3 0 
C -3 0.795609 -2.683901 1.55874 -2.12132 2.12132 
C -1.55874 2.683901 -0.795609 3 0 3 
z
" id="mf7b4e9923a" style="stroke:#ffffff;stroke-width:0.48;"/>
    </defs>
    <g clip-path="url(#pbaef6d2c1f)">
     <use style="stroke:#ffffff;stroke-width:0.48;" x="92.290909" xlink:href="#mf7b4e9923a" y="22.221818"/>
     <use style="stroke:#ffffff;stroke-width:0.48;" x="93.876136" xlink:href="#mf7b4e9923a" y="40.259044"/>
     <use style="stroke:#ffffff;stroke-width:0.48;" x="95.461364" xlink:href="#mf7b4e9923a" y="41.43761"/>
     <use style="stroke:#ffffff;stroke-width:0.48;" x="97.046591" xlink:href="#mf7b4e9923a" y="43.630858"/>
     <use style="stroke:#ffffff;stroke-width:0.48;" x="98.631818" xlink:href="#mf7b4e9923a" y="44.607477"/>
     <use style="stroke:#ffffff;stroke-width:0.48;" x="100.217045" xlink:href="#mf7b4e9923a" y="44.989766"/>
     <use style="stroke:#ffffff;stroke-width:0.48;" x="101.802273" xlink:href="#mf7b4e9923a" y="48.714858"/>
     <use style="stroke:#ffffff;stroke-width:0.48;" x="103.3875" xlink:href="#mf7b4e9923a" y="51.422025"/>
     <use style="stroke:#ffffff;stroke-width:0.48;" x="104.972727" xlink:href="#mf7b4e9923a" y="52.848759"/>
     <use style="stroke:#ffffff;stroke-width:0.48;" x="106.557955" xlink:href="#mf7b4e9923a" y="52.861394"/>
     <use style="stroke:#ffffff;stroke-width:0.48;" x="108.143182" xlink:href="#mf7b4e9923a" y="52.893618"/>
     <use style="stroke:#ffffff;stroke-width:0.48;" x="109.728409" xlink:href="#mf7b4e9923a" y="54.764804"/>
     <use style="stroke:#ffffff;stroke-width:0.48;" x="111.313636" xlink:href="#mf7b4e9923a" y="55.272653"/>
     <use style="stroke:#ffffff;stroke-width:0.48;" x="112.898864" xlink:href="#mf7b4e9923a" y="55.502151"/>
     <use style="stroke:#ffffff;stroke-width:0.48;" x="114.484091" xlink:href="#mf7b4e9923a" y="56.276445"/>
     <use style="stroke:#ffffff;stroke-width:0.48;" x="116.069318" xlink:href="#mf7b4e9923a" y="57.608229"/>
     <use style="stroke:#ffffff;stroke-width:0.48;" x="117.654545" xlink:href="#mf7b4e9923a" y="58.301173"/>
     <use style="stroke:#ffffff;stroke-width:0.48;" x="119.239773" xlink:href="#mf7b4e9923a" y="58.547961"/>
     <use style="stroke:#ffffff;stroke-width:0.48;" x="120.825" xlink:href="#mf7b4e9923a" y="58.71237"/>
     <use style="stroke:#ffffff;stroke-width:0.48;" x="122.410227" xlink:href="#mf7b4e9923a" y="60.062421"/>
     <use style="stroke:#ffffff;stroke-width:0.48;" x="123.995455" xlink:href="#mf7b4e9923a" y="61.137493"/>
     <use style="stroke:#ffffff;stroke-width:0.48;" x="125.580682" xlink:href="#mf7b4e9923a" y="62.194435"/>
     <use style="stroke:#ffffff;stroke-width:0.48;" x="127.165909" xlink:href="#mf7b4e9923a" y="62.312197"/>
     <use style="stroke:#ffffff;stroke-width:0.48;" x="128.751136" xlink:href="#mf7b4e9923a" y="63.032329"/>
     <use style="stroke:#ffffff;stroke-width:0.48;" x="130.336364" xlink:href="#mf7b4e9923a" y="63.53423"/>
     <use style="stroke:#ffffff;stroke-width:0.48;" x="131.921591" xlink:href="#mf7b4e9923a" y="64.798473"/>
     <use style="stroke:#ffffff;stroke-width:0.48;" x="133.506818" xlink:href="#mf7b4e9923a" y="65.066354"/>
     <use style="stroke:#ffffff;stroke-width:0.48;" x="135.092045" xlink:href="#mf7b4e9923a" y="65.097355"/>
     <use style="stroke:#ffffff;stroke-width:0.48;" x="136.677273" xlink:href="#mf7b4e9923a" y="65.795132"/>
     <use style="stroke:#ffffff;stroke-width:0.48;" x="138.2625" xlink:href="#mf7b4e9923a" y="66.049344"/>
     <use style="stroke:#ffffff;stroke-width:0.48;" x="139.847727" xlink:href="#mf7b4e9923a" y="68.316954"/>
     <use style="stroke:#ffffff;stroke-width:0.48;" x="141.432955" xlink:href="#mf7b4e9923a" y="69.140847"/>
     <use style="stroke:#ffffff;stroke-width:0.48;" x="143.018182" xlink:href="#mf7b4e9923a" y="69.241115"/>
     <use style="stroke:#ffffff;stroke-width:0.48;" x="144.603409" xlink:href="#mf7b4e9923a" y="69.286396"/>
     <use style="stroke:#ffffff;stroke-width:0.48;" x="146.188636" xlink:href="#mf7b4e9923a" y="71.281103"/>
     <use style="stroke:#ffffff;stroke-width:0.48;" x="147.773864" xlink:href="#mf7b4e9923a" y="71.786374"/>
     <use style="stroke:#ffffff;stroke-width:0.48;" x="149.359091" xlink:href="#mf7b4e9923a" y="72.202548"/>
     <use style="stroke:#ffffff;stroke-width:0.48;" x="150.944318" xlink:href="#mf7b4e9923a" y="72.294267"/>
     <use style="stroke:#ffffff;stroke-width:0.48;" x="152.529545" xlink:href="#mf7b4e9923a" y="72.677722"/>
     <use style="stroke:#ffffff;stroke-width:0.48;" x="154.114773" xlink:href="#mf7b4e9923a" y="72.728531"/>
     <use style="stroke:#ffffff;stroke-width:0.48;" x="155.7" xlink:href="#mf7b4e9923a" y="73.045959"/>
     <use style="stroke:#ffffff;stroke-width:0.48;" x="157.285227" xlink:href="#mf7b4e9923a" y="73.222912"/>
     <use style="stroke:#ffffff;stroke-width:0.48;" x="158.870455" xlink:href="#mf7b4e9923a" y="73.465931"/>
     <use style="stroke:#ffffff;stroke-width:0.48;" x="160.455682" xlink:href="#mf7b4e9923a" y="73.605835"/>
     <use style="stroke:#ffffff;stroke-width:0.48;" x="162.040909" xlink:href="#mf7b4e9923a" y="73.729025"/>
     <use style="stroke:#ffffff;stroke-width:0.48;" x="163.626136" xlink:href="#mf7b4e9923a" y="73.810187"/>
     <use style="stroke:#ffffff;stroke-width:0.48;" x="165.211364" xlink:href="#mf7b4e9923a" y="74.045371"/>
     <use style="stroke:#ffffff;stroke-width:0.48;" x="166.796591" xlink:href="#mf7b4e9923a" y="74.223535"/>
     <use style="stroke:#ffffff;stroke-width:0.48;" x="168.381818" xlink:href="#mf7b4e9923a" y="74.339783"/>
     <use style="stroke:#ffffff;stroke-width:0.48;" x="169.967045" xlink:href="#mf7b4e9923a" y="74.384078"/>
     <use style="stroke:#ffffff;stroke-width:0.48;" x="171.552273" xlink:href="#mf7b4e9923a" y="74.589127"/>
     <use style="stroke:#ffffff;stroke-width:0.48;" x="173.1375" xlink:href="#mf7b4e9923a" y="74.758492"/>
     <use style="stroke:#ffffff;stroke-width:0.48;" x="174.722727" xlink:href="#mf7b4e9923a" y="74.782976"/>
     <use style="stroke:#ffffff;stroke-width:0.48;" x="176.307955" xlink:href="#mf7b4e9923a" y="74.818726"/>
     <use style="stroke:#ffffff;stroke-width:0.48;" x="177.893182" xlink:href="#mf7b4e9923a" y="74.842646"/>
     <use style="stroke:#ffffff;stroke-width:0.48;" x="179.478409" xlink:href="#mf7b4e9923a" y="75.258122"/>
     <use style="stroke:#ffffff;stroke-width:0.48;" x="181.063636" xlink:href="#mf7b4e9923a" y="75.517611"/>
     <use style="stroke:#ffffff;stroke-width:0.48;" x="182.648864" xlink:href="#mf7b4e9923a" y="75.631428"/>
     <use style="stroke:#ffffff;stroke-width:0.48;" x="184.234091" xlink:href="#mf7b4e9923a" y="75.828949"/>
     <use style="stroke:#ffffff;stroke-width:0.48;" x="185.819318" xlink:href="#mf7b4e9923a" y="75.866666"/>
     <use style="stroke:#ffffff;stroke-width:0.48;" x="187.404545" xlink:href="#mf7b4e9923a" y="76.129279"/>
     <use style="stroke:#ffffff;stroke-width:0.48;" x="188.989773" xlink:href="#mf7b4e9923a" y="76.136576"/>
     <use style="stroke:#ffffff;stroke-width:0.48;" x="190.575" xlink:href="#mf7b4e9923a" y="76.624757"/>
     <use style="stroke:#ffffff;stroke-width:0.48;" x="192.160227" xlink:href="#mf7b4e9923a" y="77.234702"/>
     <use style="stroke:#ffffff;stroke-width:0.48;" x="193.745455" xlink:href="#mf7b4e9923a" y="77.404017"/>
     <use style="stroke:#ffffff;stroke-width:0.48;" x="195.330682" xlink:href="#mf7b4e9923a" y="77.474689"/>
     <use style="stroke:#ffffff;stroke-width:0.48;" x="196.915909" xlink:href="#mf7b4e9923a" y="77.624385"/>
     <use style="stroke:#ffffff;stroke-width:0.48;" x="198.501136" xlink:href="#mf7b4e9923a" y="77.722932"/>
     <use style="stroke:#ffffff;stroke-width:0.48;" x="200.086364" xlink:href="#mf7b4e9923a" y="78.191198"/>
     <use style="stroke:#ffffff;stroke-width:0.48;" x="201.671591" xlink:href="#mf7b4e9923a" y="78.341117"/>
     <use style="stroke:#ffffff;stroke-width:0.48;" x="203.256818" xlink:href="#mf7b4e9923a" y="79.115995"/>
     <use style="stroke:#ffffff;stroke-width:0.48;" x="204.842045" xlink:href="#mf7b4e9923a" y="79.627279"/>
     <use style="stroke:#ffffff;stroke-width:0.48;" x="206.427273" xlink:href="#mf7b4e9923a" y="80.093755"/>
     <use style="stroke:#ffffff;stroke-width:0.48;" x="208.0125" xlink:href="#mf7b4e9923a" y="80.155778"/>
     <use style="stroke:#ffffff;stroke-width:0.48;" x="209.597727" xlink:href="#mf7b4e9923a" y="80.460042"/>
     <use style="stroke:#ffffff;stroke-width:0.48;" x="211.182955" xlink:href="#mf7b4e9923a" y="80.7909"/>
     <use style="stroke:#ffffff;stroke-width:0.48;" x="212.768182" xlink:href="#mf7b4e9923a" y="80.849387"/>
     <use style="stroke:#ffffff;stroke-width:0.48;" x="214.353409" xlink:href="#mf7b4e9923a" y="80.899284"/>
     <use style="stroke:#ffffff;stroke-width:0.48;" x="215.938636" xlink:href="#mf7b4e9923a" y="80.908915"/>
     <use style="stroke:#ffffff;stroke-width:0.48;" x="217.523864" xlink:href="#mf7b4e9923a" y="80.971917"/>
     <use style="stroke:#ffffff;stroke-width:0.48;" x="219.109091" xlink:href="#mf7b4e9923a" y="81.367418"/>
     <use style="stroke:#ffffff;stroke-width:0.48;" x="220.694318" xlink:href="#mf7b4e9923a" y="81.377888"/>
     <use style="stroke:#ffffff;stroke-width:0.48;" x="222.279545" xlink:href="#mf7b4e9923a" y="81.532229"/>
     <use style="stroke:#ffffff;stroke-width:0.48;" x="223.864773" xlink:href="#mf7b4e9923a" y="81.590109"/>
     <use style="stroke:#ffffff;stroke-width:0.48;" x="225.45" xlink:href="#mf7b4e9923a" y="81.685186"/>
     <use style="stroke:#ffffff;stroke-width:0.48;" x="227.035227" xlink:href="#mf7b4e9923a" y="81.803371"/>
     <use style="stroke:#ffffff;stroke-width:0.48;" x="228.620455" xlink:href="#mf7b4e9923a" y="81.927191"/>
     <use style="stroke:#ffffff;stroke-width:0.48;" x="230.205682" xlink:href="#mf7b4e9923a" y="82.068941"/>
     <use style="stroke:#ffffff;stroke-width:0.48;" x="231.790909" xlink:href="#mf7b4e9923a" y="82.161177"/>
     <use style="stroke:#ffffff;stroke-width:0.48;" x="233.376136" xlink:href="#mf7b4e9923a" y="82.306602"/>
     <use style="stroke:#ffffff;stroke-width:0.48;" x="234.961364" xlink:href="#mf7b4e9923a" y="82.427744"/>
     <use style="stroke:#ffffff;stroke-width:0.48;" x="236.546591" xlink:href="#mf7b4e9923a" y="82.627903"/>
     <use style="stroke:#ffffff;stroke-width:0.48;" x="238.131818" xlink:href="#mf7b4e9923a" y="82.694521"/>
     <use style="stroke:#ffffff;stroke-width:0.48;" x="239.717045" xlink:href="#mf7b4e9923a" y="82.734316"/>
     <use style="stroke:#ffffff;stroke-width:0.48;" x="241.302273" xlink:href="#mf7b4e9923a" y="82.860205"/>
     <use style="stroke:#ffffff;stroke-width:0.48;" x="242.8875" xlink:href="#mf7b4e9923a" y="82.960046"/>
     <use style="stroke:#ffffff;stroke-width:0.48;" x="244.472727" xlink:href="#mf7b4e9923a" y="83.025909"/>
     <use style="stroke:#ffffff;stroke-width:0.48;" x="246.057955" xlink:href="#mf7b4e9923a" y="83.060531"/>
     <use style="stroke:#ffffff;stroke-width:0.48;" x="247.643182" xlink:href="#mf7b4e9923a" y="83.326619"/>
     <use style="stroke:#ffffff;stroke-width:0.48;" x="249.228409" xlink:href="#mf7b4e9923a" y="83.518509"/>
     <use style="stroke:#ffffff;stroke-width:0.48;" x="250.813636" xlink:href="#mf7b4e9923a" y="83.610181"/>
     <use style="stroke:#ffffff;stroke-width:0.48;" x="252.398864" xlink:href="#mf7b4e9923a" y="84.005015"/>
     <use style="stroke:#ffffff;stroke-width:0.48;" x="253.984091" xlink:href="#mf7b4e9923a" y="84.06414"/>
     <use style="stroke:#ffffff;stroke-width:0.48;" x="255.569318" xlink:href="#mf7b4e9923a" y="84.199615"/>
     <use style="stroke:#ffffff;stroke-width:0.48;" x="257.154545" xlink:href="#mf7b4e9923a" y="84.490121"/>
     <use style="stroke:#ffffff;stroke-width:0.48;" x="258.739773" xlink:href="#mf7b4e9923a" y="84.810834"/>
     <use style="stroke:#ffffff;stroke-width:0.48;" x="260.325" xlink:href="#mf7b4e9923a" y="84.849445"/>
     <use style="stroke:#ffffff;stroke-width:0.48;" x="261.910227" xlink:href="#mf7b4e9923a" y="85.378204"/>
     <use style="stroke:#ffffff;stroke-width:0.48;" x="263.495455" xlink:href="#mf7b4e9923a" y="85.626101"/>
     <use style="stroke:#ffffff;stroke-width:0.48;" x="265.080682" xlink:href="#mf7b4e9923a" y="85.965457"/>
     <use style="stroke:#ffffff;stroke-width:0.48;" x="266.665909" xlink:href="#mf7b4e9923a" y="86.102116"/>
     <use style="stroke:#ffffff;stroke-width:0.48;" x="268.251136" xlink:href="#mf7b4e9923a" y="86.376062"/>
     <use style="stroke:#ffffff;stroke-width:0.48;" x="269.836364" xlink:href="#mf7b4e9923a" y="86.442622"/>
     <use style="stroke:#ffffff;stroke-width:0.48;" x="271.421591" xlink:href="#mf7b4e9923a" y="86.52049"/>
     <use style="stroke:#ffffff;stroke-width:0.48;" x="273.006818" xlink:href="#mf7b4e9923a" y="86.580685"/>
     <use style="stroke:#ffffff;stroke-width:0.48;" x="274.592045" xlink:href="#mf7b4e9923a" y="86.775741"/>
     <use style="stroke:#ffffff;stroke-width:0.48;" x="276.177273" xlink:href="#mf7b4e9923a" y="86.823526"/>
     <use style="stroke:#ffffff;stroke-width:0.48;" x="277.7625" xlink:href="#mf7b4e9923a" y="87.051722"/>
     <use style="stroke:#ffffff;stroke-width:0.48;" x="279.347727" xlink:href="#mf7b4e9923a" y="87.11639"/>
     <use style="stroke:#ffffff;stroke-width:0.48;" x="280.932955" xlink:href="#mf7b4e9923a" y="87.441015"/>
     <use style="stroke:#ffffff;stroke-width:0.48;" x="282.518182" xlink:href="#mf7b4e9923a" y="87.546035"/>
     <use style="stroke:#ffffff;stroke-width:0.48;" x="284.103409" xlink:href="#mf7b4e9923a" y="87.575984"/>
     <use style="stroke:#ffffff;stroke-width:0.48;" x="285.688636" xlink:href="#mf7b4e9923a" y="87.647974"/>
     <use style="stroke:#ffffff;stroke-width:0.48;" x="287.273864" xlink:href="#mf7b4e9923a" y="88.068718"/>
     <use style="stroke:#ffffff;stroke-width:0.48;" x="288.859091" xlink:href="#mf7b4e9923a" y="88.07097"/>
     <use style="stroke:#ffffff;stroke-width:0.48;" x="290.444318" xlink:href="#mf7b4e9923a" y="88.260347"/>
     <use style="stroke:#ffffff;stroke-width:0.48;" x="292.029545" xlink:href="#mf7b4e9923a" y="88.304371"/>
     <use style="stroke:#ffffff;stroke-width:0.48;" x="293.614773" xlink:href="#mf7b4e9923a" y="88.460154"/>
     <use style="stroke:#ffffff;stroke-width:0.48;" x="295.2" xlink:href="#mf7b4e9923a" y="88.501921"/>
     <use style="stroke:#ffffff;stroke-width:0.48;" x="296.785227" xlink:href="#mf7b4e9923a" y="88.544856"/>
     <use style="stroke:#ffffff;stroke-width:0.48;" x="298.370455" xlink:href="#mf7b4e9923a" y="88.775032"/>
     <use style="stroke:#ffffff;stroke-width:0.48;" x="299.955682" xlink:href="#mf7b4e9923a" y="88.852055"/>
     <use style="stroke:#ffffff;stroke-width:0.48;" x="301.540909" xlink:href="#mf7b4e9923a" y="88.891057"/>
     <use style="stroke:#ffffff;stroke-width:0.48;" x="303.126136" xlink:href="#mf7b4e9923a" y="89.103717"/>
     <use style="stroke:#ffffff;stroke-width:0.48;" x="304.711364" xlink:href="#mf7b4e9923a" y="89.107697"/>
     <use style="stroke:#ffffff;stroke-width:0.48;" x="306.296591" xlink:href="#mf7b4e9923a" y="89.206912"/>
     <use style="stroke:#ffffff;stroke-width:0.48;" x="307.881818" xlink:href="#mf7b4e9923a" y="89.231666"/>
     <use style="stroke:#ffffff;stroke-width:0.48;" x="309.467045" xlink:href="#mf7b4e9923a" y="89.313463"/>
     <use style="stroke:#ffffff;stroke-width:0.48;" x="311.052273" xlink:href="#mf7b4e9923a" y="89.466301"/>
     <use style="stroke:#ffffff;stroke-width:0.48;" x="312.6375" xlink:href="#mf7b4e9923a" y="89.512623"/>
     <use style="stroke:#ffffff;stroke-width:0.48;" x="314.222727" xlink:href="#mf7b4e9923a" y="89.609415"/>
     <use style="stroke:#ffffff;stroke-width:0.48;" x="315.807955" xlink:href="#mf7b4e9923a" y="89.869352"/>
     <use style="stroke:#ffffff;stroke-width:0.48;" x="317.393182" xlink:href="#mf7b4e9923a" y="90.183194"/>
     <use style="stroke:#ffffff;stroke-width:0.48;" x="318.978409" xlink:href="#mf7b4e9923a" y="90.533904"/>
     <use style="stroke:#ffffff;stroke-width:0.48;" x="320.563636" xlink:href="#mf7b4e9923a" y="90.866899"/>
     <use style="stroke:#ffffff;stroke-width:0.48;" x="322.148864" xlink:href="#mf7b4e9923a" y="91.221641"/>
     <use style="stroke:#ffffff;stroke-width:0.48;" x="323.734091" xlink:href="#mf7b4e9923a" y="91.248481"/>
     <use style="stroke:#ffffff;stroke-width:0.48;" x="325.319318" xlink:href="#mf7b4e9923a" y="91.298288"/>
     <use style="stroke:#ffffff;stroke-width:0.48;" x="326.904545" xlink:href="#mf7b4e9923a" y="91.418102"/>
     <use style="stroke:#ffffff;stroke-width:0.48;" x="328.489773" xlink:href="#mf7b4e9923a" y="91.462087"/>
     <use style="stroke:#ffffff;stroke-width:0.48;" x="330.075" xlink:href="#mf7b4e9923a" y="91.559082"/>
     <use style="stroke:#ffffff;stroke-width:0.48;" x="331.660227" xlink:href="#mf7b4e9923a" y="91.864362"/>
     <use style="stroke:#ffffff;stroke-width:0.48;" x="333.245455" xlink:href="#mf7b4e9923a" y="92.010581"/>
     <use style="stroke:#ffffff;stroke-width:0.48;" x="334.830682" xlink:href="#mf7b4e9923a" y="92.045911"/>
     <use style="stroke:#ffffff;stroke-width:0.48;" x="336.415909" xlink:href="#mf7b4e9923a" y="92.169907"/>
     <use style="stroke:#ffffff;stroke-width:0.48;" x="338.001136" xlink:href="#mf7b4e9923a" y="92.182348"/>
     <use style="stroke:#ffffff;stroke-width:0.48;" x="339.586364" xlink:href="#mf7b4e9923a" y="92.222447"/>
     <use style="stroke:#ffffff;stroke-width:0.48;" x="341.171591" xlink:href="#mf7b4e9923a" y="92.23725"/>
     <use style="stroke:#ffffff;stroke-width:0.48;" x="342.756818" xlink:href="#mf7b4e9923a" y="92.276703"/>
     <use style="stroke:#ffffff;stroke-width:0.48;" x="344.342045" xlink:href="#mf7b4e9923a" y="92.587261"/>
     <use style="stroke:#ffffff;stroke-width:0.48;" x="345.927273" xlink:href="#mf7b4e9923a" y="92.722724"/>
     <use style="stroke:#ffffff;stroke-width:0.48;" x="347.5125" xlink:href="#mf7b4e9923a" y="92.76672"/>
     <use style="stroke:#ffffff;stroke-width:0.48;" x="349.097727" xlink:href="#mf7b4e9923a" y="93.02248"/>
     <use style="stroke:#ffffff;stroke-width:0.48;" x="350.682955" xlink:href="#mf7b4e9923a" y="93.507076"/>
     <use style="stroke:#ffffff;stroke-width:0.48;" x="352.268182" xlink:href="#mf7b4e9923a" y="93.509482"/>
     <use style="stroke:#ffffff;stroke-width:0.48;" x="353.853409" xlink:href="#mf7b4e9923a" y="93.558323"/>
     <use style="stroke:#ffffff;stroke-width:0.48;" x="355.438636" xlink:href="#mf7b4e9923a" y="93.615526"/>
     <use style="stroke:#ffffff;stroke-width:0.48;" x="357.023864" xlink:href="#mf7b4e9923a" y="93.686575"/>
     <use style="stroke:#ffffff;stroke-width:0.48;" x="358.609091" xlink:href="#mf7b4e9923a" y="93.721541"/>
     <use style="stroke:#ffffff;stroke-width:0.48;" x="360.194318" xlink:href="#mf7b4e9923a" y="93.737868"/>
     <use style="stroke:#ffffff;stroke-width:0.48;" x="361.779545" xlink:href="#mf7b4e9923a" y="93.804226"/>
     <use style="stroke:#ffffff;stroke-width:0.48;" x="363.364773" xlink:href="#mf7b4e9923a" y="93.82817"/>
     <use style="stroke:#ffffff;stroke-width:0.48;" x="364.95" xlink:href="#mf7b4e9923a" y="93.925317"/>
     <use style="stroke:#ffffff;stroke-width:0.48;" x="366.535227" xlink:href="#mf7b4e9923a" y="94.109917"/>
     <use style="stroke:#ffffff;stroke-width:0.48;" x="368.120455" xlink:href="#mf7b4e9923a" y="94.114426"/>
     <use style="stroke:#ffffff;stroke-width:0.48;" x="369.705682" xlink:href="#mf7b4e9923a" y="94.16359"/>
     <use style="stroke:#ffffff;stroke-width:0.48;" x="371.290909" xlink:href="#mf7b4e9923a" y="94.318447"/>
     <use style="stroke:#ffffff;stroke-width:0.48;" x="372.876136" xlink:href="#mf7b4e9923a" y="94.347974"/>
     <use style="stroke:#ffffff;stroke-width:0.48;" x="374.461364" xlink:href="#mf7b4e9923a" y="94.41152"/>
     <use style="stroke:#ffffff;stroke-width:0.48;" x="376.046591" xlink:href="#mf7b4e9923a" y="94.413997"/>
     <use style="stroke:#ffffff;stroke-width:0.48;" x="377.631818" xlink:href="#mf7b4e9923a" y="94.460553"/>
     <use style="stroke:#ffffff;stroke-width:0.48;" x="379.217045" xlink:href="#mf7b4e9923a" y="94.95992"/>
     <use style="stroke:#ffffff;stroke-width:0.48;" x="380.802273" xlink:href="#mf7b4e9923a" y="94.979255"/>
     <use style="stroke:#ffffff;stroke-width:0.48;" x="382.3875" xlink:href="#mf7b4e9923a" y="95.234961"/>
     <use style="stroke:#ffffff;stroke-width:0.48;" x="383.972727" xlink:href="#mf7b4e9923a" y="95.270933"/>
     <use style="stroke:#ffffff;stroke-width:0.48;" x="385.557955" xlink:href="#mf7b4e9923a" y="95.36138"/>
     <use style="stroke:#ffffff;stroke-width:0.48;" x="387.143182" xlink:href="#mf7b4e9923a" y="95.415028"/>
     <use style="stroke:#ffffff;stroke-width:0.48;" x="388.728409" xlink:href="#mf7b4e9923a" y="95.905351"/>
     <use style="stroke:#ffffff;stroke-width:0.48;" x="390.313636" xlink:href="#mf7b4e9923a" y="95.985066"/>
     <use style="stroke:#ffffff;stroke-width:0.48;" x="391.898864" xlink:href="#mf7b4e9923a" y="96.154892"/>
     <use style="stroke:#ffffff;stroke-width:0.48;" x="393.484091" xlink:href="#mf7b4e9923a" y="96.561075"/>
     <use style="stroke:#ffffff;stroke-width:0.48;" x="395.069318" xlink:href="#mf7b4e9923a" y="96.601181"/>
     <use style="stroke:#ffffff;stroke-width:0.48;" x="396.654545" xlink:href="#mf7b4e9923a" y="96.938378"/>
     <use style="stroke:#ffffff;stroke-width:0.48;" x="398.239773" xlink:href="#mf7b4e9923a" y="96.989853"/>
     <use style="stroke:#ffffff;stroke-width:0.48;" x="399.825" xlink:href="#mf7b4e9923a" y="97.298612"/>
     <use style="stroke:#ffffff;stroke-width:0.48;" x="401.410227" xlink:href="#mf7b4e9923a" y="97.46576"/>
     <use style="stroke:#ffffff;stroke-width:0.48;" x="402.995455" xlink:href="#mf7b4e9923a" y="97.538206"/>
     <use style="stroke:#ffffff;stroke-width:0.48;" x="404.580682" xlink:href="#mf7b4e9923a" y="97.583322"/>
     <use style="stroke:#ffffff;stroke-width:0.48;" x="406.165909" xlink:href="#mf7b4e9923a" y="97.624"/>
     <use style="stroke:#ffffff;stroke-width:0.48;" x="407.751136" xlink:href="#mf7b4e9923a" y="97.664668"/>
     <use style="stroke:#ffffff;stroke-width:0.48;" x="409.336364" xlink:href="#mf7b4e9923a" y="98.24526"/>
     <use style="stroke:#ffffff;stroke-width:0.48;" x="410.921591" xlink:href="#mf7b4e9923a" y="98.478305"/>
     <use style="stroke:#ffffff;stroke-width:0.48;" x="412.506818" xlink:href="#mf7b4e9923a" y="98.569262"/>
     <use style="stroke:#ffffff;stroke-width:0.48;" x="414.092045" xlink:href="#mf7b4e9923a" y="98.611623"/>
     <use style="stroke:#ffffff;stroke-width:0.48;" x="415.677273" xlink:href="#mf7b4e9923a" y="98.694165"/>
     <use style="stroke:#ffffff;stroke-width:0.48;" x="417.2625" xlink:href="#mf7b4e9923a" y="98.767342"/>
     <use style="stroke:#ffffff;stroke-width:0.48;" x="418.847727" xlink:href="#mf7b4e9923a" y="98.79556"/>
     <use style="stroke:#ffffff;stroke-width:0.48;" x="420.432955" xlink:href="#mf7b4e9923a" y="98.805697"/>
     <use style="stroke:#ffffff;stroke-width:0.48;" x="422.018182" xlink:href="#mf7b4e9923a" y="98.903305"/>
     <use style="stroke:#ffffff;stroke-width:0.48;" x="423.603409" xlink:href="#mf7b4e9923a" y="99.052435"/>
     <use style="stroke:#ffffff;stroke-width:0.48;" x="425.188636" xlink:href="#mf7b4e9923a" y="99.110166"/>
     <use style="stroke:#ffffff;stroke-width:0.48;" x="426.773864" xlink:href="#mf7b4e9923a" y="99.538043"/>
     <use style="stroke:#ffffff;stroke-width:0.48;" x="428.359091" xlink:href="#mf7b4e9923a" y="100.162494"/>
     <use style="stroke:#ffffff;stroke-width:0.48;" x="429.944318" xlink:href="#mf7b4e9923a" y="100.318766"/>
     <use style="stroke:#ffffff;stroke-width:0.48;" x="431.529545" xlink:href="#mf7b4e9923a" y="100.661777"/>
     <use style="stroke:#ffffff;stroke-width:0.48;" x="433.114773" xlink:href="#mf7b4e9923a" y="100.803088"/>
     <use style="stroke:#ffffff;stroke-width:0.48;" x="434.7" xlink:href="#mf7b4e9923a" y="101.280147"/>
     <use style="stroke:#ffffff;stroke-width:0.48;" x="436.285227" xlink:href="#mf7b4e9923a" y="101.852174"/>
     <use style="stroke:#ffffff;stroke-width:0.48;" x="437.870455" xlink:href="#mf7b4e9923a" y="101.94152"/>
     <use style="stroke:#ffffff;stroke-width:0.48;" x="439.455682" xlink:href="#mf7b4e9923a" y="102.233472"/>
     <use style="stroke:#ffffff;stroke-width:0.48;" x="441.040909" xlink:href="#mf7b4e9923a" y="102.590773"/>
     <use style="stroke:#ffffff;stroke-width:0.48;" x="442.626136" xlink:href="#mf7b4e9923a" y="102.794934"/>
     <use style="stroke:#ffffff;stroke-width:0.48;" x="444.211364" xlink:href="#mf7b4e9923a" y="102.855567"/>
     <use style="stroke:#ffffff;stroke-width:0.48;" x="445.796591" xlink:href="#mf7b4e9923a" y="102.857773"/>
     <use style="stroke:#ffffff;stroke-width:0.48;" x="447.381818" xlink:href="#mf7b4e9923a" y="102.966331"/>
     <use style="stroke:#ffffff;stroke-width:0.48;" x="448.967045" xlink:href="#mf7b4e9923a" y="103.307254"/>
     <use style="stroke:#ffffff;stroke-width:0.48;" x="450.552273" xlink:href="#mf7b4e9923a" y="103.372697"/>
     <use style="stroke:#ffffff;stroke-width:0.48;" x="452.1375" xlink:href="#mf7b4e9923a" y="103.712248"/>
     <use style="stroke:#ffffff;stroke-width:0.48;" x="453.722727" xlink:href="#mf7b4e9923a" y="103.826029"/>
     <use style="stroke:#ffffff;stroke-width:0.48;" x="455.307955" xlink:href="#mf7b4e9923a" y="104.06668"/>
     <use style="stroke:#ffffff;stroke-width:0.48;" x="456.893182" xlink:href="#mf7b4e9923a" y="104.117386"/>
     <use style="stroke:#ffffff;stroke-width:0.48;" x="458.478409" xlink:href="#mf7b4e9923a" y="104.53203"/>
     <use style="stroke:#ffffff;stroke-width:0.48;" x="460.063636" xlink:href="#mf7b4e9923a" y="104.61802"/>
     <use style="stroke:#ffffff;stroke-width:0.48;" x="461.648864" xlink:href="#mf7b4e9923a" y="104.940758"/>
     <use style="stroke:#ffffff;stroke-width:0.48;" x="463.234091" xlink:href="#mf7b4e9923a" y="105.200793"/>
     <use style="stroke:#ffffff;stroke-width:0.48;" x="464.819318" xlink:href="#mf7b4e9923a" y="105.259468"/>
     <use style="stroke:#ffffff;stroke-width:0.48;" x="466.404545" xlink:href="#mf7b4e9923a" y="105.614765"/>
     <use style="stroke:#ffffff;stroke-width:0.48;" x="467.989773" xlink:href="#mf7b4e9923a" y="105.719253"/>
     <use style="stroke:#ffffff;stroke-width:0.48;" x="469.575" xlink:href="#mf7b4e9923a" y="105.97903"/>
     <use style="stroke:#ffffff;stroke-width:0.48;" x="471.160227" xlink:href="#mf7b4e9923a" y="106.511353"/>
     <use style="stroke:#ffffff;stroke-width:0.48;" x="472.745455" xlink:href="#mf7b4e9923a" y="106.71547"/>
     <use style="stroke:#ffffff;stroke-width:0.48;" x="474.330682" xlink:href="#mf7b4e9923a" y="107.020656"/>
     <use style="stroke:#ffffff;stroke-width:0.48;" x="475.915909" xlink:href="#mf7b4e9923a" y="107.200336"/>
     <use style="stroke:#ffffff;stroke-width:0.48;" x="477.501136" xlink:href="#mf7b4e9923a" y="107.491785"/>
     <use style="stroke:#ffffff;stroke-width:0.48;" x="479.086364" xlink:href="#mf7b4e9923a" y="107.678826"/>
     <use style="stroke:#ffffff;stroke-width:0.48;" x="480.671591" xlink:href="#mf7b4e9923a" y="108.299908"/>
     <use style="stroke:#ffffff;stroke-width:0.48;" x="482.256818" xlink:href="#mf7b4e9923a" y="108.514193"/>
     <use style="stroke:#ffffff;stroke-width:0.48;" x="483.842045" xlink:href="#mf7b4e9923a" y="109.810807"/>
     <use style="stroke:#ffffff;stroke-width:0.48;" x="485.427273" xlink:href="#mf7b4e9923a" y="111.294308"/>
     <use style="stroke:#ffffff;stroke-width:0.48;" x="487.0125" xlink:href="#mf7b4e9923a" y="111.532207"/>
     <use style="stroke:#ffffff;stroke-width:0.48;" x="488.597727" xlink:href="#mf7b4e9923a" y="112.021407"/>
     <use style="stroke:#ffffff;stroke-width:0.48;" x="490.182955" xlink:href="#mf7b4e9923a" y="112.699904"/>
     <use style="stroke:#ffffff;stroke-width:0.48;" x="491.768182" xlink:href="#mf7b4e9923a" y="112.704856"/>
     <use style="stroke:#ffffff;stroke-width:0.48;" x="493.353409" xlink:href="#mf7b4e9923a" y="114.62252"/>
     <use style="stroke:#ffffff;stroke-width:0.48;" x="494.938636" xlink:href="#mf7b4e9923a" y="114.746914"/>
     <use style="stroke:#ffffff;stroke-width:0.48;" x="496.523864" xlink:href="#mf7b4e9923a" y="121.058182"/>
    </g>
   </g>
   <g id="PathCollection_2">
    <defs>
     <path d="M 0 3 
C 0.795609 3 1.55874 2.683901 2.12132 2.12132 
C 2.683901 1.55874 3 0.795609 3 0 
C 3 -0.795609 2.683901 -1.55874 2.12132 -2.12132 
C 1.55874 -2.683901 0.795609 -3 0 -3 
C -0.795609 -3 -1.55874 -2.683901 -2.12132 -2.12132 
C -2.683901 -1.55874 -3 -0.795609 -3 0 
C -3 0.795609 -2.683901 1.55874 -2.12132 2.12132 
C -1.55874 2.683901 -0.795609 3 0 3 
z
" id="mdd6f48e663" style="stroke:#ffffff;stroke-width:0.48;"/>
    </defs>
    <g clip-path="url(#pbaef6d2c1f)">
     <use style="fill:#ff0000;stroke:#ffffff;stroke-width:0.48;" x="92.290909" xlink:href="#mdd6f48e663" y="22.221818"/>
    </g>
   </g>
   <g id="matplotlib.axis_1"/>
   <g id="matplotlib.axis_2">
    <g id="ytick_1">
     <g id="line2d_1">
      <defs>
       <path d="M 0 0 
L -3.5 0 
" id="m081166dd74" style="stroke:#000000;stroke-width:0.8;"/>
      </defs>
      <g>
       <use style="stroke:#000000;stroke-width:0.8;" x="72" xlink:href="#m081166dd74" y="83.972823"/>
      </g>
     </g>
     <g id="text_1">
      <!-- 0.00 -->
      <g transform="translate(42.734375 87.772041)scale(0.1 -0.1)">
       <defs>
        <path d="M 31.78125 66.40625 
Q 24.171875 66.40625 20.328125 58.90625 
Q 16.5 51.421875 16.5 36.375 
Q 16.5 21.390625 20.328125 13.890625 
Q 24.171875 6.390625 31.78125 6.390625 
Q 39.453125 6.390625 43.28125 13.890625 
Q 47.125 21.390625 47.125 36.375 
Q 47.125 51.421875 43.28125 58.90625 
Q 39.453125 66.40625 31.78125 66.40625 
z
M 31.78125 74.21875 
Q 44.046875 74.21875 50.515625 64.515625 
Q 56.984375 54.828125 56.984375 36.375 
Q 56.984375 17.96875 50.515625 8.265625 
Q 44.046875 -1.421875 31.78125 -1.421875 
Q 19.53125 -1.421875 13.0625 8.265625 
Q 6.59375 17.96875 6.59375 36.375 
Q 6.59375 54.828125 13.0625 64.515625 
Q 19.53125 74.21875 31.78125 74.21875 
z
" id="DejaVuSans-48"/>
        <path d="M 10.6875 12.40625 
L 21 12.40625 
L 21 0 
L 10.6875 0 
z
" id="DejaVuSans-46"/>
       </defs>
       <use xlink:href="#DejaVuSans-48"/>
       <use x="63.623047" xlink:href="#DejaVuSans-46"/>
       <use x="95.410156" xlink:href="#DejaVuSans-48"/>
       <use x="159.033203" xlink:href="#DejaVuSans-48"/>
      </g>
     </g>
    </g>
    <g id="ytick_2">
     <g id="line2d_2">
      <g>
       <use style="stroke:#000000;stroke-width:0.8;" x="72" xlink:href="#m081166dd74" y="41.133564"/>
      </g>
     </g>
     <g id="text_2">
      <!-- 0.01 -->
      <g transform="translate(42.734375 44.932783)scale(0.1 -0.1)">
       <defs>
        <path d="M 12.40625 8.296875 
L 28.515625 8.296875 
L 28.515625 63.921875 
L 10.984375 60.40625 
L 10.984375 69.390625 
L 28.421875 72.90625 
L 38.28125 72.90625 
L 38.28125 8.296875 
L 54.390625 8.296875 
L 54.390625 0 
L 12.40625 0 
z
" id="DejaVuSans-49"/>
       </defs>
       <use xlink:href="#DejaVuSans-48"/>
       <use x="63.623047" xlink:href="#DejaVuSans-46"/>
       <use x="95.410156" xlink:href="#DejaVuSans-48"/>
       <use x="159.033203" xlink:href="#DejaVuSans-49"/>
      </g>
     </g>
    </g>
   </g>
   <g id="LineCollection_1">
    <path clip-path="url(#pbaef6d2c1f)" d="M 92.290909 79.217882 
L 498.109091 79.217882 
" style="fill:none;stroke:#0000ff;stroke-dasharray:5.55,2.4;stroke-dashoffset:0;stroke-width:1.5;"/>
   </g>
   <g id="patch_3">
    <path d="M 72 126 
L 72 17.28 
" style="fill:none;stroke:#000000;stroke-linecap:square;stroke-linejoin:miter;stroke-width:0.8;"/>
   </g>
   <g id="patch_4">
    <path d="M 72 126 
L 518.4 126 
" style="fill:none;stroke:#000000;stroke-linecap:square;stroke-linejoin:miter;stroke-width:0.8;"/>
   </g>
   <g id="text_3">
    <!-- AAATAAACA -->
    <g style="fill:#ff0000;" transform="translate(155.7 22.221818)scale(0.1 -0.1)">
     <defs>
      <path d="M 53.421875 13.28125 
L 24.03125 13.28125 
L 19.390625 0 
L 0.484375 0 
L 27.484375 72.90625 
L 49.90625 72.90625 
L 76.90625 0 
L 58.015625 0 
z
M 28.71875 26.8125 
L 48.6875 26.8125 
L 38.71875 55.8125 
z
" id="DejaVuSans-Bold-65"/>
      <path d="M 0.484375 72.90625 
L 67.671875 72.90625 
L 67.671875 58.6875 
L 43.5 58.6875 
L 43.5 0 
L 24.703125 0 
L 24.703125 58.6875 
L 0.484375 58.6875 
z
" id="DejaVuSans-Bold-84"/>
      <path d="M 67 4 
Q 61.8125 1.3125 56.203125 -0.046875 
Q 50.59375 -1.421875 44.484375 -1.421875 
Q 26.265625 -1.421875 15.625 8.765625 
Q 4.984375 18.953125 4.984375 36.375 
Q 4.984375 53.859375 15.625 64.03125 
Q 26.265625 74.21875 44.484375 74.21875 
Q 50.59375 74.21875 56.203125 72.84375 
Q 61.8125 71.484375 67 68.796875 
L 67 53.71875 
Q 61.765625 57.28125 56.6875 58.9375 
Q 51.609375 60.59375 46 60.59375 
Q 35.9375 60.59375 30.171875 54.140625 
Q 24.421875 47.703125 24.421875 36.375 
Q 24.421875 25.09375 30.171875 18.640625 
Q 35.9375 12.203125 46 12.203125 
Q 51.609375 12.203125 56.6875 13.859375 
Q 61.765625 15.53125 67 19.09375 
z
" id="DejaVuSans-Bold-67"/>
     </defs>
     <use xlink:href="#DejaVuSans-Bold-65"/>
     <use x="77.392578" xlink:href="#DejaVuSans-Bold-65"/>
     <use x="154.785156" xlink:href="#DejaVuSans-Bold-65"/>
     <use x="224.427734" xlink:href="#DejaVuSans-Bold-84"/>
     <use x="284.890625" xlink:href="#DejaVuSans-Bold-65"/>
     <use x="362.283203" xlink:href="#DejaVuSans-Bold-65"/>
     <use x="439.675781" xlink:href="#DejaVuSans-Bold-65"/>
     <use x="517.068359" xlink:href="#DejaVuSans-Bold-67"/>
     <use x="590.457031" xlink:href="#DejaVuSans-Bold-65"/>
    </g>
   </g>
  </g>
 </g>
 <defs>
  <clipPath id="pbaef6d2c1f">
   <rect height="108.72" width="446.4" x="72" y="17.28"/>
  </clipPath>
 </defs>
</svg>
