<?xml version="1.0" encoding="utf-8" standalone="no"?>
<!DOCTYPE svg PUBLIC "-//W3C//DTD SVG 1.1//EN"
  "http://www.w3.org/Graphics/SVG/1.1/DTD/svg11.dtd">
<svg xmlns:xlink="http://www.w3.org/1999/xlink" width="570.63125pt" height="449.28pt" viewBox="0 0 570.63125 449.28" xmlns="http://www.w3.org/2000/svg" version="1.1">
 <metadata>
  <rdf:RDF xmlns:dc="http://purl.org/dc/elements/1.1/" xmlns:cc="http://creativecommons.org/ns#" xmlns:rdf="http://www.w3.org/1999/02/22-rdf-syntax-ns#">
   <cc:Work>
    <dc:type rdf:resource="http://purl.org/dc/dcmitype/StillImage"/>
    <dc:date>2022-02-09T15:43:29.420082</dc:date>
    <dc:format>image/svg+xml</dc:format>
    <dc:creator>
     <cc:Agent>
      <dc:title>Matplotlib v3.5.1, https://matplotlib.org/</dc:title>
     </cc:Agent>
    </dc:creator>
   </cc:Work>
  </rdf:RDF>
 </metadata>
 <defs>
  <style type="text/css">*{stroke-linejoin: round; stroke-linecap: butt}</style>
 </defs>
 <g id="figure_1">
  <g id="patch_1">
   <path d="M 0 449.28 
L 570.63125 449.28 
L 570.63125 0 
L 0 0 
z
" style="fill: #ffffff"/>
  </g>
  <g id="axes_1">
   <g id="patch_2">
    <path d="M 61.23125 442.08 
L 563.43125 442.08 
L 563.43125 7.2 
L 61.23125 7.2 
z
" style="fill: #ffffff"/>
   </g>
   <g id="matplotlib.axis_1">
    <g id="xtick_1"/>
    <g id="xtick_2"/>
    <g id="xtick_3"/>
    <g id="xtick_4"/>
    <g id="xtick_5"/>
    <g id="xtick_6"/>
    <g id="xtick_7"/>
    <g id="xtick_8"/>
    <g id="xtick_9"/>
    <g id="xtick_10"/>
    <g id="xtick_11"/>
    <g id="xtick_12"/>
    <g id="xtick_13"/>
    <g id="xtick_14"/>
    <g id="xtick_15"/>
    <g id="xtick_16"/>
    <g id="xtick_17"/>
    <g id="xtick_18"/>
    <g id="xtick_19"/>
    <g id="xtick_20"/>
    <g id="xtick_21"/>
    <g id="xtick_22"/>
    <g id="xtick_23"/>
    <g id="xtick_24"/>
    <g id="xtick_25"/>
    <g id="xtick_26"/>
    <g id="xtick_27"/>
    <g id="xtick_28"/>
    <g id="xtick_29"/>
    <g id="xtick_30"/>
    <g id="xtick_31"/>
    <g id="xtick_32"/>
    <g id="xtick_33"/>
    <g id="xtick_34"/>
    <g id="xtick_35"/>
    <g id="xtick_36"/>
    <g id="xtick_37"/>
    <g id="xtick_38"/>
    <g id="xtick_39"/>
    <g id="xtick_40"/>
    <g id="xtick_41"/>
    <g id="xtick_42"/>
    <g id="xtick_43"/>
    <g id="xtick_44"/>
    <g id="xtick_45"/>
    <g id="xtick_46"/>
    <g id="xtick_47"/>
    <g id="xtick_48"/>
    <g id="xtick_49"/>
    <g id="xtick_50"/>
    <g id="xtick_51"/>
    <g id="xtick_52"/>
    <g id="xtick_53"/>
    <g id="xtick_54"/>
   </g>
   <g id="matplotlib.axis_2">
    <g id="ytick_1">
     <g id="text_1">
      <!-- 0.0 -->
      <g style="fill: #262626" transform="translate(19.925 421.205403)scale(0.2 -0.2)">
       <defs>
        <path id="DejaVuSans-30" d="M 2034 4250 
Q 1547 4250 1301 3770 
Q 1056 3291 1056 2328 
Q 1056 1369 1301 889 
Q 1547 409 2034 409 
Q 2525 409 2770 889 
Q 3016 1369 3016 2328 
Q 3016 3291 2770 3770 
Q 2525 4250 2034 4250 
z
M 2034 4750 
Q 2819 4750 3233 4129 
Q 3647 3509 3647 2328 
Q 3647 1150 3233 529 
Q 2819 -91 2034 -91 
Q 1250 -91 836 529 
Q 422 1150 422 2328 
Q 422 3509 836 4129 
Q 1250 4750 2034 4750 
z
" transform="scale(0.015625)"/>
        <path id="DejaVuSans-2e" d="M 684 794 
L 1344 794 
L 1344 0 
L 684 0 
L 684 794 
z
" transform="scale(0.015625)"/>
       </defs>
       <use xlink:href="#DejaVuSans-30"/>
       <use xlink:href="#DejaVuSans-2e" x="63.623047"/>
       <use xlink:href="#DejaVuSans-30" x="95.410156"/>
      </g>
     </g>
    </g>
    <g id="ytick_2">
     <g id="text_2">
      <!-- 0.02 -->
      <g style="fill: #262626" transform="translate(7.2 347.501174)scale(0.2 -0.2)">
       <defs>
        <path id="DejaVuSans-32" d="M 1228 531 
L 3431 531 
L 3431 0 
L 469 0 
L 469 531 
Q 828 903 1448 1529 
Q 2069 2156 2228 2338 
Q 2531 2678 2651 2914 
Q 2772 3150 2772 3378 
Q 2772 3750 2511 3984 
Q 2250 4219 1831 4219 
Q 1534 4219 1204 4116 
Q 875 4013 500 3803 
L 500 4441 
Q 881 4594 1212 4672 
Q 1544 4750 1819 4750 
Q 2544 4750 2975 4387 
Q 3406 4025 3406 3419 
Q 3406 3131 3298 2873 
Q 3191 2616 2906 2266 
Q 2828 2175 2409 1742 
Q 1991 1309 1228 531 
z
" transform="scale(0.015625)"/>
       </defs>
       <use xlink:href="#DejaVuSans-30"/>
       <use xlink:href="#DejaVuSans-2e" x="63.623047"/>
       <use xlink:href="#DejaVuSans-30" x="95.410156"/>
       <use xlink:href="#DejaVuSans-32" x="159.033203"/>
      </g>
     </g>
    </g>
    <g id="ytick_3">
     <g id="text_3">
      <!-- 0.03 -->
      <g style="fill: #262626" transform="translate(7.2 273.796945)scale(0.2 -0.2)">
       <defs>
        <path id="DejaVuSans-33" d="M 2597 2516 
Q 3050 2419 3304 2112 
Q 3559 1806 3559 1356 
Q 3559 666 3084 287 
Q 2609 -91 1734 -91 
Q 1441 -91 1130 -33 
Q 819 25 488 141 
L 488 750 
Q 750 597 1062 519 
Q 1375 441 1716 441 
Q 2309 441 2620 675 
Q 2931 909 2931 1356 
Q 2931 1769 2642 2001 
Q 2353 2234 1838 2234 
L 1294 2234 
L 1294 2753 
L 1863 2753 
Q 2328 2753 2575 2939 
Q 2822 3125 2822 3475 
Q 2822 3834 2567 4026 
Q 2313 4219 1838 4219 
Q 1578 4219 1281 4162 
Q 984 4106 628 3988 
L 628 4550 
Q 988 4650 1302 4700 
Q 1616 4750 1894 4750 
Q 2613 4750 3031 4423 
Q 3450 4097 3450 3541 
Q 3450 3153 3228 2886 
Q 3006 2619 2597 2516 
z
" transform="scale(0.015625)"/>
       </defs>
       <use xlink:href="#DejaVuSans-30"/>
       <use xlink:href="#DejaVuSans-2e" x="63.623047"/>
       <use xlink:href="#DejaVuSans-30" x="95.410156"/>
       <use xlink:href="#DejaVuSans-33" x="159.033203"/>
      </g>
     </g>
    </g>
    <g id="ytick_4">
     <g id="text_4">
      <!-- 0.06 -->
      <g style="fill: #262626" transform="translate(7.2 200.092716)scale(0.2 -0.2)">
       <defs>
        <path id="DejaVuSans-36" d="M 2113 2584 
Q 1688 2584 1439 2293 
Q 1191 2003 1191 1497 
Q 1191 994 1439 701 
Q 1688 409 2113 409 
Q 2538 409 2786 701 
Q 3034 994 3034 1497 
Q 3034 2003 2786 2293 
Q 2538 2584 2113 2584 
z
M 3366 4563 
L 3366 3988 
Q 3128 4100 2886 4159 
Q 2644 4219 2406 4219 
Q 1781 4219 1451 3797 
Q 1122 3375 1075 2522 
Q 1259 2794 1537 2939 
Q 1816 3084 2150 3084 
Q 2853 3084 3261 2657 
Q 3669 2231 3669 1497 
Q 3669 778 3244 343 
Q 2819 -91 2113 -91 
Q 1303 -91 875 529 
Q 447 1150 447 2328 
Q 447 3434 972 4092 
Q 1497 4750 2381 4750 
Q 2619 4750 2861 4703 
Q 3103 4656 3366 4563 
z
" transform="scale(0.015625)"/>
       </defs>
       <use xlink:href="#DejaVuSans-30"/>
       <use xlink:href="#DejaVuSans-2e" x="63.623047"/>
       <use xlink:href="#DejaVuSans-30" x="95.410156"/>
       <use xlink:href="#DejaVuSans-36" x="159.033203"/>
      </g>
     </g>
    </g>
    <g id="ytick_5">
     <g id="text_5">
      <!-- 0.08 -->
      <g style="fill: #262626" transform="translate(7.2 126.388488)scale(0.2 -0.2)">
       <defs>
        <path id="DejaVuSans-38" d="M 2034 2216 
Q 1584 2216 1326 1975 
Q 1069 1734 1069 1313 
Q 1069 891 1326 650 
Q 1584 409 2034 409 
Q 2484 409 2743 651 
Q 3003 894 3003 1313 
Q 3003 1734 2745 1975 
Q 2488 2216 2034 2216 
z
M 1403 2484 
Q 997 2584 770 2862 
Q 544 3141 544 3541 
Q 544 4100 942 4425 
Q 1341 4750 2034 4750 
Q 2731 4750 3128 4425 
Q 3525 4100 3525 3541 
Q 3525 3141 3298 2862 
Q 3072 2584 2669 2484 
Q 3125 2378 3379 2068 
Q 3634 1759 3634 1313 
Q 3634 634 3220 271 
Q 2806 -91 2034 -91 
Q 1263 -91 848 271 
Q 434 634 434 1313 
Q 434 1759 690 2068 
Q 947 2378 1403 2484 
z
M 1172 3481 
Q 1172 3119 1398 2916 
Q 1625 2713 2034 2713 
Q 2441 2713 2670 2916 
Q 2900 3119 2900 3481 
Q 2900 3844 2670 4047 
Q 2441 4250 2034 4250 
Q 1625 4250 1398 4047 
Q 1172 3844 1172 3481 
z
" transform="scale(0.015625)"/>
       </defs>
       <use xlink:href="#DejaVuSans-30"/>
       <use xlink:href="#DejaVuSans-2e" x="63.623047"/>
       <use xlink:href="#DejaVuSans-30" x="95.410156"/>
       <use xlink:href="#DejaVuSans-38" x="159.033203"/>
      </g>
     </g>
    </g>
    <g id="ytick_6">
     <g id="text_6">
      <!-- 0.09 -->
      <g style="fill: #262626" transform="translate(7.2 52.684259)scale(0.2 -0.2)">
       <defs>
        <path id="DejaVuSans-39" d="M 703 97 
L 703 672 
Q 941 559 1184 500 
Q 1428 441 1663 441 
Q 2288 441 2617 861 
Q 2947 1281 2994 2138 
Q 2813 1869 2534 1725 
Q 2256 1581 1919 1581 
Q 1219 1581 811 2004 
Q 403 2428 403 3163 
Q 403 3881 828 4315 
Q 1253 4750 1959 4750 
Q 2769 4750 3195 4129 
Q 3622 3509 3622 2328 
Q 3622 1225 3098 567 
Q 2575 -91 1691 -91 
Q 1453 -91 1209 -44 
Q 966 3 703 97 
z
M 1959 2075 
Q 2384 2075 2632 2365 
Q 2881 2656 2881 3163 
Q 2881 3666 2632 3958 
Q 2384 4250 1959 4250 
Q 1534 4250 1286 3958 
Q 1038 3666 1038 3163 
Q 1038 2656 1286 2365 
Q 1534 2075 1959 2075 
z
" transform="scale(0.015625)"/>
       </defs>
       <use xlink:href="#DejaVuSans-30"/>
       <use xlink:href="#DejaVuSans-2e" x="63.623047"/>
       <use xlink:href="#DejaVuSans-30" x="95.410156"/>
       <use xlink:href="#DejaVuSans-39" x="159.033203"/>
      </g>
     </g>
    </g>
   </g>
   <g id="patch_3">
    <path d="M 62.16125 413.606965 
L 69.60125 413.606965 
L 69.60125 402.286873 
L 62.16125 402.286873 
z
" clip-path="url(#p1869edd11d)" style="fill: #ea96a3; stroke: #ffffff; stroke-linejoin: miter"/>
   </g>
   <g id="patch_4">
    <path d="M 71.46125 413.606965 
L 78.90125 413.606965 
L 78.90125 280.436847 
L 71.46125 280.436847 
z
" clip-path="url(#p1869edd11d)" style="fill: #ea979a; stroke: #ffffff; stroke-linejoin: miter"/>
   </g>
   <g id="patch_5">
    <path d="M 80.76125 413.606965 
L 88.20125 413.606965 
L 88.20125 250.901902 
L 80.76125 250.901902 
z
" clip-path="url(#p1869edd11d)" style="fill: #e9978e; stroke: #ffffff; stroke-linejoin: miter"/>
   </g>
   <g id="patch_6">
    <path d="M 90.06125 413.606965 
L 97.50125 413.606965 
L 97.50125 104.374922 
L 90.06125 104.374922 
z
" clip-path="url(#p1869edd11d)" style="fill: #e7957e; stroke: #ffffff; stroke-linejoin: miter"/>
   </g>
   <g id="patch_7">
    <path d="M 99.36125 413.606965 
L 106.80125 413.606965 
L 106.80125 182.434459 
L 99.36125 182.434459 
z
" clip-path="url(#p1869edd11d)" style="fill: #e39366; stroke: #ffffff; stroke-linejoin: miter"/>
   </g>
   <g id="patch_8">
    <path d="M 108.66125 413.606965 
L 116.10125 413.606965 
L 116.10125 82.199379 
L 108.66125 82.199379 
z
" clip-path="url(#p1869edd11d)" style="fill: #db934e; stroke: #ffffff; stroke-linejoin: miter"/>
   </g>
   <g id="patch_9">
    <path d="M 117.96125 413.606965 
L 125.40125 413.606965 
L 125.40125 265.288726 
L 117.96125 265.288726 
z
" clip-path="url(#p1869edd11d)" style="fill: #d1964d; stroke: #ffffff; stroke-linejoin: miter"/>
   </g>
   <g id="patch_10">
    <path d="M 127.26125 413.606965 
L 134.70125 413.606965 
L 134.70125 302.86507 
L 127.26125 302.86507 
z
" clip-path="url(#p1869edd11d)" style="fill: #c8984b; stroke: #ffffff; stroke-linejoin: miter"/>
   </g>
   <g id="patch_11">
    <path d="M 136.56125 413.606965 
L 144.00125 413.606965 
L 144.00125 173.542076 
L 136.56125 173.542076 
z
" clip-path="url(#p1869edd11d)" style="fill: #c09a4a; stroke: #ffffff; stroke-linejoin: miter"/>
   </g>
   <g id="patch_12">
    <path d="M 145.86125 413.606965 
L 153.30125 413.606965 
L 153.30125 359.862385 
L 145.86125 359.862385 
z
" clip-path="url(#p1869edd11d)" style="fill: #b89c49; stroke: #ffffff; stroke-linejoin: miter"/>
   </g>
   <g id="patch_13">
    <path d="M 155.16125 413.606965 
L 162.60125 413.606965 
L 162.60125 256.698298 
L 155.16125 256.698298 
z
" clip-path="url(#p1869edd11d)" style="fill: #b19d48; stroke: #ffffff; stroke-linejoin: miter"/>
   </g>
   <g id="patch_14">
    <path d="M 164.46125 413.606965 
L 171.90125 413.606965 
L 171.90125 399.688188 
L 164.46125 399.688188 
z
" clip-path="url(#p1869edd11d)" style="fill: #aa9e47; stroke: #ffffff; stroke-linejoin: miter"/>
   </g>
   <g id="patch_15">
    <path d="M 173.76125 413.606965 
L 181.20125 413.606965 
L 181.20125 300.6294 
L 173.76125 300.6294 
z
" clip-path="url(#p1869edd11d)" style="fill: #a29f46; stroke: #ffffff; stroke-linejoin: miter"/>
   </g>
   <g id="patch_16">
    <path d="M 183.06125 413.606965 
L 190.50125 413.606965 
L 190.50125 312.499669 
L 183.06125 312.499669 
z
" clip-path="url(#p1869edd11d)" style="fill: #9ba146; stroke: #ffffff; stroke-linejoin: miter"/>
   </g>
   <g id="patch_17">
    <path d="M 192.36125 413.606965 
L 199.80125 413.606965 
L 199.80125 315.489629 
L 192.36125 315.489629 
z
" clip-path="url(#p1869edd11d)" style="fill: #94a346; stroke: #ffffff; stroke-linejoin: miter"/>
   </g>
   <g id="patch_18">
    <path d="M 201.66125 413.606965 
L 209.10125 413.606965 
L 209.10125 332.469148 
L 201.66125 332.469148 
z
" clip-path="url(#p1869edd11d)" style="fill: #8ca646; stroke: #ffffff; stroke-linejoin: miter"/>
   </g>
   <g id="patch_19">
    <path d="M 210.96125 413.606965 
L 218.40125 413.606965 
L 218.40125 246.400939 
L 210.96125 246.400939 
z
" clip-path="url(#p1869edd11d)" style="fill: #82a846; stroke: #ffffff; stroke-linejoin: miter"/>
   </g>
   <g id="patch_20">
    <path d="M 220.26125 413.606965 
L 227.70125 413.606965 
L 227.70125 313.984586 
L 220.26125 313.984586 
z
" clip-path="url(#p1869edd11d)" style="fill: #74ab47; stroke: #ffffff; stroke-linejoin: miter"/>
   </g>
   <g id="patch_21">
    <path d="M 229.56125 413.606965 
L 237.00125 413.606965 
L 237.00125 26.967273 
L 229.56125 26.967273 
z
" clip-path="url(#p1869edd11d)" style="fill: #60ae47; stroke: #ffffff; stroke-linejoin: miter"/>
   </g>
   <g id="patch_22">
    <path d="M 238.86125 413.606965 
L 246.30125 413.606965 
L 246.30125 258.38521 
L 238.86125 258.38521 
z
" clip-path="url(#p1869edd11d)" style="fill: #48b056; stroke: #ffffff; stroke-linejoin: miter"/>
   </g>
   <g id="patch_23">
    <path d="M 248.16125 413.606965 
L 255.60125 413.606965 
L 255.60125 242.315762 
L 248.16125 242.315762 
z
" clip-path="url(#p1869edd11d)" style="fill: #48af6e; stroke: #ffffff; stroke-linejoin: miter"/>
   </g>
   <g id="patch_24">
    <path d="M 257.46125 413.606965 
L 264.90125 413.606965 
L 264.90125 412.234911 
L 257.46125 412.234911 
z
" clip-path="url(#p1869edd11d)" style="fill: #49af7c; stroke: #ffffff; stroke-linejoin: miter"/>
   </g>
   <g id="patch_25">
    <path d="M 266.76125 413.606965 
L 274.20125 413.606965 
L 274.20125 320.05098 
L 266.76125 320.05098 
z
" clip-path="url(#p1869edd11d)" style="fill: #49ae86; stroke: #ffffff; stroke-linejoin: miter"/>
   </g>
   <g id="patch_26">
    <path d="M 276.06125 413.606965 
L 283.50125 413.606965 
L 283.50125 401.673165 
L 276.06125 401.673165 
z
" clip-path="url(#p1869edd11d)" style="fill: #4aad8e; stroke: #ffffff; stroke-linejoin: miter"/>
   </g>
   <g id="patch_27">
    <path d="M 285.36125 413.606965 
L 292.80125 413.606965 
L 292.80125 410.857301 
L 285.36125 410.857301 
z
" clip-path="url(#p1869edd11d)" style="fill: #4aad95; stroke: #ffffff; stroke-linejoin: miter"/>
   </g>
   <g id="patch_28">
    <path d="M 294.66125 413.606965 
L 302.10125 413.606965 
L 302.10125 406.6056 
L 294.66125 406.6056 
z
" clip-path="url(#p1869edd11d)" style="fill: #4aac9a; stroke: #ffffff; stroke-linejoin: miter"/>
   </g>
   <g id="patch_29">
    <path d="M 303.96125 413.606965 
L 311.40125 413.606965 
L 311.40125 411.180352 
L 303.96125 411.180352 
z
" clip-path="url(#p1869edd11d)" style="fill: #4bac9f; stroke: #ffffff; stroke-linejoin: miter"/>
   </g>
   <g id="patch_30">
    <path d="M 313.26125 413.606965 
L 320.70125 413.606965 
L 320.70125 413.706433 
L 313.26125 413.706433 
z
" clip-path="url(#p1869edd11d)" style="fill: #4baba4; stroke: #ffffff; stroke-linejoin: miter"/>
   </g>
   <g id="patch_31">
    <path d="M 322.56125 413.606965 
L 330.00125 413.606965 
L 330.00125 302.325028 
L 322.56125 302.325028 
z
" clip-path="url(#p1869edd11d)" style="fill: #4baba9; stroke: #ffffff; stroke-linejoin: miter"/>
   </g>
   <g id="patch_32">
    <path d="M 331.86125 413.606965 
L 339.30125 413.606965 
L 339.30125 363.739009 
L 331.86125 363.739009 
z
" clip-path="url(#p1869edd11d)" style="fill: #4cabae; stroke: #ffffff; stroke-linejoin: miter"/>
   </g>
   <g id="patch_33">
    <path d="M 341.16125 413.606965 
L 348.60125 413.606965 
L 348.60125 409.857138 
L 341.16125 409.857138 
z
" clip-path="url(#p1869edd11d)" style="fill: #4dabb3; stroke: #ffffff; stroke-linejoin: miter"/>
   </g>
   <g id="patch_34">
    <path d="M 350.46125 413.606965 
L 357.90125 413.606965 
L 357.90125 404.999926 
L 350.46125 404.999926 
z
" clip-path="url(#p1869edd11d)" style="fill: #4eabb9; stroke: #ffffff; stroke-linejoin: miter"/>
   </g>
   <g id="patch_35">
    <path d="M 359.76125 413.606965 
L 367.20125 413.606965 
L 367.20125 398.686613 
L 359.76125 398.686613 
z
" clip-path="url(#p1869edd11d)" style="fill: #50acc0; stroke: #ffffff; stroke-linejoin: miter"/>
   </g>
   <g id="patch_36">
    <path d="M 369.06125 413.606965 
L 376.50125 413.606965 
L 376.50125 404.177774 
L 369.06125 404.177774 
z
" clip-path="url(#p1869edd11d)" style="fill: #51acc7; stroke: #ffffff; stroke-linejoin: miter"/>
   </g>
   <g id="patch_37">
    <path d="M 378.36125 413.606965 
L 385.80125 413.606965 
L 385.80125 383.372642 
L 378.36125 383.372642 
z
" clip-path="url(#p1869edd11d)" style="fill: #53acd0; stroke: #ffffff; stroke-linejoin: miter"/>
   </g>
   <g id="patch_38">
    <path d="M 387.66125 413.606965 
L 395.10125 413.606965 
L 395.10125 422.312727 
L 387.66125 422.312727 
z
" clip-path="url(#p1869edd11d)" style="fill: #56acda; stroke: #ffffff; stroke-linejoin: miter"/>
   </g>
   <g id="patch_39">
    <path d="M 396.96125 413.606965 
L 404.40125 413.606965 
L 404.40125 392.949931 
L 396.96125 392.949931 
z
" clip-path="url(#p1869edd11d)" style="fill: #6daee2; stroke: #ffffff; stroke-linejoin: miter"/>
   </g>
   <g id="patch_40">
    <path d="M 406.26125 413.606965 
L 413.70125 413.606965 
L 413.70125 399.30979 
L 406.26125 399.30979 
z
" clip-path="url(#p1869edd11d)" style="fill: #85aee6; stroke: #ffffff; stroke-linejoin: miter"/>
   </g>
   <g id="patch_41">
    <path d="M 415.56125 413.606965 
L 423.00125 413.606965 
L 423.00125 363.162412 
L 415.56125 363.162412 
z
" clip-path="url(#p1869edd11d)" style="fill: #97ade8; stroke: #ffffff; stroke-linejoin: miter"/>
   </g>
   <g id="patch_42">
    <path d="M 424.86125 413.606965 
L 432.30125 413.606965 
L 432.30125 399.381319 
L 424.86125 399.381319 
z
" clip-path="url(#p1869edd11d)" style="fill: #a6acea; stroke: #ffffff; stroke-linejoin: miter"/>
   </g>
   <g id="patch_43">
    <path d="M 434.16125 413.606965 
L 441.60125 413.606965 
L 441.60125 368.772507 
L 434.16125 368.772507 
z
" clip-path="url(#p1869edd11d)" style="fill: #b1aaeb; stroke: #ffffff; stroke-linejoin: miter"/>
   </g>
   <g id="patch_44">
    <path d="M 443.46125 413.606965 
L 450.90125 413.606965 
L 450.90125 388.352525 
L 443.46125 388.352525 
z
" clip-path="url(#p1869edd11d)" style="fill: #bba6ea; stroke: #ffffff; stroke-linejoin: miter"/>
   </g>
   <g id="patch_45">
    <path d="M 452.76125 413.606965 
L 460.20125 413.606965 
L 460.20125 392.508894 
L 452.76125 392.508894 
z
" clip-path="url(#p1869edd11d)" style="fill: #c4a1ea; stroke: #ffffff; stroke-linejoin: miter"/>
   </g>
   <g id="patch_46">
    <path d="M 462.06125 413.606965 
L 469.50125 413.606965 
L 469.50125 389.910999 
L 462.06125 389.910999 
z
" clip-path="url(#p1869edd11d)" style="fill: #cc9ce9; stroke: #ffffff; stroke-linejoin: miter"/>
   </g>
   <g id="patch_47">
    <path d="M 471.36125 413.606965 
L 478.80125 413.606965 
L 478.80125 404.833885 
L 471.36125 404.833885 
z
" clip-path="url(#p1869edd11d)" style="fill: #d596e8; stroke: #ffffff; stroke-linejoin: miter"/>
   </g>
   <g id="patch_48">
    <path d="M 480.66125 413.606965 
L 488.10125 413.606965 
L 488.10125 418.932892 
L 480.66125 418.932892 
z
" clip-path="url(#p1869edd11d)" style="fill: #df8fe7; stroke: #ffffff; stroke-linejoin: miter"/>
   </g>
   <g id="patch_49">
    <path d="M 489.96125 413.606965 
L 497.40125 413.606965 
L 497.40125 413.24174 
L 489.96125 413.24174 
z
" clip-path="url(#p1869edd11d)" style="fill: #e689e3; stroke: #ffffff; stroke-linejoin: miter"/>
   </g>
   <g id="patch_50">
    <path d="M 499.26125 413.606965 
L 506.70125 413.606965 
L 506.70125 411.150951 
L 499.26125 411.150951 
z
" clip-path="url(#p1869edd11d)" style="fill: #e78cda; stroke: #ffffff; stroke-linejoin: miter"/>
   </g>
   <g id="patch_51">
    <path d="M 508.56125 413.606965 
L 516.00125 413.606965 
L 516.00125 400.48024 
L 508.56125 400.48024 
z
" clip-path="url(#p1869edd11d)" style="fill: #e88ed1; stroke: #ffffff; stroke-linejoin: miter"/>
   </g>
   <g id="patch_52">
    <path d="M 517.86125 413.606965 
L 525.30125 413.606965 
L 525.30125 413.030605 
L 517.86125 413.030605 
z
" clip-path="url(#p1869edd11d)" style="fill: #e88fc9; stroke: #ffffff; stroke-linejoin: miter"/>
   </g>
   <g id="patch_53">
    <path d="M 527.16125 413.606965 
L 534.60125 413.606965 
L 534.60125 394.967536 
L 527.16125 394.967536 
z
" clip-path="url(#p1869edd11d)" style="fill: #e891c2; stroke: #ffffff; stroke-linejoin: miter"/>
   </g>
   <g id="patch_54">
    <path d="M 536.46125 413.606965 
L 543.90125 413.606965 
L 543.90125 412.116971 
L 536.46125 412.116971 
z
" clip-path="url(#p1869edd11d)" style="fill: #e992bb; stroke: #ffffff; stroke-linejoin: miter"/>
   </g>
   <g id="patch_55">
    <path d="M 545.76125 413.606965 
L 553.20125 413.606965 
L 553.20125 401.130735 
L 545.76125 401.130735 
z
" clip-path="url(#p1869edd11d)" style="fill: #e993b4; stroke: #ffffff; stroke-linejoin: miter"/>
   </g>
   <g id="patch_56">
    <path d="M 555.06125 413.606965 
L 562.50125 413.606965 
L 562.50125 404.481644 
L 555.06125 404.481644 
z
" clip-path="url(#p1869edd11d)" style="fill: #e994ac; stroke: #ffffff; stroke-linejoin: miter"/>
   </g>
   <g id="line2d_1">
    <path clip-path="url(#p1869edd11d)" style="fill: none; stroke: #424242; stroke-width: 2.7; stroke-linecap: round"/>
   </g>
   <g id="line2d_2">
    <path clip-path="url(#p1869edd11d)" style="fill: none; stroke: #424242; stroke-width: 2.7; stroke-linecap: round"/>
   </g>
   <g id="line2d_3">
    <path clip-path="url(#p1869edd11d)" style="fill: none; stroke: #424242; stroke-width: 2.7; stroke-linecap: round"/>
   </g>
   <g id="line2d_4">
    <path clip-path="url(#p1869edd11d)" style="fill: none; stroke: #424242; stroke-width: 2.7; stroke-linecap: round"/>
   </g>
   <g id="line2d_5">
    <path clip-path="url(#p1869edd11d)" style="fill: none; stroke: #424242; stroke-width: 2.7; stroke-linecap: round"/>
   </g>
   <g id="line2d_6">
    <path clip-path="url(#p1869edd11d)" style="fill: none; stroke: #424242; stroke-width: 2.7; stroke-linecap: round"/>
   </g>
   <g id="line2d_7">
    <path clip-path="url(#p1869edd11d)" style="fill: none; stroke: #424242; stroke-width: 2.7; stroke-linecap: round"/>
   </g>
   <g id="line2d_8">
    <path clip-path="url(#p1869edd11d)" style="fill: none; stroke: #424242; stroke-width: 2.7; stroke-linecap: round"/>
   </g>
   <g id="line2d_9">
    <path clip-path="url(#p1869edd11d)" style="fill: none; stroke: #424242; stroke-width: 2.7; stroke-linecap: round"/>
   </g>
   <g id="line2d_10">
    <path clip-path="url(#p1869edd11d)" style="fill: none; stroke: #424242; stroke-width: 2.7; stroke-linecap: round"/>
   </g>
   <g id="line2d_11">
    <path clip-path="url(#p1869edd11d)" style="fill: none; stroke: #424242; stroke-width: 2.7; stroke-linecap: round"/>
   </g>
   <g id="line2d_12">
    <path clip-path="url(#p1869edd11d)" style="fill: none; stroke: #424242; stroke-width: 2.7; stroke-linecap: round"/>
   </g>
   <g id="line2d_13">
    <path clip-path="url(#p1869edd11d)" style="fill: none; stroke: #424242; stroke-width: 2.7; stroke-linecap: round"/>
   </g>
   <g id="line2d_14">
    <path clip-path="url(#p1869edd11d)" style="fill: none; stroke: #424242; stroke-width: 2.7; stroke-linecap: round"/>
   </g>
   <g id="line2d_15">
    <path clip-path="url(#p1869edd11d)" style="fill: none; stroke: #424242; stroke-width: 2.7; stroke-linecap: round"/>
   </g>
   <g id="line2d_16">
    <path clip-path="url(#p1869edd11d)" style="fill: none; stroke: #424242; stroke-width: 2.7; stroke-linecap: round"/>
   </g>
   <g id="line2d_17">
    <path clip-path="url(#p1869edd11d)" style="fill: none; stroke: #424242; stroke-width: 2.7; stroke-linecap: round"/>
   </g>
   <g id="line2d_18">
    <path clip-path="url(#p1869edd11d)" style="fill: none; stroke: #424242; stroke-width: 2.7; stroke-linecap: round"/>
   </g>
   <g id="line2d_19">
    <path clip-path="url(#p1869edd11d)" style="fill: none; stroke: #424242; stroke-width: 2.7; stroke-linecap: round"/>
   </g>
   <g id="line2d_20">
    <path clip-path="url(#p1869edd11d)" style="fill: none; stroke: #424242; stroke-width: 2.7; stroke-linecap: round"/>
   </g>
   <g id="line2d_21">
    <path clip-path="url(#p1869edd11d)" style="fill: none; stroke: #424242; stroke-width: 2.7; stroke-linecap: round"/>
   </g>
   <g id="line2d_22">
    <path clip-path="url(#p1869edd11d)" style="fill: none; stroke: #424242; stroke-width: 2.7; stroke-linecap: round"/>
   </g>
   <g id="line2d_23">
    <path clip-path="url(#p1869edd11d)" style="fill: none; stroke: #424242; stroke-width: 2.7; stroke-linecap: round"/>
   </g>
   <g id="line2d_24">
    <path clip-path="url(#p1869edd11d)" style="fill: none; stroke: #424242; stroke-width: 2.7; stroke-linecap: round"/>
   </g>
   <g id="line2d_25">
    <path clip-path="url(#p1869edd11d)" style="fill: none; stroke: #424242; stroke-width: 2.7; stroke-linecap: round"/>
   </g>
   <g id="line2d_26">
    <path clip-path="url(#p1869edd11d)" style="fill: none; stroke: #424242; stroke-width: 2.7; stroke-linecap: round"/>
   </g>
   <g id="line2d_27">
    <path clip-path="url(#p1869edd11d)" style="fill: none; stroke: #424242; stroke-width: 2.7; stroke-linecap: round"/>
   </g>
   <g id="line2d_28">
    <path clip-path="url(#p1869edd11d)" style="fill: none; stroke: #424242; stroke-width: 2.7; stroke-linecap: round"/>
   </g>
   <g id="line2d_29">
    <path clip-path="url(#p1869edd11d)" style="fill: none; stroke: #424242; stroke-width: 2.7; stroke-linecap: round"/>
   </g>
   <g id="line2d_30">
    <path clip-path="url(#p1869edd11d)" style="fill: none; stroke: #424242; stroke-width: 2.7; stroke-linecap: round"/>
   </g>
   <g id="line2d_31">
    <path clip-path="url(#p1869edd11d)" style="fill: none; stroke: #424242; stroke-width: 2.7; stroke-linecap: round"/>
   </g>
   <g id="line2d_32">
    <path clip-path="url(#p1869edd11d)" style="fill: none; stroke: #424242; stroke-width: 2.7; stroke-linecap: round"/>
   </g>
   <g id="line2d_33">
    <path clip-path="url(#p1869edd11d)" style="fill: none; stroke: #424242; stroke-width: 2.7; stroke-linecap: round"/>
   </g>
   <g id="line2d_34">
    <path clip-path="url(#p1869edd11d)" style="fill: none; stroke: #424242; stroke-width: 2.7; stroke-linecap: round"/>
   </g>
   <g id="line2d_35">
    <path clip-path="url(#p1869edd11d)" style="fill: none; stroke: #424242; stroke-width: 2.7; stroke-linecap: round"/>
   </g>
   <g id="line2d_36">
    <path clip-path="url(#p1869edd11d)" style="fill: none; stroke: #424242; stroke-width: 2.7; stroke-linecap: round"/>
   </g>
   <g id="line2d_37">
    <path clip-path="url(#p1869edd11d)" style="fill: none; stroke: #424242; stroke-width: 2.7; stroke-linecap: round"/>
   </g>
   <g id="line2d_38">
    <path clip-path="url(#p1869edd11d)" style="fill: none; stroke: #424242; stroke-width: 2.7; stroke-linecap: round"/>
   </g>
   <g id="line2d_39">
    <path clip-path="url(#p1869edd11d)" style="fill: none; stroke: #424242; stroke-width: 2.7; stroke-linecap: round"/>
   </g>
   <g id="line2d_40">
    <path clip-path="url(#p1869edd11d)" style="fill: none; stroke: #424242; stroke-width: 2.7; stroke-linecap: round"/>
   </g>
   <g id="line2d_41">
    <path clip-path="url(#p1869edd11d)" style="fill: none; stroke: #424242; stroke-width: 2.7; stroke-linecap: round"/>
   </g>
   <g id="line2d_42">
    <path clip-path="url(#p1869edd11d)" style="fill: none; stroke: #424242; stroke-width: 2.7; stroke-linecap: round"/>
   </g>
   <g id="line2d_43">
    <path clip-path="url(#p1869edd11d)" style="fill: none; stroke: #424242; stroke-width: 2.7; stroke-linecap: round"/>
   </g>
   <g id="line2d_44">
    <path clip-path="url(#p1869edd11d)" style="fill: none; stroke: #424242; stroke-width: 2.7; stroke-linecap: round"/>
   </g>
   <g id="line2d_45">
    <path clip-path="url(#p1869edd11d)" style="fill: none; stroke: #424242; stroke-width: 2.7; stroke-linecap: round"/>
   </g>
   <g id="line2d_46">
    <path clip-path="url(#p1869edd11d)" style="fill: none; stroke: #424242; stroke-width: 2.7; stroke-linecap: round"/>
   </g>
   <g id="line2d_47">
    <path clip-path="url(#p1869edd11d)" style="fill: none; stroke: #424242; stroke-width: 2.7; stroke-linecap: round"/>
   </g>
   <g id="line2d_48">
    <path clip-path="url(#p1869edd11d)" style="fill: none; stroke: #424242; stroke-width: 2.7; stroke-linecap: round"/>
   </g>
   <g id="line2d_49">
    <path clip-path="url(#p1869edd11d)" style="fill: none; stroke: #424242; stroke-width: 2.7; stroke-linecap: round"/>
   </g>
   <g id="line2d_50">
    <path clip-path="url(#p1869edd11d)" style="fill: none; stroke: #424242; stroke-width: 2.7; stroke-linecap: round"/>
   </g>
   <g id="line2d_51">
    <path clip-path="url(#p1869edd11d)" style="fill: none; stroke: #424242; stroke-width: 2.7; stroke-linecap: round"/>
   </g>
   <g id="line2d_52">
    <path clip-path="url(#p1869edd11d)" style="fill: none; stroke: #424242; stroke-width: 2.7; stroke-linecap: round"/>
   </g>
   <g id="line2d_53">
    <path clip-path="url(#p1869edd11d)" style="fill: none; stroke: #424242; stroke-width: 2.7; stroke-linecap: round"/>
   </g>
   <g id="line2d_54">
    <path clip-path="url(#p1869edd11d)" style="fill: none; stroke: #424242; stroke-width: 2.7; stroke-linecap: round"/>
   </g>
   <g id="patch_57">
    <path d="M 61.23125 442.08 
L 61.23125 7.2 
" style="fill: none; stroke: #262626; stroke-width: 1.25; stroke-linejoin: miter; stroke-linecap: square"/>
   </g>
   <g id="patch_58">
    <path d="M 563.43125 442.08 
L 563.43125 7.2 
" style="fill: none; stroke: #262626; stroke-width: 1.25; stroke-linejoin: miter; stroke-linecap: square"/>
   </g>
   <g id="patch_59">
    <path d="M 61.23125 442.08 
L 563.43125 442.08 
" style="fill: none; stroke: #262626; stroke-width: 1.25; stroke-linejoin: miter; stroke-linecap: square"/>
   </g>
   <g id="patch_60">
    <path d="M 61.23125 7.2 
L 563.43125 7.2 
" style="fill: none; stroke: #262626; stroke-width: 1.25; stroke-linejoin: miter; stroke-linecap: square"/>
   </g>
  </g>
 </g>
 <defs>
  <clipPath id="p1869edd11d">
   <rect x="61.23125" y="7.2" width="502.2" height="434.88"/>
  </clipPath>
 </defs>
</svg>
