<?xml version="1.0" encoding="utf-8" standalone="no"?>
<!DOCTYPE svg PUBLIC "-//W3C//DTD SVG 1.1//EN"
  "http://www.w3.org/Graphics/SVG/1.1/DTD/svg11.dtd">
<!-- Created with matplotlib (https://matplotlib.org/) -->
<svg height="376.057719pt" version="1.1" viewBox="0 0 520.309844 376.057719" width="520.309844pt" xmlns="http://www.w3.org/2000/svg" xmlns:xlink="http://www.w3.org/1999/xlink">
 <metadata>
  <rdf:RDF xmlns:cc="http://creativecommons.org/ns#" xmlns:dc="http://purl.org/dc/elements/1.1/" xmlns:rdf="http://www.w3.org/1999/02/22-rdf-syntax-ns#">
   <cc:Work>
    <dc:type rdf:resource="http://purl.org/dc/dcmitype/StillImage"/>
    <dc:date>2022-02-04T17:04:38.642405</dc:date>
    <dc:format>image/svg+xml</dc:format>
    <dc:creator>
     <cc:Agent>
      <dc:title>Matplotlib v3.3.0, https://matplotlib.org/</dc:title>
     </cc:Agent>
    </dc:creator>
   </cc:Work>
  </rdf:RDF>
 </metadata>
 <defs>
  <style type="text/css">*{stroke-linecap:butt;stroke-linejoin:round;}</style>
 </defs>
 <g id="figure_1">
  <g id="patch_1">
   <path d="M 0 376.057719 
L 520.309844 376.057719 
L 520.309844 0 
L 0 0 
z
" style="fill:#ffffff;"/>
  </g>
  <g id="axes_1">
   <g id="patch_2">
    <path d="M 51.539844 342.518 
L 386.339844 342.518 
L 386.339844 16.358 
L 51.539844 16.358 
z
" style="fill:#ffffff;"/>
   </g>
   <g id="matplotlib.axis_1">
    <g id="xtick_1">
     <g id="line2d_1">
      <defs>
       <path d="M 0 0 
L 0 9 
" id="m8ca57d20f2" style="stroke:#262626;"/>
      </defs>
      <g>
       <use style="fill:#262626;stroke:#262626;" x="66.758026" xlink:href="#m8ca57d20f2" y="342.518"/>
      </g>
     </g>
     <g id="text_1">
      <!-- 0 -->
      <g style="fill:#262626;" transform="translate(62.208838 365.883766)scale(0.143 -0.143)">
       <defs>
        <path d="M 31.78125 66.40625 
Q 24.171875 66.40625 20.328125 58.90625 
Q 16.5 51.421875 16.5 36.375 
Q 16.5 21.390625 20.328125 13.890625 
Q 24.171875 6.390625 31.78125 6.390625 
Q 39.453125 6.390625 43.28125 13.890625 
Q 47.125 21.390625 47.125 36.375 
Q 47.125 51.421875 43.28125 58.90625 
Q 39.453125 66.40625 31.78125 66.40625 
z
M 31.78125 74.21875 
Q 44.046875 74.21875 50.515625 64.515625 
Q 56.984375 54.828125 56.984375 36.375 
Q 56.984375 17.96875 50.515625 8.265625 
Q 44.046875 -1.421875 31.78125 -1.421875 
Q 19.53125 -1.421875 13.0625 8.265625 
Q 6.59375 17.96875 6.59375 36.375 
Q 6.59375 54.828125 13.0625 64.515625 
Q 19.53125 74.21875 31.78125 74.21875 
z
" id="DejaVuSans-48"/>
       </defs>
       <use xlink:href="#DejaVuSans-48"/>
      </g>
     </g>
    </g>
    <g id="xtick_2">
     <g id="line2d_2">
      <g>
       <use style="fill:#262626;stroke:#262626;" x="168.212571" xlink:href="#m8ca57d20f2" y="342.518"/>
      </g>
     </g>
     <g id="text_2">
      <!-- 8 -->
      <g style="fill:#262626;" transform="translate(163.663384 365.883766)scale(0.143 -0.143)">
       <defs>
        <path d="M 31.78125 34.625 
Q 24.75 34.625 20.71875 30.859375 
Q 16.703125 27.09375 16.703125 20.515625 
Q 16.703125 13.921875 20.71875 10.15625 
Q 24.75 6.390625 31.78125 6.390625 
Q 38.8125 6.390625 42.859375 10.171875 
Q 46.921875 13.96875 46.921875 20.515625 
Q 46.921875 27.09375 42.890625 30.859375 
Q 38.875 34.625 31.78125 34.625 
z
M 21.921875 38.8125 
Q 15.578125 40.375 12.03125 44.71875 
Q 8.5 49.078125 8.5 55.328125 
Q 8.5 64.0625 14.71875 69.140625 
Q 20.953125 74.21875 31.78125 74.21875 
Q 42.671875 74.21875 48.875 69.140625 
Q 55.078125 64.0625 55.078125 55.328125 
Q 55.078125 49.078125 51.53125 44.71875 
Q 48 40.375 41.703125 38.8125 
Q 48.828125 37.15625 52.796875 32.3125 
Q 56.78125 27.484375 56.78125 20.515625 
Q 56.78125 9.90625 50.3125 4.234375 
Q 43.84375 -1.421875 31.78125 -1.421875 
Q 19.734375 -1.421875 13.25 4.234375 
Q 6.78125 9.90625 6.78125 20.515625 
Q 6.78125 27.484375 10.78125 32.3125 
Q 14.796875 37.15625 21.921875 38.8125 
z
M 18.3125 54.390625 
Q 18.3125 48.734375 21.84375 45.5625 
Q 25.390625 42.390625 31.78125 42.390625 
Q 38.140625 42.390625 41.71875 45.5625 
Q 45.3125 48.734375 45.3125 54.390625 
Q 45.3125 60.0625 41.71875 63.234375 
Q 38.140625 66.40625 31.78125 66.40625 
Q 25.390625 66.40625 21.84375 63.234375 
Q 18.3125 60.0625 18.3125 54.390625 
z
" id="DejaVuSans-56"/>
       </defs>
       <use xlink:href="#DejaVuSans-56"/>
      </g>
     </g>
    </g>
    <g id="xtick_3">
     <g id="line2d_3">
      <g>
       <use style="fill:#262626;stroke:#262626;" x="269.667116" xlink:href="#m8ca57d20f2" y="342.518"/>
      </g>
     </g>
     <g id="text_3">
      <!-- 16 -->
      <g style="fill:#262626;" transform="translate(260.568741 365.883766)scale(0.143 -0.143)">
       <defs>
        <path d="M 12.40625 8.296875 
L 28.515625 8.296875 
L 28.515625 63.921875 
L 10.984375 60.40625 
L 10.984375 69.390625 
L 28.421875 72.90625 
L 38.28125 72.90625 
L 38.28125 8.296875 
L 54.390625 8.296875 
L 54.390625 0 
L 12.40625 0 
z
" id="DejaVuSans-49"/>
        <path d="M 33.015625 40.375 
Q 26.375 40.375 22.484375 35.828125 
Q 18.609375 31.296875 18.609375 23.390625 
Q 18.609375 15.53125 22.484375 10.953125 
Q 26.375 6.390625 33.015625 6.390625 
Q 39.65625 6.390625 43.53125 10.953125 
Q 47.40625 15.53125 47.40625 23.390625 
Q 47.40625 31.296875 43.53125 35.828125 
Q 39.65625 40.375 33.015625 40.375 
z
M 52.59375 71.296875 
L 52.59375 62.3125 
Q 48.875 64.0625 45.09375 64.984375 
Q 41.3125 65.921875 37.59375 65.921875 
Q 27.828125 65.921875 22.671875 59.328125 
Q 17.53125 52.734375 16.796875 39.40625 
Q 19.671875 43.65625 24.015625 45.921875 
Q 28.375 48.1875 33.59375 48.1875 
Q 44.578125 48.1875 50.953125 41.515625 
Q 57.328125 34.859375 57.328125 23.390625 
Q 57.328125 12.15625 50.6875 5.359375 
Q 44.046875 -1.421875 33.015625 -1.421875 
Q 20.359375 -1.421875 13.671875 8.265625 
Q 6.984375 17.96875 6.984375 36.375 
Q 6.984375 53.65625 15.1875 63.9375 
Q 23.390625 74.21875 37.203125 74.21875 
Q 40.921875 74.21875 44.703125 73.484375 
Q 48.484375 72.75 52.59375 71.296875 
z
" id="DejaVuSans-54"/>
       </defs>
       <use xlink:href="#DejaVuSans-49"/>
       <use x="63.623047" xlink:href="#DejaVuSans-54"/>
      </g>
     </g>
    </g>
    <g id="xtick_4">
     <g id="line2d_4">
      <g>
       <use style="fill:#262626;stroke:#262626;" x="371.121662" xlink:href="#m8ca57d20f2" y="342.518"/>
      </g>
     </g>
     <g id="text_4">
      <!-- 24 -->
      <g style="fill:#262626;" transform="translate(362.023287 365.883766)scale(0.143 -0.143)">
       <defs>
        <path d="M 19.1875 8.296875 
L 53.609375 8.296875 
L 53.609375 0 
L 7.328125 0 
L 7.328125 8.296875 
Q 12.9375 14.109375 22.625 23.890625 
Q 32.328125 33.6875 34.8125 36.53125 
Q 39.546875 41.84375 41.421875 45.53125 
Q 43.3125 49.21875 43.3125 52.78125 
Q 43.3125 58.59375 39.234375 62.25 
Q 35.15625 65.921875 28.609375 65.921875 
Q 23.96875 65.921875 18.8125 64.3125 
Q 13.671875 62.703125 7.8125 59.421875 
L 7.8125 69.390625 
Q 13.765625 71.78125 18.9375 73 
Q 24.125 74.21875 28.421875 74.21875 
Q 39.75 74.21875 46.484375 68.546875 
Q 53.21875 62.890625 53.21875 53.421875 
Q 53.21875 48.921875 51.53125 44.890625 
Q 49.859375 40.875 45.40625 35.40625 
Q 44.1875 33.984375 37.640625 27.21875 
Q 31.109375 20.453125 19.1875 8.296875 
z
" id="DejaVuSans-50"/>
        <path d="M 37.796875 64.3125 
L 12.890625 25.390625 
L 37.796875 25.390625 
z
M 35.203125 72.90625 
L 47.609375 72.90625 
L 47.609375 25.390625 
L 58.015625 25.390625 
L 58.015625 17.1875 
L 47.609375 17.1875 
L 47.609375 0 
L 37.796875 0 
L 37.796875 17.1875 
L 4.890625 17.1875 
L 4.890625 26.703125 
z
" id="DejaVuSans-52"/>
       </defs>
       <use xlink:href="#DejaVuSans-50"/>
       <use x="63.623047" xlink:href="#DejaVuSans-52"/>
      </g>
     </g>
    </g>
   </g>
   <g id="matplotlib.axis_2">
    <g id="ytick_1">
     <g id="line2d_5">
      <defs>
       <path d="M 0 0 
L -9 0 
" id="ma015566b76" style="stroke:#262626;"/>
      </defs>
      <g>
       <use style="fill:#262626;stroke:#262626;" x="51.539844" xlink:href="#ma015566b76" y="273.852737"/>
      </g>
     </g>
     <g id="text_5">
      <!-- 0.30 -->
      <g style="fill:#262626;" transform="translate(7.2 279.28562)scale(0.143 -0.143)">
       <defs>
        <path d="M 10.6875 12.40625 
L 21 12.40625 
L 21 0 
L 10.6875 0 
z
" id="DejaVuSans-46"/>
        <path d="M 40.578125 39.3125 
Q 47.65625 37.796875 51.625 33 
Q 55.609375 28.21875 55.609375 21.1875 
Q 55.609375 10.40625 48.1875 4.484375 
Q 40.765625 -1.421875 27.09375 -1.421875 
Q 22.515625 -1.421875 17.65625 -0.515625 
Q 12.796875 0.390625 7.625 2.203125 
L 7.625 11.71875 
Q 11.71875 9.328125 16.59375 8.109375 
Q 21.484375 6.890625 26.8125 6.890625 
Q 36.078125 6.890625 40.9375 10.546875 
Q 45.796875 14.203125 45.796875 21.1875 
Q 45.796875 27.640625 41.28125 31.265625 
Q 36.765625 34.90625 28.71875 34.90625 
L 20.21875 34.90625 
L 20.21875 43.015625 
L 29.109375 43.015625 
Q 36.375 43.015625 40.234375 45.921875 
Q 44.09375 48.828125 44.09375 54.296875 
Q 44.09375 59.90625 40.109375 62.90625 
Q 36.140625 65.921875 28.71875 65.921875 
Q 24.65625 65.921875 20.015625 65.03125 
Q 15.375 64.15625 9.8125 62.3125 
L 9.8125 71.09375 
Q 15.4375 72.65625 20.34375 73.4375 
Q 25.25 74.21875 29.59375 74.21875 
Q 40.828125 74.21875 47.359375 69.109375 
Q 53.90625 64.015625 53.90625 55.328125 
Q 53.90625 49.265625 50.4375 45.09375 
Q 46.96875 40.921875 40.578125 39.3125 
z
" id="DejaVuSans-51"/>
       </defs>
       <use xlink:href="#DejaVuSans-48"/>
       <use x="63.623047" xlink:href="#DejaVuSans-46"/>
       <use x="95.410156" xlink:href="#DejaVuSans-51"/>
       <use x="159.033203" xlink:href="#DejaVuSans-48"/>
      </g>
     </g>
    </g>
    <g id="ytick_2">
     <g id="line2d_6">
      <g>
       <use style="fill:#262626;stroke:#262626;" x="51.539844" xlink:href="#ma015566b76" y="188.021158"/>
      </g>
     </g>
     <g id="text_6">
      <!-- 0.45 -->
      <g style="fill:#262626;" transform="translate(7.2 193.454041)scale(0.143 -0.143)">
       <defs>
        <path d="M 10.796875 72.90625 
L 49.515625 72.90625 
L 49.515625 64.59375 
L 19.828125 64.59375 
L 19.828125 46.734375 
Q 21.96875 47.46875 24.109375 47.828125 
Q 26.265625 48.1875 28.421875 48.1875 
Q 40.625 48.1875 47.75 41.5 
Q 54.890625 34.8125 54.890625 23.390625 
Q 54.890625 11.625 47.5625 5.09375 
Q 40.234375 -1.421875 26.90625 -1.421875 
Q 22.3125 -1.421875 17.546875 -0.640625 
Q 12.796875 0.140625 7.71875 1.703125 
L 7.71875 11.625 
Q 12.109375 9.234375 16.796875 8.0625 
Q 21.484375 6.890625 26.703125 6.890625 
Q 35.15625 6.890625 40.078125 11.328125 
Q 45.015625 15.765625 45.015625 23.390625 
Q 45.015625 31 40.078125 35.4375 
Q 35.15625 39.890625 26.703125 39.890625 
Q 22.75 39.890625 18.8125 39.015625 
Q 14.890625 38.140625 10.796875 36.28125 
z
" id="DejaVuSans-53"/>
       </defs>
       <use xlink:href="#DejaVuSans-48"/>
       <use x="63.623047" xlink:href="#DejaVuSans-46"/>
       <use x="95.410156" xlink:href="#DejaVuSans-52"/>
       <use x="159.033203" xlink:href="#DejaVuSans-53"/>
      </g>
     </g>
    </g>
    <g id="ytick_3">
     <g id="line2d_7">
      <g>
       <use style="fill:#262626;stroke:#262626;" x="51.539844" xlink:href="#ma015566b76" y="102.189579"/>
      </g>
     </g>
     <g id="text_7">
      <!-- 0.60 -->
      <g style="fill:#262626;" transform="translate(7.2 107.622462)scale(0.143 -0.143)">
       <use xlink:href="#DejaVuSans-48"/>
       <use x="63.623047" xlink:href="#DejaVuSans-46"/>
       <use x="95.410156" xlink:href="#DejaVuSans-54"/>
       <use x="159.033203" xlink:href="#DejaVuSans-48"/>
      </g>
     </g>
    </g>
    <g id="ytick_4">
     <g id="line2d_8">
      <g>
       <use style="fill:#262626;stroke:#262626;" x="51.539844" xlink:href="#ma015566b76" y="16.358"/>
      </g>
     </g>
     <g id="text_8">
      <!-- 0.75 -->
      <g style="fill:#262626;" transform="translate(7.2 21.790883)scale(0.143 -0.143)">
       <defs>
        <path d="M 8.203125 72.90625 
L 55.078125 72.90625 
L 55.078125 68.703125 
L 28.609375 0 
L 18.3125 0 
L 43.21875 64.59375 
L 8.203125 64.59375 
z
" id="DejaVuSans-55"/>
       </defs>
       <use xlink:href="#DejaVuSans-48"/>
       <use x="63.623047" xlink:href="#DejaVuSans-46"/>
       <use x="95.410156" xlink:href="#DejaVuSans-55"/>
       <use x="159.033203" xlink:href="#DejaVuSans-53"/>
      </g>
     </g>
    </g>
   </g>
   <g id="PathCollection_1">
    <defs>
     <path d="M 0 2.236068 
C 0.593012 2.236068 1.161816 2.000462 1.581139 1.581139 
C 2.000462 1.161816 2.236068 0.593012 2.236068 0 
C 2.236068 -0.593012 2.000462 -1.161816 1.581139 -1.581139 
C 1.161816 -2.000462 0.593012 -2.236068 0 -2.236068 
C -0.593012 -2.236068 -1.161816 -2.000462 -1.581139 -1.581139 
C -2.000462 -1.161816 -2.236068 -0.593012 -2.236068 0 
C -2.236068 0.593012 -2.000462 1.161816 -1.581139 1.581139 
C -1.161816 2.000462 -0.593012 2.236068 0 2.236068 
z
" id="m38c40152ee" style="stroke:#db5f57;"/>
    </defs>
    <g clip-path="url(#p4bdfe331a1)">
     <use style="fill:#db5f57;stroke:#db5f57;" x="66.758026" xlink:href="#m38c40152ee" y="273.944919"/>
     <use style="fill:#db5f57;stroke:#db5f57;" x="79.439844" xlink:href="#m38c40152ee" y="272.688169"/>
     <use style="fill:#db5f57;stroke:#db5f57;" x="92.121662" xlink:href="#m38c40152ee" y="268.893037"/>
     <use style="fill:#db5f57;stroke:#db5f57;" x="104.80348" xlink:href="#m38c40152ee" y="252.347681"/>
     <use style="fill:#db5f57;stroke:#db5f57;" x="117.485298" xlink:href="#m38c40152ee" y="237.196533"/>
     <use style="fill:#db5f57;stroke:#db5f57;" x="130.167116" xlink:href="#m38c40152ee" y="224.300439"/>
     <use style="fill:#db5f57;stroke:#db5f57;" x="142.848935" xlink:href="#m38c40152ee" y="212.911107"/>
     <use style="fill:#db5f57;stroke:#db5f57;" x="155.530753" xlink:href="#m38c40152ee" y="205.978296"/>
     <use style="fill:#db5f57;stroke:#db5f57;" x="168.212571" xlink:href="#m38c40152ee" y="199.697768"/>
     <use style="fill:#db5f57;stroke:#db5f57;" x="180.894389" xlink:href="#m38c40152ee" y="193.831475"/>
     <use style="fill:#db5f57;stroke:#db5f57;" x="193.576207" xlink:href="#m38c40152ee" y="187.886679"/>
     <use style="fill:#db5f57;stroke:#db5f57;" x="206.258026" xlink:href="#m38c40152ee" y="182.878112"/>
     <use style="fill:#db5f57;stroke:#db5f57;" x="218.939844" xlink:href="#m38c40152ee" y="176.675424"/>
     <use style="fill:#db5f57;stroke:#db5f57;" x="231.621662" xlink:href="#m38c40152ee" y="171.279434"/>
     <use style="fill:#db5f57;stroke:#db5f57;" x="244.30348" xlink:href="#m38c40152ee" y="166.749443"/>
     <use style="fill:#db5f57;stroke:#db5f57;" x="256.985298" xlink:href="#m38c40152ee" y="160.146448"/>
     <use style="fill:#db5f57;stroke:#db5f57;" x="269.667116" xlink:href="#m38c40152ee" y="155.258812"/>
     <use style="fill:#db5f57;stroke:#db5f57;" x="282.348935" xlink:href="#m38c40152ee" y="150.714829"/>
     <use style="fill:#db5f57;stroke:#db5f57;" x="295.030753" xlink:href="#m38c40152ee" y="144.024959"/>
     <use style="fill:#db5f57;stroke:#db5f57;" x="307.712571" xlink:href="#m38c40152ee" y="138.035676"/>
     <use style="fill:#db5f57;stroke:#db5f57;" x="320.394389" xlink:href="#m38c40152ee" y="133.606315"/>
     <use style="fill:#db5f57;stroke:#db5f57;" x="333.076207" xlink:href="#m38c40152ee" y="128.410373"/>
     <use style="fill:#db5f57;stroke:#db5f57;" x="345.758026" xlink:href="#m38c40152ee" y="125.325228"/>
     <use style="fill:#db5f57;stroke:#db5f57;" x="358.439844" xlink:href="#m38c40152ee" y="120.410821"/>
     <use style="fill:#db5f57;stroke:#db5f57;" x="371.121662" xlink:href="#m38c40152ee" y="114.799606"/>
    </g>
   </g>
   <g id="PathCollection_2">
    <defs>
     <path d="M 0 2.236068 
C 0.593012 2.236068 1.161816 2.000462 1.581139 1.581139 
C 2.000462 1.161816 2.236068 0.593012 2.236068 0 
C 2.236068 -0.593012 2.000462 -1.161816 1.581139 -1.581139 
C 1.161816 -2.000462 0.593012 -2.236068 0 -2.236068 
C -0.593012 -2.236068 -1.161816 -2.000462 -1.581139 -1.581139 
C -2.000462 -1.161816 -2.236068 -0.593012 -2.236068 0 
C -2.236068 0.593012 -2.000462 1.161816 -1.581139 1.581139 
C -1.161816 2.000462 -0.593012 2.236068 0 2.236068 
z
" id="mc5d3668424" style="stroke:#db9457;"/>
    </defs>
    <g clip-path="url(#p4bdfe331a1)">
     <use style="fill:#db9457;stroke:#db9457;" x="66.758026" xlink:href="#mc5d3668424" y="131.152668"/>
     <use style="fill:#db9457;stroke:#db9457;" x="79.439844" xlink:href="#mc5d3668424" y="128.498955"/>
     <use style="fill:#db9457;stroke:#db9457;" x="92.121662" xlink:href="#mc5d3668424" y="122.581405"/>
     <use style="fill:#db9457;stroke:#db9457;" x="104.80348" xlink:href="#mc5d3668424" y="105.752292"/>
     <use style="fill:#db9457;stroke:#db9457;" x="117.485298" xlink:href="#mc5d3668424" y="96.240802"/>
     <use style="fill:#db9457;stroke:#db9457;" x="130.167116" xlink:href="#mc5d3668424" y="88.925813"/>
     <use style="fill:#db9457;stroke:#db9457;" x="142.848935" xlink:href="#mc5d3668424" y="84.037745"/>
     <use style="fill:#db9457;stroke:#db9457;" x="155.530753" xlink:href="#mc5d3668424" y="81.249152"/>
     <use style="fill:#db9457;stroke:#db9457;" x="168.212571" xlink:href="#mc5d3668424" y="77.956544"/>
     <use style="fill:#db9457;stroke:#db9457;" x="180.894389" xlink:href="#mc5d3668424" y="75.873744"/>
     <use style="fill:#db9457;stroke:#db9457;" x="193.576207" xlink:href="#mc5d3668424" y="73.727832"/>
     <use style="fill:#db9457;stroke:#db9457;" x="206.258026" xlink:href="#mc5d3668424" y="70.805912"/>
     <use style="fill:#db9457;stroke:#db9457;" x="218.939844" xlink:href="#mc5d3668424" y="68.114609"/>
     <use style="fill:#db9457;stroke:#db9457;" x="231.621662" xlink:href="#mc5d3668424" y="64.650754"/>
     <use style="fill:#db9457;stroke:#db9457;" x="244.30348" xlink:href="#mc5d3668424" y="62.938253"/>
     <use style="fill:#db9457;stroke:#db9457;" x="256.985298" xlink:href="#mc5d3668424" y="59.443109"/>
     <use style="fill:#db9457;stroke:#db9457;" x="269.667116" xlink:href="#mc5d3668424" y="56.810045"/>
     <use style="fill:#db9457;stroke:#db9457;" x="282.348935" xlink:href="#mc5d3668424" y="55.041403"/>
     <use style="fill:#db9457;stroke:#db9457;" x="295.030753" xlink:href="#mc5d3668424" y="53.230387"/>
     <use style="fill:#db9457;stroke:#db9457;" x="307.712571" xlink:href="#mc5d3668424" y="50.130758"/>
     <use style="fill:#db9457;stroke:#db9457;" x="320.394389" xlink:href="#mc5d3668424" y="47.036639"/>
     <use style="fill:#db9457;stroke:#db9457;" x="333.076207" xlink:href="#mc5d3668424" y="44.053433"/>
     <use style="fill:#db9457;stroke:#db9457;" x="345.758026" xlink:href="#mc5d3668424" y="41.528701"/>
     <use style="fill:#db9457;stroke:#db9457;" x="358.439844" xlink:href="#mc5d3668424" y="36.617896"/>
     <use style="fill:#db9457;stroke:#db9457;" x="371.121662" xlink:href="#mc5d3668424" y="33.417956"/>
    </g>
   </g>
   <g id="PathCollection_3">
    <defs>
     <path d="M 0 2.236068 
C 0.593012 2.236068 1.161816 2.000462 1.581139 1.581139 
C 2.000462 1.161816 2.236068 0.593012 2.236068 0 
C 2.236068 -0.593012 2.000462 -1.161816 1.581139 -1.581139 
C 1.161816 -2.000462 0.593012 -2.236068 0 -2.236068 
C -0.593012 -2.236068 -1.161816 -2.000462 -1.581139 -1.581139 
C -2.000462 -1.161816 -2.236068 -0.593012 -2.236068 0 
C -2.236068 0.593012 -2.000462 1.161816 -1.581139 1.581139 
C -1.161816 2.000462 -0.593012 2.236068 0 2.236068 
z
" id="m29a6ce9e09" style="stroke:#dbc957;"/>
    </defs>
    <g clip-path="url(#p4bdfe331a1)">
     <use style="fill:#dbc957;stroke:#dbc957;" x="66.758026" xlink:href="#m29a6ce9e09" y="157.549979"/>
     <use style="fill:#dbc957;stroke:#dbc957;" x="79.439844" xlink:href="#m29a6ce9e09" y="155.283346"/>
     <use style="fill:#dbc957;stroke:#dbc957;" x="92.121662" xlink:href="#m29a6ce9e09" y="150.036465"/>
     <use style="fill:#dbc957;stroke:#dbc957;" x="104.80348" xlink:href="#m29a6ce9e09" y="136.2446"/>
     <use style="fill:#dbc957;stroke:#dbc957;" x="117.485298" xlink:href="#m29a6ce9e09" y="127.879774"/>
     <use style="fill:#dbc957;stroke:#dbc957;" x="130.167116" xlink:href="#m29a6ce9e09" y="120.652203"/>
     <use style="fill:#dbc957;stroke:#dbc957;" x="142.848935" xlink:href="#m29a6ce9e09" y="115.402508"/>
     <use style="fill:#dbc957;stroke:#dbc957;" x="155.530753" xlink:href="#m29a6ce9e09" y="112.40335"/>
     <use style="fill:#dbc957;stroke:#dbc957;" x="168.212571" xlink:href="#m29a6ce9e09" y="109.109775"/>
     <use style="fill:#dbc957;stroke:#dbc957;" x="180.894389" xlink:href="#m29a6ce9e09" y="106.372562"/>
     <use style="fill:#dbc957;stroke:#dbc957;" x="193.576207" xlink:href="#m29a6ce9e09" y="103.612379"/>
     <use style="fill:#dbc957;stroke:#dbc957;" x="206.258026" xlink:href="#m29a6ce9e09" y="100.546199"/>
     <use style="fill:#dbc957;stroke:#dbc957;" x="218.939844" xlink:href="#m29a6ce9e09" y="97.527037"/>
     <use style="fill:#dbc957;stroke:#dbc957;" x="231.621662" xlink:href="#m29a6ce9e09" y="93.124722"/>
     <use style="fill:#dbc957;stroke:#dbc957;" x="244.30348" xlink:href="#m29a6ce9e09" y="89.844318"/>
     <use style="fill:#dbc957;stroke:#dbc957;" x="256.985298" xlink:href="#m29a6ce9e09" y="86.431489"/>
     <use style="fill:#dbc957;stroke:#dbc957;" x="269.667116" xlink:href="#m29a6ce9e09" y="82.941852"/>
     <use style="fill:#dbc957;stroke:#dbc957;" x="282.348935" xlink:href="#m29a6ce9e09" y="79.436013"/>
     <use style="fill:#dbc957;stroke:#dbc957;" x="295.030753" xlink:href="#m29a6ce9e09" y="76.428852"/>
     <use style="fill:#dbc957;stroke:#dbc957;" x="307.712571" xlink:href="#m29a6ce9e09" y="71.93694"/>
     <use style="fill:#dbc957;stroke:#dbc957;" x="320.394389" xlink:href="#m29a6ce9e09" y="67.199615"/>
     <use style="fill:#dbc957;stroke:#dbc957;" x="333.076207" xlink:href="#m29a6ce9e09" y="63.010349"/>
     <use style="fill:#dbc957;stroke:#dbc957;" x="345.758026" xlink:href="#m29a6ce9e09" y="59.934759"/>
     <use style="fill:#dbc957;stroke:#dbc957;" x="358.439844" xlink:href="#m29a6ce9e09" y="56.148032"/>
     <use style="fill:#dbc957;stroke:#dbc957;" x="371.121662" xlink:href="#m29a6ce9e09" y="54.457205"/>
    </g>
   </g>
   <g id="PathCollection_4">
    <defs>
     <path d="M 0 2.236068 
C 0.593012 2.236068 1.161816 2.000462 1.581139 1.581139 
C 2.000462 1.161816 2.236068 0.593012 2.236068 0 
C 2.236068 -0.593012 2.000462 -1.161816 1.581139 -1.581139 
C 1.161816 -2.000462 0.593012 -2.236068 0 -2.236068 
C -0.593012 -2.236068 -1.161816 -2.000462 -1.581139 -1.581139 
C -2.000462 -1.161816 -2.236068 -0.593012 -2.236068 0 
C -2.236068 0.593012 -2.000462 1.161816 -1.581139 1.581139 
C -1.161816 2.000462 -0.593012 2.236068 0 2.236068 
z
" id="m1d8cc8f68b" style="stroke:#b9db57;"/>
    </defs>
    <g clip-path="url(#p4bdfe331a1)">
     <use style="fill:#b9db57;stroke:#b9db57;" x="66.758026" xlink:href="#m1d8cc8f68b" y="251.413984"/>
     <use style="fill:#b9db57;stroke:#b9db57;" x="79.439844" xlink:href="#m1d8cc8f68b" y="250.451859"/>
     <use style="fill:#b9db57;stroke:#b9db57;" x="92.121662" xlink:href="#m1d8cc8f68b" y="246.127079"/>
     <use style="fill:#b9db57;stroke:#b9db57;" x="104.80348" xlink:href="#m1d8cc8f68b" y="225.24844"/>
     <use style="fill:#b9db57;stroke:#b9db57;" x="117.485298" xlink:href="#m1d8cc8f68b" y="205.449411"/>
     <use style="fill:#b9db57;stroke:#b9db57;" x="130.167116" xlink:href="#m1d8cc8f68b" y="188.566548"/>
     <use style="fill:#b9db57;stroke:#b9db57;" x="142.848935" xlink:href="#m1d8cc8f68b" y="174.286601"/>
     <use style="fill:#b9db57;stroke:#b9db57;" x="155.530753" xlink:href="#m1d8cc8f68b" y="165.199361"/>
     <use style="fill:#b9db57;stroke:#b9db57;" x="168.212571" xlink:href="#m1d8cc8f68b" y="156.676037"/>
     <use style="fill:#b9db57;stroke:#b9db57;" x="180.894389" xlink:href="#m1d8cc8f68b" y="149.101622"/>
     <use style="fill:#b9db57;stroke:#b9db57;" x="193.576207" xlink:href="#m1d8cc8f68b" y="141.052398"/>
     <use style="fill:#b9db57;stroke:#b9db57;" x="206.258026" xlink:href="#m1d8cc8f68b" y="133.855998"/>
     <use style="fill:#b9db57;stroke:#b9db57;" x="218.939844" xlink:href="#m1d8cc8f68b" y="125.922643"/>
     <use style="fill:#b9db57;stroke:#b9db57;" x="231.621662" xlink:href="#m1d8cc8f68b" y="116.259608"/>
     <use style="fill:#b9db57;stroke:#b9db57;" x="244.30348" xlink:href="#m1d8cc8f68b" y="109.373551"/>
     <use style="fill:#b9db57;stroke:#b9db57;" x="256.985298" xlink:href="#m1d8cc8f68b" y="102.052831"/>
     <use style="fill:#b9db57;stroke:#b9db57;" x="269.667116" xlink:href="#m1d8cc8f68b" y="95.487711"/>
     <use style="fill:#b9db57;stroke:#b9db57;" x="282.348935" xlink:href="#m1d8cc8f68b" y="88.735495"/>
     <use style="fill:#b9db57;stroke:#b9db57;" x="295.030753" xlink:href="#m1d8cc8f68b" y="80.584941"/>
     <use style="fill:#b9db57;stroke:#b9db57;" x="307.712571" xlink:href="#m1d8cc8f68b" y="74.501604"/>
     <use style="fill:#b9db57;stroke:#b9db57;" x="320.394389" xlink:href="#m1d8cc8f68b" y="68.745918"/>
     <use style="fill:#b9db57;stroke:#b9db57;" x="333.076207" xlink:href="#m1d8cc8f68b" y="60.846215"/>
     <use style="fill:#b9db57;stroke:#b9db57;" x="345.758026" xlink:href="#m1d8cc8f68b" y="56.468608"/>
     <use style="fill:#b9db57;stroke:#b9db57;" x="358.439844" xlink:href="#m1d8cc8f68b" y="51.51823"/>
     <use style="fill:#b9db57;stroke:#b9db57;" x="371.121662" xlink:href="#m1d8cc8f68b" y="44.167609"/>
    </g>
   </g>
   <g id="PathCollection_5">
    <defs>
     <path d="M 0 1.322876 
C 0.350831 1.322876 0.68734 1.183489 0.935414 0.935414 
C 1.183489 0.68734 1.322876 0.350831 1.322876 0 
C 1.322876 -0.350831 1.183489 -0.68734 0.935414 -0.935414 
C 0.68734 -1.183489 0.350831 -1.322876 0 -1.322876 
C -0.350831 -1.322876 -0.68734 -1.183489 -0.935414 -0.935414 
C -1.183489 -0.68734 -1.322876 -0.350831 -1.322876 0 
C -1.322876 0.350831 -1.183489 0.68734 -0.935414 0.935414 
C -0.68734 1.183489 -0.350831 1.322876 0 1.322876 
z
" id="me6ef3c7110" style="stroke:#1a1a1a;"/>
    </defs>
    <g clip-path="url(#p4bdfe331a1)">
     <use style="fill:#1a1a1a;stroke:#1a1a1a;" x="66.758026" xlink:href="#me6ef3c7110" y="336.069164"/>
     <use style="fill:#1a1a1a;stroke:#1a1a1a;" x="79.439844" xlink:href="#me6ef3c7110" y="335.667243"/>
     <use style="fill:#1a1a1a;stroke:#1a1a1a;" x="92.121662" xlink:href="#me6ef3c7110" y="332.78297"/>
     <use style="fill:#1a1a1a;stroke:#1a1a1a;" x="104.80348" xlink:href="#me6ef3c7110" y="315.461299"/>
     <use style="fill:#1a1a1a;stroke:#1a1a1a;" x="117.485298" xlink:href="#me6ef3c7110" y="298.355064"/>
     <use style="fill:#1a1a1a;stroke:#1a1a1a;" x="130.167116" xlink:href="#me6ef3c7110" y="285.683062"/>
     <use style="fill:#1a1a1a;stroke:#1a1a1a;" x="142.848935" xlink:href="#me6ef3c7110" y="275.878489"/>
     <use style="fill:#1a1a1a;stroke:#1a1a1a;" x="155.530753" xlink:href="#me6ef3c7110" y="267.705563"/>
     <use style="fill:#1a1a1a;stroke:#1a1a1a;" x="168.212571" xlink:href="#me6ef3c7110" y="261.085358"/>
     <use style="fill:#1a1a1a;stroke:#1a1a1a;" x="180.894389" xlink:href="#me6ef3c7110" y="255.048022"/>
     <use style="fill:#1a1a1a;stroke:#1a1a1a;" x="193.576207" xlink:href="#me6ef3c7110" y="248.075896"/>
     <use style="fill:#1a1a1a;stroke:#1a1a1a;" x="206.258026" xlink:href="#me6ef3c7110" y="243.245045"/>
     <use style="fill:#1a1a1a;stroke:#1a1a1a;" x="218.939844" xlink:href="#me6ef3c7110" y="236.858283"/>
     <use style="fill:#1a1a1a;stroke:#1a1a1a;" x="231.621662" xlink:href="#me6ef3c7110" y="230.293659"/>
     <use style="fill:#1a1a1a;stroke:#1a1a1a;" x="244.30348" xlink:href="#me6ef3c7110" y="224.205256"/>
     <use style="fill:#1a1a1a;stroke:#1a1a1a;" x="256.985298" xlink:href="#me6ef3c7110" y="217.247357"/>
     <use style="fill:#1a1a1a;stroke:#1a1a1a;" x="269.667116" xlink:href="#me6ef3c7110" y="211.656202"/>
     <use style="fill:#1a1a1a;stroke:#1a1a1a;" x="282.348935" xlink:href="#me6ef3c7110" y="207.024696"/>
     <use style="fill:#1a1a1a;stroke:#1a1a1a;" x="295.030753" xlink:href="#me6ef3c7110" y="201.088575"/>
     <use style="fill:#1a1a1a;stroke:#1a1a1a;" x="307.712571" xlink:href="#me6ef3c7110" y="196.171486"/>
     <use style="fill:#1a1a1a;stroke:#1a1a1a;" x="320.394389" xlink:href="#me6ef3c7110" y="191.289754"/>
     <use style="fill:#1a1a1a;stroke:#1a1a1a;" x="333.076207" xlink:href="#me6ef3c7110" y="186.750715"/>
     <use style="fill:#1a1a1a;stroke:#1a1a1a;" x="345.758026" xlink:href="#me6ef3c7110" y="183.002572"/>
     <use style="fill:#1a1a1a;stroke:#1a1a1a;" x="358.439844" xlink:href="#me6ef3c7110" y="180.469952"/>
     <use style="fill:#1a1a1a;stroke:#1a1a1a;" x="371.121662" xlink:href="#me6ef3c7110" y="173.857039"/>
    </g>
   </g>
   <g id="PathCollection_6">
    <defs>
     <path d="M 0 2.236068 
C 0.593012 2.236068 1.161816 2.000462 1.581139 1.581139 
C 2.000462 1.161816 2.236068 0.593012 2.236068 0 
C 2.236068 -0.593012 2.000462 -1.161816 1.581139 -1.581139 
C 1.161816 -2.000462 0.593012 -2.236068 0 -2.236068 
C -0.593012 -2.236068 -1.161816 -2.000462 -1.581139 -1.581139 
C -2.000462 -1.161816 -2.236068 -0.593012 -2.236068 0 
C -2.236068 0.593012 -2.000462 1.161816 -1.581139 1.581139 
C -1.161816 2.000462 -0.593012 2.236068 0 2.236068 
z
" id="m24d8a982fa" style="stroke:#84db57;"/>
    </defs>
    <g clip-path="url(#p4bdfe331a1)">
     <use style="fill:#84db57;stroke:#84db57;" x="66.758026" xlink:href="#m24d8a982fa" y="147.38666"/>
     <use style="fill:#84db57;stroke:#84db57;" x="79.439844" xlink:href="#m24d8a982fa" y="144.367519"/>
     <use style="fill:#84db57;stroke:#84db57;" x="92.121662" xlink:href="#m24d8a982fa" y="139.532164"/>
     <use style="fill:#84db57;stroke:#84db57;" x="104.80348" xlink:href="#m24d8a982fa" y="125.012117"/>
     <use style="fill:#84db57;stroke:#84db57;" x="117.485298" xlink:href="#m24d8a982fa" y="116.583437"/>
     <use style="fill:#84db57;stroke:#84db57;" x="130.167116" xlink:href="#m24d8a982fa" y="109.227374"/>
     <use style="fill:#84db57;stroke:#84db57;" x="142.848935" xlink:href="#m24d8a982fa" y="103.621132"/>
     <use style="fill:#84db57;stroke:#84db57;" x="155.530753" xlink:href="#m24d8a982fa" y="100.82381"/>
     <use style="fill:#84db57;stroke:#84db57;" x="168.212571" xlink:href="#m24d8a982fa" y="97.661884"/>
     <use style="fill:#84db57;stroke:#84db57;" x="180.894389" xlink:href="#m24d8a982fa" y="95.066545"/>
     <use style="fill:#84db57;stroke:#84db57;" x="193.576207" xlink:href="#m24d8a982fa" y="91.8052"/>
     <use style="fill:#84db57;stroke:#84db57;" x="206.258026" xlink:href="#m24d8a982fa" y="89.331242"/>
     <use style="fill:#84db57;stroke:#84db57;" x="218.939844" xlink:href="#m24d8a982fa" y="85.384974"/>
     <use style="fill:#84db57;stroke:#84db57;" x="231.621662" xlink:href="#m24d8a982fa" y="82.116389"/>
     <use style="fill:#84db57;stroke:#84db57;" x="244.30348" xlink:href="#m24d8a982fa" y="79.348798"/>
     <use style="fill:#84db57;stroke:#84db57;" x="256.985298" xlink:href="#m24d8a982fa" y="75.844203"/>
     <use style="fill:#84db57;stroke:#84db57;" x="269.667116" xlink:href="#m24d8a982fa" y="72.818165"/>
     <use style="fill:#84db57;stroke:#84db57;" x="282.348935" xlink:href="#m24d8a982fa" y="70.520436"/>
     <use style="fill:#84db57;stroke:#84db57;" x="295.030753" xlink:href="#m24d8a982fa" y="67.107886"/>
     <use style="fill:#84db57;stroke:#84db57;" x="307.712571" xlink:href="#m24d8a982fa" y="61.402847"/>
     <use style="fill:#84db57;stroke:#84db57;" x="320.394389" xlink:href="#m24d8a982fa" y="57.351998"/>
     <use style="fill:#84db57;stroke:#84db57;" x="333.076207" xlink:href="#m24d8a982fa" y="53.954459"/>
     <use style="fill:#84db57;stroke:#84db57;" x="345.758026" xlink:href="#m24d8a982fa" y="50.655979"/>
     <use style="fill:#84db57;stroke:#84db57;" x="358.439844" xlink:href="#m24d8a982fa" y="48.11014"/>
     <use style="fill:#84db57;stroke:#84db57;" x="371.121662" xlink:href="#m24d8a982fa" y="43.55925"/>
    </g>
   </g>
   <g id="PathCollection_7">
    <defs>
     <path d="M 0 2.236068 
C 0.593012 2.236068 1.161816 2.000462 1.581139 1.581139 
C 2.000462 1.161816 2.236068 0.593012 2.236068 0 
C 2.236068 -0.593012 2.000462 -1.161816 1.581139 -1.581139 
C 1.161816 -2.000462 0.593012 -2.236068 0 -2.236068 
C -0.593012 -2.236068 -1.161816 -2.000462 -1.581139 -1.581139 
C -2.000462 -1.161816 -2.236068 -0.593012 -2.236068 0 
C -2.236068 0.593012 -2.000462 1.161816 -1.581139 1.581139 
C -1.161816 2.000462 -0.593012 2.236068 0 2.236068 
z
" id="m81dcc1c01c" style="stroke:#57db5f;"/>
    </defs>
    <g clip-path="url(#p4bdfe331a1)">
     <use style="fill:#57db5f;stroke:#57db5f;" x="66.758026" xlink:href="#m81dcc1c01c" y="296.158474"/>
     <use style="fill:#57db5f;stroke:#57db5f;" x="79.439844" xlink:href="#m81dcc1c01c" y="295.62691"/>
     <use style="fill:#57db5f;stroke:#57db5f;" x="92.121662" xlink:href="#m81dcc1c01c" y="292.898172"/>
     <use style="fill:#57db5f;stroke:#57db5f;" x="104.80348" xlink:href="#m81dcc1c01c" y="277.648626"/>
     <use style="fill:#57db5f;stroke:#57db5f;" x="117.485298" xlink:href="#m81dcc1c01c" y="265.409534"/>
     <use style="fill:#57db5f;stroke:#57db5f;" x="130.167116" xlink:href="#m81dcc1c01c" y="254.982596"/>
     <use style="fill:#57db5f;stroke:#57db5f;" x="142.848935" xlink:href="#m81dcc1c01c" y="246.644685"/>
     <use style="fill:#57db5f;stroke:#57db5f;" x="155.530753" xlink:href="#m81dcc1c01c" y="240.882434"/>
     <use style="fill:#57db5f;stroke:#57db5f;" x="168.212571" xlink:href="#m81dcc1c01c" y="235.433644"/>
     <use style="fill:#57db5f;stroke:#57db5f;" x="180.894389" xlink:href="#m81dcc1c01c" y="230.903491"/>
     <use style="fill:#57db5f;stroke:#57db5f;" x="193.576207" xlink:href="#m81dcc1c01c" y="225.353843"/>
     <use style="fill:#57db5f;stroke:#57db5f;" x="206.258026" xlink:href="#m81dcc1c01c" y="219.668846"/>
     <use style="fill:#57db5f;stroke:#57db5f;" x="218.939844" xlink:href="#m81dcc1c01c" y="213.337139"/>
     <use style="fill:#57db5f;stroke:#57db5f;" x="231.621662" xlink:href="#m81dcc1c01c" y="206.147901"/>
     <use style="fill:#57db5f;stroke:#57db5f;" x="244.30348" xlink:href="#m81dcc1c01c" y="200.057168"/>
     <use style="fill:#57db5f;stroke:#57db5f;" x="256.985298" xlink:href="#m81dcc1c01c" y="193.006379"/>
     <use style="fill:#57db5f;stroke:#57db5f;" x="269.667116" xlink:href="#m81dcc1c01c" y="187.11215"/>
     <use style="fill:#57db5f;stroke:#57db5f;" x="282.348935" xlink:href="#m81dcc1c01c" y="179.727938"/>
     <use style="fill:#57db5f;stroke:#57db5f;" x="295.030753" xlink:href="#m81dcc1c01c" y="172.452169"/>
     <use style="fill:#57db5f;stroke:#57db5f;" x="307.712571" xlink:href="#m81dcc1c01c" y="165.217628"/>
     <use style="fill:#57db5f;stroke:#57db5f;" x="320.394389" xlink:href="#m81dcc1c01c" y="155.848019"/>
     <use style="fill:#57db5f;stroke:#57db5f;" x="333.076207" xlink:href="#m81dcc1c01c" y="151.133295"/>
     <use style="fill:#57db5f;stroke:#57db5f;" x="345.758026" xlink:href="#m81dcc1c01c" y="142.745975"/>
     <use style="fill:#57db5f;stroke:#57db5f;" x="358.439844" xlink:href="#m81dcc1c01c" y="136.837244"/>
     <use style="fill:#57db5f;stroke:#57db5f;" x="371.121662" xlink:href="#m81dcc1c01c" y="130.205947"/>
    </g>
   </g>
   <g id="PathCollection_8">
    <defs>
     <path d="M 0 2.236068 
C 0.593012 2.236068 1.161816 2.000462 1.581139 1.581139 
C 2.000462 1.161816 2.236068 0.593012 2.236068 0 
C 2.236068 -0.593012 2.000462 -1.161816 1.581139 -1.581139 
C 1.161816 -2.000462 0.593012 -2.236068 0 -2.236068 
C -0.593012 -2.236068 -1.161816 -2.000462 -1.581139 -1.581139 
C -2.000462 -1.161816 -2.236068 -0.593012 -2.236068 0 
C -2.236068 0.593012 -2.000462 1.161816 -1.581139 1.581139 
C -1.161816 2.000462 -0.593012 2.236068 0 2.236068 
z
" id="m6212e54a94" style="stroke:#57db94;"/>
    </defs>
    <g clip-path="url(#p4bdfe331a1)">
     <use style="fill:#57db94;stroke:#57db94;" x="66.758026" xlink:href="#m6212e54a94" y="188.557222"/>
     <use style="fill:#57db94;stroke:#57db94;" x="79.439844" xlink:href="#m6212e54a94" y="186.21032"/>
     <use style="fill:#57db94;stroke:#57db94;" x="92.121662" xlink:href="#m6212e54a94" y="181.219852"/>
     <use style="fill:#57db94;stroke:#57db94;" x="104.80348" xlink:href="#m6212e54a94" y="163.871391"/>
     <use style="fill:#57db94;stroke:#57db94;" x="117.485298" xlink:href="#m6212e54a94" y="151.549142"/>
     <use style="fill:#57db94;stroke:#57db94;" x="130.167116" xlink:href="#m6212e54a94" y="142.25018"/>
     <use style="fill:#57db94;stroke:#57db94;" x="142.848935" xlink:href="#m6212e54a94" y="134.803013"/>
     <use style="fill:#57db94;stroke:#57db94;" x="155.530753" xlink:href="#m6212e54a94" y="129.954862"/>
     <use style="fill:#57db94;stroke:#57db94;" x="168.212571" xlink:href="#m6212e54a94" y="125.375278"/>
     <use style="fill:#57db94;stroke:#57db94;" x="180.894389" xlink:href="#m6212e54a94" y="121.644493"/>
     <use style="fill:#57db94;stroke:#57db94;" x="193.576207" xlink:href="#m6212e54a94" y="116.752389"/>
     <use style="fill:#57db94;stroke:#57db94;" x="206.258026" xlink:href="#m6212e54a94" y="113.033352"/>
     <use style="fill:#57db94;stroke:#57db94;" x="218.939844" xlink:href="#m6212e54a94" y="108.797329"/>
     <use style="fill:#57db94;stroke:#57db94;" x="231.621662" xlink:href="#m6212e54a94" y="103.792569"/>
     <use style="fill:#57db94;stroke:#57db94;" x="244.30348" xlink:href="#m6212e54a94" y="101.001124"/>
     <use style="fill:#57db94;stroke:#57db94;" x="256.985298" xlink:href="#m6212e54a94" y="96.411149"/>
     <use style="fill:#57db94;stroke:#57db94;" x="269.667116" xlink:href="#m6212e54a94" y="92.420016"/>
     <use style="fill:#57db94;stroke:#57db94;" x="282.348935" xlink:href="#m6212e54a94" y="88.345222"/>
     <use style="fill:#57db94;stroke:#57db94;" x="295.030753" xlink:href="#m6212e54a94" y="83.369667"/>
     <use style="fill:#57db94;stroke:#57db94;" x="307.712571" xlink:href="#m6212e54a94" y="78.088969"/>
     <use style="fill:#57db94;stroke:#57db94;" x="320.394389" xlink:href="#m6212e54a94" y="74.307038"/>
     <use style="fill:#57db94;stroke:#57db94;" x="333.076207" xlink:href="#m6212e54a94" y="69.820808"/>
     <use style="fill:#57db94;stroke:#57db94;" x="345.758026" xlink:href="#m6212e54a94" y="65.877911"/>
     <use style="fill:#57db94;stroke:#57db94;" x="358.439844" xlink:href="#m6212e54a94" y="62.901239"/>
     <use style="fill:#57db94;stroke:#57db94;" x="371.121662" xlink:href="#m6212e54a94" y="58.564646"/>
    </g>
   </g>
   <g id="PathCollection_9">
    <defs>
     <path d="M 0 2.236068 
C 0.593012 2.236068 1.161816 2.000462 1.581139 1.581139 
C 2.000462 1.161816 2.236068 0.593012 2.236068 0 
C 2.236068 -0.593012 2.000462 -1.161816 1.581139 -1.581139 
C 1.161816 -2.000462 0.593012 -2.236068 0 -2.236068 
C -0.593012 -2.236068 -1.161816 -2.000462 -1.581139 -1.581139 
C -2.000462 -1.161816 -2.236068 -0.593012 -2.236068 0 
C -2.236068 0.593012 -2.000462 1.161816 -1.581139 1.581139 
C -1.161816 2.000462 -0.593012 2.236068 0 2.236068 
z
" id="m507fcb2aad" style="stroke:#57dbc9;"/>
    </defs>
    <g clip-path="url(#p4bdfe331a1)">
     <use style="fill:#57dbc9;stroke:#57dbc9;" x="66.758026" xlink:href="#m507fcb2aad" y="158.827311"/>
     <use style="fill:#57dbc9;stroke:#57dbc9;" x="79.439844" xlink:href="#m507fcb2aad" y="156.007503"/>
     <use style="fill:#57dbc9;stroke:#57dbc9;" x="92.121662" xlink:href="#m507fcb2aad" y="150.848169"/>
     <use style="fill:#57dbc9;stroke:#57dbc9;" x="104.80348" xlink:href="#m507fcb2aad" y="137.482065"/>
     <use style="fill:#57dbc9;stroke:#57dbc9;" x="117.485298" xlink:href="#m507fcb2aad" y="129.582139"/>
     <use style="fill:#57dbc9;stroke:#57dbc9;" x="130.167116" xlink:href="#m507fcb2aad" y="122.064336"/>
     <use style="fill:#57dbc9;stroke:#57dbc9;" x="142.848935" xlink:href="#m507fcb2aad" y="116.054862"/>
     <use style="fill:#57dbc9;stroke:#57dbc9;" x="155.530753" xlink:href="#m507fcb2aad" y="112.007118"/>
     <use style="fill:#57dbc9;stroke:#57dbc9;" x="168.212571" xlink:href="#m507fcb2aad" y="107.729956"/>
     <use style="fill:#57dbc9;stroke:#57dbc9;" x="180.894389" xlink:href="#m507fcb2aad" y="103.715415"/>
     <use style="fill:#57dbc9;stroke:#57dbc9;" x="193.576207" xlink:href="#m507fcb2aad" y="99.873322"/>
     <use style="fill:#57dbc9;stroke:#57dbc9;" x="206.258026" xlink:href="#m507fcb2aad" y="95.999669"/>
     <use style="fill:#57dbc9;stroke:#57dbc9;" x="218.939844" xlink:href="#m507fcb2aad" y="91.408781"/>
     <use style="fill:#57dbc9;stroke:#57dbc9;" x="231.621662" xlink:href="#m507fcb2aad" y="86.439542"/>
     <use style="fill:#57dbc9;stroke:#57dbc9;" x="244.30348" xlink:href="#m507fcb2aad" y="82.002753"/>
     <use style="fill:#57dbc9;stroke:#57dbc9;" x="256.985298" xlink:href="#m507fcb2aad" y="78.120168"/>
     <use style="fill:#57dbc9;stroke:#57dbc9;" x="269.667116" xlink:href="#m507fcb2aad" y="74.66134"/>
     <use style="fill:#57dbc9;stroke:#57dbc9;" x="282.348935" xlink:href="#m507fcb2aad" y="70.609838"/>
     <use style="fill:#57dbc9;stroke:#57dbc9;" x="295.030753" xlink:href="#m507fcb2aad" y="65.90354"/>
     <use style="fill:#57dbc9;stroke:#57dbc9;" x="307.712571" xlink:href="#m507fcb2aad" y="60.287554"/>
     <use style="fill:#57dbc9;stroke:#57dbc9;" x="320.394389" xlink:href="#m507fcb2aad" y="55.23793"/>
     <use style="fill:#57dbc9;stroke:#57dbc9;" x="333.076207" xlink:href="#m507fcb2aad" y="50.13111"/>
     <use style="fill:#57dbc9;stroke:#57dbc9;" x="345.758026" xlink:href="#m507fcb2aad" y="46.071925"/>
     <use style="fill:#57dbc9;stroke:#57dbc9;" x="358.439844" xlink:href="#m507fcb2aad" y="42.495568"/>
     <use style="fill:#57dbc9;stroke:#57dbc9;" x="371.121662" xlink:href="#m507fcb2aad" y="38.5492"/>
    </g>
   </g>
   <g id="PathCollection_10">
    <defs>
     <path d="M 0 2.236068 
C 0.593012 2.236068 1.161816 2.000462 1.581139 1.581139 
C 2.000462 1.161816 2.236068 0.593012 2.236068 0 
C 2.236068 -0.593012 2.000462 -1.161816 1.581139 -1.581139 
C 1.161816 -2.000462 0.593012 -2.236068 0 -2.236068 
C -0.593012 -2.236068 -1.161816 -2.000462 -1.581139 -1.581139 
C -2.000462 -1.161816 -2.236068 -0.593012 -2.236068 0 
C -2.236068 0.593012 -2.000462 1.161816 -1.581139 1.581139 
C -1.161816 2.000462 -0.593012 2.236068 0 2.236068 
z
" id="m50841c9653" style="stroke:#57b9db;"/>
    </defs>
    <g clip-path="url(#p4bdfe331a1)">
     <use style="fill:#57b9db;stroke:#57b9db;" x="66.758026" xlink:href="#m50841c9653" y="263.687288"/>
     <use style="fill:#57b9db;stroke:#57b9db;" x="79.439844" xlink:href="#m50841c9653" y="262.612894"/>
     <use style="fill:#57b9db;stroke:#57b9db;" x="92.121662" xlink:href="#m50841c9653" y="258.768767"/>
     <use style="fill:#57b9db;stroke:#57b9db;" x="104.80348" xlink:href="#m50841c9653" y="240.775101"/>
     <use style="fill:#57b9db;stroke:#57b9db;" x="117.485298" xlink:href="#m50841c9653" y="225.700799"/>
     <use style="fill:#57b9db;stroke:#57b9db;" x="130.167116" xlink:href="#m50841c9653" y="214.423687"/>
     <use style="fill:#57b9db;stroke:#57b9db;" x="142.848935" xlink:href="#m50841c9653" y="202.715778"/>
     <use style="fill:#57b9db;stroke:#57b9db;" x="155.530753" xlink:href="#m50841c9653" y="196.135914"/>
     <use style="fill:#57b9db;stroke:#57b9db;" x="168.212571" xlink:href="#m50841c9653" y="189.768938"/>
     <use style="fill:#57b9db;stroke:#57b9db;" x="180.894389" xlink:href="#m50841c9653" y="184.249155"/>
     <use style="fill:#57b9db;stroke:#57b9db;" x="193.576207" xlink:href="#m50841c9653" y="177.612595"/>
     <use style="fill:#57b9db;stroke:#57b9db;" x="206.258026" xlink:href="#m50841c9653" y="171.844538"/>
     <use style="fill:#57b9db;stroke:#57b9db;" x="218.939844" xlink:href="#m50841c9653" y="165.064397"/>
     <use style="fill:#57b9db;stroke:#57b9db;" x="231.621662" xlink:href="#m50841c9653" y="158.620768"/>
     <use style="fill:#57b9db;stroke:#57b9db;" x="244.30348" xlink:href="#m50841c9653" y="151.918115"/>
     <use style="fill:#57b9db;stroke:#57b9db;" x="256.985298" xlink:href="#m50841c9653" y="143.549477"/>
     <use style="fill:#57b9db;stroke:#57b9db;" x="269.667116" xlink:href="#m50841c9653" y="137.815808"/>
     <use style="fill:#57b9db;stroke:#57b9db;" x="282.348935" xlink:href="#m50841c9653" y="131.275225"/>
     <use style="fill:#57b9db;stroke:#57b9db;" x="295.030753" xlink:href="#m50841c9653" y="124.692873"/>
     <use style="fill:#57b9db;stroke:#57b9db;" x="307.712571" xlink:href="#m50841c9653" y="118.779121"/>
     <use style="fill:#57b9db;stroke:#57b9db;" x="320.394389" xlink:href="#m50841c9653" y="111.877944"/>
     <use style="fill:#57b9db;stroke:#57b9db;" x="333.076207" xlink:href="#m50841c9653" y="104.682684"/>
     <use style="fill:#57b9db;stroke:#57b9db;" x="345.758026" xlink:href="#m50841c9653" y="98.446025"/>
     <use style="fill:#57b9db;stroke:#57b9db;" x="358.439844" xlink:href="#m50841c9653" y="92.934736"/>
     <use style="fill:#57b9db;stroke:#57b9db;" x="371.121662" xlink:href="#m50841c9653" y="85.208743"/>
    </g>
   </g>
   <g id="PathCollection_11">
    <defs>
     <path d="M 0 2.236068 
C 0.593012 2.236068 1.161816 2.000462 1.581139 1.581139 
C 2.000462 1.161816 2.236068 0.593012 2.236068 0 
C 2.236068 -0.593012 2.000462 -1.161816 1.581139 -1.581139 
C 1.161816 -2.000462 0.593012 -2.236068 0 -2.236068 
C -0.593012 -2.236068 -1.161816 -2.000462 -1.581139 -1.581139 
C -2.000462 -1.161816 -2.236068 -0.593012 -2.236068 0 
C -2.236068 0.593012 -2.000462 1.161816 -1.581139 1.581139 
C -1.161816 2.000462 -0.593012 2.236068 0 2.236068 
z
" id="ma4e701aaef" style="stroke:#5784db;"/>
    </defs>
    <g clip-path="url(#p4bdfe331a1)">
     <use style="fill:#5784db;stroke:#5784db;" x="66.758026" xlink:href="#ma4e701aaef" y="304.144491"/>
     <use style="fill:#5784db;stroke:#5784db;" x="79.439844" xlink:href="#ma4e701aaef" y="303.458861"/>
     <use style="fill:#5784db;stroke:#5784db;" x="92.121662" xlink:href="#ma4e701aaef" y="299.914063"/>
     <use style="fill:#5784db;stroke:#5784db;" x="104.80348" xlink:href="#ma4e701aaef" y="275.303843"/>
     <use style="fill:#5784db;stroke:#5784db;" x="117.485298" xlink:href="#ma4e701aaef" y="251.284901"/>
     <use style="fill:#5784db;stroke:#5784db;" x="130.167116" xlink:href="#ma4e701aaef" y="230.566681"/>
     <use style="fill:#5784db;stroke:#5784db;" x="142.848935" xlink:href="#ma4e701aaef" y="214.226017"/>
     <use style="fill:#5784db;stroke:#5784db;" x="155.530753" xlink:href="#ma4e701aaef" y="203.60945"/>
     <use style="fill:#5784db;stroke:#5784db;" x="168.212571" xlink:href="#ma4e701aaef" y="195.419684"/>
     <use style="fill:#5784db;stroke:#5784db;" x="180.894389" xlink:href="#ma4e701aaef" y="188.198575"/>
     <use style="fill:#5784db;stroke:#5784db;" x="193.576207" xlink:href="#ma4e701aaef" y="180.321911"/>
     <use style="fill:#5784db;stroke:#5784db;" x="206.258026" xlink:href="#ma4e701aaef" y="172.816737"/>
     <use style="fill:#5784db;stroke:#5784db;" x="218.939844" xlink:href="#ma4e701aaef" y="165.446533"/>
     <use style="fill:#5784db;stroke:#5784db;" x="231.621662" xlink:href="#ma4e701aaef" y="156.968133"/>
     <use style="fill:#5784db;stroke:#5784db;" x="244.30348" xlink:href="#ma4e701aaef" y="151.592065"/>
     <use style="fill:#5784db;stroke:#5784db;" x="256.985298" xlink:href="#ma4e701aaef" y="145.345406"/>
     <use style="fill:#5784db;stroke:#5784db;" x="269.667116" xlink:href="#ma4e701aaef" y="139.243408"/>
     <use style="fill:#5784db;stroke:#5784db;" x="282.348935" xlink:href="#ma4e701aaef" y="132.624402"/>
     <use style="fill:#5784db;stroke:#5784db;" x="295.030753" xlink:href="#ma4e701aaef" y="125.800317"/>
     <use style="fill:#5784db;stroke:#5784db;" x="307.712571" xlink:href="#ma4e701aaef" y="120.223576"/>
     <use style="fill:#5784db;stroke:#5784db;" x="320.394389" xlink:href="#ma4e701aaef" y="114.141584"/>
     <use style="fill:#5784db;stroke:#5784db;" x="333.076207" xlink:href="#ma4e701aaef" y="109.947749"/>
     <use style="fill:#5784db;stroke:#5784db;" x="345.758026" xlink:href="#ma4e701aaef" y="107.686669"/>
     <use style="fill:#5784db;stroke:#5784db;" x="358.439844" xlink:href="#ma4e701aaef" y="105.894275"/>
     <use style="fill:#5784db;stroke:#5784db;" x="371.121662" xlink:href="#ma4e701aaef" y="103.656603"/>
    </g>
   </g>
   <g id="PathCollection_12">
    <defs>
     <path d="M 0 2.236068 
C 0.593012 2.236068 1.161816 2.000462 1.581139 1.581139 
C 2.000462 1.161816 2.236068 0.593012 2.236068 0 
C 2.236068 -0.593012 2.000462 -1.161816 1.581139 -1.581139 
C 1.161816 -2.000462 0.593012 -2.236068 0 -2.236068 
C -0.593012 -2.236068 -1.161816 -2.000462 -1.581139 -1.581139 
C -2.000462 -1.161816 -2.236068 -0.593012 -2.236068 0 
C -2.236068 0.593012 -2.000462 1.161816 -1.581139 1.581139 
C -1.161816 2.000462 -0.593012 2.236068 0 2.236068 
z
" id="m5bf419513d" style="stroke:#5f57db;"/>
    </defs>
    <g clip-path="url(#p4bdfe331a1)">
     <use style="fill:#5f57db;stroke:#5f57db;" x="66.758026" xlink:href="#m5bf419513d" y="192.889243"/>
     <use style="fill:#5f57db;stroke:#5f57db;" x="79.439844" xlink:href="#m5bf419513d" y="189.699693"/>
     <use style="fill:#5f57db;stroke:#5f57db;" x="92.121662" xlink:href="#m5bf419513d" y="184.459409"/>
     <use style="fill:#5f57db;stroke:#5f57db;" x="104.80348" xlink:href="#m5bf419513d" y="166.857445"/>
     <use style="fill:#5f57db;stroke:#5f57db;" x="117.485298" xlink:href="#m5bf419513d" y="152.68389"/>
     <use style="fill:#5f57db;stroke:#5f57db;" x="130.167116" xlink:href="#m5bf419513d" y="140.977918"/>
     <use style="fill:#5f57db;stroke:#5f57db;" x="142.848935" xlink:href="#m5bf419513d" y="131.770846"/>
     <use style="fill:#5f57db;stroke:#5f57db;" x="155.530753" xlink:href="#m5bf419513d" y="125.507306"/>
     <use style="fill:#5f57db;stroke:#5f57db;" x="168.212571" xlink:href="#m5bf419513d" y="118.961963"/>
     <use style="fill:#5f57db;stroke:#5f57db;" x="180.894389" xlink:href="#m5bf419513d" y="113.990369"/>
     <use style="fill:#5f57db;stroke:#5f57db;" x="193.576207" xlink:href="#m5bf419513d" y="108.53343"/>
     <use style="fill:#5f57db;stroke:#5f57db;" x="206.258026" xlink:href="#m5bf419513d" y="102.82076"/>
     <use style="fill:#5f57db;stroke:#5f57db;" x="218.939844" xlink:href="#m5bf419513d" y="96.862591"/>
     <use style="fill:#5f57db;stroke:#5f57db;" x="231.621662" xlink:href="#m5bf419513d" y="90.303956"/>
     <use style="fill:#5f57db;stroke:#5f57db;" x="244.30348" xlink:href="#m5bf419513d" y="85.409356"/>
     <use style="fill:#5f57db;stroke:#5f57db;" x="256.985298" xlink:href="#m5bf419513d" y="79.417652"/>
     <use style="fill:#5f57db;stroke:#5f57db;" x="269.667116" xlink:href="#m5bf419513d" y="74.694029"/>
     <use style="fill:#5f57db;stroke:#5f57db;" x="282.348935" xlink:href="#m5bf419513d" y="68.444457"/>
     <use style="fill:#5f57db;stroke:#5f57db;" x="295.030753" xlink:href="#m5bf419513d" y="62.361882"/>
     <use style="fill:#5f57db;stroke:#5f57db;" x="307.712571" xlink:href="#m5bf419513d" y="55.810258"/>
     <use style="fill:#5f57db;stroke:#5f57db;" x="320.394389" xlink:href="#m5bf419513d" y="50.439703"/>
     <use style="fill:#5f57db;stroke:#5f57db;" x="333.076207" xlink:href="#m5bf419513d" y="45.079735"/>
     <use style="fill:#5f57db;stroke:#5f57db;" x="345.758026" xlink:href="#m5bf419513d" y="39.937534"/>
     <use style="fill:#5f57db;stroke:#5f57db;" x="358.439844" xlink:href="#m5bf419513d" y="35.956009"/>
     <use style="fill:#5f57db;stroke:#5f57db;" x="371.121662" xlink:href="#m5bf419513d" y="31.454517"/>
    </g>
   </g>
   <g id="PathCollection_13">
    <defs>
     <path d="M 0 2.236068 
C 0.593012 2.236068 1.161816 2.000462 1.581139 1.581139 
C 2.000462 1.161816 2.236068 0.593012 2.236068 0 
C 2.236068 -0.593012 2.000462 -1.161816 1.581139 -1.581139 
C 1.161816 -2.000462 0.593012 -2.236068 0 -2.236068 
C -0.593012 -2.236068 -1.161816 -2.000462 -1.581139 -1.581139 
C -2.000462 -1.161816 -2.236068 -0.593012 -2.236068 0 
C -2.236068 0.593012 -2.000462 1.161816 -1.581139 1.581139 
C -1.161816 2.000462 -0.593012 2.236068 0 2.236068 
z
" id="m39a1c76667" style="stroke:#9457db;"/>
    </defs>
    <g clip-path="url(#p4bdfe331a1)">
     <use style="fill:#9457db;stroke:#9457db;" x="66.758026" xlink:href="#m39a1c76667" y="257.38319"/>
     <use style="fill:#9457db;stroke:#9457db;" x="79.439844" xlink:href="#m39a1c76667" y="256.623292"/>
     <use style="fill:#9457db;stroke:#9457db;" x="92.121662" xlink:href="#m39a1c76667" y="253.17115"/>
     <use style="fill:#9457db;stroke:#9457db;" x="104.80348" xlink:href="#m39a1c76667" y="236.255696"/>
     <use style="fill:#9457db;stroke:#9457db;" x="117.485298" xlink:href="#m39a1c76667" y="224.627367"/>
     <use style="fill:#9457db;stroke:#9457db;" x="130.167116" xlink:href="#m39a1c76667" y="215.286136"/>
     <use style="fill:#9457db;stroke:#9457db;" x="142.848935" xlink:href="#m39a1c76667" y="206.379382"/>
     <use style="fill:#9457db;stroke:#9457db;" x="155.530753" xlink:href="#m39a1c76667" y="201.451939"/>
     <use style="fill:#9457db;stroke:#9457db;" x="168.212571" xlink:href="#m39a1c76667" y="196.064167"/>
     <use style="fill:#9457db;stroke:#9457db;" x="180.894389" xlink:href="#m39a1c76667" y="191.341562"/>
     <use style="fill:#9457db;stroke:#9457db;" x="193.576207" xlink:href="#m39a1c76667" y="186.086449"/>
     <use style="fill:#9457db;stroke:#9457db;" x="206.258026" xlink:href="#m39a1c76667" y="180.519249"/>
     <use style="fill:#9457db;stroke:#9457db;" x="218.939844" xlink:href="#m39a1c76667" y="174.884791"/>
     <use style="fill:#9457db;stroke:#9457db;" x="231.621662" xlink:href="#m39a1c76667" y="167.839774"/>
     <use style="fill:#9457db;stroke:#9457db;" x="244.30348" xlink:href="#m39a1c76667" y="162.139389"/>
     <use style="fill:#9457db;stroke:#9457db;" x="256.985298" xlink:href="#m39a1c76667" y="155.797086"/>
     <use style="fill:#9457db;stroke:#9457db;" x="269.667116" xlink:href="#m39a1c76667" y="150.73636"/>
     <use style="fill:#9457db;stroke:#9457db;" x="282.348935" xlink:href="#m39a1c76667" y="144.354715"/>
     <use style="fill:#9457db;stroke:#9457db;" x="295.030753" xlink:href="#m39a1c76667" y="137.651738"/>
     <use style="fill:#9457db;stroke:#9457db;" x="307.712571" xlink:href="#m39a1c76667" y="130.421672"/>
     <use style="fill:#9457db;stroke:#9457db;" x="320.394389" xlink:href="#m39a1c76667" y="125.120964"/>
     <use style="fill:#9457db;stroke:#9457db;" x="333.076207" xlink:href="#m39a1c76667" y="119.779968"/>
     <use style="fill:#9457db;stroke:#9457db;" x="345.758026" xlink:href="#m39a1c76667" y="113.796319"/>
     <use style="fill:#9457db;stroke:#9457db;" x="358.439844" xlink:href="#m39a1c76667" y="109.199866"/>
     <use style="fill:#9457db;stroke:#9457db;" x="371.121662" xlink:href="#m39a1c76667" y="104.433288"/>
    </g>
   </g>
   <g id="PathCollection_14">
    <defs>
     <path d="M 0 2.236068 
C 0.593012 2.236068 1.161816 2.000462 1.581139 1.581139 
C 2.000462 1.161816 2.236068 0.593012 2.236068 0 
C 2.236068 -0.593012 2.000462 -1.161816 1.581139 -1.581139 
C 1.161816 -2.000462 0.593012 -2.236068 0 -2.236068 
C -0.593012 -2.236068 -1.161816 -2.000462 -1.581139 -1.581139 
C -2.000462 -1.161816 -2.236068 -0.593012 -2.236068 0 
C -2.236068 0.593012 -2.000462 1.161816 -1.581139 1.581139 
C -1.161816 2.000462 -0.593012 2.236068 0 2.236068 
z
" id="m2026d9f663" style="stroke:#c957db;"/>
    </defs>
    <g clip-path="url(#p4bdfe331a1)">
     <use style="fill:#c957db;stroke:#c957db;" x="66.758026" xlink:href="#m2026d9f663" y="285.586614"/>
     <use style="fill:#c957db;stroke:#c957db;" x="79.439844" xlink:href="#m2026d9f663" y="284.868664"/>
     <use style="fill:#c957db;stroke:#c957db;" x="92.121662" xlink:href="#m2026d9f663" y="280.705225"/>
     <use style="fill:#c957db;stroke:#c957db;" x="104.80348" xlink:href="#m2026d9f663" y="254.644497"/>
     <use style="fill:#c957db;stroke:#c957db;" x="117.485298" xlink:href="#m2026d9f663" y="230.178087"/>
     <use style="fill:#c957db;stroke:#c957db;" x="130.167116" xlink:href="#m2026d9f663" y="210.117417"/>
     <use style="fill:#c957db;stroke:#c957db;" x="142.848935" xlink:href="#m2026d9f663" y="192.246298"/>
     <use style="fill:#c957db;stroke:#c957db;" x="155.530753" xlink:href="#m2026d9f663" y="181.853546"/>
     <use style="fill:#c957db;stroke:#c957db;" x="168.212571" xlink:href="#m2026d9f663" y="172.188468"/>
     <use style="fill:#c957db;stroke:#c957db;" x="180.894389" xlink:href="#m2026d9f663" y="163.233783"/>
     <use style="fill:#c957db;stroke:#c957db;" x="193.576207" xlink:href="#m2026d9f663" y="155.817505"/>
     <use style="fill:#c957db;stroke:#c957db;" x="206.258026" xlink:href="#m2026d9f663" y="148.426842"/>
     <use style="fill:#c957db;stroke:#c957db;" x="218.939844" xlink:href="#m2026d9f663" y="140.334418"/>
     <use style="fill:#c957db;stroke:#c957db;" x="231.621662" xlink:href="#m2026d9f663" y="131.99926"/>
     <use style="fill:#c957db;stroke:#c957db;" x="244.30348" xlink:href="#m2026d9f663" y="124.776202"/>
     <use style="fill:#c957db;stroke:#c957db;" x="256.985298" xlink:href="#m2026d9f663" y="117.266073"/>
     <use style="fill:#c957db;stroke:#c957db;" x="269.667116" xlink:href="#m2026d9f663" y="111.132583"/>
     <use style="fill:#c957db;stroke:#c957db;" x="282.348935" xlink:href="#m2026d9f663" y="103.012746"/>
     <use style="fill:#c957db;stroke:#c957db;" x="295.030753" xlink:href="#m2026d9f663" y="95.546793"/>
     <use style="fill:#c957db;stroke:#c957db;" x="307.712571" xlink:href="#m2026d9f663" y="90.192989"/>
     <use style="fill:#c957db;stroke:#c957db;" x="320.394389" xlink:href="#m2026d9f663" y="85.125729"/>
     <use style="fill:#c957db;stroke:#c957db;" x="333.076207" xlink:href="#m2026d9f663" y="80.040804"/>
     <use style="fill:#c957db;stroke:#c957db;" x="345.758026" xlink:href="#m2026d9f663" y="77.083687"/>
     <use style="fill:#c957db;stroke:#c957db;" x="358.439844" xlink:href="#m2026d9f663" y="72.339523"/>
     <use style="fill:#c957db;stroke:#c957db;" x="371.121662" xlink:href="#m2026d9f663" y="69.20001"/>
    </g>
   </g>
   <g id="PathCollection_15">
    <defs>
     <path d="M 0 2.236068 
C 0.593012 2.236068 1.161816 2.000462 1.581139 1.581139 
C 2.000462 1.161816 2.236068 0.593012 2.236068 0 
C 2.236068 -0.593012 2.000462 -1.161816 1.581139 -1.581139 
C 1.161816 -2.000462 0.593012 -2.236068 0 -2.236068 
C -0.593012 -2.236068 -1.161816 -2.000462 -1.581139 -1.581139 
C -2.000462 -1.161816 -2.236068 -0.593012 -2.236068 0 
C -2.236068 0.593012 -2.000462 1.161816 -1.581139 1.581139 
C -1.161816 2.000462 -0.593012 2.236068 0 2.236068 
z
" id="m1674c03db4" style="stroke:#db57b9;"/>
    </defs>
    <g clip-path="url(#p4bdfe331a1)">
     <use style="fill:#db57b9;stroke:#db57b9;" x="66.758026" xlink:href="#m1674c03db4" y="268.662966"/>
     <use style="fill:#db57b9;stroke:#db57b9;" x="79.439844" xlink:href="#m1674c03db4" y="267.604367"/>
     <use style="fill:#db57b9;stroke:#db57b9;" x="92.121662" xlink:href="#m1674c03db4" y="263.465264"/>
     <use style="fill:#db57b9;stroke:#db57b9;" x="104.80348" xlink:href="#m1674c03db4" y="241.249905"/>
     <use style="fill:#db57b9;stroke:#db57b9;" x="117.485298" xlink:href="#m1674c03db4" y="222.061892"/>
     <use style="fill:#db57b9;stroke:#db57b9;" x="130.167116" xlink:href="#m1674c03db4" y="206.09383"/>
     <use style="fill:#db57b9;stroke:#db57b9;" x="142.848935" xlink:href="#m1674c03db4" y="192.6405"/>
     <use style="fill:#db57b9;stroke:#db57b9;" x="155.530753" xlink:href="#m1674c03db4" y="184.887915"/>
     <use style="fill:#db57b9;stroke:#db57b9;" x="168.212571" xlink:href="#m1674c03db4" y="177.300725"/>
     <use style="fill:#db57b9;stroke:#db57b9;" x="180.894389" xlink:href="#m1674c03db4" y="170.363221"/>
     <use style="fill:#db57b9;stroke:#db57b9;" x="193.576207" xlink:href="#m1674c03db4" y="163.190672"/>
     <use style="fill:#db57b9;stroke:#db57b9;" x="206.258026" xlink:href="#m1674c03db4" y="156.580978"/>
     <use style="fill:#db57b9;stroke:#db57b9;" x="218.939844" xlink:href="#m1674c03db4" y="150.381824"/>
     <use style="fill:#db57b9;stroke:#db57b9;" x="231.621662" xlink:href="#m1674c03db4" y="143.056525"/>
     <use style="fill:#db57b9;stroke:#db57b9;" x="244.30348" xlink:href="#m1674c03db4" y="135.560904"/>
     <use style="fill:#db57b9;stroke:#db57b9;" x="256.985298" xlink:href="#m1674c03db4" y="128.667873"/>
     <use style="fill:#db57b9;stroke:#db57b9;" x="269.667116" xlink:href="#m1674c03db4" y="122.562175"/>
     <use style="fill:#db57b9;stroke:#db57b9;" x="282.348935" xlink:href="#m1674c03db4" y="115.819952"/>
     <use style="fill:#db57b9;stroke:#db57b9;" x="295.030753" xlink:href="#m1674c03db4" y="109.079427"/>
     <use style="fill:#db57b9;stroke:#db57b9;" x="307.712571" xlink:href="#m1674c03db4" y="102.732603"/>
     <use style="fill:#db57b9;stroke:#db57b9;" x="320.394389" xlink:href="#m1674c03db4" y="97.834168"/>
     <use style="fill:#db57b9;stroke:#db57b9;" x="333.076207" xlink:href="#m1674c03db4" y="90.623163"/>
     <use style="fill:#db57b9;stroke:#db57b9;" x="345.758026" xlink:href="#m1674c03db4" y="85.333231"/>
     <use style="fill:#db57b9;stroke:#db57b9;" x="358.439844" xlink:href="#m1674c03db4" y="79.815738"/>
     <use style="fill:#db57b9;stroke:#db57b9;" x="371.121662" xlink:href="#m1674c03db4" y="74.771776"/>
    </g>
   </g>
   <g id="LineCollection_1">
    <path clip-path="url(#p4bdfe331a1)" d="M 92.121662 377.057719 
L 92.121662 -1 
" style="fill:none;stroke:#1a1a1a;stroke-dasharray:5.55,2.4;stroke-dashoffset:0;stroke-width:1.5;"/>
   </g>
   <g id="LineCollection_2">
    <path clip-path="url(#p4bdfe331a1)" d="M 92.121662 377.057719 
L 92.121662 -1 
" style="fill:none;stroke:#1a1a1a;stroke-dasharray:5.55,2.4;stroke-dashoffset:0;stroke-width:1.5;"/>
   </g>
   <g id="line2d_9">
    <path clip-path="url(#p4bdfe331a1)" d="M 66.758026 273.944919 
L 79.439844 272.688169 
L 92.121662 268.893037 
L 104.80348 252.347681 
L 117.485298 237.196533 
L 130.167116 224.300439 
L 142.848935 212.911107 
L 155.530753 205.978296 
L 168.212571 199.697768 
L 180.894389 193.831475 
L 193.576207 187.886679 
L 206.258026 182.878112 
L 218.939844 176.675424 
L 231.621662 171.279434 
L 244.30348 166.749443 
L 256.985298 160.146448 
L 269.667116 155.258812 
L 282.348935 150.714829 
L 295.030753 144.024959 
L 307.712571 138.035676 
L 320.394389 133.606315 
L 333.076207 128.410373 
L 345.758026 125.325228 
L 358.439844 120.410821 
L 371.121662 114.799606 
" style="fill:none;stroke:#db5f57;stroke-linecap:round;stroke-opacity:0.6;stroke-width:4;"/>
   </g>
   <g id="line2d_10">
    <path clip-path="url(#p4bdfe331a1)" d="M 66.758026 131.152668 
L 79.439844 128.498955 
L 92.121662 122.581405 
L 104.80348 105.752292 
L 117.485298 96.240802 
L 130.167116 88.925813 
L 142.848935 84.037745 
L 155.530753 81.249152 
L 168.212571 77.956544 
L 180.894389 75.873744 
L 193.576207 73.727832 
L 206.258026 70.805912 
L 218.939844 68.114609 
L 231.621662 64.650754 
L 244.30348 62.938253 
L 256.985298 59.443109 
L 269.667116 56.810045 
L 282.348935 55.041403 
L 295.030753 53.230387 
L 307.712571 50.130758 
L 320.394389 47.036639 
L 333.076207 44.053433 
L 345.758026 41.528701 
L 358.439844 36.617896 
L 371.121662 33.417956 
" style="fill:none;stroke:#db9457;stroke-linecap:round;stroke-opacity:0.6;stroke-width:4;"/>
   </g>
   <g id="line2d_11">
    <path clip-path="url(#p4bdfe331a1)" d="M 66.758026 157.549979 
L 79.439844 155.283346 
L 92.121662 150.036465 
L 104.80348 136.2446 
L 117.485298 127.879774 
L 130.167116 120.652203 
L 142.848935 115.402508 
L 155.530753 112.40335 
L 168.212571 109.109775 
L 180.894389 106.372562 
L 193.576207 103.612379 
L 206.258026 100.546199 
L 218.939844 97.527037 
L 231.621662 93.124722 
L 244.30348 89.844318 
L 256.985298 86.431489 
L 269.667116 82.941852 
L 282.348935 79.436013 
L 295.030753 76.428852 
L 307.712571 71.93694 
L 320.394389 67.199615 
L 333.076207 63.010349 
L 345.758026 59.934759 
L 358.439844 56.148032 
L 371.121662 54.457205 
" style="fill:none;stroke:#dbc957;stroke-linecap:round;stroke-opacity:0.6;stroke-width:4;"/>
   </g>
   <g id="line2d_12">
    <path clip-path="url(#p4bdfe331a1)" d="M 66.758026 251.413984 
L 79.439844 250.451859 
L 92.121662 246.127079 
L 104.80348 225.24844 
L 117.485298 205.449411 
L 130.167116 188.566548 
L 142.848935 174.286601 
L 155.530753 165.199361 
L 168.212571 156.676037 
L 180.894389 149.101622 
L 193.576207 141.052398 
L 206.258026 133.855998 
L 218.939844 125.922643 
L 231.621662 116.259608 
L 244.30348 109.373551 
L 256.985298 102.052831 
L 269.667116 95.487711 
L 282.348935 88.735495 
L 295.030753 80.584941 
L 307.712571 74.501604 
L 320.394389 68.745918 
L 333.076207 60.846215 
L 345.758026 56.468608 
L 358.439844 51.51823 
L 371.121662 44.167609 
" style="fill:none;stroke:#b9db57;stroke-linecap:round;stroke-opacity:0.6;stroke-width:4;"/>
   </g>
   <g id="line2d_13">
    <path clip-path="url(#p4bdfe331a1)" d="M 66.758026 336.069164 
L 79.439844 335.667243 
L 92.121662 332.78297 
L 104.80348 315.461299 
L 117.485298 298.355064 
L 130.167116 285.683062 
L 142.848935 275.878489 
L 155.530753 267.705563 
L 168.212571 261.085358 
L 180.894389 255.048022 
L 193.576207 248.075896 
L 206.258026 243.245045 
L 218.939844 236.858283 
L 231.621662 230.293659 
L 244.30348 224.205256 
L 256.985298 217.247357 
L 269.667116 211.656202 
L 282.348935 207.024696 
L 295.030753 201.088575 
L 307.712571 196.171486 
L 320.394389 191.289754 
L 333.076207 186.750715 
L 345.758026 183.002572 
L 358.439844 180.469952 
L 371.121662 173.857039 
" style="fill:none;stroke:#1a1a1a;stroke-linecap:round;stroke-opacity:0.6;stroke-width:4;"/>
   </g>
   <g id="line2d_14">
    <path clip-path="url(#p4bdfe331a1)" d="M 66.758026 147.38666 
L 79.439844 144.367519 
L 92.121662 139.532164 
L 104.80348 125.012117 
L 117.485298 116.583437 
L 130.167116 109.227374 
L 142.848935 103.621132 
L 155.530753 100.82381 
L 168.212571 97.661884 
L 180.894389 95.066545 
L 193.576207 91.8052 
L 206.258026 89.331242 
L 218.939844 85.384974 
L 231.621662 82.116389 
L 244.30348 79.348798 
L 256.985298 75.844203 
L 269.667116 72.818165 
L 282.348935 70.520436 
L 295.030753 67.107886 
L 307.712571 61.402847 
L 320.394389 57.351998 
L 333.076207 53.954459 
L 345.758026 50.655979 
L 358.439844 48.11014 
L 371.121662 43.55925 
" style="fill:none;stroke:#84db57;stroke-linecap:round;stroke-opacity:0.6;stroke-width:4;"/>
   </g>
   <g id="line2d_15">
    <path clip-path="url(#p4bdfe331a1)" d="M 66.758026 296.158474 
L 79.439844 295.62691 
L 92.121662 292.898172 
L 104.80348 277.648626 
L 117.485298 265.409534 
L 130.167116 254.982596 
L 142.848935 246.644685 
L 155.530753 240.882434 
L 168.212571 235.433644 
L 180.894389 230.903491 
L 193.576207 225.353843 
L 206.258026 219.668846 
L 218.939844 213.337139 
L 231.621662 206.147901 
L 244.30348 200.057168 
L 256.985298 193.006379 
L 269.667116 187.11215 
L 282.348935 179.727938 
L 295.030753 172.452169 
L 307.712571 165.217628 
L 320.394389 155.848019 
L 333.076207 151.133295 
L 345.758026 142.745975 
L 358.439844 136.837244 
L 371.121662 130.205947 
" style="fill:none;stroke:#57db5f;stroke-linecap:round;stroke-opacity:0.6;stroke-width:4;"/>
   </g>
   <g id="line2d_16">
    <path clip-path="url(#p4bdfe331a1)" d="M 66.758026 188.557222 
L 79.439844 186.21032 
L 92.121662 181.219852 
L 104.80348 163.871391 
L 117.485298 151.549142 
L 130.167116 142.25018 
L 142.848935 134.803013 
L 155.530753 129.954862 
L 168.212571 125.375278 
L 180.894389 121.644493 
L 193.576207 116.752389 
L 206.258026 113.033352 
L 218.939844 108.797329 
L 231.621662 103.792569 
L 244.30348 101.001124 
L 256.985298 96.411149 
L 269.667116 92.420016 
L 282.348935 88.345222 
L 295.030753 83.369667 
L 307.712571 78.088969 
L 320.394389 74.307038 
L 333.076207 69.820808 
L 345.758026 65.877911 
L 358.439844 62.901239 
L 371.121662 58.564646 
" style="fill:none;stroke:#57db94;stroke-linecap:round;stroke-opacity:0.6;stroke-width:4;"/>
   </g>
   <g id="line2d_17">
    <path clip-path="url(#p4bdfe331a1)" d="M 66.758026 158.827311 
L 79.439844 156.007503 
L 92.121662 150.848169 
L 104.80348 137.482065 
L 117.485298 129.582139 
L 130.167116 122.064336 
L 142.848935 116.054862 
L 155.530753 112.007118 
L 168.212571 107.729956 
L 180.894389 103.715415 
L 193.576207 99.873322 
L 206.258026 95.999669 
L 218.939844 91.408781 
L 231.621662 86.439542 
L 244.30348 82.002753 
L 256.985298 78.120168 
L 269.667116 74.66134 
L 282.348935 70.609838 
L 295.030753 65.90354 
L 307.712571 60.287554 
L 320.394389 55.23793 
L 333.076207 50.13111 
L 345.758026 46.071925 
L 358.439844 42.495568 
L 371.121662 38.5492 
" style="fill:none;stroke:#57dbc9;stroke-linecap:round;stroke-opacity:0.6;stroke-width:4;"/>
   </g>
   <g id="line2d_18">
    <path clip-path="url(#p4bdfe331a1)" d="M 66.758026 263.687288 
L 79.439844 262.612894 
L 92.121662 258.768767 
L 104.80348 240.775101 
L 117.485298 225.700799 
L 130.167116 214.423687 
L 142.848935 202.715778 
L 155.530753 196.135914 
L 168.212571 189.768938 
L 180.894389 184.249155 
L 193.576207 177.612595 
L 206.258026 171.844538 
L 218.939844 165.064397 
L 231.621662 158.620768 
L 244.30348 151.918115 
L 256.985298 143.549477 
L 269.667116 137.815808 
L 282.348935 131.275225 
L 295.030753 124.692873 
L 307.712571 118.779121 
L 320.394389 111.877944 
L 333.076207 104.682684 
L 345.758026 98.446025 
L 358.439844 92.934736 
L 371.121662 85.208743 
" style="fill:none;stroke:#57b9db;stroke-linecap:round;stroke-opacity:0.6;stroke-width:4;"/>
   </g>
   <g id="line2d_19">
    <path clip-path="url(#p4bdfe331a1)" d="M 66.758026 304.144491 
L 79.439844 303.458861 
L 92.121662 299.914063 
L 104.80348 275.303843 
L 117.485298 251.284901 
L 130.167116 230.566681 
L 142.848935 214.226017 
L 155.530753 203.60945 
L 168.212571 195.419684 
L 180.894389 188.198575 
L 193.576207 180.321911 
L 206.258026 172.816737 
L 218.939844 165.446533 
L 231.621662 156.968133 
L 244.30348 151.592065 
L 256.985298 145.345406 
L 269.667116 139.243408 
L 282.348935 132.624402 
L 295.030753 125.800317 
L 307.712571 120.223576 
L 320.394389 114.141584 
L 333.076207 109.947749 
L 345.758026 107.686669 
L 358.439844 105.894275 
L 371.121662 103.656603 
" style="fill:none;stroke:#5784db;stroke-linecap:round;stroke-opacity:0.6;stroke-width:4;"/>
   </g>
   <g id="line2d_20">
    <path clip-path="url(#p4bdfe331a1)" d="M 66.758026 192.889243 
L 79.439844 189.699693 
L 92.121662 184.459409 
L 104.80348 166.857445 
L 117.485298 152.68389 
L 130.167116 140.977918 
L 142.848935 131.770846 
L 155.530753 125.507306 
L 168.212571 118.961963 
L 180.894389 113.990369 
L 193.576207 108.53343 
L 206.258026 102.82076 
L 218.939844 96.862591 
L 231.621662 90.303956 
L 244.30348 85.409356 
L 256.985298 79.417652 
L 269.667116 74.694029 
L 282.348935 68.444457 
L 295.030753 62.361882 
L 307.712571 55.810258 
L 320.394389 50.439703 
L 333.076207 45.079735 
L 345.758026 39.937534 
L 358.439844 35.956009 
L 371.121662 31.454517 
" style="fill:none;stroke:#5f57db;stroke-linecap:round;stroke-opacity:0.6;stroke-width:4;"/>
   </g>
   <g id="line2d_21">
    <path clip-path="url(#p4bdfe331a1)" d="M 66.758026 257.38319 
L 79.439844 256.623292 
L 92.121662 253.17115 
L 104.80348 236.255696 
L 117.485298 224.627367 
L 130.167116 215.286136 
L 142.848935 206.379382 
L 155.530753 201.451939 
L 168.212571 196.064167 
L 180.894389 191.341562 
L 193.576207 186.086449 
L 206.258026 180.519249 
L 218.939844 174.884791 
L 231.621662 167.839774 
L 244.30348 162.139389 
L 256.985298 155.797086 
L 269.667116 150.73636 
L 282.348935 144.354715 
L 295.030753 137.651738 
L 307.712571 130.421672 
L 320.394389 125.120964 
L 333.076207 119.779968 
L 345.758026 113.796319 
L 358.439844 109.199866 
L 371.121662 104.433288 
" style="fill:none;stroke:#9457db;stroke-linecap:round;stroke-opacity:0.6;stroke-width:4;"/>
   </g>
   <g id="line2d_22">
    <path clip-path="url(#p4bdfe331a1)" d="M 66.758026 285.586614 
L 79.439844 284.868664 
L 92.121662 280.705225 
L 104.80348 254.644497 
L 117.485298 230.178087 
L 130.167116 210.117417 
L 142.848935 192.246298 
L 155.530753 181.853546 
L 168.212571 172.188468 
L 180.894389 163.233783 
L 193.576207 155.817505 
L 206.258026 148.426842 
L 218.939844 140.334418 
L 231.621662 131.99926 
L 244.30348 124.776202 
L 256.985298 117.266073 
L 269.667116 111.132583 
L 282.348935 103.012746 
L 295.030753 95.546793 
L 307.712571 90.192989 
L 320.394389 85.125729 
L 333.076207 80.040804 
L 345.758026 77.083687 
L 358.439844 72.339523 
L 371.121662 69.20001 
" style="fill:none;stroke:#c957db;stroke-linecap:round;stroke-opacity:0.6;stroke-width:4;"/>
   </g>
   <g id="line2d_23">
    <path clip-path="url(#p4bdfe331a1)" d="M 66.758026 268.662966 
L 79.439844 267.604367 
L 92.121662 263.465264 
L 104.80348 241.249905 
L 117.485298 222.061892 
L 130.167116 206.09383 
L 142.848935 192.6405 
L 155.530753 184.887915 
L 168.212571 177.300725 
L 180.894389 170.363221 
L 193.576207 163.190672 
L 206.258026 156.580978 
L 218.939844 150.381824 
L 231.621662 143.056525 
L 244.30348 135.560904 
L 256.985298 128.667873 
L 269.667116 122.562175 
L 282.348935 115.819952 
L 295.030753 109.079427 
L 307.712571 102.732603 
L 320.394389 97.834168 
L 333.076207 90.623163 
L 345.758026 85.333231 
L 358.439844 79.815738 
L 371.121662 74.771776 
" style="fill:none;stroke:#db57b9;stroke-linecap:round;stroke-opacity:0.6;stroke-width:4;"/>
   </g>
   <g id="line2d_24">
    <path clip-path="url(#p4bdfe331a1)" d="M 66.758026 234.227611 
L 79.439844 232.64464 
L 92.121662 228.360213 
L 104.80348 210.277 
L 117.485298 195.652185 
L 130.167116 183.607881 
L 142.848935 173.574598 
L 155.530753 167.310001 
L 168.212571 161.362013 
L 180.894389 156.195602 
L 193.576207 150.646833 
L 206.258026 145.491565 
L 218.939844 139.800051 
L 231.621662 133.5262 
L 244.30348 128.461113 
L 256.985298 122.583113 
L 269.667116 117.690044 
L 282.348935 112.379158 
L 295.030753 106.6216 
L 307.712571 100.928912 
L 320.394389 95.677554 
L 333.076207 90.550991 
L 345.758026 86.259675 
L 358.439844 82.109951 
L 371.121662 77.35356 
" style="fill:none;stroke:#c44e52;stroke-dasharray:11.1,4.8;stroke-dashoffset:0;stroke-width:3;"/>
   </g>
   <g id="patch_3">
    <path d="M 51.539844 342.518 
L 51.539844 16.358 
" style="fill:none;stroke:#262626;stroke-linecap:square;stroke-linejoin:miter;stroke-width:1.25;"/>
   </g>
   <g id="patch_4">
    <path d="M 51.539844 342.518 
L 386.339844 342.518 
" style="fill:none;stroke:#262626;stroke-linecap:square;stroke-linejoin:miter;stroke-width:1.25;"/>
   </g>
   <g id="legend_1">
    <g id="line2d_25">
     <path d="M 398.439484 18.780766 
L 427.039484 18.780766 
" style="fill:none;stroke:#db5f57;stroke-linecap:round;stroke-opacity:0.6;stroke-width:4;"/>
    </g>
    <g id="line2d_26"/>
    <g id="text_9">
     <!-- GM21381 -->
     <g style="fill:#262626;" transform="translate(438.479484 23.785766)scale(0.143 -0.143)">
      <defs>
       <path d="M 59.515625 10.40625 
L 59.515625 29.984375 
L 43.40625 29.984375 
L 43.40625 38.09375 
L 69.28125 38.09375 
L 69.28125 6.78125 
Q 63.578125 2.734375 56.6875 0.65625 
Q 49.8125 -1.421875 42 -1.421875 
Q 24.90625 -1.421875 15.25 8.5625 
Q 5.609375 18.5625 5.609375 36.375 
Q 5.609375 54.25 15.25 64.234375 
Q 24.90625 74.21875 42 74.21875 
Q 49.125 74.21875 55.546875 72.453125 
Q 61.96875 70.703125 67.390625 67.28125 
L 67.390625 56.78125 
Q 61.921875 61.421875 55.765625 63.765625 
Q 49.609375 66.109375 42.828125 66.109375 
Q 29.4375 66.109375 22.71875 58.640625 
Q 16.015625 51.171875 16.015625 36.375 
Q 16.015625 21.625 22.71875 14.15625 
Q 29.4375 6.6875 42.828125 6.6875 
Q 48.046875 6.6875 52.140625 7.59375 
Q 56.25 8.5 59.515625 10.40625 
z
" id="DejaVuSans-71"/>
       <path d="M 9.8125 72.90625 
L 24.515625 72.90625 
L 43.109375 23.296875 
L 61.8125 72.90625 
L 76.515625 72.90625 
L 76.515625 0 
L 66.890625 0 
L 66.890625 64.015625 
L 48.09375 14.015625 
L 38.1875 14.015625 
L 19.390625 64.015625 
L 19.390625 0 
L 9.8125 0 
z
" id="DejaVuSans-77"/>
      </defs>
      <use xlink:href="#DejaVuSans-71"/>
      <use x="77.490234" xlink:href="#DejaVuSans-77"/>
      <use x="163.769531" xlink:href="#DejaVuSans-50"/>
      <use x="227.392578" xlink:href="#DejaVuSans-49"/>
      <use x="291.015625" xlink:href="#DejaVuSans-51"/>
      <use x="354.638672" xlink:href="#DejaVuSans-56"/>
      <use x="418.261719" xlink:href="#DejaVuSans-49"/>
     </g>
    </g>
    <g id="line2d_27">
     <path d="M 398.439484 39.770484 
L 427.039484 39.770484 
" style="fill:none;stroke:#db9457;stroke-linecap:round;stroke-opacity:0.6;stroke-width:4;"/>
    </g>
    <g id="line2d_28"/>
    <g id="text_10">
     <!-- GM23338 -->
     <g style="fill:#262626;" transform="translate(438.479484 44.775484)scale(0.143 -0.143)">
      <use xlink:href="#DejaVuSans-71"/>
      <use x="77.490234" xlink:href="#DejaVuSans-77"/>
      <use x="163.769531" xlink:href="#DejaVuSans-50"/>
      <use x="227.392578" xlink:href="#DejaVuSans-51"/>
      <use x="291.015625" xlink:href="#DejaVuSans-51"/>
      <use x="354.638672" xlink:href="#DejaVuSans-51"/>
      <use x="418.261719" xlink:href="#DejaVuSans-56"/>
     </g>
    </g>
    <g id="line2d_29">
     <path d="M 398.439484 60.760203 
L 427.039484 60.760203 
" style="fill:none;stroke:#dbc957;stroke-linecap:round;stroke-opacity:0.6;stroke-width:4;"/>
    </g>
    <g id="line2d_30"/>
    <g id="text_11">
     <!-- HepG2 -->
     <g style="fill:#262626;" transform="translate(438.479484 65.765203)scale(0.143 -0.143)">
      <defs>
       <path d="M 9.8125 72.90625 
L 19.671875 72.90625 
L 19.671875 43.015625 
L 55.515625 43.015625 
L 55.515625 72.90625 
L 65.375 72.90625 
L 65.375 0 
L 55.515625 0 
L 55.515625 34.71875 
L 19.671875 34.71875 
L 19.671875 0 
L 9.8125 0 
z
" id="DejaVuSans-72"/>
       <path d="M 56.203125 29.59375 
L 56.203125 25.203125 
L 14.890625 25.203125 
Q 15.484375 15.921875 20.484375 11.0625 
Q 25.484375 6.203125 34.421875 6.203125 
Q 39.59375 6.203125 44.453125 7.46875 
Q 49.3125 8.734375 54.109375 11.28125 
L 54.109375 2.78125 
Q 49.265625 0.734375 44.1875 -0.34375 
Q 39.109375 -1.421875 33.890625 -1.421875 
Q 20.796875 -1.421875 13.15625 6.1875 
Q 5.515625 13.8125 5.515625 26.8125 
Q 5.515625 40.234375 12.765625 48.109375 
Q 20.015625 56 32.328125 56 
Q 43.359375 56 49.78125 48.890625 
Q 56.203125 41.796875 56.203125 29.59375 
z
M 47.21875 32.234375 
Q 47.125 39.59375 43.09375 43.984375 
Q 39.0625 48.390625 32.421875 48.390625 
Q 24.90625 48.390625 20.390625 44.140625 
Q 15.875 39.890625 15.1875 32.171875 
z
" id="DejaVuSans-101"/>
       <path d="M 18.109375 8.203125 
L 18.109375 -20.796875 
L 9.078125 -20.796875 
L 9.078125 54.6875 
L 18.109375 54.6875 
L 18.109375 46.390625 
Q 20.953125 51.265625 25.265625 53.625 
Q 29.59375 56 35.59375 56 
Q 45.5625 56 51.78125 48.09375 
Q 58.015625 40.1875 58.015625 27.296875 
Q 58.015625 14.40625 51.78125 6.484375 
Q 45.5625 -1.421875 35.59375 -1.421875 
Q 29.59375 -1.421875 25.265625 0.953125 
Q 20.953125 3.328125 18.109375 8.203125 
z
M 48.6875 27.296875 
Q 48.6875 37.203125 44.609375 42.84375 
Q 40.53125 48.484375 33.40625 48.484375 
Q 26.265625 48.484375 22.1875 42.84375 
Q 18.109375 37.203125 18.109375 27.296875 
Q 18.109375 17.390625 22.1875 11.75 
Q 26.265625 6.109375 33.40625 6.109375 
Q 40.53125 6.109375 44.609375 11.75 
Q 48.6875 17.390625 48.6875 27.296875 
z
" id="DejaVuSans-112"/>
      </defs>
      <use xlink:href="#DejaVuSans-72"/>
      <use x="75.195312" xlink:href="#DejaVuSans-101"/>
      <use x="136.71875" xlink:href="#DejaVuSans-112"/>
      <use x="200.195312" xlink:href="#DejaVuSans-71"/>
      <use x="277.685547" xlink:href="#DejaVuSans-50"/>
     </g>
    </g>
    <g id="line2d_31">
     <path d="M 398.439484 81.749922 
L 427.039484 81.749922 
" style="fill:none;stroke:#b9db57;stroke-linecap:round;stroke-opacity:0.6;stroke-width:4;"/>
    </g>
    <g id="line2d_32"/>
    <g id="text_12">
     <!-- RWPE2 -->
     <g style="fill:#262626;" transform="translate(438.479484 86.754922)scale(0.143 -0.143)">
      <defs>
       <path d="M 44.390625 34.1875 
Q 47.5625 33.109375 50.5625 29.59375 
Q 53.5625 26.078125 56.59375 19.921875 
L 66.609375 0 
L 56 0 
L 46.6875 18.703125 
Q 43.0625 26.03125 39.671875 28.421875 
Q 36.28125 30.8125 30.421875 30.8125 
L 19.671875 30.8125 
L 19.671875 0 
L 9.8125 0 
L 9.8125 72.90625 
L 32.078125 72.90625 
Q 44.578125 72.90625 50.734375 67.671875 
Q 56.890625 62.453125 56.890625 51.90625 
Q 56.890625 45.015625 53.6875 40.46875 
Q 50.484375 35.9375 44.390625 34.1875 
z
M 19.671875 64.796875 
L 19.671875 38.921875 
L 32.078125 38.921875 
Q 39.203125 38.921875 42.84375 42.21875 
Q 46.484375 45.515625 46.484375 51.90625 
Q 46.484375 58.296875 42.84375 61.546875 
Q 39.203125 64.796875 32.078125 64.796875 
z
" id="DejaVuSans-82"/>
       <path d="M 3.328125 72.90625 
L 13.28125 72.90625 
L 28.609375 11.28125 
L 43.890625 72.90625 
L 54.984375 72.90625 
L 70.3125 11.28125 
L 85.59375 72.90625 
L 95.609375 72.90625 
L 77.296875 0 
L 64.890625 0 
L 49.515625 63.28125 
L 33.984375 0 
L 21.578125 0 
z
" id="DejaVuSans-87"/>
       <path d="M 19.671875 64.796875 
L 19.671875 37.40625 
L 32.078125 37.40625 
Q 38.96875 37.40625 42.71875 40.96875 
Q 46.484375 44.53125 46.484375 51.125 
Q 46.484375 57.671875 42.71875 61.234375 
Q 38.96875 64.796875 32.078125 64.796875 
z
M 9.8125 72.90625 
L 32.078125 72.90625 
Q 44.34375 72.90625 50.609375 67.359375 
Q 56.890625 61.8125 56.890625 51.125 
Q 56.890625 40.328125 50.609375 34.8125 
Q 44.34375 29.296875 32.078125 29.296875 
L 19.671875 29.296875 
L 19.671875 0 
L 9.8125 0 
z
" id="DejaVuSans-80"/>
       <path d="M 9.8125 72.90625 
L 55.90625 72.90625 
L 55.90625 64.59375 
L 19.671875 64.59375 
L 19.671875 43.015625 
L 54.390625 43.015625 
L 54.390625 34.71875 
L 19.671875 34.71875 
L 19.671875 8.296875 
L 56.78125 8.296875 
L 56.78125 0 
L 9.8125 0 
z
" id="DejaVuSans-69"/>
      </defs>
      <use xlink:href="#DejaVuSans-82"/>
      <use x="65.482422" xlink:href="#DejaVuSans-87"/>
      <use x="164.359375" xlink:href="#DejaVuSans-80"/>
      <use x="224.662109" xlink:href="#DejaVuSans-69"/>
      <use x="287.845703" xlink:href="#DejaVuSans-50"/>
     </g>
    </g>
    <g id="line2d_33">
     <path d="M 398.439484 102.739641 
L 427.039484 102.739641 
" style="fill:none;stroke:#1a1a1a;stroke-linecap:round;stroke-opacity:0.6;stroke-width:4;"/>
    </g>
    <g id="line2d_34"/>
    <g id="text_13">
     <!-- HG03575 -->
     <g style="fill:#262626;" transform="translate(438.479484 107.744641)scale(0.143 -0.143)">
      <use xlink:href="#DejaVuSans-72"/>
      <use x="75.195312" xlink:href="#DejaVuSans-71"/>
      <use x="152.685547" xlink:href="#DejaVuSans-48"/>
      <use x="216.308594" xlink:href="#DejaVuSans-51"/>
      <use x="279.931641" xlink:href="#DejaVuSans-53"/>
      <use x="343.554688" xlink:href="#DejaVuSans-55"/>
      <use x="407.177734" xlink:href="#DejaVuSans-53"/>
     </g>
    </g>
    <g id="line2d_35">
     <path d="M 398.439484 123.729359 
L 427.039484 123.729359 
" style="fill:none;stroke:#84db57;stroke-linecap:round;stroke-opacity:0.6;stroke-width:4;"/>
    </g>
    <g id="line2d_36"/>
    <g id="text_14">
     <!-- K562 -->
     <g style="fill:#262626;" transform="translate(438.479484 128.734359)scale(0.143 -0.143)">
      <defs>
       <path d="M 9.8125 72.90625 
L 19.671875 72.90625 
L 19.671875 42.09375 
L 52.390625 72.90625 
L 65.09375 72.90625 
L 28.90625 38.921875 
L 67.671875 0 
L 54.6875 0 
L 19.671875 35.109375 
L 19.671875 0 
L 9.8125 0 
z
" id="DejaVuSans-75"/>
      </defs>
      <use xlink:href="#DejaVuSans-75"/>
      <use x="65.576172" xlink:href="#DejaVuSans-53"/>
      <use x="129.199219" xlink:href="#DejaVuSans-54"/>
      <use x="192.822266" xlink:href="#DejaVuSans-50"/>
     </g>
    </g>
    <g id="line2d_37">
     <path d="M 398.439484 144.719078 
L 427.039484 144.719078 
" style="fill:none;stroke:#57db5f;stroke-linecap:round;stroke-opacity:0.6;stroke-width:4;"/>
    </g>
    <g id="line2d_38"/>
    <g id="text_15">
     <!-- DND-41 -->
     <g style="fill:#262626;" transform="translate(438.479484 149.724078)scale(0.143 -0.143)">
      <defs>
       <path d="M 19.671875 64.796875 
L 19.671875 8.109375 
L 31.59375 8.109375 
Q 46.6875 8.109375 53.6875 14.9375 
Q 60.6875 21.78125 60.6875 36.53125 
Q 60.6875 51.171875 53.6875 57.984375 
Q 46.6875 64.796875 31.59375 64.796875 
z
M 9.8125 72.90625 
L 30.078125 72.90625 
Q 51.265625 72.90625 61.171875 64.09375 
Q 71.09375 55.28125 71.09375 36.53125 
Q 71.09375 17.671875 61.125 8.828125 
Q 51.171875 0 30.078125 0 
L 9.8125 0 
z
" id="DejaVuSans-68"/>
       <path d="M 9.8125 72.90625 
L 23.09375 72.90625 
L 55.421875 11.921875 
L 55.421875 72.90625 
L 64.984375 72.90625 
L 64.984375 0 
L 51.703125 0 
L 19.390625 60.984375 
L 19.390625 0 
L 9.8125 0 
z
" id="DejaVuSans-78"/>
       <path d="M 4.890625 31.390625 
L 31.203125 31.390625 
L 31.203125 23.390625 
L 4.890625 23.390625 
z
" id="DejaVuSans-45"/>
      </defs>
      <use xlink:href="#DejaVuSans-68"/>
      <use x="77.001953" xlink:href="#DejaVuSans-78"/>
      <use x="151.806641" xlink:href="#DejaVuSans-68"/>
      <use x="228.808594" xlink:href="#DejaVuSans-45"/>
      <use x="264.892578" xlink:href="#DejaVuSans-52"/>
      <use x="328.515625" xlink:href="#DejaVuSans-49"/>
     </g>
    </g>
    <g id="line2d_39">
     <path d="M 398.439484 165.708797 
L 427.039484 165.708797 
" style="fill:none;stroke:#57db94;stroke-linecap:round;stroke-opacity:0.6;stroke-width:4;"/>
    </g>
    <g id="line2d_40"/>
    <g id="text_16">
     <!-- GM12878 -->
     <g style="fill:#262626;" transform="translate(438.479484 170.713797)scale(0.143 -0.143)">
      <use xlink:href="#DejaVuSans-71"/>
      <use x="77.490234" xlink:href="#DejaVuSans-77"/>
      <use x="163.769531" xlink:href="#DejaVuSans-49"/>
      <use x="227.392578" xlink:href="#DejaVuSans-50"/>
      <use x="291.015625" xlink:href="#DejaVuSans-56"/>
      <use x="354.638672" xlink:href="#DejaVuSans-55"/>
      <use x="418.261719" xlink:href="#DejaVuSans-56"/>
     </g>
    </g>
    <g id="line2d_41">
     <path d="M 398.439484 186.698516 
L 427.039484 186.698516 
" style="fill:none;stroke:#57dbc9;stroke-linecap:round;stroke-opacity:0.6;stroke-width:4;"/>
    </g>
    <g id="line2d_42"/>
    <g id="text_17">
     <!-- A549 -->
     <g style="fill:#262626;" transform="translate(438.479484 191.703516)scale(0.143 -0.143)">
      <defs>
       <path d="M 34.1875 63.1875 
L 20.796875 26.90625 
L 47.609375 26.90625 
z
M 28.609375 72.90625 
L 39.796875 72.90625 
L 67.578125 0 
L 57.328125 0 
L 50.6875 18.703125 
L 17.828125 18.703125 
L 11.1875 0 
L 0.78125 0 
z
" id="DejaVuSans-65"/>
       <path d="M 10.984375 1.515625 
L 10.984375 10.5 
Q 14.703125 8.734375 18.5 7.8125 
Q 22.3125 6.890625 25.984375 6.890625 
Q 35.75 6.890625 40.890625 13.453125 
Q 46.046875 20.015625 46.78125 33.40625 
Q 43.953125 29.203125 39.59375 26.953125 
Q 35.25 24.703125 29.984375 24.703125 
Q 19.046875 24.703125 12.671875 31.3125 
Q 6.296875 37.9375 6.296875 49.421875 
Q 6.296875 60.640625 12.9375 67.421875 
Q 19.578125 74.21875 30.609375 74.21875 
Q 43.265625 74.21875 49.921875 64.515625 
Q 56.59375 54.828125 56.59375 36.375 
Q 56.59375 19.140625 48.40625 8.859375 
Q 40.234375 -1.421875 26.421875 -1.421875 
Q 22.703125 -1.421875 18.890625 -0.6875 
Q 15.09375 0.046875 10.984375 1.515625 
z
M 30.609375 32.421875 
Q 37.25 32.421875 41.125 36.953125 
Q 45.015625 41.5 45.015625 49.421875 
Q 45.015625 57.28125 41.125 61.84375 
Q 37.25 66.40625 30.609375 66.40625 
Q 23.96875 66.40625 20.09375 61.84375 
Q 16.21875 57.28125 16.21875 49.421875 
Q 16.21875 41.5 20.09375 36.953125 
Q 23.96875 32.421875 30.609375 32.421875 
z
" id="DejaVuSans-57"/>
      </defs>
      <use xlink:href="#DejaVuSans-65"/>
      <use x="68.408203" xlink:href="#DejaVuSans-53"/>
      <use x="132.03125" xlink:href="#DejaVuSans-52"/>
      <use x="195.654297" xlink:href="#DejaVuSans-57"/>
     </g>
    </g>
    <g id="line2d_43">
     <path d="M 398.439484 207.688234 
L 427.039484 207.688234 
" style="fill:none;stroke:#57b9db;stroke-linecap:round;stroke-opacity:0.6;stroke-width:4;"/>
    </g>
    <g id="line2d_44"/>
    <g id="text_18">
     <!-- HCT116 -->
     <g style="fill:#262626;" transform="translate(438.479484 212.693234)scale(0.143 -0.143)">
      <defs>
       <path d="M 64.40625 67.28125 
L 64.40625 56.890625 
Q 59.421875 61.53125 53.78125 63.8125 
Q 48.140625 66.109375 41.796875 66.109375 
Q 29.296875 66.109375 22.65625 58.46875 
Q 16.015625 50.828125 16.015625 36.375 
Q 16.015625 21.96875 22.65625 14.328125 
Q 29.296875 6.6875 41.796875 6.6875 
Q 48.140625 6.6875 53.78125 8.984375 
Q 59.421875 11.28125 64.40625 15.921875 
L 64.40625 5.609375 
Q 59.234375 2.09375 53.4375 0.328125 
Q 47.65625 -1.421875 41.21875 -1.421875 
Q 24.65625 -1.421875 15.125 8.703125 
Q 5.609375 18.84375 5.609375 36.375 
Q 5.609375 53.953125 15.125 64.078125 
Q 24.65625 74.21875 41.21875 74.21875 
Q 47.75 74.21875 53.53125 72.484375 
Q 59.328125 70.75 64.40625 67.28125 
z
" id="DejaVuSans-67"/>
       <path d="M -0.296875 72.90625 
L 61.375 72.90625 
L 61.375 64.59375 
L 35.5 64.59375 
L 35.5 0 
L 25.59375 0 
L 25.59375 64.59375 
L -0.296875 64.59375 
z
" id="DejaVuSans-84"/>
      </defs>
      <use xlink:href="#DejaVuSans-72"/>
      <use x="75.195312" xlink:href="#DejaVuSans-67"/>
      <use x="145.019531" xlink:href="#DejaVuSans-84"/>
      <use x="206.103516" xlink:href="#DejaVuSans-49"/>
      <use x="269.726562" xlink:href="#DejaVuSans-49"/>
      <use x="333.349609" xlink:href="#DejaVuSans-54"/>
     </g>
    </g>
    <g id="line2d_45">
     <path d="M 398.439484 228.677953 
L 427.039484 228.677953 
" style="fill:none;stroke:#5784db;stroke-linecap:round;stroke-opacity:0.6;stroke-width:4;"/>
    </g>
    <g id="line2d_46"/>
    <g id="text_19">
     <!-- IMR-90 -->
     <g style="fill:#262626;" transform="translate(438.479484 233.682953)scale(0.143 -0.143)">
      <defs>
       <path d="M 9.8125 72.90625 
L 19.671875 72.90625 
L 19.671875 0 
L 9.8125 0 
z
" id="DejaVuSans-73"/>
      </defs>
      <use xlink:href="#DejaVuSans-73"/>
      <use x="29.492188" xlink:href="#DejaVuSans-77"/>
      <use x="115.771484" xlink:href="#DejaVuSans-82"/>
      <use x="181.253906" xlink:href="#DejaVuSans-45"/>
      <use x="217.337891" xlink:href="#DejaVuSans-57"/>
      <use x="280.960938" xlink:href="#DejaVuSans-48"/>
     </g>
    </g>
    <g id="line2d_47">
     <path d="M 398.439484 249.667672 
L 427.039484 249.667672 
" style="fill:none;stroke:#5f57db;stroke-linecap:round;stroke-opacity:0.6;stroke-width:4;"/>
    </g>
    <g id="line2d_48"/>
    <g id="text_20">
     <!-- NCI-H929 -->
     <g style="fill:#262626;" transform="translate(438.479484 254.672672)scale(0.143 -0.143)">
      <use xlink:href="#DejaVuSans-78"/>
      <use x="74.804688" xlink:href="#DejaVuSans-67"/>
      <use x="144.628906" xlink:href="#DejaVuSans-73"/>
      <use x="174.121094" xlink:href="#DejaVuSans-45"/>
      <use x="210.205078" xlink:href="#DejaVuSans-72"/>
      <use x="285.400391" xlink:href="#DejaVuSans-57"/>
      <use x="349.023438" xlink:href="#DejaVuSans-50"/>
      <use x="412.646484" xlink:href="#DejaVuSans-57"/>
     </g>
    </g>
    <g id="line2d_49">
     <path d="M 398.439484 270.657391 
L 427.039484 270.657391 
" style="fill:none;stroke:#9457db;stroke-linecap:round;stroke-opacity:0.6;stroke-width:4;"/>
    </g>
    <g id="line2d_50"/>
    <g id="text_21">
     <!-- Panc1 -->
     <g style="fill:#262626;" transform="translate(438.479484 275.662391)scale(0.143 -0.143)">
      <defs>
       <path d="M 34.28125 27.484375 
Q 23.390625 27.484375 19.1875 25 
Q 14.984375 22.515625 14.984375 16.5 
Q 14.984375 11.71875 18.140625 8.90625 
Q 21.296875 6.109375 26.703125 6.109375 
Q 34.1875 6.109375 38.703125 11.40625 
Q 43.21875 16.703125 43.21875 25.484375 
L 43.21875 27.484375 
z
M 52.203125 31.203125 
L 52.203125 0 
L 43.21875 0 
L 43.21875 8.296875 
Q 40.140625 3.328125 35.546875 0.953125 
Q 30.953125 -1.421875 24.3125 -1.421875 
Q 15.921875 -1.421875 10.953125 3.296875 
Q 6 8.015625 6 15.921875 
Q 6 25.140625 12.171875 29.828125 
Q 18.359375 34.515625 30.609375 34.515625 
L 43.21875 34.515625 
L 43.21875 35.40625 
Q 43.21875 41.609375 39.140625 45 
Q 35.0625 48.390625 27.6875 48.390625 
Q 23 48.390625 18.546875 47.265625 
Q 14.109375 46.140625 10.015625 43.890625 
L 10.015625 52.203125 
Q 14.9375 54.109375 19.578125 55.046875 
Q 24.21875 56 28.609375 56 
Q 40.484375 56 46.34375 49.84375 
Q 52.203125 43.703125 52.203125 31.203125 
z
" id="DejaVuSans-97"/>
       <path d="M 54.890625 33.015625 
L 54.890625 0 
L 45.90625 0 
L 45.90625 32.71875 
Q 45.90625 40.484375 42.875 44.328125 
Q 39.84375 48.1875 33.796875 48.1875 
Q 26.515625 48.1875 22.3125 43.546875 
Q 18.109375 38.921875 18.109375 30.90625 
L 18.109375 0 
L 9.078125 0 
L 9.078125 54.6875 
L 18.109375 54.6875 
L 18.109375 46.1875 
Q 21.34375 51.125 25.703125 53.5625 
Q 30.078125 56 35.796875 56 
Q 45.21875 56 50.046875 50.171875 
Q 54.890625 44.34375 54.890625 33.015625 
z
" id="DejaVuSans-110"/>
       <path d="M 48.78125 52.59375 
L 48.78125 44.1875 
Q 44.96875 46.296875 41.140625 47.34375 
Q 37.3125 48.390625 33.40625 48.390625 
Q 24.65625 48.390625 19.8125 42.84375 
Q 14.984375 37.3125 14.984375 27.296875 
Q 14.984375 17.28125 19.8125 11.734375 
Q 24.65625 6.203125 33.40625 6.203125 
Q 37.3125 6.203125 41.140625 7.25 
Q 44.96875 8.296875 48.78125 10.40625 
L 48.78125 2.09375 
Q 45.015625 0.34375 40.984375 -0.53125 
Q 36.96875 -1.421875 32.421875 -1.421875 
Q 20.0625 -1.421875 12.78125 6.34375 
Q 5.515625 14.109375 5.515625 27.296875 
Q 5.515625 40.671875 12.859375 48.328125 
Q 20.21875 56 33.015625 56 
Q 37.15625 56 41.109375 55.140625 
Q 45.0625 54.296875 48.78125 52.59375 
z
" id="DejaVuSans-99"/>
      </defs>
      <use xlink:href="#DejaVuSans-80"/>
      <use x="55.802734" xlink:href="#DejaVuSans-97"/>
      <use x="117.082031" xlink:href="#DejaVuSans-110"/>
      <use x="180.460938" xlink:href="#DejaVuSans-99"/>
      <use x="235.441406" xlink:href="#DejaVuSans-49"/>
     </g>
    </g>
    <g id="line2d_51">
     <path d="M 398.439484 291.647109 
L 427.039484 291.647109 
" style="fill:none;stroke:#c957db;stroke-linecap:round;stroke-opacity:0.6;stroke-width:4;"/>
    </g>
    <g id="line2d_52"/>
    <g id="text_22">
     <!-- PC-3 -->
     <g style="fill:#262626;" transform="translate(438.479484 296.652109)scale(0.143 -0.143)">
      <use xlink:href="#DejaVuSans-80"/>
      <use x="60.302734" xlink:href="#DejaVuSans-67"/>
      <use x="130.126953" xlink:href="#DejaVuSans-45"/>
      <use x="166.210938" xlink:href="#DejaVuSans-51"/>
     </g>
    </g>
    <g id="line2d_53">
     <path d="M 398.439484 312.636828 
L 427.039484 312.636828 
" style="fill:none;stroke:#db57b9;stroke-linecap:round;stroke-opacity:0.6;stroke-width:4;"/>
    </g>
    <g id="line2d_54"/>
    <g id="text_23">
     <!-- MCF -->
     <g style="fill:#262626;" transform="translate(438.479484 317.641828)scale(0.143 -0.143)">
      <defs>
       <path d="M 9.8125 72.90625 
L 51.703125 72.90625 
L 51.703125 64.59375 
L 19.671875 64.59375 
L 19.671875 43.109375 
L 48.578125 43.109375 
L 48.578125 34.8125 
L 19.671875 34.8125 
L 19.671875 0 
L 9.8125 0 
z
" id="DejaVuSans-70"/>
      </defs>
      <use xlink:href="#DejaVuSans-77"/>
      <use x="86.279297" xlink:href="#DejaVuSans-67"/>
      <use x="156.103516" xlink:href="#DejaVuSans-70"/>
     </g>
    </g>
    <g id="line2d_55">
     <path d="M 398.439484 333.626547 
L 427.039484 333.626547 
" style="fill:none;stroke:#c44e52;stroke-dasharray:11.1,4.8;stroke-dashoffset:0;stroke-width:3;"/>
    </g>
    <g id="line2d_56"/>
    <g id="text_24">
     <!-- Mean -->
     <g style="fill:#262626;" transform="translate(438.479484 338.631547)scale(0.143 -0.143)">
      <use xlink:href="#DejaVuSans-77"/>
      <use x="86.279297" xlink:href="#DejaVuSans-101"/>
      <use x="147.802734" xlink:href="#DejaVuSans-97"/>
      <use x="209.082031" xlink:href="#DejaVuSans-110"/>
     </g>
    </g>
   </g>
  </g>
 </g>
 <defs>
  <clipPath id="p4bdfe331a1">
   <rect height="326.16" width="334.8" x="51.539844" y="16.358"/>
  </clipPath>
 </defs>
</svg>
