<?xml version="1.0" encoding="utf-8" standalone="no"?>
<!DOCTYPE svg PUBLIC "-//W3C//DTD SVG 1.1//EN"
  "http://www.w3.org/Graphics/SVG/1.1/DTD/svg11.dtd">
<svg xmlns:xlink="http://www.w3.org/1999/xlink" width="602.311875pt" height="507.299375pt" viewBox="0 0 602.311875 507.299375" xmlns="http://www.w3.org/2000/svg" version="1.1">
 <metadata>
  <rdf:RDF xmlns:dc="http://purl.org/dc/elements/1.1/" xmlns:cc="http://creativecommons.org/ns#" xmlns:rdf="http://www.w3.org/1999/02/22-rdf-syntax-ns#">
   <cc:Work>
    <dc:type rdf:resource="http://purl.org/dc/dcmitype/StillImage"/>
    <dc:date>2022-02-09T15:58:09.524697</dc:date>
    <dc:format>image/svg+xml</dc:format>
    <dc:creator>
     <cc:Agent>
      <dc:title>Matplotlib v3.5.1, https://matplotlib.org/</dc:title>
     </cc:Agent>
    </dc:creator>
   </cc:Work>
  </rdf:RDF>
 </metadata>
 <defs>
  <style type="text/css">*{stroke-linejoin: round; stroke-linecap: butt}</style>
 </defs>
 <g id="figure_1">
  <g id="patch_1">
   <path d="M 0 507.299375 
L 602.311875 507.299375 
L 602.311875 0 
L 0 0 
z
" style="fill: #ffffff"/>
  </g>
  <g id="axes_1">
   <g id="patch_2">
    <path d="M 92.911875 442.08 
L 595.111875 442.08 
L 595.111875 7.2 
L 92.911875 7.2 
z
" style="fill: #ffffff"/>
   </g>
   <g id="matplotlib.axis_1">
    <g id="xtick_1">
     <g id="text_1">
      <!-- 200 -->
      <g style="fill: #262626" transform="translate(123.42618 468.296563)scale(0.22 -0.22)">
       <defs>
        <path id="DejaVuSans-32" d="M 1228 531 
L 3431 531 
L 3431 0 
L 469 0 
L 469 531 
Q 828 903 1448 1529 
Q 2069 2156 2228 2338 
Q 2531 2678 2651 2914 
Q 2772 3150 2772 3378 
Q 2772 3750 2511 3984 
Q 2250 4219 1831 4219 
Q 1534 4219 1204 4116 
Q 875 4013 500 3803 
L 500 4441 
Q 881 4594 1212 4672 
Q 1544 4750 1819 4750 
Q 2544 4750 2975 4387 
Q 3406 4025 3406 3419 
Q 3406 3131 3298 2873 
Q 3191 2616 2906 2266 
Q 2828 2175 2409 1742 
Q 1991 1309 1228 531 
z
" transform="scale(0.015625)"/>
        <path id="DejaVuSans-30" d="M 2034 4250 
Q 1547 4250 1301 3770 
Q 1056 3291 1056 2328 
Q 1056 1369 1301 889 
Q 1547 409 2034 409 
Q 2525 409 2770 889 
Q 3016 1369 3016 2328 
Q 3016 3291 2770 3770 
Q 2525 4250 2034 4250 
z
M 2034 4750 
Q 2819 4750 3233 4129 
Q 3647 3509 3647 2328 
Q 3647 1150 3233 529 
Q 2819 -91 2034 -91 
Q 1250 -91 836 529 
Q 422 1150 422 2328 
Q 422 3509 836 4129 
Q 1250 4750 2034 4750 
z
" transform="scale(0.015625)"/>
       </defs>
       <use xlink:href="#DejaVuSans-32"/>
       <use xlink:href="#DejaVuSans-30" x="63.623047"/>
       <use xlink:href="#DejaVuSans-30" x="127.246094"/>
      </g>
     </g>
    </g>
    <g id="xtick_2">
     <g id="text_2">
      <!-- 400 -->
      <g style="fill: #262626" transform="translate(216.730889 468.296563)scale(0.22 -0.22)">
       <defs>
        <path id="DejaVuSans-34" d="M 2419 4116 
L 825 1625 
L 2419 1625 
L 2419 4116 
z
M 2253 4666 
L 3047 4666 
L 3047 1625 
L 3713 1625 
L 3713 1100 
L 3047 1100 
L 3047 0 
L 2419 0 
L 2419 1100 
L 313 1100 
L 313 1709 
L 2253 4666 
z
" transform="scale(0.015625)"/>
       </defs>
       <use xlink:href="#DejaVuSans-34"/>
       <use xlink:href="#DejaVuSans-30" x="63.623047"/>
       <use xlink:href="#DejaVuSans-30" x="127.246094"/>
      </g>
     </g>
    </g>
    <g id="xtick_3">
     <g id="text_3">
      <!-- 600 -->
      <g style="fill: #262626" transform="translate(310.035598 468.296563)scale(0.22 -0.22)">
       <defs>
        <path id="DejaVuSans-36" d="M 2113 2584 
Q 1688 2584 1439 2293 
Q 1191 2003 1191 1497 
Q 1191 994 1439 701 
Q 1688 409 2113 409 
Q 2538 409 2786 701 
Q 3034 994 3034 1497 
Q 3034 2003 2786 2293 
Q 2538 2584 2113 2584 
z
M 3366 4563 
L 3366 3988 
Q 3128 4100 2886 4159 
Q 2644 4219 2406 4219 
Q 1781 4219 1451 3797 
Q 1122 3375 1075 2522 
Q 1259 2794 1537 2939 
Q 1816 3084 2150 3084 
Q 2853 3084 3261 2657 
Q 3669 2231 3669 1497 
Q 3669 778 3244 343 
Q 2819 -91 2113 -91 
Q 1303 -91 875 529 
Q 447 1150 447 2328 
Q 447 3434 972 4092 
Q 1497 4750 2381 4750 
Q 2619 4750 2861 4703 
Q 3103 4656 3366 4563 
z
" transform="scale(0.015625)"/>
       </defs>
       <use xlink:href="#DejaVuSans-36"/>
       <use xlink:href="#DejaVuSans-30" x="63.623047"/>
       <use xlink:href="#DejaVuSans-30" x="127.246094"/>
      </g>
     </g>
    </g>
    <g id="xtick_4">
     <g id="text_4">
      <!-- 800 -->
      <g style="fill: #262626" transform="translate(403.340307 468.296563)scale(0.22 -0.22)">
       <defs>
        <path id="DejaVuSans-38" d="M 2034 2216 
Q 1584 2216 1326 1975 
Q 1069 1734 1069 1313 
Q 1069 891 1326 650 
Q 1584 409 2034 409 
Q 2484 409 2743 651 
Q 3003 894 3003 1313 
Q 3003 1734 2745 1975 
Q 2488 2216 2034 2216 
z
M 1403 2484 
Q 997 2584 770 2862 
Q 544 3141 544 3541 
Q 544 4100 942 4425 
Q 1341 4750 2034 4750 
Q 2731 4750 3128 4425 
Q 3525 4100 3525 3541 
Q 3525 3141 3298 2862 
Q 3072 2584 2669 2484 
Q 3125 2378 3379 2068 
Q 3634 1759 3634 1313 
Q 3634 634 3220 271 
Q 2806 -91 2034 -91 
Q 1263 -91 848 271 
Q 434 634 434 1313 
Q 434 1759 690 2068 
Q 947 2378 1403 2484 
z
M 1172 3481 
Q 1172 3119 1398 2916 
Q 1625 2713 2034 2713 
Q 2441 2713 2670 2916 
Q 2900 3119 2900 3481 
Q 2900 3844 2670 4047 
Q 2441 4250 2034 4250 
Q 1625 4250 1398 4047 
Q 1172 3844 1172 3481 
z
" transform="scale(0.015625)"/>
       </defs>
       <use xlink:href="#DejaVuSans-38"/>
       <use xlink:href="#DejaVuSans-30" x="63.623047"/>
       <use xlink:href="#DejaVuSans-30" x="127.246094"/>
      </g>
     </g>
    </g>
    <g id="xtick_5">
     <g id="text_5">
      <!-- 1000 -->
      <g style="fill: #262626" transform="translate(489.646267 468.296563)scale(0.22 -0.22)">
       <defs>
        <path id="DejaVuSans-31" d="M 794 531 
L 1825 531 
L 1825 4091 
L 703 3866 
L 703 4441 
L 1819 4666 
L 2450 4666 
L 2450 531 
L 3481 531 
L 3481 0 
L 794 0 
L 794 531 
z
" transform="scale(0.015625)"/>
       </defs>
       <use xlink:href="#DejaVuSans-31"/>
       <use xlink:href="#DejaVuSans-30" x="63.623047"/>
       <use xlink:href="#DejaVuSans-30" x="127.246094"/>
       <use xlink:href="#DejaVuSans-30" x="190.869141"/>
      </g>
     </g>
    </g>
    <g id="text_6">
     <!-- Variation score -->
     <g style="fill: #262626" transform="translate(254.720625 495.108125)scale(0.24 -0.24)">
      <defs>
       <path id="DejaVuSans-56" d="M 1831 0 
L 50 4666 
L 709 4666 
L 2188 738 
L 3669 4666 
L 4325 4666 
L 2547 0 
L 1831 0 
z
" transform="scale(0.015625)"/>
       <path id="DejaVuSans-61" d="M 2194 1759 
Q 1497 1759 1228 1600 
Q 959 1441 959 1056 
Q 959 750 1161 570 
Q 1363 391 1709 391 
Q 2188 391 2477 730 
Q 2766 1069 2766 1631 
L 2766 1759 
L 2194 1759 
z
M 3341 1997 
L 3341 0 
L 2766 0 
L 2766 531 
Q 2569 213 2275 61 
Q 1981 -91 1556 -91 
Q 1019 -91 701 211 
Q 384 513 384 1019 
Q 384 1609 779 1909 
Q 1175 2209 1959 2209 
L 2766 2209 
L 2766 2266 
Q 2766 2663 2505 2880 
Q 2244 3097 1772 3097 
Q 1472 3097 1187 3025 
Q 903 2953 641 2809 
L 641 3341 
Q 956 3463 1253 3523 
Q 1550 3584 1831 3584 
Q 2591 3584 2966 3190 
Q 3341 2797 3341 1997 
z
" transform="scale(0.015625)"/>
       <path id="DejaVuSans-72" d="M 2631 2963 
Q 2534 3019 2420 3045 
Q 2306 3072 2169 3072 
Q 1681 3072 1420 2755 
Q 1159 2438 1159 1844 
L 1159 0 
L 581 0 
L 581 3500 
L 1159 3500 
L 1159 2956 
Q 1341 3275 1631 3429 
Q 1922 3584 2338 3584 
Q 2397 3584 2469 3576 
Q 2541 3569 2628 3553 
L 2631 2963 
z
" transform="scale(0.015625)"/>
       <path id="DejaVuSans-69" d="M 603 3500 
L 1178 3500 
L 1178 0 
L 603 0 
L 603 3500 
z
M 603 4863 
L 1178 4863 
L 1178 4134 
L 603 4134 
L 603 4863 
z
" transform="scale(0.015625)"/>
       <path id="DejaVuSans-74" d="M 1172 4494 
L 1172 3500 
L 2356 3500 
L 2356 3053 
L 1172 3053 
L 1172 1153 
Q 1172 725 1289 603 
Q 1406 481 1766 481 
L 2356 481 
L 2356 0 
L 1766 0 
Q 1100 0 847 248 
Q 594 497 594 1153 
L 594 3053 
L 172 3053 
L 172 3500 
L 594 3500 
L 594 4494 
L 1172 4494 
z
" transform="scale(0.015625)"/>
       <path id="DejaVuSans-6f" d="M 1959 3097 
Q 1497 3097 1228 2736 
Q 959 2375 959 1747 
Q 959 1119 1226 758 
Q 1494 397 1959 397 
Q 2419 397 2687 759 
Q 2956 1122 2956 1747 
Q 2956 2369 2687 2733 
Q 2419 3097 1959 3097 
z
M 1959 3584 
Q 2709 3584 3137 3096 
Q 3566 2609 3566 1747 
Q 3566 888 3137 398 
Q 2709 -91 1959 -91 
Q 1206 -91 779 398 
Q 353 888 353 1747 
Q 353 2609 779 3096 
Q 1206 3584 1959 3584 
z
" transform="scale(0.015625)"/>
       <path id="DejaVuSans-6e" d="M 3513 2113 
L 3513 0 
L 2938 0 
L 2938 2094 
Q 2938 2591 2744 2837 
Q 2550 3084 2163 3084 
Q 1697 3084 1428 2787 
Q 1159 2491 1159 1978 
L 1159 0 
L 581 0 
L 581 3500 
L 1159 3500 
L 1159 2956 
Q 1366 3272 1645 3428 
Q 1925 3584 2291 3584 
Q 2894 3584 3203 3211 
Q 3513 2838 3513 2113 
z
" transform="scale(0.015625)"/>
       <path id="DejaVuSans-20" transform="scale(0.015625)"/>
       <path id="DejaVuSans-73" d="M 2834 3397 
L 2834 2853 
Q 2591 2978 2328 3040 
Q 2066 3103 1784 3103 
Q 1356 3103 1142 2972 
Q 928 2841 928 2578 
Q 928 2378 1081 2264 
Q 1234 2150 1697 2047 
L 1894 2003 
Q 2506 1872 2764 1633 
Q 3022 1394 3022 966 
Q 3022 478 2636 193 
Q 2250 -91 1575 -91 
Q 1294 -91 989 -36 
Q 684 19 347 128 
L 347 722 
Q 666 556 975 473 
Q 1284 391 1588 391 
Q 1994 391 2212 530 
Q 2431 669 2431 922 
Q 2431 1156 2273 1281 
Q 2116 1406 1581 1522 
L 1381 1569 
Q 847 1681 609 1914 
Q 372 2147 372 2553 
Q 372 3047 722 3315 
Q 1072 3584 1716 3584 
Q 2034 3584 2315 3537 
Q 2597 3491 2834 3397 
z
" transform="scale(0.015625)"/>
       <path id="DejaVuSans-63" d="M 3122 3366 
L 3122 2828 
Q 2878 2963 2633 3030 
Q 2388 3097 2138 3097 
Q 1578 3097 1268 2742 
Q 959 2388 959 1747 
Q 959 1106 1268 751 
Q 1578 397 2138 397 
Q 2388 397 2633 464 
Q 2878 531 3122 666 
L 3122 134 
Q 2881 22 2623 -34 
Q 2366 -91 2075 -91 
Q 1284 -91 818 406 
Q 353 903 353 1747 
Q 353 2603 823 3093 
Q 1294 3584 2113 3584 
Q 2378 3584 2631 3529 
Q 2884 3475 3122 3366 
z
" transform="scale(0.015625)"/>
       <path id="DejaVuSans-65" d="M 3597 1894 
L 3597 1613 
L 953 1613 
Q 991 1019 1311 708 
Q 1631 397 2203 397 
Q 2534 397 2845 478 
Q 3156 559 3463 722 
L 3463 178 
Q 3153 47 2828 -22 
Q 2503 -91 2169 -91 
Q 1331 -91 842 396 
Q 353 884 353 1716 
Q 353 2575 817 3079 
Q 1281 3584 2069 3584 
Q 2775 3584 3186 3129 
Q 3597 2675 3597 1894 
z
M 3022 2063 
Q 3016 2534 2758 2815 
Q 2500 3097 2075 3097 
Q 1594 3097 1305 2825 
Q 1016 2553 972 2059 
L 3022 2063 
z
" transform="scale(0.015625)"/>
      </defs>
      <use xlink:href="#DejaVuSans-56"/>
      <use xlink:href="#DejaVuSans-61" x="60.658203"/>
      <use xlink:href="#DejaVuSans-72" x="121.9375"/>
      <use xlink:href="#DejaVuSans-69" x="163.050781"/>
      <use xlink:href="#DejaVuSans-61" x="190.833984"/>
      <use xlink:href="#DejaVuSans-74" x="252.113281"/>
      <use xlink:href="#DejaVuSans-69" x="291.322266"/>
      <use xlink:href="#DejaVuSans-6f" x="319.105469"/>
      <use xlink:href="#DejaVuSans-6e" x="380.287109"/>
      <use xlink:href="#DejaVuSans-20" x="443.666016"/>
      <use xlink:href="#DejaVuSans-73" x="475.453125"/>
      <use xlink:href="#DejaVuSans-63" x="527.552734"/>
      <use xlink:href="#DejaVuSans-6f" x="582.533203"/>
      <use xlink:href="#DejaVuSans-72" x="643.714844"/>
      <use xlink:href="#DejaVuSans-65" x="682.578125"/>
     </g>
    </g>
   </g>
   <g id="matplotlib.axis_2">
    <g id="ytick_1">
     <g id="text_7">
      <!-- 0.45 -->
      <g style="fill: #262626" transform="translate(34.4275 366.566292)scale(0.22 -0.22)">
       <defs>
        <path id="DejaVuSans-2e" d="M 684 794 
L 1344 794 
L 1344 0 
L 684 0 
L 684 794 
z
" transform="scale(0.015625)"/>
        <path id="DejaVuSans-35" d="M 691 4666 
L 3169 4666 
L 3169 4134 
L 1269 4134 
L 1269 2991 
Q 1406 3038 1543 3061 
Q 1681 3084 1819 3084 
Q 2600 3084 3056 2656 
Q 3513 2228 3513 1497 
Q 3513 744 3044 326 
Q 2575 -91 1722 -91 
Q 1428 -91 1123 -41 
Q 819 9 494 109 
L 494 744 
Q 775 591 1075 516 
Q 1375 441 1709 441 
Q 2250 441 2565 725 
Q 2881 1009 2881 1497 
Q 2881 1984 2565 2268 
Q 2250 2553 1709 2553 
Q 1456 2553 1204 2497 
Q 953 2441 691 2322 
L 691 4666 
z
" transform="scale(0.015625)"/>
       </defs>
       <use xlink:href="#DejaVuSans-30"/>
       <use xlink:href="#DejaVuSans-2e" x="63.623047"/>
       <use xlink:href="#DejaVuSans-34" x="95.410156"/>
       <use xlink:href="#DejaVuSans-35" x="159.033203"/>
      </g>
     </g>
    </g>
    <g id="ytick_2">
     <g id="text_8">
      <!-- 0.50 -->
      <g style="fill: #262626" transform="translate(34.4275 276.830675)scale(0.22 -0.22)">
       <use xlink:href="#DejaVuSans-30"/>
       <use xlink:href="#DejaVuSans-2e" x="63.623047"/>
       <use xlink:href="#DejaVuSans-35" x="95.410156"/>
       <use xlink:href="#DejaVuSans-30" x="159.033203"/>
      </g>
     </g>
    </g>
    <g id="ytick_3">
     <g id="text_9">
      <!-- 0.55 -->
      <g style="fill: #262626" transform="translate(34.4275 187.095058)scale(0.22 -0.22)">
       <use xlink:href="#DejaVuSans-30"/>
       <use xlink:href="#DejaVuSans-2e" x="63.623047"/>
       <use xlink:href="#DejaVuSans-35" x="95.410156"/>
       <use xlink:href="#DejaVuSans-35" x="159.033203"/>
      </g>
     </g>
    </g>
    <g id="ytick_4">
     <g id="text_10">
      <!-- 0.60 -->
      <g style="fill: #262626" transform="translate(34.4275 97.35944)scale(0.22 -0.22)">
       <use xlink:href="#DejaVuSans-30"/>
       <use xlink:href="#DejaVuSans-2e" x="63.623047"/>
       <use xlink:href="#DejaVuSans-36" x="95.410156"/>
       <use xlink:href="#DejaVuSans-30" x="159.033203"/>
      </g>
     </g>
    </g>
    <g id="text_11">
     <!-- Pearons R -->
     <g style="fill: #262626" transform="translate(25.43625 284.191875)rotate(-90)scale(0.24 -0.24)">
      <defs>
       <path id="DejaVuSans-50" d="M 1259 4147 
L 1259 2394 
L 2053 2394 
Q 2494 2394 2734 2622 
Q 2975 2850 2975 3272 
Q 2975 3691 2734 3919 
Q 2494 4147 2053 4147 
L 1259 4147 
z
M 628 4666 
L 2053 4666 
Q 2838 4666 3239 4311 
Q 3641 3956 3641 3272 
Q 3641 2581 3239 2228 
Q 2838 1875 2053 1875 
L 1259 1875 
L 1259 0 
L 628 0 
L 628 4666 
z
" transform="scale(0.015625)"/>
       <path id="DejaVuSans-52" d="M 2841 2188 
Q 3044 2119 3236 1894 
Q 3428 1669 3622 1275 
L 4263 0 
L 3584 0 
L 2988 1197 
Q 2756 1666 2539 1819 
Q 2322 1972 1947 1972 
L 1259 1972 
L 1259 0 
L 628 0 
L 628 4666 
L 2053 4666 
Q 2853 4666 3247 4331 
Q 3641 3997 3641 3322 
Q 3641 2881 3436 2590 
Q 3231 2300 2841 2188 
z
M 1259 4147 
L 1259 2491 
L 2053 2491 
Q 2509 2491 2742 2702 
Q 2975 2913 2975 3322 
Q 2975 3731 2742 3939 
Q 2509 4147 2053 4147 
L 1259 4147 
z
" transform="scale(0.015625)"/>
      </defs>
      <use xlink:href="#DejaVuSans-50"/>
      <use xlink:href="#DejaVuSans-65" x="56.677734"/>
      <use xlink:href="#DejaVuSans-61" x="118.201172"/>
      <use xlink:href="#DejaVuSans-72" x="179.480469"/>
      <use xlink:href="#DejaVuSans-6f" x="218.34375"/>
      <use xlink:href="#DejaVuSans-6e" x="279.525391"/>
      <use xlink:href="#DejaVuSans-73" x="342.904297"/>
      <use xlink:href="#DejaVuSans-20" x="395.003906"/>
      <use xlink:href="#DejaVuSans-52" x="426.791016"/>
     </g>
    </g>
   </g>
   <g id="PathCollection_1">
    <defs>
     <path id="C0_0_27452fbfb7" d="M 0 8.660254 
C 2.296726 8.660254 4.499694 7.747755 6.123724 6.123724 
C 7.747755 4.499694 8.660254 2.296726 8.660254 -0 
C 8.660254 -2.296726 7.747755 -4.499694 6.123724 -6.123724 
C 4.499694 -7.747755 2.296726 -8.660254 0 -8.660254 
C -2.296726 -8.660254 -4.499694 -7.747755 -6.123724 -6.123724 
C -7.747755 -4.499694 -8.660254 -2.296726 -8.660254 0 
C -8.660254 2.296726 -7.747755 4.499694 -6.123724 6.123724 
C -4.499694 7.747755 -2.296726 8.660254 0 8.660254 
z
"/>
    </defs>
    <g clip-path="url(#p44c1fb6177)">
     <use xlink:href="#C0_0_27452fbfb7" x="221.052596" y="106.954034" style="fill: #4c72b0; fill-opacity: 0.8; stroke: #ffffff; stroke-opacity: 0.8; stroke-width: 1.385641"/>
    </g>
    <g clip-path="url(#p44c1fb6177)">
     <use xlink:href="#C0_0_27452fbfb7" x="403.416917" y="287.710902" style="fill: #dd8452; fill-opacity: 0.8; stroke: #ffffff; stroke-opacity: 0.8; stroke-width: 1.385641"/>
    </g>
    <g clip-path="url(#p44c1fb6177)">
     <use xlink:href="#C0_0_27452fbfb7" x="209.193717" y="112.26827" style="fill: #4c72b0; fill-opacity: 0.8; stroke: #ffffff; stroke-opacity: 0.8; stroke-width: 1.385641"/>
    </g>
    <g clip-path="url(#p44c1fb6177)">
     <use xlink:href="#C0_0_27452fbfb7" x="238.499392" y="148.198082" style="fill: #55a868; fill-opacity: 0.8; stroke: #ffffff; stroke-opacity: 0.8; stroke-width: 1.385641"/>
    </g>
    <g clip-path="url(#p44c1fb6177)">
     <use xlink:href="#C0_0_27452fbfb7" x="400.182432" y="289.04212" style="fill: #dd8452; fill-opacity: 0.8; stroke: #ffffff; stroke-opacity: 0.8; stroke-width: 1.385641"/>
    </g>
    <g clip-path="url(#p44c1fb6177)">
     <use xlink:href="#C0_0_27452fbfb7" x="246.56714" y="157.801025" style="fill: #55a868; fill-opacity: 0.8; stroke: #ffffff; stroke-opacity: 0.8; stroke-width: 1.385641"/>
    </g>
    <g clip-path="url(#p44c1fb6177)">
     <use xlink:href="#C0_0_27452fbfb7" x="243.952825" y="155.516005" style="fill: #55a868; fill-opacity: 0.8; stroke: #ffffff; stroke-opacity: 0.8; stroke-width: 1.385641"/>
    </g>
    <g clip-path="url(#p44c1fb6177)">
     <use xlink:href="#C0_0_27452fbfb7" x="563.462854" y="421.276356" style="fill: #c44e52; fill-opacity: 0.8; stroke: #ffffff; stroke-opacity: 0.8; stroke-width: 1.385641"/>
    </g>
    <g clip-path="url(#p44c1fb6177)">
     <use xlink:href="#C0_0_27452fbfb7" x="546.732244" y="413.311488" style="fill: #c44e52; fill-opacity: 0.8; stroke: #ffffff; stroke-opacity: 0.8; stroke-width: 1.385641"/>
    </g>
    <g clip-path="url(#p44c1fb6177)">
     <use xlink:href="#C0_0_27452fbfb7" x="213.277891" y="109.019601" style="fill: #4c72b0; fill-opacity: 0.8; stroke: #ffffff; stroke-opacity: 0.8; stroke-width: 1.385641"/>
    </g>
    <g clip-path="url(#p44c1fb6177)">
     <use xlink:href="#C0_0_27452fbfb7" x="572.284602" y="422.312727" style="fill: #c44e52; fill-opacity: 0.8; stroke: #ffffff; stroke-opacity: 0.8; stroke-width: 1.385641"/>
    </g>
    <g clip-path="url(#p44c1fb6177)">
     <use xlink:href="#C0_0_27452fbfb7" x="405.61898" y="297.843979" style="fill: #dd8452; fill-opacity: 0.8; stroke: #ffffff; stroke-opacity: 0.8; stroke-width: 1.385641"/>
    </g>
    <g clip-path="url(#p44c1fb6177)">
     <use xlink:href="#C0_0_27452fbfb7" x="172.805949" y="28.124926" style="fill: #4c72b0; fill-opacity: 0.8; stroke: #ffffff; stroke-opacity: 0.8; stroke-width: 1.385641"/>
    </g>
    <g clip-path="url(#p44c1fb6177)">
     <use xlink:href="#C0_0_27452fbfb7" x="170.419002" y="27.485636" style="fill: #4c72b0; fill-opacity: 0.8; stroke: #ffffff; stroke-opacity: 0.8; stroke-width: 1.385641"/>
    </g>
    <g clip-path="url(#p44c1fb6177)">
     <use xlink:href="#C0_0_27452fbfb7" x="184.079693" y="67.327658" style="fill: #55a868; fill-opacity: 0.8; stroke: #ffffff; stroke-opacity: 0.8; stroke-width: 1.385641"/>
    </g>
    <g clip-path="url(#p44c1fb6177)">
     <use xlink:href="#C0_0_27452fbfb7" x="177.068215" y="70.11747" style="fill: #55a868; fill-opacity: 0.8; stroke: #ffffff; stroke-opacity: 0.8; stroke-width: 1.385641"/>
    </g>
    <g clip-path="url(#p44c1fb6177)">
     <use xlink:href="#C0_0_27452fbfb7" x="182.603982" y="70.957633" style="fill: #55a868; fill-opacity: 0.8; stroke: #ffffff; stroke-opacity: 0.8; stroke-width: 1.385641"/>
    </g>
    <g clip-path="url(#p44c1fb6177)">
     <use xlink:href="#C0_0_27452fbfb7" x="168.059832" y="26.967273" style="fill: #4c72b0; fill-opacity: 0.8; stroke: #ffffff; stroke-opacity: 0.8; stroke-width: 1.385641"/>
    </g>
    <g clip-path="url(#p44c1fb6177)">
     <use xlink:href="#C0_0_27452fbfb7" x="277.707116" y="112.494781" style="fill: #dd8452; fill-opacity: 0.8; stroke: #ffffff; stroke-opacity: 0.8; stroke-width: 1.385641"/>
    </g>
    <g clip-path="url(#p44c1fb6177)">
     <use xlink:href="#C0_0_27452fbfb7" x="276.714501" y="116.724977" style="fill: #dd8452; fill-opacity: 0.8; stroke: #ffffff; stroke-opacity: 0.8; stroke-width: 1.385641"/>
    </g>
    <g clip-path="url(#p44c1fb6177)">
     <use xlink:href="#C0_0_27452fbfb7" x="339.487189" y="215.599572" style="fill: #c44e52; fill-opacity: 0.8; stroke: #ffffff; stroke-opacity: 0.8; stroke-width: 1.385641"/>
    </g>
    <g clip-path="url(#p44c1fb6177)">
     <use xlink:href="#C0_0_27452fbfb7" x="333.794201" y="206.411257" style="fill: #c44e52; fill-opacity: 0.8; stroke: #ffffff; stroke-opacity: 0.8; stroke-width: 1.385641"/>
    </g>
    <g clip-path="url(#p44c1fb6177)">
     <use xlink:href="#C0_0_27452fbfb7" x="340.95188" y="215.164319" style="fill: #c44e52; fill-opacity: 0.8; stroke: #ffffff; stroke-opacity: 0.8; stroke-width: 1.385641"/>
    </g>
    <g clip-path="url(#p44c1fb6177)">
     <use xlink:href="#C0_0_27452fbfb7" x="268.32868" y="109.019975" style="fill: #dd8452; fill-opacity: 0.8; stroke: #ffffff; stroke-opacity: 0.8; stroke-width: 1.385641"/>
    </g>
    <g clip-path="url(#p44c1fb6177)">
     <use xlink:href="#C0_0_27452fbfb7" x="180.09125" y="168.707461" style="fill: #dd8452; fill-opacity: 0.8; stroke: #ffffff; stroke-opacity: 0.8; stroke-width: 1.385641"/>
    </g>
    <g clip-path="url(#p44c1fb6177)">
     <use xlink:href="#C0_0_27452fbfb7" x="156.496183" y="111.690365" style="fill: #4c72b0; fill-opacity: 0.8; stroke: #ffffff; stroke-opacity: 0.8; stroke-width: 1.385641"/>
    </g>
    <g clip-path="url(#p44c1fb6177)">
     <use xlink:href="#C0_0_27452fbfb7" x="159.362217" y="99.264275" style="fill: #4c72b0; fill-opacity: 0.8; stroke: #ffffff; stroke-opacity: 0.8; stroke-width: 1.385641"/>
    </g>
    <g clip-path="url(#p44c1fb6177)">
     <use xlink:href="#C0_0_27452fbfb7" x="186.878123" y="268.266801" style="fill: #c44e52; fill-opacity: 0.8; stroke: #ffffff; stroke-opacity: 0.8; stroke-width: 1.385641"/>
    </g>
    <g clip-path="url(#p44c1fb6177)">
     <use xlink:href="#C0_0_27452fbfb7" x="153.246136" y="108.8284" style="fill: #4c72b0; fill-opacity: 0.8; stroke: #ffffff; stroke-opacity: 0.8; stroke-width: 1.385641"/>
    </g>
    <g clip-path="url(#p44c1fb6177)">
     <use xlink:href="#C0_0_27452fbfb7" x="150.202813" y="201.955344" style="fill: #55a868; fill-opacity: 0.8; stroke: #ffffff; stroke-opacity: 0.8; stroke-width: 1.385641"/>
    </g>
    <g clip-path="url(#p44c1fb6177)">
     <use xlink:href="#C0_0_27452fbfb7" x="186.150319" y="267.239015" style="fill: #c44e52; fill-opacity: 0.8; stroke: #ffffff; stroke-opacity: 0.8; stroke-width: 1.385641"/>
    </g>
    <g clip-path="url(#p44c1fb6177)">
     <use xlink:href="#C0_0_27452fbfb7" x="149.318692" y="192.318481" style="fill: #55a868; fill-opacity: 0.8; stroke: #ffffff; stroke-opacity: 0.8; stroke-width: 1.385641"/>
    </g>
    <g clip-path="url(#p44c1fb6177)">
     <use xlink:href="#C0_0_27452fbfb7" x="152.825848" y="189.768639" style="fill: #55a868; fill-opacity: 0.8; stroke: #ffffff; stroke-opacity: 0.8; stroke-width: 1.385641"/>
    </g>
    <g clip-path="url(#p44c1fb6177)">
     <use xlink:href="#C0_0_27452fbfb7" x="181.048899" y="168.946173" style="fill: #dd8452; fill-opacity: 0.8; stroke: #ffffff; stroke-opacity: 0.8; stroke-width: 1.385641"/>
    </g>
    <g clip-path="url(#p44c1fb6177)">
     <use xlink:href="#C0_0_27452fbfb7" x="183.133363" y="161.975179" style="fill: #dd8452; fill-opacity: 0.8; stroke: #ffffff; stroke-opacity: 0.8; stroke-width: 1.385641"/>
    </g>
    <g clip-path="url(#p44c1fb6177)">
     <use xlink:href="#C0_0_27452fbfb7" x="187.421869" y="257.815691" style="fill: #c44e52; fill-opacity: 0.8; stroke: #ffffff; stroke-opacity: 0.8; stroke-width: 1.385641"/>
    </g>
    <g clip-path="url(#p44c1fb6177)">
     <use xlink:href="#C0_0_27452fbfb7" x="126.148098" y="33.491726" style="fill: #dd8452; fill-opacity: 0.8; stroke: #ffffff; stroke-opacity: 0.8; stroke-width: 1.385641"/>
    </g>
    <g clip-path="url(#p44c1fb6177)">
     <use xlink:href="#C0_0_27452fbfb7" x="121.761919" y="62.700128" style="fill: #4c72b0; fill-opacity: 0.8; stroke: #ffffff; stroke-opacity: 0.8; stroke-width: 1.385641"/>
    </g>
    <g clip-path="url(#p44c1fb6177)">
     <use xlink:href="#C0_0_27452fbfb7" x="122.044484" y="30.461943" style="fill: #dd8452; fill-opacity: 0.8; stroke: #ffffff; stroke-opacity: 0.8; stroke-width: 1.385641"/>
    </g>
    <g clip-path="url(#p44c1fb6177)">
     <use xlink:href="#C0_0_27452fbfb7" x="128.39315" y="37.251461" style="fill: #dd8452; fill-opacity: 0.8; stroke: #ffffff; stroke-opacity: 0.8; stroke-width: 1.385641"/>
    </g>
    <g clip-path="url(#p44c1fb6177)">
     <use xlink:href="#C0_0_27452fbfb7" x="115.739148" y="144.834302" style="fill: #55a868; fill-opacity: 0.8; stroke: #ffffff; stroke-opacity: 0.8; stroke-width: 1.385641"/>
    </g>
    <g clip-path="url(#p44c1fb6177)">
     <use xlink:href="#C0_0_27452fbfb7" x="133.24401" y="151.018408" style="fill: #c44e52; fill-opacity: 0.8; stroke: #ffffff; stroke-opacity: 0.8; stroke-width: 1.385641"/>
    </g>
    <g clip-path="url(#p44c1fb6177)">
     <use xlink:href="#C0_0_27452fbfb7" x="122.484661" y="48.380256" style="fill: #4c72b0; fill-opacity: 0.8; stroke: #ffffff; stroke-opacity: 0.8; stroke-width: 1.385641"/>
    </g>
    <g clip-path="url(#p44c1fb6177)">
     <use xlink:href="#C0_0_27452fbfb7" x="117.353159" y="155.686148" style="fill: #55a868; fill-opacity: 0.8; stroke: #ffffff; stroke-opacity: 0.8; stroke-width: 1.385641"/>
    </g>
    <g clip-path="url(#p44c1fb6177)">
     <use xlink:href="#C0_0_27452fbfb7" x="115.9145" y="149.575631" style="fill: #55a868; fill-opacity: 0.8; stroke: #ffffff; stroke-opacity: 0.8; stroke-width: 1.385641"/>
    </g>
    <g clip-path="url(#p44c1fb6177)">
     <use xlink:href="#C0_0_27452fbfb7" x="127.517515" y="151.776091" style="fill: #c44e52; fill-opacity: 0.8; stroke: #ffffff; stroke-opacity: 0.8; stroke-width: 1.385641"/>
    </g>
    <g clip-path="url(#p44c1fb6177)">
     <use xlink:href="#C0_0_27452fbfb7" x="123.863659" y="37.238382" style="fill: #4c72b0; fill-opacity: 0.8; stroke: #ffffff; stroke-opacity: 0.8; stroke-width: 1.385641"/>
    </g>
    <g clip-path="url(#p44c1fb6177)">
     <use xlink:href="#C0_0_27452fbfb7" x="130.852643" y="143.987197" style="fill: #c44e52; fill-opacity: 0.8; stroke: #ffffff; stroke-opacity: 0.8; stroke-width: 1.385641"/>
    </g>
   </g>
   <g id="PathCollection_2"/>
   <g id="PathCollection_3"/>
   <g id="PathCollection_4"/>
   <g id="PathCollection_5"/>
   <g id="patch_3">
    <path d="M 92.911875 442.08 
L 92.911875 7.2 
" style="fill: none; stroke: #262626; stroke-width: 1.25; stroke-linejoin: miter; stroke-linecap: square"/>
   </g>
   <g id="patch_4">
    <path d="M 92.911875 442.08 
L 595.111875 442.08 
" style="fill: none; stroke: #262626; stroke-width: 1.25; stroke-linejoin: miter; stroke-linecap: square"/>
   </g>
   <g id="legend_1">
    <g id="patch_5">
     <path d="M 397.33875 153.9675 
L 579.711875 153.9675 
Q 584.111875 153.9675 584.111875 149.5675 
L 584.111875 22.6 
Q 584.111875 18.2 579.711875 18.2 
L 397.33875 18.2 
Q 392.93875 18.2 392.93875 22.6 
L 392.93875 149.5675 
Q 392.93875 153.9675 397.33875 153.9675 
z
" style="fill: #ffffff; opacity: 0.8; stroke: #cccccc; stroke-linejoin: miter"/>
    </g>
    <g id="PathCollection_6">
     <defs>
      <path id="mfaea15b8ad" d="M 0 9 
C 2.386828 9 4.676219 8.051703 6.363961 6.363961 
C 8.051703 4.676219 9 2.386828 9 0 
C 9 -2.386828 8.051703 -4.676219 6.363961 -6.363961 
C 4.676219 -8.051703 2.386828 -9 0 -9 
C -2.386828 -9 -4.676219 -8.051703 -6.363961 -6.363961 
C -8.051703 -4.676219 -9 -2.386828 -9 0 
C -9 2.386828 -8.051703 4.676219 -6.363961 6.363961 
C -4.676219 8.051703 -2.386828 9 0 9 
z
" style="stroke: #4c72b0"/>
     </defs>
     <g>
      <use xlink:href="#mfaea15b8ad" x="423.73875" y="37.941563" style="fill: #4c72b0; stroke: #4c72b0"/>
     </g>
    </g>
    <g id="text_12">
     <!-- Shift + RC -->
     <g style="fill: #262626" transform="translate(463.33875 43.716563)scale(0.22 -0.22)">
      <defs>
       <path id="DejaVuSans-53" d="M 3425 4513 
L 3425 3897 
Q 3066 4069 2747 4153 
Q 2428 4238 2131 4238 
Q 1616 4238 1336 4038 
Q 1056 3838 1056 3469 
Q 1056 3159 1242 3001 
Q 1428 2844 1947 2747 
L 2328 2669 
Q 3034 2534 3370 2195 
Q 3706 1856 3706 1288 
Q 3706 609 3251 259 
Q 2797 -91 1919 -91 
Q 1588 -91 1214 -16 
Q 841 59 441 206 
L 441 856 
Q 825 641 1194 531 
Q 1563 422 1919 422 
Q 2459 422 2753 634 
Q 3047 847 3047 1241 
Q 3047 1584 2836 1778 
Q 2625 1972 2144 2069 
L 1759 2144 
Q 1053 2284 737 2584 
Q 422 2884 422 3419 
Q 422 4038 858 4394 
Q 1294 4750 2059 4750 
Q 2388 4750 2728 4690 
Q 3069 4631 3425 4513 
z
" transform="scale(0.015625)"/>
       <path id="DejaVuSans-68" d="M 3513 2113 
L 3513 0 
L 2938 0 
L 2938 2094 
Q 2938 2591 2744 2837 
Q 2550 3084 2163 3084 
Q 1697 3084 1428 2787 
Q 1159 2491 1159 1978 
L 1159 0 
L 581 0 
L 581 4863 
L 1159 4863 
L 1159 2956 
Q 1366 3272 1645 3428 
Q 1925 3584 2291 3584 
Q 2894 3584 3203 3211 
Q 3513 2838 3513 2113 
z
" transform="scale(0.015625)"/>
       <path id="DejaVuSans-66" d="M 2375 4863 
L 2375 4384 
L 1825 4384 
Q 1516 4384 1395 4259 
Q 1275 4134 1275 3809 
L 1275 3500 
L 2222 3500 
L 2222 3053 
L 1275 3053 
L 1275 0 
L 697 0 
L 697 3053 
L 147 3053 
L 147 3500 
L 697 3500 
L 697 3744 
Q 697 4328 969 4595 
Q 1241 4863 1831 4863 
L 2375 4863 
z
" transform="scale(0.015625)"/>
       <path id="DejaVuSans-2b" d="M 2944 4013 
L 2944 2272 
L 4684 2272 
L 4684 1741 
L 2944 1741 
L 2944 0 
L 2419 0 
L 2419 1741 
L 678 1741 
L 678 2272 
L 2419 2272 
L 2419 4013 
L 2944 4013 
z
" transform="scale(0.015625)"/>
       <path id="DejaVuSans-43" d="M 4122 4306 
L 4122 3641 
Q 3803 3938 3442 4084 
Q 3081 4231 2675 4231 
Q 1875 4231 1450 3742 
Q 1025 3253 1025 2328 
Q 1025 1406 1450 917 
Q 1875 428 2675 428 
Q 3081 428 3442 575 
Q 3803 722 4122 1019 
L 4122 359 
Q 3791 134 3420 21 
Q 3050 -91 2638 -91 
Q 1578 -91 968 557 
Q 359 1206 359 2328 
Q 359 3453 968 4101 
Q 1578 4750 2638 4750 
Q 3056 4750 3426 4639 
Q 3797 4528 4122 4306 
z
" transform="scale(0.015625)"/>
      </defs>
      <use xlink:href="#DejaVuSans-53"/>
      <use xlink:href="#DejaVuSans-68" x="63.476562"/>
      <use xlink:href="#DejaVuSans-69" x="126.855469"/>
      <use xlink:href="#DejaVuSans-66" x="154.638672"/>
      <use xlink:href="#DejaVuSans-74" x="188.09375"/>
      <use xlink:href="#DejaVuSans-20" x="227.302734"/>
      <use xlink:href="#DejaVuSans-2b" x="259.089844"/>
      <use xlink:href="#DejaVuSans-20" x="342.878906"/>
      <use xlink:href="#DejaVuSans-52" x="374.666016"/>
      <use xlink:href="#DejaVuSans-43" x="439.148438"/>
     </g>
    </g>
    <g id="PathCollection_7">
     <defs>
      <path id="m735f9b8478" d="M 0 9 
C 2.386828 9 4.676219 8.051703 6.363961 6.363961 
C 8.051703 4.676219 9 2.386828 9 0 
C 9 -2.386828 8.051703 -4.676219 6.363961 -6.363961 
C 4.676219 -8.051703 2.386828 -9 0 -9 
C -2.386828 -9 -4.676219 -8.051703 -6.363961 -6.363961 
C -8.051703 -4.676219 -9 -2.386828 -9 0 
C -9 2.386828 -8.051703 4.676219 -6.363961 6.363961 
C -4.676219 8.051703 -2.386828 9 0 9 
z
" style="stroke: #dd8452"/>
     </defs>
     <g>
      <use xlink:href="#m735f9b8478" x="423.73875" y="70.233438" style="fill: #dd8452; stroke: #dd8452"/>
     </g>
    </g>
    <g id="text_13">
     <!-- RC -->
     <g style="fill: #262626" transform="translate(463.33875 76.008438)scale(0.22 -0.22)">
      <use xlink:href="#DejaVuSans-52"/>
      <use xlink:href="#DejaVuSans-43" x="64.482422"/>
     </g>
    </g>
    <g id="PathCollection_8">
     <defs>
      <path id="mfa29656967" d="M 0 9 
C 2.386828 9 4.676219 8.051703 6.363961 6.363961 
C 8.051703 4.676219 9 2.386828 9 0 
C 9 -2.386828 8.051703 -4.676219 6.363961 -6.363961 
C 4.676219 -8.051703 2.386828 -9 0 -9 
C -2.386828 -9 -4.676219 -8.051703 -6.363961 -6.363961 
C -8.051703 -4.676219 -9 -2.386828 -9 0 
C -9 2.386828 -8.051703 4.676219 -6.363961 6.363961 
C -4.676219 8.051703 -2.386828 9 0 9 
z
" style="stroke: #55a868"/>
     </defs>
     <g>
      <use xlink:href="#mfa29656967" x="423.73875" y="102.525313" style="fill: #55a868; stroke: #55a868"/>
     </g>
    </g>
    <g id="text_14">
     <!-- Shift -->
     <g style="fill: #262626" transform="translate(463.33875 108.300313)scale(0.22 -0.22)">
      <use xlink:href="#DejaVuSans-53"/>
      <use xlink:href="#DejaVuSans-68" x="63.476562"/>
      <use xlink:href="#DejaVuSans-69" x="126.855469"/>
      <use xlink:href="#DejaVuSans-66" x="154.638672"/>
      <use xlink:href="#DejaVuSans-74" x="188.09375"/>
     </g>
    </g>
    <g id="PathCollection_9">
     <defs>
      <path id="me005a41fb9" d="M 0 9 
C 2.386828 9 4.676219 8.051703 6.363961 6.363961 
C 8.051703 4.676219 9 2.386828 9 0 
C 9 -2.386828 8.051703 -4.676219 6.363961 -6.363961 
C 4.676219 -8.051703 2.386828 -9 0 -9 
C -2.386828 -9 -4.676219 -8.051703 -6.363961 -6.363961 
C -8.051703 -4.676219 -9 -2.386828 -9 0 
C -9 2.386828 -8.051703 4.676219 -6.363961 6.363961 
C -4.676219 8.051703 -2.386828 9 0 9 
z
" style="stroke: #c44e52"/>
     </defs>
     <g>
      <use xlink:href="#me005a41fb9" x="423.73875" y="134.817188" style="fill: #c44e52; stroke: #c44e52"/>
     </g>
    </g>
    <g id="text_15">
     <!-- None -->
     <g style="fill: #262626" transform="translate(463.33875 140.592188)scale(0.22 -0.22)">
      <defs>
       <path id="DejaVuSans-4e" d="M 628 4666 
L 1478 4666 
L 3547 763 
L 3547 4666 
L 4159 4666 
L 4159 0 
L 3309 0 
L 1241 3903 
L 1241 0 
L 628 0 
L 628 4666 
z
" transform="scale(0.015625)"/>
      </defs>
      <use xlink:href="#DejaVuSans-4e"/>
      <use xlink:href="#DejaVuSans-6f" x="74.804688"/>
      <use xlink:href="#DejaVuSans-6e" x="135.986328"/>
      <use xlink:href="#DejaVuSans-65" x="199.365234"/>
     </g>
    </g>
   </g>
  </g>
 </g>
 <defs>
  <clipPath id="p44c1fb6177">
   <rect x="92.911875" y="7.2" width="502.2" height="434.88"/>
  </clipPath>
 </defs>
</svg>
