<?xml version="1.0" encoding="utf-8" standalone="no"?>
<!DOCTYPE svg PUBLIC "-//W3C//DTD SVG 1.1//EN"
  "http://www.w3.org/Graphics/SVG/1.1/DTD/svg11.dtd">
<svg xmlns:xlink="http://www.w3.org/1999/xlink" width="1202.114375pt" height="184.529141pt" viewBox="0 0 1202.114375 184.529141" xmlns="http://www.w3.org/2000/svg" version="1.1">
 <metadata>
  <rdf:RDF xmlns:dc="http://purl.org/dc/elements/1.1/" xmlns:cc="http://creativecommons.org/ns#" xmlns:rdf="http://www.w3.org/1999/02/22-rdf-syntax-ns#">
   <cc:Work>
    <dc:type rdf:resource="http://purl.org/dc/dcmitype/StillImage"/>
    <dc:date>2022-02-09T15:41:28.053783</dc:date>
    <dc:format>image/svg+xml</dc:format>
    <dc:creator>
     <cc:Agent>
      <dc:title>Matplotlib v3.5.1, https://matplotlib.org/</dc:title>
     </cc:Agent>
    </dc:creator>
   </cc:Work>
  </rdf:RDF>
 </metadata>
 <defs>
  <style type="text/css">*{stroke-linejoin: round; stroke-linecap: butt}</style>
 </defs>
 <g id="figure_1">
  <g id="patch_1">
   <path d="M 0 184.529141 
L 1202.114375 184.529141 
L 1202.114375 0 
L 0 0 
z
" style="fill: #ffffff"/>
  </g>
  <g id="axes_1">
   <g id="patch_2">
    <path d="M 78.914375 119.309766 
L 1194.914375 119.309766 
L 1194.914375 10.589766 
L 78.914375 10.589766 
z
" style="fill: #ffffff"/>
   </g>
   <g id="matplotlib.axis_1">
    <g id="xtick_1">
     <g id="text_1">
      <!-- 0 -->
      <g style="fill: #262626" transform="translate(122.642898 145.526328)scale(0.22 -0.22)">
       <defs>
        <path id="DejaVuSans-30" d="M 2034 4250 
Q 1547 4250 1301 3770 
Q 1056 3291 1056 2328 
Q 1056 1369 1301 889 
Q 1547 409 2034 409 
Q 2525 409 2770 889 
Q 3016 1369 3016 2328 
Q 3016 3291 2770 3770 
Q 2525 4250 2034 4250 
z
M 2034 4750 
Q 2819 4750 3233 4129 
Q 3647 3509 3647 2328 
Q 3647 1150 3233 529 
Q 2819 -91 2034 -91 
Q 1250 -91 836 529 
Q 422 1150 422 2328 
Q 422 3509 836 4129 
Q 1250 4750 2034 4750 
z
" transform="scale(0.015625)"/>
       </defs>
       <use xlink:href="#DejaVuSans-30"/>
      </g>
     </g>
    </g>
    <g id="xtick_2">
     <g id="text_2">
      <!-- 500 -->
      <g style="fill: #262626" transform="translate(356.458161 145.526328)scale(0.22 -0.22)">
       <defs>
        <path id="DejaVuSans-35" d="M 691 4666 
L 3169 4666 
L 3169 4134 
L 1269 4134 
L 1269 2991 
Q 1406 3038 1543 3061 
Q 1681 3084 1819 3084 
Q 2600 3084 3056 2656 
Q 3513 2228 3513 1497 
Q 3513 744 3044 326 
Q 2575 -91 1722 -91 
Q 1428 -91 1123 -41 
Q 819 9 494 109 
L 494 744 
Q 775 591 1075 516 
Q 1375 441 1709 441 
Q 2250 441 2565 725 
Q 2881 1009 2881 1497 
Q 2881 1984 2565 2268 
Q 2250 2553 1709 2553 
Q 1456 2553 1204 2497 
Q 953 2441 691 2322 
L 691 4666 
z
" transform="scale(0.015625)"/>
       </defs>
       <use xlink:href="#DejaVuSans-35"/>
       <use xlink:href="#DejaVuSans-30" x="63.623047"/>
       <use xlink:href="#DejaVuSans-30" x="127.246094"/>
      </g>
     </g>
    </g>
    <g id="xtick_3">
     <g id="text_3">
      <!-- 1000 -->
      <g style="fill: #262626" transform="translate(597.272175 145.526328)scale(0.22 -0.22)">
       <defs>
        <path id="DejaVuSans-31" d="M 794 531 
L 1825 531 
L 1825 4091 
L 703 3866 
L 703 4441 
L 1819 4666 
L 2450 4666 
L 2450 531 
L 3481 531 
L 3481 0 
L 794 0 
L 794 531 
z
" transform="scale(0.015625)"/>
       </defs>
       <use xlink:href="#DejaVuSans-31"/>
       <use xlink:href="#DejaVuSans-30" x="63.623047"/>
       <use xlink:href="#DejaVuSans-30" x="127.246094"/>
       <use xlink:href="#DejaVuSans-30" x="190.869141"/>
      </g>
     </g>
    </g>
    <g id="xtick_4">
     <g id="text_4">
      <!-- 1500 -->
      <g style="fill: #262626" transform="translate(845.084939 145.526328)scale(0.22 -0.22)">
       <use xlink:href="#DejaVuSans-31"/>
       <use xlink:href="#DejaVuSans-35" x="63.623047"/>
       <use xlink:href="#DejaVuSans-30" x="127.246094"/>
       <use xlink:href="#DejaVuSans-30" x="190.869141"/>
      </g>
     </g>
    </g>
    <g id="xtick_5">
     <g id="text_5">
      <!-- 2000 -->
      <g style="fill: #262626" transform="translate(1092.897702 145.526328)scale(0.22 -0.22)">
       <defs>
        <path id="DejaVuSans-32" d="M 1228 531 
L 3431 531 
L 3431 0 
L 469 0 
L 469 531 
Q 828 903 1448 1529 
Q 2069 2156 2228 2338 
Q 2531 2678 2651 2914 
Q 2772 3150 2772 3378 
Q 2772 3750 2511 3984 
Q 2250 4219 1831 4219 
Q 1534 4219 1204 4116 
Q 875 4013 500 3803 
L 500 4441 
Q 881 4594 1212 4672 
Q 1544 4750 1819 4750 
Q 2544 4750 2975 4387 
Q 3406 4025 3406 3419 
Q 3406 3131 3298 2873 
Q 3191 2616 2906 2266 
Q 2828 2175 2409 1742 
Q 1991 1309 1228 531 
z
" transform="scale(0.015625)"/>
       </defs>
       <use xlink:href="#DejaVuSans-32"/>
       <use xlink:href="#DejaVuSans-30" x="63.623047"/>
       <use xlink:href="#DejaVuSans-30" x="127.246094"/>
       <use xlink:href="#DejaVuSans-30" x="190.869141"/>
      </g>
     </g>
    </g>
    <g id="text_6">
     <!-- Position -->
     <g style="fill: #262626" transform="translate(590.200625 172.337891)scale(0.24 -0.24)">
      <defs>
       <path id="DejaVuSans-50" d="M 1259 4147 
L 1259 2394 
L 2053 2394 
Q 2494 2394 2734 2622 
Q 2975 2850 2975 3272 
Q 2975 3691 2734 3919 
Q 2494 4147 2053 4147 
L 1259 4147 
z
M 628 4666 
L 2053 4666 
Q 2838 4666 3239 4311 
Q 3641 3956 3641 3272 
Q 3641 2581 3239 2228 
Q 2838 1875 2053 1875 
L 1259 1875 
L 1259 0 
L 628 0 
L 628 4666 
z
" transform="scale(0.015625)"/>
       <path id="DejaVuSans-6f" d="M 1959 3097 
Q 1497 3097 1228 2736 
Q 959 2375 959 1747 
Q 959 1119 1226 758 
Q 1494 397 1959 397 
Q 2419 397 2687 759 
Q 2956 1122 2956 1747 
Q 2956 2369 2687 2733 
Q 2419 3097 1959 3097 
z
M 1959 3584 
Q 2709 3584 3137 3096 
Q 3566 2609 3566 1747 
Q 3566 888 3137 398 
Q 2709 -91 1959 -91 
Q 1206 -91 779 398 
Q 353 888 353 1747 
Q 353 2609 779 3096 
Q 1206 3584 1959 3584 
z
" transform="scale(0.015625)"/>
       <path id="DejaVuSans-73" d="M 2834 3397 
L 2834 2853 
Q 2591 2978 2328 3040 
Q 2066 3103 1784 3103 
Q 1356 3103 1142 2972 
Q 928 2841 928 2578 
Q 928 2378 1081 2264 
Q 1234 2150 1697 2047 
L 1894 2003 
Q 2506 1872 2764 1633 
Q 3022 1394 3022 966 
Q 3022 478 2636 193 
Q 2250 -91 1575 -91 
Q 1294 -91 989 -36 
Q 684 19 347 128 
L 347 722 
Q 666 556 975 473 
Q 1284 391 1588 391 
Q 1994 391 2212 530 
Q 2431 669 2431 922 
Q 2431 1156 2273 1281 
Q 2116 1406 1581 1522 
L 1381 1569 
Q 847 1681 609 1914 
Q 372 2147 372 2553 
Q 372 3047 722 3315 
Q 1072 3584 1716 3584 
Q 2034 3584 2315 3537 
Q 2597 3491 2834 3397 
z
" transform="scale(0.015625)"/>
       <path id="DejaVuSans-69" d="M 603 3500 
L 1178 3500 
L 1178 0 
L 603 0 
L 603 3500 
z
M 603 4863 
L 1178 4863 
L 1178 4134 
L 603 4134 
L 603 4863 
z
" transform="scale(0.015625)"/>
       <path id="DejaVuSans-74" d="M 1172 4494 
L 1172 3500 
L 2356 3500 
L 2356 3053 
L 1172 3053 
L 1172 1153 
Q 1172 725 1289 603 
Q 1406 481 1766 481 
L 2356 481 
L 2356 0 
L 1766 0 
Q 1100 0 847 248 
Q 594 497 594 1153 
L 594 3053 
L 172 3053 
L 172 3500 
L 594 3500 
L 594 4494 
L 1172 4494 
z
" transform="scale(0.015625)"/>
       <path id="DejaVuSans-6e" d="M 3513 2113 
L 3513 0 
L 2938 0 
L 2938 2094 
Q 2938 2591 2744 2837 
Q 2550 3084 2163 3084 
Q 1697 3084 1428 2787 
Q 1159 2491 1159 1978 
L 1159 0 
L 581 0 
L 581 3500 
L 1159 3500 
L 1159 2956 
Q 1366 3272 1645 3428 
Q 1925 3584 2291 3584 
Q 2894 3584 3203 3211 
Q 3513 2838 3513 2113 
z
" transform="scale(0.015625)"/>
      </defs>
      <use xlink:href="#DejaVuSans-50"/>
      <use xlink:href="#DejaVuSans-6f" x="56.677734"/>
      <use xlink:href="#DejaVuSans-73" x="117.859375"/>
      <use xlink:href="#DejaVuSans-69" x="169.958984"/>
      <use xlink:href="#DejaVuSans-74" x="197.742188"/>
      <use xlink:href="#DejaVuSans-69" x="236.951172"/>
      <use xlink:href="#DejaVuSans-6f" x="264.734375"/>
      <use xlink:href="#DejaVuSans-6e" x="325.916016"/>
     </g>
    </g>
   </g>
   <g id="matplotlib.axis_2">
    <g id="ytick_1">
     <g id="text_7">
      <!-- 2.5 -->
      <g style="fill: #262626" transform="translate(34.4275 94.626566)scale(0.22 -0.22)">
       <defs>
        <path id="DejaVuSans-2e" d="M 684 794 
L 1344 794 
L 1344 0 
L 684 0 
L 684 794 
z
" transform="scale(0.015625)"/>
       </defs>
       <use xlink:href="#DejaVuSans-32"/>
       <use xlink:href="#DejaVuSans-2e" x="63.623047"/>
       <use xlink:href="#DejaVuSans-35" x="95.410156"/>
      </g>
     </g>
    </g>
    <g id="ytick_2">
     <g id="text_8">
      <!-- 5.0 -->
      <g style="fill: #262626" transform="translate(34.4275 59.271564)scale(0.22 -0.22)">
       <use xlink:href="#DejaVuSans-35"/>
       <use xlink:href="#DejaVuSans-2e" x="63.623047"/>
       <use xlink:href="#DejaVuSans-30" x="95.410156"/>
      </g>
     </g>
    </g>
    <g id="ytick_3">
     <g id="text_9">
      <!-- 7.5 -->
      <g style="fill: #262626" transform="translate(34.4275 23.916562)scale(0.22 -0.22)">
       <defs>
        <path id="DejaVuSans-37" d="M 525 4666 
L 3525 4666 
L 3525 4397 
L 1831 0 
L 1172 0 
L 2766 4134 
L 525 4134 
L 525 4666 
z
" transform="scale(0.015625)"/>
       </defs>
       <use xlink:href="#DejaVuSans-37"/>
       <use xlink:href="#DejaVuSans-2e" x="63.623047"/>
       <use xlink:href="#DejaVuSans-35" x="95.410156"/>
      </g>
     </g>
    </g>
    <g id="text_10">
     <!-- Coverage -->
     <g style="fill: #262626" transform="translate(25.43625 122.446641)rotate(-90)scale(0.24 -0.24)">
      <defs>
       <path id="DejaVuSans-43" d="M 4122 4306 
L 4122 3641 
Q 3803 3938 3442 4084 
Q 3081 4231 2675 4231 
Q 1875 4231 1450 3742 
Q 1025 3253 1025 2328 
Q 1025 1406 1450 917 
Q 1875 428 2675 428 
Q 3081 428 3442 575 
Q 3803 722 4122 1019 
L 4122 359 
Q 3791 134 3420 21 
Q 3050 -91 2638 -91 
Q 1578 -91 968 557 
Q 359 1206 359 2328 
Q 359 3453 968 4101 
Q 1578 4750 2638 4750 
Q 3056 4750 3426 4639 
Q 3797 4528 4122 4306 
z
" transform="scale(0.015625)"/>
       <path id="DejaVuSans-76" d="M 191 3500 
L 800 3500 
L 1894 563 
L 2988 3500 
L 3597 3500 
L 2284 0 
L 1503 0 
L 191 3500 
z
" transform="scale(0.015625)"/>
       <path id="DejaVuSans-65" d="M 3597 1894 
L 3597 1613 
L 953 1613 
Q 991 1019 1311 708 
Q 1631 397 2203 397 
Q 2534 397 2845 478 
Q 3156 559 3463 722 
L 3463 178 
Q 3153 47 2828 -22 
Q 2503 -91 2169 -91 
Q 1331 -91 842 396 
Q 353 884 353 1716 
Q 353 2575 817 3079 
Q 1281 3584 2069 3584 
Q 2775 3584 3186 3129 
Q 3597 2675 3597 1894 
z
M 3022 2063 
Q 3016 2534 2758 2815 
Q 2500 3097 2075 3097 
Q 1594 3097 1305 2825 
Q 1016 2553 972 2059 
L 3022 2063 
z
" transform="scale(0.015625)"/>
       <path id="DejaVuSans-72" d="M 2631 2963 
Q 2534 3019 2420 3045 
Q 2306 3072 2169 3072 
Q 1681 3072 1420 2755 
Q 1159 2438 1159 1844 
L 1159 0 
L 581 0 
L 581 3500 
L 1159 3500 
L 1159 2956 
Q 1341 3275 1631 3429 
Q 1922 3584 2338 3584 
Q 2397 3584 2469 3576 
Q 2541 3569 2628 3553 
L 2631 2963 
z
" transform="scale(0.015625)"/>
       <path id="DejaVuSans-61" d="M 2194 1759 
Q 1497 1759 1228 1600 
Q 959 1441 959 1056 
Q 959 750 1161 570 
Q 1363 391 1709 391 
Q 2188 391 2477 730 
Q 2766 1069 2766 1631 
L 2766 1759 
L 2194 1759 
z
M 3341 1997 
L 3341 0 
L 2766 0 
L 2766 531 
Q 2569 213 2275 61 
Q 1981 -91 1556 -91 
Q 1019 -91 701 211 
Q 384 513 384 1019 
Q 384 1609 779 1909 
Q 1175 2209 1959 2209 
L 2766 2209 
L 2766 2266 
Q 2766 2663 2505 2880 
Q 2244 3097 1772 3097 
Q 1472 3097 1187 3025 
Q 903 2953 641 2809 
L 641 3341 
Q 956 3463 1253 3523 
Q 1550 3584 1831 3584 
Q 2591 3584 2966 3190 
Q 3341 2797 3341 1997 
z
" transform="scale(0.015625)"/>
       <path id="DejaVuSans-67" d="M 2906 1791 
Q 2906 2416 2648 2759 
Q 2391 3103 1925 3103 
Q 1463 3103 1205 2759 
Q 947 2416 947 1791 
Q 947 1169 1205 825 
Q 1463 481 1925 481 
Q 2391 481 2648 825 
Q 2906 1169 2906 1791 
z
M 3481 434 
Q 3481 -459 3084 -895 
Q 2688 -1331 1869 -1331 
Q 1566 -1331 1297 -1286 
Q 1028 -1241 775 -1147 
L 775 -588 
Q 1028 -725 1275 -790 
Q 1522 -856 1778 -856 
Q 2344 -856 2625 -561 
Q 2906 -266 2906 331 
L 2906 616 
Q 2728 306 2450 153 
Q 2172 0 1784 0 
Q 1141 0 747 490 
Q 353 981 353 1791 
Q 353 2603 747 3093 
Q 1141 3584 1784 3584 
Q 2172 3584 2450 3431 
Q 2728 3278 2906 2969 
L 2906 3500 
L 3481 3500 
L 3481 434 
z
" transform="scale(0.015625)"/>
      </defs>
      <use xlink:href="#DejaVuSans-43"/>
      <use xlink:href="#DejaVuSans-6f" x="69.824219"/>
      <use xlink:href="#DejaVuSans-76" x="131.005859"/>
      <use xlink:href="#DejaVuSans-65" x="190.185547"/>
      <use xlink:href="#DejaVuSans-72" x="251.708984"/>
      <use xlink:href="#DejaVuSans-61" x="292.822266"/>
      <use xlink:href="#DejaVuSans-67" x="354.101562"/>
      <use xlink:href="#DejaVuSans-65" x="417.578125"/>
     </g>
    </g>
   </g>
   <g id="line2d_1">
    <path d="M 129.641648 111.975111 
L 160.866056 111.998968 
L 161.361681 111.805668 
L 192.58609 111.713596 
L 193.081715 111.586454 
L 224.306123 111.597071 
L 224.801749 111.284874 
L 240.16614 111.284874 
L 240.661766 110.759433 
L 256.026157 110.759433 
L 256.521783 110.429165 
L 271.886174 110.429165 
L 272.3818 110.045342 
L 287.746191 110.045342 
L 288.241816 109.466675 
L 303.606208 109.466675 
L 304.101833 109.628641 
L 319.466225 109.628641 
L 319.96185 110.560411 
L 335.326242 110.560411 
L 335.821867 110.716942 
L 351.186258 110.716942 
L 351.681884 111.185456 
L 367.046275 111.185456 
L 367.541901 110.314516 
L 382.906292 110.314516 
L 383.401918 106.577189 
L 398.766309 106.577189 
L 399.261935 104.065271 
L 414.626326 104.065271 
L 415.121951 104.575922 
L 430.486343 104.575922 
L 430.981968 103.585329 
L 446.34636 103.585329 
L 446.841985 105.997019 
L 462.206377 105.997019 
L 462.702002 103.01134 
L 478.066393 103.01134 
L 478.562019 94.936914 
L 493.92641 94.936914 
L 494.422036 89.585156 
L 509.786427 89.585156 
L 510.282053 85.991298 
L 525.646444 85.991298 
L 526.14207 80.801348 
L 541.506461 80.801348 
L 542.002087 76.393521 
L 557.366478 76.393521 
L 557.862103 59.512709 
L 573.226495 59.512709 
L 573.72212 37.34036 
L 589.086512 37.34036 
L 589.582137 27.341679 
L 604.946528 27.341679 
L 605.442154 19.02077 
L 620.806545 19.02077 
L 621.302171 15.531584 
L 636.666562 15.531584 
L 637.162188 29.469603 
L 652.526579 29.469603 
L 653.022205 31.774811 
L 668.386596 31.774811 
L 668.882222 39.522467 
L 684.246613 39.522467 
L 684.742238 57.733502 
L 700.10663 57.733502 
L 700.602255 67.710894 
L 715.966647 67.710894 
L 716.462272 77.86044 
L 731.826663 77.86044 
L 732.322289 87.918301 
L 747.68668 87.918301 
L 748.182306 83.260617 
L 763.546697 83.260617 
L 764.042323 78.362555 
L 779.406714 78.362555 
L 779.90234 81.641714 
L 795.266731 81.641714 
L 795.762357 87.522614 
L 811.126748 87.522614 
L 811.622373 98.494031 
L 826.986765 98.494031 
L 827.48239 106.238111 
L 842.846782 106.238111 
L 843.342407 110.248891 
L 858.706799 110.248891 
L 859.202424 112.320551 
L 874.566815 112.320551 
L 875.062441 112.946017 
L 890.426832 112.946017 
L 890.922458 112.626686 
L 922.146866 112.714487 
L 922.642492 113.676763 
L 938.006883 113.676763 
L 938.502508 113.921452 
L 953.8669 113.921452 
L 954.362525 114.367948 
L 969.726917 114.367948 
L 970.222542 113.998721 
L 985.586934 113.998721 
L 986.082559 113.288444 
L 1017.306967 113.269151 
L 1017.802593 112.196585 
L 1033.166984 112.196585 
L 1033.66261 111.475177 
L 1064.887018 111.547078 
L 1065.382643 110.965438 
L 1080.747035 110.965438 
L 1081.24266 110.477841 
L 1096.607052 110.477841 
L 1097.102677 110.888823 
L 1112.467069 110.888823 
L 1112.962694 110.373258 
L 1128.327085 110.373258 
L 1128.822711 111.261443 
L 1144.187102 111.261443 
L 1144.187102 111.261443 
" clip-path="url(#p93e0e80ee6)" style="fill: none; stroke: #000000; stroke-width: 1.5; stroke-linecap: round"/>
   </g>
   <g id="line2d_2">
    <path d="M 129.641648 111.975111 
L 160.866056 111.998967 
L 161.361681 111.805666 
L 192.58609 111.713596 
L 193.081715 111.586454 
L 224.306123 111.597071 
L 224.801749 111.284874 
L 240.16614 111.284874 
L 240.661766 110.759433 
L 256.026157 110.759433 
L 256.521783 110.429165 
L 271.886174 110.429165 
L 272.3818 110.045344 
L 287.746191 110.045344 
L 288.241816 109.466676 
L 303.606208 109.466676 
L 304.101833 109.628642 
L 319.466225 109.628642 
L 319.96185 110.560411 
L 335.326242 110.560411 
L 335.821867 110.716942 
L 351.186258 110.716942 
L 351.681884 111.185456 
L 367.046275 111.185456 
L 367.541901 110.338551 
L 382.906292 110.338551 
L 383.401918 108.456706 
L 398.766309 108.456706 
L 399.261935 107.709153 
L 414.626326 107.709153 
L 415.121951 107.82464 
L 430.486343 107.82464 
L 430.981968 107.575663 
L 446.34636 107.575663 
L 446.841985 109.817652 
L 462.206377 109.817652 
L 462.702002 110.37474 
L 478.066393 110.37474 
L 478.562019 108.619761 
L 493.92641 108.619761 
L 494.422036 105.881801 
L 509.786427 105.881801 
L 510.282053 103.79348 
L 525.646444 103.79348 
L 526.14207 97.990806 
L 541.506461 97.990806 
L 542.002087 94.161431 
L 557.366478 94.161431 
L 557.862103 87.98024 
L 573.226495 87.98024 
L 573.72212 83.833323 
L 589.086512 83.833323 
L 589.582137 80.794898 
L 604.946528 80.794898 
L 605.442154 77.225977 
L 620.806545 77.225977 
L 621.302171 75.417173 
L 636.666562 75.417173 
L 637.162188 80.415566 
L 652.526579 80.415566 
L 653.022205 81.955223 
L 668.386596 81.955223 
L 668.882222 88.08247 
L 684.246613 88.08247 
L 684.742238 95.911862 
L 700.10663 95.911862 
L 700.602255 98.503307 
L 715.966647 98.503307 
L 716.462272 102.095604 
L 731.826663 102.095604 
L 732.322289 104.533199 
L 747.68668 104.533199 
L 748.182306 101.184475 
L 763.546697 101.184475 
L 764.042323 96.598089 
L 779.406714 96.598089 
L 779.90234 94.511867 
L 795.266731 94.511867 
L 795.762357 96.335677 
L 811.126748 96.335677 
L 811.622373 104.067966 
L 826.986765 104.067966 
L 827.48239 108.562779 
L 842.846782 108.562779 
L 843.342407 111.608389 
L 858.706799 111.608389 
L 859.202424 113.248181 
L 874.566815 113.248181 
L 875.062441 113.463331 
L 890.426832 113.463331 
L 890.922458 112.63108 
L 922.146866 112.714488 
L 922.642492 113.676763 
L 938.006883 113.676763 
L 938.502508 113.921453 
L 953.8669 113.921453 
L 954.362525 114.367948 
L 969.726917 114.367948 
L 970.222542 113.998721 
L 985.586934 113.998721 
L 986.082559 113.288444 
L 1017.306967 113.269151 
L 1017.802593 112.196585 
L 1033.166984 112.196585 
L 1033.66261 111.475177 
L 1064.887018 111.547078 
L 1065.382643 110.965438 
L 1080.747035 110.965438 
L 1081.24266 110.477841 
L 1096.607052 110.477841 
L 1097.102677 110.888823 
L 1112.467069 110.888823 
L 1112.962694 110.373258 
L 1128.327085 110.373258 
L 1128.822711 111.261443 
L 1144.187102 111.261443 
L 1144.187102 111.261443 
" clip-path="url(#p93e0e80ee6)" style="fill: none; stroke: #ff0000; stroke-width: 1.5; stroke-linecap: round"/>
   </g>
   <g id="patch_3">
    <path d="M 78.914375 119.309766 
L 78.914375 10.589766 
" style="fill: none; stroke: #262626; stroke-width: 1.25; stroke-linejoin: miter; stroke-linecap: square"/>
   </g>
   <g id="patch_4">
    <path d="M 1194.914375 119.309766 
L 1194.914375 10.589766 
" style="fill: none; stroke: #262626; stroke-width: 1.25; stroke-linejoin: miter; stroke-linecap: square"/>
   </g>
   <g id="patch_5">
    <path d="M 78.914375 119.309766 
L 1194.914375 119.309766 
" style="fill: none; stroke: #262626; stroke-width: 1.25; stroke-linejoin: miter; stroke-linecap: square"/>
   </g>
   <g id="patch_6">
    <path d="M 78.914375 10.589766 
L 1194.914375 10.589766 
" style="fill: none; stroke: #262626; stroke-width: 1.25; stroke-linejoin: miter; stroke-linecap: square"/>
   </g>
   <g id="legend_1">
    <g id="patch_7">
     <path d="M 989.980938 92.773516 
L 1179.514375 92.773516 
Q 1183.914375 92.773516 1183.914375 88.373516 
L 1183.914375 25.989766 
Q 1183.914375 21.589766 1179.514375 21.589766 
L 989.980938 21.589766 
Q 985.580938 21.589766 985.580938 25.989766 
L 985.580938 88.373516 
Q 985.580938 92.773516 989.980938 92.773516 
z
" style="fill: #ffffff; opacity: 0.8; stroke: #cccccc; stroke-linejoin: miter"/>
    </g>
    <g id="line2d_3">
     <path d="M 994.380938 39.406328 
L 1016.380938 39.406328 
L 1038.380938 39.406328 
" style="fill: none; stroke: #000000; stroke-width: 1.5; stroke-linecap: round"/>
    </g>
    <g id="text_11">
     <!-- reference -->
     <g style="fill: #262626" transform="translate(1055.980937 47.106328)scale(0.22 -0.22)">
      <defs>
       <path id="DejaVuSans-66" d="M 2375 4863 
L 2375 4384 
L 1825 4384 
Q 1516 4384 1395 4259 
Q 1275 4134 1275 3809 
L 1275 3500 
L 2222 3500 
L 2222 3053 
L 1275 3053 
L 1275 0 
L 697 0 
L 697 3053 
L 147 3053 
L 147 3500 
L 697 3500 
L 697 3744 
Q 697 4328 969 4595 
Q 1241 4863 1831 4863 
L 2375 4863 
z
" transform="scale(0.015625)"/>
       <path id="DejaVuSans-63" d="M 3122 3366 
L 3122 2828 
Q 2878 2963 2633 3030 
Q 2388 3097 2138 3097 
Q 1578 3097 1268 2742 
Q 959 2388 959 1747 
Q 959 1106 1268 751 
Q 1578 397 2138 397 
Q 2388 397 2633 464 
Q 2878 531 3122 666 
L 3122 134 
Q 2881 22 2623 -34 
Q 2366 -91 2075 -91 
Q 1284 -91 818 406 
Q 353 903 353 1747 
Q 353 2603 823 3093 
Q 1294 3584 2113 3584 
Q 2378 3584 2631 3529 
Q 2884 3475 3122 3366 
z
" transform="scale(0.015625)"/>
      </defs>
      <use xlink:href="#DejaVuSans-72"/>
      <use xlink:href="#DejaVuSans-65" x="38.863281"/>
      <use xlink:href="#DejaVuSans-66" x="100.386719"/>
      <use xlink:href="#DejaVuSans-65" x="135.591797"/>
      <use xlink:href="#DejaVuSans-72" x="197.115234"/>
      <use xlink:href="#DejaVuSans-65" x="235.978516"/>
      <use xlink:href="#DejaVuSans-6e" x="297.501953"/>
      <use xlink:href="#DejaVuSans-63" x="360.880859"/>
      <use xlink:href="#DejaVuSans-65" x="415.861328"/>
     </g>
    </g>
    <g id="line2d_4">
     <path d="M 994.380938 71.698203 
L 1016.380938 71.698203 
L 1038.380938 71.698203 
" style="fill: none; stroke: #ff0000; stroke-width: 1.5; stroke-linecap: round"/>
    </g>
    <g id="text_12">
     <!-- alternative -->
     <g style="fill: #262626" transform="translate(1055.980937 79.398203)scale(0.22 -0.22)">
      <defs>
       <path id="DejaVuSans-6c" d="M 603 4863 
L 1178 4863 
L 1178 0 
L 603 0 
L 603 4863 
z
" transform="scale(0.015625)"/>
      </defs>
      <use xlink:href="#DejaVuSans-61"/>
      <use xlink:href="#DejaVuSans-6c" x="61.279297"/>
      <use xlink:href="#DejaVuSans-74" x="89.0625"/>
      <use xlink:href="#DejaVuSans-65" x="128.271484"/>
      <use xlink:href="#DejaVuSans-72" x="189.794922"/>
      <use xlink:href="#DejaVuSans-6e" x="229.158203"/>
      <use xlink:href="#DejaVuSans-61" x="292.537109"/>
      <use xlink:href="#DejaVuSans-74" x="353.816406"/>
      <use xlink:href="#DejaVuSans-69" x="393.025391"/>
      <use xlink:href="#DejaVuSans-76" x="420.808594"/>
      <use xlink:href="#DejaVuSans-65" x="479.988281"/>
     </g>
    </g>
   </g>
  </g>
 </g>
 <defs>
  <clipPath id="p93e0e80ee6">
   <rect x="78.914375" y="10.589766" width="1116" height="108.72"/>
  </clipPath>
 </defs>
</svg>
